<svg xmlns="http://www.w3.org/2000/svg" width="295" height="269" viewBox="0 0 295 269">
  <g id="_12" data-name="12" transform="translate(-180 -7433)">
    <rect id="Rectangle_293877" data-name="Rectangle 293877" width="295" height="269" transform="translate(180 7433)" fill="none"/>
    <g id="Group_128664" data-name="Group 128664" transform="translate(-401.194 5850.454)">
      <path id="Path_188749" data-name="Path 188749" d="M755.83,1840.546h-1.447c-4.2-.646-8.383-1.346-12.587-1.927q-27.336-3.786-54.681-7.513-27.223-3.728-54.448-7.445c-7.465-1.021-14.928-2.05-22.473-3.087V1612.994l145.781-19.448v20.686h3.079q35.585,0,71.171,0c10.913.006,17.359,6.459,17.36,17.4q.014,85.148-.014,170.3a21.629,21.629,0,0,1-.453,5.019c-1.869,7.753-8.009,12.328-16.52,12.336q-35.827.035-71.654.009H755.83Zm.23-30.359h2.675q35.7,0,71.4,0c5.966,0,8.39-2.369,8.391-8.269q.011-85.249,0-170.5c0-5.651-2.442-8.117-8.038-8.121q-35.939-.022-71.878,0c-.84,0-1.681.124-2.544.191Zm-64.975-80.308c2.391-2.4,4.984-4.309,6.68-6.826,5.192-7.707,5.7-16.251,3.07-24.927-2.5-8.243-7.968-13.785-16.662-15.17-9.113-1.452-17.135.873-22.759,8.7-5.371,7.477-6.154,15.86-4.022,24.59,1.962,8.031,6.82,14,14.887,15.766,7.713,1.689,14.571,5.349,21.96,7.689,1.651.523,3.277,1.125,5.054,1.738,1.107-2.981,2.123-5.716,3.175-8.545Zm-41.44-44.2c-6.68-2.457-13.182-3.106-19.6-.1-9.923,4.643-10.862,17.068-1.809,23.176a46.944,46.944,0,0,0,4.9,2.562c1.923.988,3.929,1.844,5.75,2.992a4.607,4.607,0,0,1,2.059,5.042,4.327,4.327,0,0,1-3.663,3.409,11.489,11.489,0,0,1-4.52.281c-3.171-.593-6.278-1.527-9.484-2.34-.48,2.032-.91,4.156-1.5,6.235-.417,1.478.125,2.194,1.464,2.722a27.982,27.982,0,0,0,16.765,1.522c8.074-1.813,12.421-8.086,11.143-16.18-.839-5.317-4.461-8.336-9-10.513-2.531-1.214-5.14-2.275-7.618-3.585-1.687-.891-3.005-2.237-2.662-4.426.346-2.21,1.912-3.278,3.89-3.779a8.273,8.273,0,0,1,3.1-.257c2.815.4,5.6.969,8.6,1.508Zm71.853,38.314v-41.379H710.043v50.559l32.656.82v-10Z" transform="translate(0)" fill="#084a93"/>
      <path id="Path_188750" data-name="Path 188750" d="M954.079,1854.9c-7.377-.141-15.77-1.149-23.436-5.442-4.386-2.458-7.23-5.818-6.652-11.232.362-3.4.7-6.8.944-10.211.048-.66-.54-1.355-.533-2.031.053-4.7.178-9.39.3-14.085.014-.533.379-1.119.246-1.584-1.531-5.368-.431-10.7-.287-16.1.183-6.863,4.711-8.663,9.4-10.073,14.909-4.481,29.893-4.514,44.687.791a12.876,12.876,0,0,1,4.35,2.5,8.013,8.013,0,0,1,2.66,4.09c.6,3.987,1.215,8.111.8,12.076-.616,5.955.3,11.822.1,17.722a54.375,54.375,0,0,1-.78,5.664,5.1,5.1,0,0,0-.123,1.14c.3,3.406.6,6.813.94,10.215.525,5.189-2.152,8.5-6.348,10.932C973.894,1853,965.354,1854.913,954.079,1854.9Zm29.065-21.847c-18.6,9.343-37.087,9.306-55.793-.053a24.2,24.2,0,0,1-.028,3.7c-.848,5.572,2.01,8.726,6.741,10.831a50.772,50.772,0,0,0,20.885,4.005c8.027.011,15.94-.82,23.051-4.861,2.027-1.152,4.277-3.107,4.936-5.17C983.787,1838.841,983.143,1835.7,983.143,1833.05Zm.006-16.794c-18.6,9.29-37.1,9.312-55.8-.106a29.676,29.676,0,0,1-.03,4.212c-.736,5.191,2,8.089,6.316,10.129,6.687,3.164,13.8,4.179,21.082,4.217,8.1.044,16.114-.763,23.3-4.853,2.025-1.151,4.262-3.121,4.919-5.187C983.791,1822,983.149,1818.864,983.149,1816.256Zm-55.583-16.045c-.644,8.2-1.07,10.41,8.51,14.175a50.055,50.055,0,0,0,13.073,2.959c9.777,1.007,19.428.254,28.43-4.21,5.68-2.818,7.345-7.174,5.475-12.924C964.565,1807.667,946.2,1807.677,927.566,1800.211Z" transform="translate(-162.108 -96.791)" fill="#084a93"/>
      <path id="Path_188751" data-name="Path 188751" d="M752,1812.489c-1.167,3.81-1.756,7.624-3.443,10.866a9.822,9.822,0,0,1-17.563.233,22.007,22.007,0,0,1,.133-22.518c4.1-7.228,13.7-6.994,17.493.417C750.324,1804.807,750.885,1808.709,752,1812.489Z" transform="translate(-60.856 -104.503)" fill="#084a93"/>
    </g>
  </g>
</svg>
