<svg xmlns="http://www.w3.org/2000/svg" width="337.492" height="337.891" viewBox="0 0 337.492 337.891">
  <g id="Grupo_112587" data-name="Grupo 112587" transform="translate(-804.451 -1293.664)">
    <g id="Grupo_112396" data-name="Grupo 112396" transform="translate(1062.578 1293.664)">
      <g id="Grupo_112363" data-name="Grupo 112363" transform="translate(14.386)">
        <g id="Grupo_112362" data-name="Grupo 112362">
          <path id="Trazado_117341" data-name="Trazado 117341" d="M1162.878,1379.414h-40.4a5.1,5.1,0,0,1-5.1-5.1V1298.76a5.1,5.1,0,0,1,5.1-5.1h40.4a5.1,5.1,0,0,1,5.1,5.1v75.558A5.1,5.1,0,0,1,1162.878,1379.414Zm-40.4-83.64a2.989,2.989,0,0,0-2.985,2.986v75.558a2.989,2.989,0,0,0,2.985,2.986h40.4a2.989,2.989,0,0,0,2.986-2.986V1298.76a2.989,2.989,0,0,0-2.986-2.986Z" transform="translate(-1117.384 -1293.664)" fill="#00003e"/>
        </g>
      </g>
      <g id="Grupo_112365" data-name="Grupo 112365" transform="translate(45.756 69.259)">
        <g id="Grupo_112364" data-name="Grupo 112364">
          <path id="Trazado_117342" data-name="Trazado 117342" d="M1157.318,1381.019a3.912,3.912,0,1,1,3.912-3.913A3.916,3.916,0,0,1,1157.318,1381.019Zm0-5.714a1.8,1.8,0,1,0,1.8,1.8A1.8,1.8,0,0,0,1157.318,1375.3Z" transform="translate(-1153.407 -1373.195)" fill="#00003e"/>
        </g>
      </g>
      <g id="Grupo_112372" data-name="Grupo 112372" transform="translate(30.889 11.644)">
        <g id="Grupo_112367" data-name="Grupo 112367">
          <g id="Grupo_112366" data-name="Grupo 112366">
            <path id="Trazado_117343" data-name="Trazado 117343" d="M1139.519,1308.627a1.592,1.592,0,1,1-1.592-1.592A1.592,1.592,0,0,1,1139.519,1308.627Z" transform="translate(-1136.334 -1307.035)" fill="#00003e"/>
          </g>
        </g>
        <g id="Grupo_112369" data-name="Grupo 112369" transform="translate(6.73)">
          <g id="Grupo_112368" data-name="Grupo 112368">
            <path id="Trazado_117344" data-name="Trazado 117344" d="M1147.246,1308.627a1.592,1.592,0,1,1-1.592-1.592A1.591,1.591,0,0,1,1147.246,1308.627Z" transform="translate(-1144.062 -1307.035)" fill="#00003e"/>
          </g>
        </g>
        <g id="Grupo_112371" data-name="Grupo 112371" transform="translate(13.46)">
          <g id="Grupo_112370" data-name="Grupo 112370">
            <path id="Trazado_117345" data-name="Trazado 117345" d="M1154.974,1308.627a1.592,1.592,0,1,1-1.592-1.592A1.592,1.592,0,0,1,1154.974,1308.627Z" transform="translate(-1151.79 -1307.035)" fill="#00003e"/>
          </g>
        </g>
      </g>
      <g id="Grupo_112385" data-name="Grupo 112385" transform="translate(27.944 20.844)">
        <g id="Grupo_112374" data-name="Grupo 112374">
          <g id="Grupo_112373" data-name="Grupo 112373">
            <path id="Trazado_117346" data-name="Trazado 117346" d="M1155.373,1319.709h-21.365a1.055,1.055,0,0,1,0-2.11h21.365a1.055,1.055,0,0,1,0,2.11Z" transform="translate(-1132.953 -1317.599)" fill="#00003e"/>
          </g>
        </g>
        <g id="Grupo_112376" data-name="Grupo 112376" transform="translate(0 8.252)">
          <g id="Grupo_112375" data-name="Grupo 112375">
            <path id="Trazado_117347" data-name="Trazado 117347" d="M1155.373,1329.185h-21.365a1.055,1.055,0,0,1,0-2.11h21.365a1.055,1.055,0,0,1,0,2.11Z" transform="translate(-1132.953 -1327.075)" fill="#00003e"/>
          </g>
        </g>
        <g id="Grupo_112378" data-name="Grupo 112378" transform="translate(0 16.507)">
          <g id="Grupo_112377" data-name="Grupo 112377">
            <path id="Trazado_117348" data-name="Trazado 117348" d="M1155.373,1338.664h-21.365a1.055,1.055,0,0,1,0-2.11h21.365a1.055,1.055,0,0,1,0,2.11Z" transform="translate(-1132.953 -1336.554)" fill="#00003e"/>
          </g>
        </g>
        <g id="Grupo_112380" data-name="Grupo 112380" transform="translate(0 24.759)">
          <g id="Grupo_112379" data-name="Grupo 112379">
            <path id="Trazado_117349" data-name="Trazado 117349" d="M1155.373,1348.14h-21.365a1.055,1.055,0,0,1,0-2.11h21.365a1.055,1.055,0,0,1,0,2.11Z" transform="translate(-1132.953 -1346.03)" fill="#00003e"/>
          </g>
        </g>
        <g id="Grupo_112382" data-name="Grupo 112382" transform="translate(0 33.013)">
          <g id="Grupo_112381" data-name="Grupo 112381">
            <path id="Trazado_117350" data-name="Trazado 117350" d="M1155.373,1357.618h-21.365a1.055,1.055,0,0,1,0-2.11h21.365a1.055,1.055,0,0,1,0,2.11Z" transform="translate(-1132.953 -1355.508)" fill="#00003e"/>
          </g>
        </g>
        <g id="Grupo_112384" data-name="Grupo 112384" transform="translate(0 41.265)">
          <g id="Grupo_112383" data-name="Grupo 112383">
            <path id="Trazado_117351" data-name="Trazado 117351" d="M1155.373,1367.094h-21.365a1.055,1.055,0,0,1,0-2.11h21.365a1.055,1.055,0,0,1,0,2.11Z" transform="translate(-1132.953 -1364.984)" fill="#00003e"/>
          </g>
        </g>
      </g>
      <g id="Grupo_112390" data-name="Grupo 112390" transform="translate(0 10.92)">
        <g id="Grupo_112387" data-name="Grupo 112387">
          <g id="Grupo_112386" data-name="Grupo 112386">
            <path id="Trazado_117352" data-name="Trazado 117352" d="M1115.048,1372.953h-10.436a3.753,3.753,0,0,1-3.748-3.748v-59.252a3.753,3.753,0,0,1,3.748-3.748h10.941a1.055,1.055,0,0,1,0,2.11h-10.941a1.641,1.641,0,0,0-1.638,1.638V1369.2a1.641,1.641,0,0,0,1.638,1.638h10.436a1.055,1.055,0,1,1,0,2.11Z" transform="translate(-1100.864 -1306.204)" fill="#00003e"/>
          </g>
        </g>
        <g id="Grupo_112389" data-name="Grupo 112389" transform="translate(5.782 9.989)">
          <g id="Grupo_112388" data-name="Grupo 112388">
            <path id="Trazado_117353" data-name="Trazado 117353" d="M1110.688,1319.267a1.592,1.592,0,1,1-1.592-1.592A1.592,1.592,0,0,1,1110.688,1319.267Z" transform="translate(-1107.503 -1317.675)" fill="#00003e"/>
          </g>
        </g>
      </g>
      <g id="Grupo_112395" data-name="Grupo 112395" transform="translate(63.619 10.92)">
        <g id="Grupo_112392" data-name="Grupo 112392">
          <g id="Grupo_112391" data-name="Grupo 112391">
            <path id="Trazado_117354" data-name="Trazado 117354" d="M1185.917,1372.953h-10.438a1.055,1.055,0,1,1,0-2.11h10.438a1.641,1.641,0,0,0,1.638-1.638v-59.252a1.641,1.641,0,0,0-1.638-1.638h-10.943a1.055,1.055,0,0,1,0-2.11h10.943a3.753,3.753,0,0,1,3.748,3.748V1369.2A3.753,3.753,0,0,1,1185.917,1372.953Z" transform="translate(-1173.919 -1306.204)" fill="#00003e"/>
          </g>
        </g>
        <g id="Grupo_112394" data-name="Grupo 112394" transform="translate(6.779 9.989)">
          <g id="Grupo_112393" data-name="Grupo 112393">
            <path id="Trazado_117355" data-name="Trazado 117355" d="M1181.7,1319.267a1.592,1.592,0,1,0,1.592-1.592A1.592,1.592,0,0,0,1181.7,1319.267Z" transform="translate(-1181.703 -1317.675)" fill="#00003e"/>
          </g>
        </g>
      </g>
    </g>
    <g id="Grupo_112398" data-name="Grupo 112398" transform="translate(827.231 1319.423)">
      <g id="Grupo_112397" data-name="Grupo 112397" transform="translate(0 0)">
        <rect id="Rectángulo_293433" data-name="Rectángulo 293433" width="220.711" height="220.711" rx="10" transform="translate(0 156.066) rotate(-45)" fill="#ffb30b"/>
      </g>
    </g>
    <g id="Grupo_112452" data-name="Grupo 112452" transform="translate(919.635 1380.419)">
      <g id="Grupo_112405" data-name="Grupo 112405" transform="translate(0 109.155)">
        <g id="Grupo_112401" data-name="Grupo 112401" transform="translate(0 7.151)">
          <g id="Grupo_112400" data-name="Grupo 112400">
            <g id="Grupo_112399" data-name="Grupo 112399">
              <path id="Trazado_117356" data-name="Trazado 117356" d="M1011.118,1576.283c-34.611,0-71.4-5.293-71.4-15.1v-35.339h2.11v35.339c0,6.144,28.457,12.99,69.289,12.99s69.288-6.847,69.288-12.99v-35.339h2.11v35.339C1082.516,1570.99,1045.729,1576.283,1011.118,1576.283Z" transform="translate(-939.719 -1525.843)" fill="#fff" stroke="#fff" stroke-width="2"/>
            </g>
          </g>
        </g>
        <g id="Grupo_112404" data-name="Grupo 112404">
          <g id="Grupo_112403" data-name="Grupo 112403">
            <g id="Grupo_112402" data-name="Grupo 112402">
              <path id="Trazado_117357" data-name="Trazado 117357" d="M1011.118,1539.883c-34.611,0-71.4-5.293-71.4-15.1,0-2.484,2.329-4.765,6.921-6.78l.848,1.932c-3.651,1.6-5.659,3.321-5.659,4.848,0,6.145,28.457,12.991,69.289,12.991s69.288-6.846,69.288-12.991c0-1.646-2.305-3.492-6.49-5.2l.8-1.953c5.18,2.109,7.8,4.516,7.8,7.151C1082.516,1534.59,1045.729,1539.883,1011.118,1539.883Z" transform="translate(-939.719 -1517.631)" fill="#fff" stroke="#fff" stroke-width="2"/>
            </g>
          </g>
        </g>
      </g>
      <g id="Grupo_112412" data-name="Grupo 112412" transform="translate(0 63.594)">
        <g id="Grupo_112408" data-name="Grupo 112408" transform="translate(0 5.755)">
          <g id="Grupo_112407" data-name="Grupo 112407">
            <g id="Grupo_112406" data-name="Grupo 112406">
              <path id="Trazado_117358" data-name="Trazado 117358" d="M1011.118,1522.361c-34.611,0-71.4-5.293-71.4-15.1v-35.339h2.11v35.339c0,6.145,28.457,12.991,69.289,12.991s69.288-6.846,69.288-12.991v-35.339h2.11v35.339C1082.516,1517.068,1045.729,1522.361,1011.118,1522.361Z" transform="translate(-939.719 -1471.921)" fill="#fff" stroke="#fff" stroke-width="2"/>
            </g>
          </g>
        </g>
        <g id="Grupo_112411" data-name="Grupo 112411">
          <g id="Grupo_112410" data-name="Grupo 112410">
            <g id="Grupo_112409" data-name="Grupo 112409">
              <path id="Trazado_117359" data-name="Trazado 117359" d="M1011.118,1486.169c-34.611,0-71.4-5.294-71.4-15.1,0-2.034,1.554-3.932,4.615-5.644l1.03,1.842c-2.314,1.292-3.536,2.606-3.536,3.8,0,6.144,28.457,12.991,69.289,12.991s69.288-6.847,69.288-12.991c0-1.226-1.285-2.576-3.719-3.9l1.009-1.855c3.2,1.743,4.819,3.678,4.819,5.755C1082.516,1480.875,1045.729,1486.169,1011.118,1486.169Z" transform="translate(-939.719 -1465.312)" fill="#fff" stroke="#fff" stroke-width="2"/>
            </g>
          </g>
        </g>
      </g>
      <g id="Grupo_112417" data-name="Grupo 112417" transform="translate(52.585 97.81)">
        <g id="Grupo_112414" data-name="Grupo 112414">
          <g id="Grupo_112413" data-name="Grupo 112413">
            <path id="Trazado_117360" data-name="Trazado 117360" d="M1004.556,1513.508a4.453,4.453,0,1,1,4.453-4.453A4.456,4.456,0,0,1,1004.556,1513.508Zm0-6.8a2.343,2.343,0,1,0,2.343,2.342A2.345,2.345,0,0,0,1004.556,1506.713Z" transform="translate(-1000.103 -1504.603)" fill="#fff" stroke="#fff" stroke-width="2"/>
          </g>
        </g>
        <g id="Grupo_112416" data-name="Grupo 112416" transform="translate(14.362)">
          <g id="Grupo_112415" data-name="Grupo 112415">
            <path id="Trazado_117361" data-name="Trazado 117361" d="M1021.048,1513.508a4.453,4.453,0,1,1,4.453-4.453A4.456,4.456,0,0,1,1021.048,1513.508Zm0-6.8a2.343,2.343,0,1,0,2.343,2.342A2.346,2.346,0,0,0,1021.048,1506.713Z" transform="translate(-1016.595 -1504.603)" fill="#fff" stroke="#fff" stroke-width="2"/>
          </g>
        </g>
      </g>
      <g id="Grupo_112422" data-name="Grupo 112422" transform="translate(66.946 143.521)">
        <g id="Grupo_112419" data-name="Grupo 112419">
          <g id="Grupo_112418" data-name="Grupo 112418">
            <path id="Trazado_117362" data-name="Trazado 117362" d="M1021.048,1566a4.453,4.453,0,1,1,4.453-4.452A4.456,4.456,0,0,1,1021.048,1566Zm0-6.8a2.343,2.343,0,1,0,2.343,2.343A2.346,2.346,0,0,0,1021.048,1559.2Z" transform="translate(-1016.595 -1557.094)" fill="#fff" stroke="#fff" stroke-width="2"/>
          </g>
        </g>
        <g id="Grupo_112421" data-name="Grupo 112421" transform="translate(14.361)">
          <g id="Grupo_112420" data-name="Grupo 112420">
            <path id="Trazado_117363" data-name="Trazado 117363" d="M1037.539,1566a4.453,4.453,0,1,1,4.453-4.452A4.457,4.457,0,0,1,1037.539,1566Zm0-6.8a2.343,2.343,0,1,0,2.343,2.343A2.345,2.345,0,0,0,1037.539,1559.2Z" transform="translate(-1033.086 -1557.094)" fill="#fff" stroke="#fff" stroke-width="2"/>
          </g>
        </g>
      </g>
      <g id="Grupo_112425" data-name="Grupo 112425" transform="translate(0 23.735)">
        <g id="Grupo_112424" data-name="Grupo 112424">
          <g id="Grupo_112423" data-name="Grupo 112423">
            <path id="Trazado_117364" data-name="Trazado 117364" d="M1011.118,1469.981c-34.611,0-71.4-5.293-71.4-15.1v-35.338h2.11v35.338c0,6.145,28.457,12.991,69.289,12.991s69.288-6.846,69.288-12.991v-35.338h2.11v35.338C1082.516,1464.688,1045.729,1469.981,1011.118,1469.981Z" transform="translate(-939.719 -1419.541)" fill="#fff" stroke="#fff" stroke-width="2"/>
          </g>
        </g>
      </g>
      <g id="Grupo_112430" data-name="Grupo 112430" transform="translate(0 11.345)">
        <g id="Grupo_112429" data-name="Grupo 112429">
          <g id="Grupo_112428" data-name="Grupo 112428">
            <g id="Grupo_112427" data-name="Grupo 112427">
              <g id="Grupo_112426" data-name="Grupo 112426">
                <path id="Trazado_117365" data-name="Trazado 117365" d="M1011.118,1432.8c-34.611,0-71.4-5.294-71.4-15.1,0-6.886,18.14-10.643,28.954-12.268l.313,2.086c-20.044,3.016-27.157,7.37-27.157,10.183,0,6.145,28.457,12.991,69.289,12.991s69.288-6.847,69.288-12.991c0-2.866-7.322-7.285-27.96-10.3l.3-2.089c11.116,1.626,29.765,5.394,29.765,12.389C1082.516,1427.511,1045.729,1432.8,1011.118,1432.8Z" transform="translate(-939.719 -1405.314)" fill="#fff" stroke="#fff" stroke-width="2"/>
              </g>
            </g>
          </g>
        </g>
      </g>
      <g id="Grupo_112435" data-name="Grupo 112435" transform="translate(52.585 50.826)">
        <g id="Grupo_112432" data-name="Grupo 112432">
          <g id="Grupo_112431" data-name="Grupo 112431">
            <path id="Trazado_117366" data-name="Trazado 117366" d="M1004.556,1459.555a4.453,4.453,0,1,1,4.453-4.453A4.457,4.457,0,0,1,1004.556,1459.555Zm0-6.8a2.343,2.343,0,1,0,2.343,2.343A2.345,2.345,0,0,0,1004.556,1452.76Z" transform="translate(-1000.103 -1450.65)" fill="#fff" stroke="#fff" stroke-width="2"/>
          </g>
        </g>
        <g id="Grupo_112434" data-name="Grupo 112434" transform="translate(28.723)">
          <g id="Grupo_112433" data-name="Grupo 112433">
            <path id="Trazado_117367" data-name="Trazado 117367" d="M1037.539,1459.555a4.453,4.453,0,1,1,4.453-4.453A4.457,4.457,0,0,1,1037.539,1459.555Zm0-6.8a2.343,2.343,0,1,0,2.343,2.343A2.345,2.345,0,0,0,1037.539,1452.76Z" transform="translate(-1033.086 -1450.65)" fill="#fff" stroke="#fff" stroke-width="2"/>
          </g>
        </g>
      </g>
      <g id="Grupo_112437" data-name="Grupo 112437" transform="translate(20.318 15.175)">
        <g id="Grupo_112436" data-name="Grupo 112436">
          <path id="Trazado_117368" data-name="Trazado 117368" d="M1014.132,1426.629c-25.385,0-51.081-3.633-51.081-10.576,0-2.362,2.714-4.338,8.3-6.04l.614,2.019c-5.015,1.529-6.8,3.078-6.8,4.021,0,3.535,18.631,8.466,48.971,8.466s48.971-4.931,48.971-8.466c0-1.024-2.046-2.7-7.786-4.309l.572-2.032c6.274,1.764,9.324,3.839,9.324,6.341C1065.212,1423,1039.517,1426.629,1014.132,1426.629Z" transform="translate(-963.051 -1409.712)" fill="#fff" stroke="#fff" stroke-width="2"/>
        </g>
      </g>
      <g id="Grupo_112440" data-name="Grupo 112440" transform="translate(28.863 9.561)">
        <g id="Grupo_112439" data-name="Grupo 112439">
          <g id="Grupo_112438" data-name="Grupo 112438">
            <path id="Trazado_117369" data-name="Trazado 117369" d="M1014.523,1425.8c-31.127,0-40.657-4.23-41.046-4.41l-.614-.282v-17.839h2.11V1419.7c2.534.886,13.279,3.983,39.55,3.983,26.545,0,38.485-3.139,41.3-4.016v-16.4h2.11v17.884l-.674.262C1056.8,1421.591,1045.615,1425.8,1014.523,1425.8Z" transform="translate(-972.863 -1403.265)" fill="#fff" stroke="#fff" stroke-width="2"/>
          </g>
        </g>
      </g>
      <g id="Grupo_112445" data-name="Grupo 112445" transform="translate(28.863)">
        <g id="Grupo_112444" data-name="Grupo 112444">
          <g id="Grupo_112443" data-name="Grupo 112443">
            <g id="Grupo_112442" data-name="Grupo 112442">
              <g id="Grupo_112441" data-name="Grupo 112441">
                <path id="Trazado_117370" data-name="Trazado 117370" d="M1015.4,1410.96c-17.1,0-42.536-2.487-42.536-9.336s25.438-9.338,42.536-9.338,42.536,2.487,42.536,9.338S1032.5,1410.96,1015.4,1410.96Zm0-16.564c-25.047,0-40.426,4.21-40.426,7.228s15.379,7.226,40.426,7.226,40.426-4.21,40.426-7.226S1040.446,1394.4,1015.4,1394.4Z" transform="translate(-972.863 -1392.286)" fill="#fff" stroke="#fff" stroke-width="2"/>
              </g>
            </g>
          </g>
        </g>
      </g>
      <g id="Grupo_112447" data-name="Grupo 112447" transform="translate(49.883 140.819)">
        <g id="Grupo_112446" data-name="Grupo 112446">
          <path id="Trazado_117371" data-name="Trazado 117371" d="M1004.155,1568.3a7.154,7.154,0,1,1,7.152-7.154A7.164,7.164,0,0,1,1004.155,1568.3Zm0-12.2a5.044,5.044,0,1,0,5.042,5.044A5.049,5.049,0,0,0,1004.155,1556.1Z" transform="translate(-997.001 -1553.992)" fill="#fff" stroke="#fff" stroke-width="2"/>
        </g>
      </g>
      <g id="Grupo_112449" data-name="Grupo 112449" transform="translate(78.606 95.108)">
        <g id="Grupo_112448" data-name="Grupo 112448">
          <path id="Trazado_117372" data-name="Trazado 117372" d="M1037.138,1515.807a7.153,7.153,0,1,1,7.154-7.152A7.162,7.162,0,0,1,1037.138,1515.807Zm0-12.2a5.043,5.043,0,1,0,5.044,5.044A5.049,5.049,0,0,0,1037.138,1503.611Z" transform="translate(-1029.984 -1501.501)" fill="#fff" stroke="#fff" stroke-width="2"/>
        </g>
      </g>
      <g id="Grupo_112451" data-name="Grupo 112451" transform="translate(64.245 48.124)">
        <g id="Grupo_112450" data-name="Grupo 112450">
          <path id="Trazado_117373" data-name="Trazado 117373" d="M1020.647,1461.854a7.153,7.153,0,1,1,7.151-7.152A7.161,7.161,0,0,1,1020.647,1461.854Zm0-12.2a5.043,5.043,0,1,0,5.041,5.044A5.049,5.049,0,0,0,1020.647,1449.658Z" transform="translate(-1013.493 -1447.548)" fill="#fff" stroke="#fff" stroke-width="2"/>
        </g>
      </g>
    </g>
    <g id="Grupo_112459" data-name="Grupo 112459" transform="translate(1073.242 1516.858)">
      <g id="Grupo_112454" data-name="Grupo 112454" transform="translate(3.873)">
        <g id="Grupo_112453" data-name="Grupo 112453">
          <path id="Trazado_117374" data-name="Trazado 117374" d="M1137.283,1567.345a1.054,1.054,0,0,1-1.055-1.055v-5.938a8.281,8.281,0,0,0-16.562,0v5.938a1.055,1.055,0,1,1-2.11,0v-5.938a10.391,10.391,0,0,1,20.782,0v5.938A1.055,1.055,0,0,1,1137.283,1567.345Z" transform="translate(-1117.557 -1549.963)" fill="#00003e"/>
        </g>
      </g>
      <g id="Grupo_112456" data-name="Grupo 112456" transform="translate(0 15.719)">
        <g id="Grupo_112455" data-name="Grupo 112455">
          <path id="Trazado_117375" data-name="Trazado 117375" d="M1135.942,1593.215h-17.559a5.279,5.279,0,0,1-5.275-5.275v-14.653a5.28,5.28,0,0,1,5.275-5.275h17.559a5.28,5.28,0,0,1,5.275,5.275v14.653A5.279,5.279,0,0,1,1135.942,1593.215Zm-17.559-23.092a3.169,3.169,0,0,0-3.165,3.164v14.653a3.169,3.169,0,0,0,3.165,3.165h17.559a3.168,3.168,0,0,0,3.165-3.165v-14.653a3.168,3.168,0,0,0-3.165-3.164Z" transform="translate(-1113.109 -1568.013)" fill="#00003e"/>
        </g>
      </g>
      <g id="Grupo_112458" data-name="Grupo 112458" transform="translate(10.673 24.939)">
        <g id="Grupo_112457" data-name="Grupo 112457">
          <path id="Trazado_117376" data-name="Trazado 117376" d="M1128.746,1585.364a3.381,3.381,0,1,1,3.381-3.381A3.384,3.384,0,0,1,1128.746,1585.364Zm0-4.653a1.271,1.271,0,1,0,1.271,1.272A1.273,1.273,0,0,0,1128.746,1580.711Z" transform="translate(-1125.365 -1578.601)" fill="#00003e"/>
        </g>
      </g>
    </g>
    <g id="Grupo_112461" data-name="Grupo 112461" transform="translate(836.297 1483.938)">
      <g id="Grupo_112460" data-name="Grupo 112460">
        <path id="Trazado_117377" data-name="Trazado 117377" d="M894.525,1514.27H884.275a1.055,1.055,0,1,1,0-2.11h10.251a1.055,1.055,0,0,1,0,2.11Zm-20.8,0H863.175a1.055,1.055,0,0,1,0-2.11h10.549a1.055,1.055,0,1,1,0,2.11Zm-21.1,0H842.076a1.055,1.055,0,1,1,0-2.11h10.549a1.055,1.055,0,0,1,0,2.11Z" transform="translate(-841.021 -1512.16)" fill="#00003e"/>
      </g>
    </g>
    <g id="Grupo_112468" data-name="Grupo 112468" transform="translate(1006.952 1303.876)">
      <g id="Grupo_112463" data-name="Grupo 112463" transform="translate(18.274 15.55)">
        <g id="Grupo_112462" data-name="Grupo 112462">
          <path id="Trazado_117378" data-name="Trazado 117378" d="M1067.212,1331.071a1.051,1.051,0,0,1-.6-.19l-8.184-5.714a1.055,1.055,0,0,1,1.208-1.73l8.184,5.714a1.055,1.055,0,0,1-.6,1.92Z" transform="translate(-1057.972 -1323.247)" fill="#00003e"/>
        </g>
      </g>
      <g id="Grupo_112465" data-name="Grupo 112465" transform="translate(13.229)">
        <g id="Grupo_112464" data-name="Grupo 112464">
          <path id="Trazado_117379" data-name="Trazado 117379" d="M1053.233,1316.3a1.054,1.054,0,0,1-1.055-1.054v-8.8a1.055,1.055,0,0,1,2.11,0v8.8A1.054,1.054,0,0,1,1053.233,1316.3Z" transform="translate(-1052.178 -1305.391)" fill="#00003e"/>
        </g>
      </g>
      <g id="Grupo_112467" data-name="Grupo 112467" transform="translate(0 15.55)">
        <g id="Grupo_112466" data-name="Grupo 112466">
          <path id="Trazado_117380" data-name="Trazado 117380" d="M1038.042,1331.071a1.055,1.055,0,0,1-.6-1.92l8.184-5.714a1.055,1.055,0,1,1,1.207,1.73l-8.184,5.714A1.048,1.048,0,0,1,1038.042,1331.071Z" transform="translate(-1036.987 -1323.247)" fill="#00003e"/>
        </g>
      </g>
    </g>
    <g id="Grupo_112511" data-name="Grupo 112511" transform="translate(843.365 1361.155)">
      <g id="Grupo_112470" data-name="Grupo 112470" transform="translate(14.73 14.034)">
        <g id="Grupo_112469" data-name="Grupo 112469">
          <path id="Trazado_117381" data-name="Trazado 117381" d="M895.741,1420.781H869.217a3.169,3.169,0,0,1-3.165-3.166v-27.171a3.168,3.168,0,0,1,3.165-3.164h26.524a3.168,3.168,0,0,1,3.166,3.164v27.171A3.169,3.169,0,0,1,895.741,1420.781Zm-26.524-31.391a1.057,1.057,0,0,0-1.055,1.055v27.171a1.057,1.057,0,0,0,1.055,1.056h26.524a1.058,1.058,0,0,0,1.055-1.056v-27.171a1.057,1.057,0,0,0-1.055-1.055Z" transform="translate(-866.052 -1387.28)" fill="#00003e"/>
        </g>
      </g>
      <g id="Grupo_112472" data-name="Grupo 112472" transform="translate(25.927 19.562)">
        <g id="Grupo_112471" data-name="Grupo 112471">
          <path id="Trazado_117382" data-name="Trazado 117382" d="M884.069,1403.948a5.16,5.16,0,1,1,5.161-5.161A5.166,5.166,0,0,1,884.069,1403.948Zm0-8.21a3.051,3.051,0,1,0,3.051,3.05A3.053,3.053,0,0,0,884.069,1395.738Z" transform="translate(-878.909 -1393.628)" fill="#00003e"/>
        </g>
      </g>
      <g id="Grupo_112474" data-name="Grupo 112474" transform="translate(18.925 34.625)">
        <g id="Grupo_112473" data-name="Grupo 112473">
          <path id="Trazado_117383" data-name="Trazado 117383" d="M894.136,1413.036H871.924a1.055,1.055,0,1,1,0-2.11h22.211a1.055,1.055,0,0,1,0,2.11Z" transform="translate(-870.869 -1410.926)" fill="#00003e"/>
        </g>
      </g>
      <g id="Grupo_112476" data-name="Grupo 112476" transform="translate(21.225 39.613)">
        <g id="Grupo_112475" data-name="Grupo 112475">
          <path id="Trazado_117384" data-name="Trazado 117384" d="M892.177,1418.764H874.565a1.055,1.055,0,0,1,0-2.11h17.613a1.055,1.055,0,1,1,0,2.11Z" transform="translate(-873.51 -1416.654)" fill="#00003e"/>
        </g>
      </g>
      <g id="Grupo_112478" data-name="Grupo 112478" transform="translate(6.469 6.469)">
        <g id="Grupo_112477" data-name="Grupo 112477">
          <path id="Trazado_117385" data-name="Trazado 117385" d="M900.666,1427.223H861.841a5.28,5.28,0,0,1-5.275-5.275v-38.079a5.28,5.28,0,0,1,5.275-5.275h38.825a5.279,5.279,0,0,1,5.275,5.275v38.079A5.279,5.279,0,0,1,900.666,1427.223ZM861.841,1380.7a3.169,3.169,0,0,0-3.165,3.165v38.079a3.169,3.169,0,0,0,3.165,3.165h38.825a3.168,3.168,0,0,0,3.165-3.165v-38.079a3.168,3.168,0,0,0-3.165-3.165Z" transform="translate(-856.566 -1378.594)" fill="#00003e"/>
        </g>
      </g>
      <g id="Grupo_112486" data-name="Grupo 112486" transform="translate(9.732)">
        <g id="Grupo_112479" data-name="Grupo 112479">
          <path id="Trazado_117386" data-name="Trazado 117386" d="M861.367,1379.744a1.054,1.054,0,0,1-1.055-1.055v-6.47a1.055,1.055,0,0,1,2.11,0v6.47A1.055,1.055,0,0,1,861.367,1379.744Z" transform="translate(-860.312 -1371.165)" fill="#00003e"/>
        </g>
        <g id="Grupo_112480" data-name="Grupo 112480" transform="translate(6.703)">
          <path id="Trazado_117387" data-name="Trazado 117387" d="M869.064,1379.744a1.054,1.054,0,0,1-1.055-1.055v-6.47a1.055,1.055,0,0,1,2.11,0v6.47A1.055,1.055,0,0,1,869.064,1379.744Z" transform="translate(-868.009 -1371.165)" fill="#00003e"/>
        </g>
        <g id="Grupo_112481" data-name="Grupo 112481" transform="translate(13.405)">
          <path id="Trazado_117388" data-name="Trazado 117388" d="M876.76,1379.744a1.055,1.055,0,0,1-1.055-1.055v-6.47a1.055,1.055,0,0,1,2.11,0v6.47A1.054,1.054,0,0,1,876.76,1379.744Z" transform="translate(-875.705 -1371.165)" fill="#00003e"/>
        </g>
        <g id="Grupo_112482" data-name="Grupo 112482" transform="translate(20.108)">
          <path id="Trazado_117389" data-name="Trazado 117389" d="M884.457,1379.744a1.055,1.055,0,0,1-1.055-1.055v-6.47a1.055,1.055,0,0,1,2.11,0v6.47A1.054,1.054,0,0,1,884.457,1379.744Z" transform="translate(-883.402 -1371.165)" fill="#00003e"/>
        </g>
        <g id="Grupo_112483" data-name="Grupo 112483" transform="translate(26.81)">
          <path id="Trazado_117390" data-name="Trazado 117390" d="M892.154,1379.744a1.054,1.054,0,0,1-1.055-1.055v-6.47a1.055,1.055,0,0,1,2.11,0v6.47A1.055,1.055,0,0,1,892.154,1379.744Z" transform="translate(-891.099 -1371.165)" fill="#00003e"/>
        </g>
        <g id="Grupo_112484" data-name="Grupo 112484" transform="translate(33.511)">
          <path id="Trazado_117391" data-name="Trazado 117391" d="M899.848,1379.744a1.055,1.055,0,0,1-1.055-1.055v-6.47a1.055,1.055,0,0,1,2.11,0v6.47A1.054,1.054,0,0,1,899.848,1379.744Z" transform="translate(-898.793 -1371.165)" fill="#00003e"/>
        </g>
        <g id="Grupo_112485" data-name="Grupo 112485" transform="translate(40.213)">
          <path id="Trazado_117392" data-name="Trazado 117392" d="M907.545,1379.744a1.055,1.055,0,0,1-1.055-1.055v-6.47a1.055,1.055,0,0,1,2.11,0v6.47A1.054,1.054,0,0,1,907.545,1379.744Z" transform="translate(-906.49 -1371.165)" fill="#00003e"/>
        </g>
      </g>
      <g id="Grupo_112494" data-name="Grupo 112494" transform="translate(54.167 9.198)">
        <g id="Grupo_112487" data-name="Grupo 112487">
          <path id="Trazado_117393" data-name="Trazado 117393" d="M918.863,1383.836h-6.469a1.055,1.055,0,1,1,0-2.109h6.469a1.055,1.055,0,1,1,0,2.109Z" transform="translate(-911.338 -1381.727)" fill="#00003e"/>
        </g>
        <g id="Grupo_112488" data-name="Grupo 112488" transform="translate(0 6.702)">
          <path id="Trazado_117394" data-name="Trazado 117394" d="M918.863,1391.533h-6.469a1.055,1.055,0,1,1,0-2.11h6.469a1.055,1.055,0,1,1,0,2.11Z" transform="translate(-911.338 -1389.423)" fill="#00003e"/>
        </g>
        <g id="Grupo_112489" data-name="Grupo 112489" transform="translate(0 13.405)">
          <path id="Trazado_117395" data-name="Trazado 117395" d="M918.863,1399.23h-6.469a1.055,1.055,0,1,1,0-2.11h6.469a1.055,1.055,0,1,1,0,2.11Z" transform="translate(-911.338 -1397.12)" fill="#00003e"/>
        </g>
        <g id="Grupo_112490" data-name="Grupo 112490" transform="translate(0 20.106)">
          <path id="Trazado_117396" data-name="Trazado 117396" d="M918.863,1406.924h-6.469a1.055,1.055,0,1,1,0-2.109h6.469a1.055,1.055,0,1,1,0,2.109Z" transform="translate(-911.338 -1404.815)" fill="#00003e"/>
        </g>
        <g id="Grupo_112491" data-name="Grupo 112491" transform="translate(0 26.808)">
          <path id="Trazado_117397" data-name="Trazado 117397" d="M918.863,1414.621h-6.469a1.055,1.055,0,1,1,0-2.11h6.469a1.055,1.055,0,1,1,0,2.11Z" transform="translate(-911.338 -1412.511)" fill="#00003e"/>
        </g>
        <g id="Grupo_112492" data-name="Grupo 112492" transform="translate(0 33.511)">
          <path id="Trazado_117398" data-name="Trazado 117398" d="M918.863,1422.318h-6.469a1.055,1.055,0,1,1,0-2.11h6.469a1.055,1.055,0,1,1,0,2.11Z" transform="translate(-911.338 -1420.208)" fill="#00003e"/>
        </g>
        <g id="Grupo_112493" data-name="Grupo 112493" transform="translate(0 40.213)">
          <path id="Trazado_117399" data-name="Trazado 117399" d="M918.863,1430.015h-6.469a1.055,1.055,0,1,1,0-2.11h6.469a1.055,1.055,0,1,1,0,2.11Z" transform="translate(-911.338 -1427.905)" fill="#00003e"/>
        </g>
      </g>
      <g id="Grupo_112502" data-name="Grupo 112502" transform="translate(10.809 52.988)">
        <g id="Grupo_112495" data-name="Grupo 112495" transform="translate(40.214)">
          <path id="Trazado_117400" data-name="Trazado 117400" d="M908.783,1440.592a1.055,1.055,0,0,1-1.055-1.056v-6.47a1.055,1.055,0,1,1,2.109,0v6.47A1.054,1.054,0,0,1,908.783,1440.592Z" transform="translate(-907.728 -1432.012)" fill="#00003e"/>
        </g>
        <g id="Grupo_112496" data-name="Grupo 112496" transform="translate(33.512)">
          <path id="Trazado_117401" data-name="Trazado 117401" d="M901.086,1440.592a1.055,1.055,0,0,1-1.055-1.056v-6.47a1.055,1.055,0,1,1,2.11,0v6.47A1.055,1.055,0,0,1,901.086,1440.592Z" transform="translate(-900.031 -1432.012)" fill="#00003e"/>
        </g>
        <g id="Grupo_112497" data-name="Grupo 112497" transform="translate(26.809)">
          <path id="Trazado_117402" data-name="Trazado 117402" d="M893.39,1440.592a1.055,1.055,0,0,1-1.056-1.056v-6.47a1.055,1.055,0,1,1,2.11,0v6.47A1.055,1.055,0,0,1,893.39,1440.592Z" transform="translate(-892.334 -1432.012)" fill="#00003e"/>
        </g>
        <g id="Grupo_112498" data-name="Grupo 112498" transform="translate(20.106)">
          <path id="Trazado_117403" data-name="Trazado 117403" d="M885.692,1440.592a1.055,1.055,0,0,1-1.055-1.056v-6.47a1.055,1.055,0,1,1,2.11,0v6.47A1.055,1.055,0,0,1,885.692,1440.592Z" transform="translate(-884.637 -1432.012)" fill="#00003e"/>
        </g>
        <g id="Grupo_112499" data-name="Grupo 112499" transform="translate(13.406)">
          <path id="Trazado_117404" data-name="Trazado 117404" d="M878,1440.592a1.055,1.055,0,0,1-1.055-1.056v-6.47a1.055,1.055,0,1,1,2.11,0v6.47A1.055,1.055,0,0,1,878,1440.592Z" transform="translate(-876.943 -1432.012)" fill="#00003e"/>
        </g>
        <g id="Grupo_112500" data-name="Grupo 112500" transform="translate(6.703)">
          <path id="Trazado_117405" data-name="Trazado 117405" d="M870.3,1440.592a1.055,1.055,0,0,1-1.055-1.056v-6.47a1.055,1.055,0,1,1,2.11,0v6.47A1.055,1.055,0,0,1,870.3,1440.592Z" transform="translate(-869.246 -1432.012)" fill="#00003e"/>
        </g>
        <g id="Grupo_112501" data-name="Grupo 112501">
          <path id="Trazado_117406" data-name="Trazado 117406" d="M862.6,1440.592a1.055,1.055,0,0,1-1.055-1.056v-6.47a1.055,1.055,0,1,1,2.11,0v6.47A1.055,1.055,0,0,1,862.6,1440.592Z" transform="translate(-861.549 -1432.012)" fill="#00003e"/>
        </g>
      </g>
      <g id="Grupo_112510" data-name="Grupo 112510" transform="translate(0 9.198)">
        <g id="Grupo_112503" data-name="Grupo 112503" transform="translate(0 40.213)">
          <path id="Trazado_117407" data-name="Trazado 117407" d="M856.662,1430.015h-6.47a1.055,1.055,0,0,1,0-2.11h6.47a1.055,1.055,0,0,1,0,2.11Z" transform="translate(-849.137 -1427.905)" fill="#00003e"/>
        </g>
        <g id="Grupo_112504" data-name="Grupo 112504" transform="translate(0 33.511)">
          <path id="Trazado_117408" data-name="Trazado 117408" d="M856.662,1422.318h-6.47a1.055,1.055,0,0,1,0-2.11h6.47a1.055,1.055,0,0,1,0,2.11Z" transform="translate(-849.137 -1420.208)" fill="#00003e"/>
        </g>
        <g id="Grupo_112505" data-name="Grupo 112505" transform="translate(0 26.808)">
          <path id="Trazado_117409" data-name="Trazado 117409" d="M856.662,1414.621h-6.47a1.055,1.055,0,0,1,0-2.11h6.47a1.055,1.055,0,0,1,0,2.11Z" transform="translate(-849.137 -1412.511)" fill="#00003e"/>
        </g>
        <g id="Grupo_112506" data-name="Grupo 112506" transform="translate(0 20.106)">
          <path id="Trazado_117410" data-name="Trazado 117410" d="M856.662,1406.924h-6.47a1.055,1.055,0,0,1,0-2.109h6.47a1.055,1.055,0,0,1,0,2.109Z" transform="translate(-849.137 -1404.815)" fill="#00003e"/>
        </g>
        <g id="Grupo_112507" data-name="Grupo 112507" transform="translate(0 13.405)">
          <path id="Trazado_117411" data-name="Trazado 117411" d="M856.662,1399.23h-6.47a1.055,1.055,0,0,1,0-2.11h6.47a1.055,1.055,0,0,1,0,2.11Z" transform="translate(-849.137 -1397.12)" fill="#00003e"/>
        </g>
        <g id="Grupo_112508" data-name="Grupo 112508" transform="translate(0 6.702)">
          <path id="Trazado_117412" data-name="Trazado 117412" d="M856.662,1391.533h-6.47a1.055,1.055,0,0,1,0-2.11h6.47a1.055,1.055,0,0,1,0,2.11Z" transform="translate(-849.137 -1389.423)" fill="#00003e"/>
        </g>
        <g id="Grupo_112509" data-name="Grupo 112509">
          <path id="Trazado_117413" data-name="Trazado 117413" d="M856.662,1383.836h-6.47a1.055,1.055,0,0,1,0-2.109h6.47a1.055,1.055,0,0,1,0,2.109Z" transform="translate(-849.137 -1381.727)" fill="#00003e"/>
        </g>
      </g>
    </g>
    <g id="Grupo_112513" data-name="Grupo 112513" transform="translate(804.451 1473.858)">
      <g id="Grupo_112512" data-name="Grupo 112512">
        <path id="Trazado_117414" data-name="Trazado 117414" d="M856.76,1502.7H805.506a1.055,1.055,0,1,1,0-2.11H856.76a1.055,1.055,0,0,1,0,2.11Z" transform="translate(-804.451 -1500.585)" fill="#00003e"/>
      </g>
    </g>
    <g id="Grupo_112515" data-name="Grupo 112515" transform="translate(975.601 1340.634)">
      <g id="Grupo_112514" data-name="Grupo 112514">
        <path id="Trazado_117415" data-name="Trazado 117415" d="M1053.293,1349.711h-51.252a1.055,1.055,0,0,1,0-2.11h51.252a1.055,1.055,0,0,1,0,2.11Z" transform="translate(-1000.986 -1347.601)" fill="#00003e"/>
      </g>
    </g>
    <g id="Grupo_112517" data-name="Grupo 112517" transform="translate(1015.401 1351.149)">
      <g id="Grupo_112516" data-name="Grupo 112516">
        <path id="Trazado_117416" data-name="Trazado 117416" d="M1070.648,1361.785h-22.9a1.055,1.055,0,0,1,0-2.11h22.9a1.055,1.055,0,1,1,0,2.11Z" transform="translate(-1046.689 -1359.675)" fill="#00003e"/>
      </g>
    </g>
    <g id="Grupo_112526" data-name="Grupo 112526" transform="translate(831.118 1569.19)">
      <g id="Grupo_112519" data-name="Grupo 112519" transform="translate(0 6.296)">
        <g id="Grupo_112518" data-name="Grupo 112518">
          <path id="Trazado_117417" data-name="Trazado 117417" d="M906.831,1634.4h-68.01a3.752,3.752,0,0,1-3.748-3.746v-9.625a3.864,3.864,0,0,1,.066-.677,3.745,3.745,0,0,1,3.682-3.071h68.01a3.772,3.772,0,0,1,3.679,3.069l0,0a3.864,3.864,0,0,1,.065.677v9.625A3.752,3.752,0,0,1,906.831,1634.4Zm-68.01-15.009a1.634,1.634,0,0,0-1.6,1.342,1.545,1.545,0,0,0-.033.3v9.625a1.639,1.639,0,0,0,1.638,1.636h68.01a1.639,1.639,0,0,0,1.638-1.636v-9.625a1.677,1.677,0,0,0-.65-1.291,1.635,1.635,0,0,0-.988-.347Zm60.73,9.563a3.785,3.785,0,1,1,3.785-3.785A3.788,3.788,0,0,1,899.551,1628.959Zm0-5.46a1.675,1.675,0,1,0,1.675,1.675A1.678,1.678,0,0,0,899.551,1623.5Z" transform="translate(-835.073 -1617.286)" fill="#00003e"/>
        </g>
      </g>
      <g id="Grupo_112521" data-name="Grupo 112521" transform="translate(0.006 0)">
        <g id="Grupo_112520" data-name="Grupo 112520">
          <path id="Trazado_117418" data-name="Trazado 117418" d="M836.178,1620.667a1.1,1.1,0,0,1-.88-.437,1.063,1.063,0,0,1-.171-.949l2.812-8.5a1.055,1.055,0,0,1,2,.664l-2.74,8.278A1.029,1.029,0,0,1,836.178,1620.667Z" transform="translate(-835.08 -1610.057)" fill="#00003e"/>
        </g>
      </g>
      <g id="Grupo_112523" data-name="Grupo 112523" transform="translate(70.982)">
        <g id="Grupo_112522" data-name="Grupo 112522">
          <path id="Trazado_117419" data-name="Trazado 117419" d="M920.052,1620.667a1.059,1.059,0,0,1-1.016-.766l-2.412-8.5a1.056,1.056,0,0,1,2.032-.577l2.412,8.5a1.053,1.053,0,0,1-1.015,1.344Z" transform="translate(-916.583 -1610.056)" fill="#00003e"/>
        </g>
      </g>
      <g id="Grupo_112525" data-name="Grupo 112525" transform="translate(60.693 10.398)">
        <g id="Grupo_112524" data-name="Grupo 112524">
          <path id="Trazado_117420" data-name="Trazado 117420" d="M908.553,1629.567a3.785,3.785,0,1,1,3.786-3.785A3.788,3.788,0,0,1,908.553,1629.567Zm0-5.46a1.675,1.675,0,1,0,1.675,1.675A1.678,1.678,0,0,0,908.553,1624.107Z" transform="translate(-904.768 -1621.997)" fill="#00003e"/>
        </g>
      </g>
    </g>
    <g id="Grupo_112535" data-name="Grupo 112535" transform="translate(831.118 1527.756)">
      <g id="Grupo_112528" data-name="Grupo 112528" transform="translate(0 26.269)">
        <g id="Grupo_112527" data-name="Grupo 112527">
          <path id="Trazado_117421" data-name="Trazado 117421" d="M906.831,1609.76h-68.01a3.753,3.753,0,0,1-3.748-3.748v-9.625a3.868,3.868,0,0,1,.066-.678,3.745,3.745,0,0,1,3.682-3.068h68.01a3.766,3.766,0,0,1,3.679,3.065l0,0a3.868,3.868,0,0,1,.065.678v9.625A3.752,3.752,0,0,1,906.831,1609.76Zm-68.01-15.008a1.632,1.632,0,0,0-1.6,1.339,1.554,1.554,0,0,0-.033.3v9.625a1.641,1.641,0,0,0,1.638,1.638h68.01a1.641,1.641,0,0,0,1.638-1.638v-9.625a1.608,1.608,0,0,0-.033-.3,1.66,1.66,0,0,0-1.6-1.337Zm60.73,9.56a3.785,3.785,0,1,1,3.785-3.785A3.789,3.789,0,0,1,899.551,1604.312Zm0-5.46a1.675,1.675,0,1,0,1.675,1.676A1.679,1.679,0,0,0,899.551,1598.852Z" transform="translate(-835.073 -1592.642)" fill="#00003e"/>
        </g>
      </g>
      <g id="Grupo_112530" data-name="Grupo 112530" transform="translate(0.006)">
        <g id="Grupo_112529" data-name="Grupo 112529">
          <path id="Trazado_117422" data-name="Trazado 117422" d="M909.524,1593.058a1.059,1.059,0,0,1-1.016-.766l-7.522-26.515a1.645,1.645,0,0,0-1.576-1.19H847.5a1.636,1.636,0,0,0-1.555,1.123l-8.741,26.407a1.029,1.029,0,0,1-1.024.941,1.1,1.1,0,0,1-.88-.437,1.063,1.063,0,0,1-.171-.949l8.812-26.626a3.742,3.742,0,0,1,3.558-2.569H899.41a3.765,3.765,0,0,1,3.606,2.724l7.524,26.513a1.053,1.053,0,0,1-1.015,1.344Z" transform="translate(-835.08 -1562.477)" fill="#00003e"/>
        </g>
      </g>
      <g id="Grupo_112532" data-name="Grupo 112532" transform="translate(60.693 30.369)">
        <g id="Grupo_112531" data-name="Grupo 112531">
          <path id="Trazado_117423" data-name="Trazado 117423" d="M908.553,1604.92a3.785,3.785,0,1,1,3.786-3.785A3.789,3.789,0,0,1,908.553,1604.92Zm0-5.46a1.675,1.675,0,1,0,1.675,1.676A1.678,1.678,0,0,0,908.553,1599.46Z" transform="translate(-904.768 -1597.35)" fill="#00003e"/>
        </g>
      </g>
      <g id="Grupo_112534" data-name="Grupo 112534" transform="translate(24.791 8.6)">
        <g id="Grupo_112533" data-name="Grupo 112533">
          <path id="Trazado_117424" data-name="Trazado 117424" d="M878.6,1584.3c-7.486,0-15.062-2.067-15.062-6.018,0-7.9,30.122-7.9,30.122,0C893.663,1582.233,886.087,1584.3,878.6,1584.3Zm0-9.929c-7.905,0-12.952,2.317-12.952,3.911s5.047,3.908,12.952,3.908,12.95-2.316,12.95-3.908S886.509,1574.37,878.6,1574.37Z" transform="translate(-863.541 -1572.353)" fill="#00003e"/>
        </g>
      </g>
    </g>
    <g id="Grupo_112537" data-name="Grupo 112537" transform="translate(906.553 1345.163)">
      <g id="Grupo_112536" data-name="Grupo 112536">
        <path id="Trazado_117425" data-name="Trazado 117425" d="M927.427,1364.262a5.73,5.73,0,1,1,5.73-5.73A5.738,5.738,0,0,1,927.427,1364.262Zm0-9.35a3.62,3.62,0,1,0,3.62,3.62A3.623,3.623,0,0,0,927.427,1354.912Z" transform="translate(-921.697 -1352.802)" fill="#ffb30b"/>
      </g>
    </g>
    <g id="Grupo_112539" data-name="Grupo 112539" transform="translate(1108.283 1519.819)">
      <g id="Grupo_112538" data-name="Grupo 112538">
        <path id="Trazado_117426" data-name="Trazado 117426" d="M1159.076,1564.823a5.73,5.73,0,1,1,5.73-5.73A5.737,5.737,0,0,1,1159.076,1564.823Zm0-9.35a3.62,3.62,0,1,0,3.62,3.62A3.623,3.623,0,0,0,1159.076,1555.473Z" transform="translate(-1153.348 -1553.363)" fill="#ffb30b"/>
      </g>
    </g>
    <g id="Grupo_112546" data-name="Grupo 112546" transform="translate(1080.605 1573.737)">
      <g id="Grupo_112541" data-name="Grupo 112541">
        <g id="Grupo_112540" data-name="Grupo 112540">
          <path id="Trazado_117427" data-name="Trazado 117427" d="M1129.007,1630.165h0a3.135,3.135,0,0,1-2.236-.927l-4.279-4.277a3.171,3.171,0,0,1,0-4.478l4.279-4.277a3.132,3.132,0,0,1,2.236-.927h0a3.145,3.145,0,0,1,2.238.927l4.277,4.277a3.169,3.169,0,0,1,0,4.478l-4.277,4.277A3.148,3.148,0,0,1,1129.007,1630.165Zm0-12.777h0a1.046,1.046,0,0,0-.745.309l-4.279,4.278a1.057,1.057,0,0,0,0,1.494l4.279,4.277a1.048,1.048,0,0,0,.745.309h0a1.049,1.049,0,0,0,.746-.309l4.277-4.277a1.055,1.055,0,0,0,0-1.494l-4.277-4.278A1.047,1.047,0,0,0,1129.007,1617.388Z" transform="translate(-1121.564 -1615.278)" fill="#ffb30b"/>
        </g>
      </g>
      <g id="Grupo_112543" data-name="Grupo 112543" transform="translate(17.965 0)">
        <g id="Grupo_112542" data-name="Grupo 112542">
          <path id="Trazado_117428" data-name="Trazado 117428" d="M1149.635,1630.162a3.151,3.151,0,0,1-2.237-.925l-4.277-4.277a3.171,3.171,0,0,1,0-4.478l4.277-4.277a3.166,3.166,0,0,1,4.477,0l4.277,4.277a3.17,3.17,0,0,1,0,4.478l-4.277,4.277A3.153,3.153,0,0,1,1149.635,1630.162Zm0-12.774a1.05,1.05,0,0,0-.748.309l-4.278,4.278a1.057,1.057,0,0,0,0,1.494l4.278,4.277a1.057,1.057,0,0,0,1.494,0l4.278-4.277a1.057,1.057,0,0,0,0-1.494l-4.278-4.278A1.049,1.049,0,0,0,1149.637,1617.388Z" transform="translate(-1142.194 -1615.278)" fill="#ffb30b"/>
        </g>
      </g>
      <g id="Grupo_112545" data-name="Grupo 112545" transform="translate(35.929 0.023)">
        <g id="Grupo_112544" data-name="Grupo 112544">
          <path id="Trazado_117429" data-name="Trazado 117429" d="M1170.264,1630.188a3.16,3.16,0,0,1-2.238-.925l-4.279-4.279a3.171,3.171,0,0,1,0-4.475l4.279-4.28a3.171,3.171,0,0,1,4.475,0l4.28,4.28a3.168,3.168,0,0,1,0,4.475l-4.28,4.279A3.157,3.157,0,0,1,1170.264,1630.188Zm0-12.777a1.052,1.052,0,0,0-.746.309l-4.28,4.28a1.057,1.057,0,0,0,0,1.491l4.28,4.28a1.055,1.055,0,0,0,1.492,0l4.279-4.28a1.053,1.053,0,0,0,0-1.491l-4.279-4.28A1.055,1.055,0,0,0,1170.264,1617.412Z" transform="translate(-1162.823 -1615.305)" fill="#ffb30b"/>
        </g>
      </g>
    </g>
    <g id="Grupo_112553" data-name="Grupo 112553" transform="translate(856.879 1604.628)">
      <g id="Grupo_112548" data-name="Grupo 112548" transform="translate(14.607 12.432)">
        <g id="Grupo_112547" data-name="Grupo 112547">
          <path id="Trazado_117430" data-name="Trazado 117430" d="M889.026,1671.7a1.057,1.057,0,0,1-.6-.189l-6.542-4.566a1.055,1.055,0,1,1,1.208-1.73l6.542,4.566a1.055,1.055,0,0,1-.6,1.92Z" transform="translate(-881.428 -1665.026)" fill="#00003e"/>
        </g>
      </g>
      <g id="Grupo_112550" data-name="Grupo 112550" transform="translate(10.575)">
        <g id="Grupo_112549" data-name="Grupo 112549">
          <path id="Trazado_117431" data-name="Trazado 117431" d="M877.854,1659.89a1.054,1.054,0,0,1-1.055-1.055v-7.03a1.055,1.055,0,1,1,2.109,0v7.03A1.054,1.054,0,0,1,877.854,1659.89Z" transform="translate(-876.799 -1650.75)" fill="#00003e"/>
        </g>
      </g>
      <g id="Grupo_112552" data-name="Grupo 112552" transform="translate(0 12.432)">
        <g id="Grupo_112551" data-name="Grupo 112551">
          <path id="Trazado_117432" data-name="Trazado 117432" d="M865.711,1671.7a1.055,1.055,0,0,1-.6-1.92l6.542-4.566a1.055,1.055,0,1,1,1.208,1.73l-6.542,4.566A1.057,1.057,0,0,1,865.711,1671.7Z" transform="translate(-864.655 -1665.026)" fill="#00003e"/>
        </g>
      </g>
    </g>
    <g id="Grupo_112555" data-name="Grupo 112555" transform="translate(955.215 1565.314)">
      <g id="Grupo_112554" data-name="Grupo 112554">
        <path id="Trazado_117433" data-name="Trazado 117433" d="M1031.378,1607.715h-10.549a1.055,1.055,0,0,1,0-2.11h10.549a1.055,1.055,0,1,1,0,2.11Zm-21.1,0H999.73a1.055,1.055,0,1,1,0-2.11h10.549a1.055,1.055,0,0,1,0,2.11Zm-21.1,0h-10.55a1.055,1.055,0,0,1,0-2.11h10.55a1.055,1.055,0,0,1,0,2.11Z" transform="translate(-977.576 -1605.605)" fill="#00003e"/>
      </g>
    </g>
    <g id="Grupo_112557" data-name="Grupo 112557" transform="translate(1124.664 1390.009)">
      <g id="Grupo_112556" data-name="Grupo 112556">
        <path id="Trazado_117434" data-name="Trazado 117434" d="M1177.888,1415.757a5.729,5.729,0,1,1,5.73-5.728A5.736,5.736,0,0,1,1177.888,1415.757Zm0-9.348a3.619,3.619,0,1,0,3.62,3.62A3.624,3.624,0,0,0,1177.888,1406.409Z" transform="translate(-1172.158 -1404.299)" fill="#ffb30b"/>
      </g>
    </g>
    <g id="Grupo_112559" data-name="Grupo 112559" transform="translate(1007.22 1557.379)">
      <g id="Grupo_112558" data-name="Grupo 112558">
        <path id="Trazado_117435" data-name="Trazado 117435" d="M1038.35,1614.473a1.055,1.055,0,0,1-.618-1.91l9.412-6.812-9.443-7.37a1.056,1.056,0,0,1,1.3-1.665l10.549,8.234a1.056,1.056,0,0,1-.03,1.688l-10.549,7.635A1.064,1.064,0,0,1,1038.35,1614.473Z" transform="translate(-1037.295 -1596.493)" fill="#00003e"/>
      </g>
    </g>
    <g id="Grupo_112561" data-name="Grupo 112561" transform="translate(894.729 1449.241)">
      <g id="Grupo_112560" data-name="Grupo 112560">
        <path id="Trazado_117436" data-name="Trazado 117436" d="M911.546,1472.316a3.426,3.426,0,1,1-3.427,3.426A3.427,3.427,0,0,1,911.546,1472.316Z" transform="translate(-908.119 -1472.316)" fill="#00003e"/>
      </g>
    </g>
    <g id="Grupo_112563" data-name="Grupo 112563" transform="translate(1082.301 1400.161)">
      <g id="Grupo_112562" data-name="Grupo 112562" transform="translate(0 0)">
        <circle id="Elipse_4750" data-name="Elipse 4750" cx="3.426" cy="3.426" r="3.426" transform="translate(0 6.336) rotate(-67.62)" fill="#00003e"/>
      </g>
    </g>
    <g id="Grupo_112565" data-name="Grupo 112565" transform="translate(949.418 1580.62)">
      <g id="Grupo_112564" data-name="Grupo 112564">
        <circle id="Elipse_4751" data-name="Elipse 4751" cx="3.426" cy="3.426" r="3.426" fill="#00003e"/>
      </g>
    </g>
    <g id="Grupo_112567" data-name="Grupo 112567" transform="translate(1126.967 1436.073)">
      <g id="Grupo_112566" data-name="Grupo 112566">
        <circle id="Elipse_4752" data-name="Elipse 4752" cx="3.426" cy="3.426" r="3.426" fill="#00003e"/>
      </g>
    </g>
    <g id="Grupo_112569" data-name="Grupo 112569" transform="translate(826.727 1449.241)">
      <g id="Grupo_112568" data-name="Grupo 112568">
        <path id="Trazado_117437" data-name="Trazado 117437" d="M833.458,1472.316a3.426,3.426,0,1,1-3.427,3.426A3.427,3.427,0,0,1,833.458,1472.316Z" transform="translate(-830.031 -1472.316)" fill="#00003e"/>
      </g>
    </g>
    <g id="Grupo_112571" data-name="Grupo 112571" transform="translate(928.577 1353.402)">
      <g id="Grupo_112570" data-name="Grupo 112570">
        <circle id="Elipse_4753" data-name="Elipse 4753" cx="3.426" cy="3.426" r="3.426" fill="#00003e"/>
      </g>
    </g>
    <g id="Grupo_112573" data-name="Grupo 112573" transform="translate(1051.014 1597.249)">
      <g id="Grupo_112572" data-name="Grupo 112572">
        <circle id="Elipse_4754" data-name="Elipse 4754" cx="3.426" cy="3.426" r="3.426" fill="#00003e"/>
      </g>
    </g>
    <g id="Grupo_112580" data-name="Grupo 112580" transform="translate(973.752 1586.446)">
      <g id="Grupo_112575" data-name="Grupo 112575" transform="translate(14.607 12.431)">
        <g id="Grupo_112574" data-name="Grupo 112574">
          <path id="Trazado_117438" data-name="Trazado 117438" d="M1023.233,1650.822a1.05,1.05,0,0,1-.6-.19l-6.542-4.566a1.055,1.055,0,1,1,1.207-1.73l6.542,4.565a1.055,1.055,0,0,1-.6,1.92Z" transform="translate(-1015.636 -1644.146)" fill="#00003e"/>
        </g>
      </g>
      <g id="Grupo_112577" data-name="Grupo 112577" transform="translate(10.575)">
        <g id="Grupo_112576" data-name="Grupo 112576">
          <path id="Trazado_117439" data-name="Trazado 117439" d="M1012.061,1639.011a1.054,1.054,0,0,1-1.055-1.055v-7.03a1.055,1.055,0,0,1,2.11,0v7.03A1.054,1.054,0,0,1,1012.061,1639.011Z" transform="translate(-1011.006 -1629.872)" fill="#00003e"/>
        </g>
      </g>
      <g id="Grupo_112579" data-name="Grupo 112579" transform="translate(0 12.431)">
        <g id="Grupo_112578" data-name="Grupo 112578">
          <path id="Trazado_117440" data-name="Trazado 117440" d="M999.918,1650.822a1.055,1.055,0,0,1-.6-1.92l6.542-4.565a1.055,1.055,0,1,1,1.207,1.73l-6.542,4.566A1.05,1.05,0,0,1,999.918,1650.822Z" transform="translate(-998.863 -1644.146)" fill="#00003e"/>
        </g>
      </g>
    </g>
    <g id="Grupo_112582" data-name="Grupo 112582" transform="translate(873.396 1333.115)">
      <g id="Grupo_112581" data-name="Grupo 112581">
        <path id="Trazado_117441" data-name="Trazado 117441" d="M972.176,1372.688a1.054,1.054,0,0,1-1.055-1.055v-10.55a1.055,1.055,0,0,1,2.11,0v10.55A1.054,1.054,0,0,1,972.176,1372.688Zm-87.5-13.578a1.055,1.055,0,0,1-1.055-1.055v-10.549a1.055,1.055,0,0,1,2.11,0v10.549A1.055,1.055,0,0,1,884.677,1359.11Zm87.5-7.521a1.055,1.055,0,0,1-1.055-1.056v-10.319a1.008,1.008,0,0,1-.018-.193,1.039,1.039,0,0,1,1.036-1.055h.037a1.055,1.055,0,0,1,1.055,1.055v10.512A1.055,1.055,0,0,1,972.176,1351.59Zm-10.587-10.513H951.04a1.055,1.055,0,1,1,0-2.11H961.59a1.055,1.055,0,0,1,0,2.11Zm-21.1,0H929.941a1.055,1.055,0,0,1,0-2.11H940.49a1.055,1.055,0,1,1,0,2.11Zm-21.1,0H908.842a1.055,1.055,0,1,1,0-2.11h10.549a1.055,1.055,0,0,1,0,2.11Zm-21.1,0h-10.55a1.055,1.055,0,0,1,0-2.11h10.55a1.055,1.055,0,0,1,0,2.11Z" transform="translate(-883.622 -1338.967)" fill="#00003e"/>
      </g>
    </g>
    <g id="Grupo_112584" data-name="Grupo 112584" transform="translate(1068.15 1397.468)">
      <g id="Grupo_112583" data-name="Grupo 112583">
        <path id="Trazado_117442" data-name="Trazado 117442" d="M1139.965,1487.766h-10.549a1.055,1.055,0,1,1,0-2.11h10.549a1.055,1.055,0,1,1,0,2.11Zm-21.1,0h-10.55a1.055,1.055,0,0,1,0-2.11h10.55a1.055,1.055,0,0,1,0,2.11Zm24.589-7.059a1.055,1.055,0,0,1-1.055-1.056V1469.1a1.055,1.055,0,0,1,2.11,0v10.549A1.055,1.055,0,0,1,1143.456,1480.707Zm0-21.1a1.054,1.054,0,0,1-1.055-1.055V1448a1.055,1.055,0,1,1,2.11,0v10.549A1.054,1.054,0,0,1,1143.456,1459.607Zm0-21.1a1.054,1.054,0,0,1-1.055-1.055V1426.9a1.055,1.055,0,0,1,2.11,0v10.55A1.055,1.055,0,0,1,1143.456,1438.509Zm0-21.1a1.054,1.054,0,0,1-1.055-1.055v-2.436a1.055,1.055,0,0,1,2.11,0v2.436A1.054,1.054,0,0,1,1143.456,1417.409Z" transform="translate(-1107.262 -1412.864)" fill="#00003e"/>
      </g>
    </g>
    <g id="Grupo_112586" data-name="Grupo 112586" transform="translate(867.815 1502.61)">
      <g id="Grupo_112585" data-name="Grupo 112585">
        <path id="Trazado_117443" data-name="Trazado 117443" d="M878.268,1553.468a1.054,1.054,0,0,1-1.055-1.055v-3.792a1.055,1.055,0,1,1,2.109,0v3.792A1.054,1.054,0,0,1,878.268,1553.468Zm0-14.341a1.054,1.054,0,0,1-1.055-1.055v-3.416a1.054,1.054,0,0,1,1.055-1.055H885.4a1.055,1.055,0,1,1,0,2.11h-6.078v2.362A1.054,1.054,0,0,1,878.268,1539.127Zm49.331-3.416H917.049a1.055,1.055,0,0,1,0-2.11H927.6a1.055,1.055,0,1,1,0,2.11Zm-21.1,0H895.951a1.055,1.055,0,1,1,0-2.11H906.5a1.055,1.055,0,0,1,0,2.11Z" transform="translate(-877.213 -1533.601)" fill="#00003e"/>
      </g>
    </g>
  </g>
</svg>
