<svg xmlns="http://www.w3.org/2000/svg" width="505" height="340.67" viewBox="0 0 505 340.67">
  <g id="_3" data-name="3" transform="translate(-915 -1905)">
    <path id="BG" d="M0,0H505V340.67H0Z" transform="translate(915 1905)" fill="#e8e8e8" opacity="0.949"/>
    <g id="_3-2" data-name="3" transform="translate(1105 1980)">
      <g id="_069---SQL-Database" data-name="069---SQL-Database">
        <path id="Shape" d="M83.767,57.824V83.291A119.628,119.628,0,0,1,58.3,85.933C26.658,85.933,1,74.537,1,60.467V35C1,49.07,26.658,60.467,58.3,60.467A119.625,119.625,0,0,0,83.767,57.824Z" transform="translate(2.183 76.417)" fill="#00defc"/>
        <path id="Shape-2" data-name="Shape" d="M38.434,43.766V67.641a117.735,117.735,0,0,1-21.045,2.528c1.694.067,3.4.115,5.128.115a119.625,119.625,0,0,0,25.467-2.642V42.174c-3.027.653-6.246,1.168-9.55,1.592Z" transform="translate(37.966 92.08)" fill="#0099ad"/>
        <path id="Shape-3" data-name="Shape" d="M115.6,26V61.017H90.133a6.386,6.386,0,0,0-6.367,6.367V77.474A119.627,119.627,0,0,1,58.3,80.117C26.658,80.117,1,68.72,1,54.65V26C1,40.07,26.658,51.467,58.3,51.467S115.6,40.07,115.6,26Z" transform="translate(2.183 56.767)" fill="#00defc"/>
        <path id="Shape-4" data-name="Shape" d="M38.434,43.367V53.458a117.735,117.735,0,0,1-21.045,2.528c1.694.067,3.4.115,5.128.115a119.625,119.625,0,0,0,25.467-2.642V43.367A6.386,6.386,0,0,1,54.351,37H44.8a6.386,6.386,0,0,0-6.367,6.367Z" transform="translate(37.966 80.783)" fill="#0099ad"/>
        <path id="Shape-5" data-name="Shape" d="M34,40.067v20.95h9.55V26C43.55,31.2,40.023,36.037,34,40.067Z" transform="translate(74.233 56.767)" fill="#0099ad"/>
        <path id="Shape-6" data-name="Shape" d="M115.6,17V45.65c0,14.07-25.658,25.467-57.3,25.467S1,59.72,1,45.65V17C1,31.07,26.658,42.467,58.3,42.467S115.6,31.07,115.6,17Z" transform="translate(2.183 37.117)" fill="#00defc"/>
        <path id="Shape-7" data-name="Shape" d="M70.025,31.067V45.65c0,13.37-23.121,24.279-52.525,25.358,1.592.06,3.164.108,4.775.108,31.642,0,57.3-11.4,57.3-25.467V17C79.575,22.2,76.048,27.037,70.025,31.067Z" transform="translate(38.208 37.117)" fill="#0099ad"/>
        <path id="Shape-8" data-name="Shape" d="M115.6,26.467V51.933C115.6,66,89.942,77.4,58.3,77.4S1,66,1,51.933V26.467C1,12.4,26.658,1,58.3,1S115.6,12.4,115.6,26.467Z" transform="translate(2.183 2.183)" fill="#00defc"/>
        <path id="Shape-9" data-name="Shape" d="M22.275,1c-1.611,0-3.183.048-4.775.108,29.4,1.079,52.525,12,52.525,25.358V51.933C70.025,65.3,46.9,76.213,17.5,77.292c1.592.06,3.164.108,4.775.108,31.642,0,57.3-11.4,57.3-25.467V26.467C79.575,12.4,53.917,1,22.275,1Z" transform="translate(38.208 2.183)" fill="#0099ad"/>
        <rect id="Rectangle-path" width="102" height="70" rx="2" transform="translate(86 118)" fill="#ffc036"/>
        <path id="Shape-10" data-name="Shape" d="M63.55,37H54a6.386,6.386,0,0,1,6.367,6.367v57.3A6.386,6.386,0,0,1,54,107.033h9.55a6.386,6.386,0,0,0,6.367-6.367v-57.3A6.386,6.386,0,0,0,63.55,37Z" transform="translate(117.9 80.783)" fill="#ffb30b"/>
        <ellipse id="Oval" cx="41.5" cy="16" rx="41.5" ry="16" transform="translate(19 16)" fill="#0099ad"/>
        <g id="Group_132621" data-name="Group 132621">
          <path id="Shape-11" data-name="Shape" d="M49.567,42.2c21.605,0,44.567-6.685,44.567-19.1S71.172,4,49.567,4,5,10.685,5,23.1,27.961,42.2,49.567,42.2Zm0-31.833c23.668,0,38.2,7.417,38.2,12.733s-14.532,12.733-38.2,12.733-38.2-7.417-38.2-12.733S25.9,10.367,49.567,10.367Z" transform="translate(10.917 8.733)"/>
          <path id="Shape-12" data-name="Shape" d="M181.45,114.6H120.967V28.65C120.967,12.584,94.4,0,60.483,0S0,12.584,0,28.65V136.883c0,16.066,26.568,28.65,60.483,28.65a123.912,123.912,0,0,0,22.283-1.983v17.9a9.55,9.55,0,0,0,9.55,9.55H181.45a9.55,9.55,0,0,0,9.55-9.55v-57.3A9.55,9.55,0,0,0,181.45,114.6Zm-89.133,0a9.55,9.55,0,0,0-9.55,9.55V131.6a116.737,116.737,0,0,1-22.283,2.1c-32.371,0-54.117-11.52-54.117-22.283V95.7c9.824,9.388,30.1,15.713,54.117,15.713S104.776,105.091,114.6,95.7v18.9ZM114.6,82.767c0,10.763-21.745,22.283-54.117,22.283S6.367,93.53,6.367,82.767V67.054c9.824,9.388,30.1,15.713,54.117,15.713s44.293-6.325,54.117-15.713ZM6.367,28.65c0-10.763,21.745-22.283,54.117-22.283S114.6,17.887,114.6,28.65V54.117C114.6,64.88,92.855,76.4,60.483,76.4S6.367,64.88,6.367,54.117ZM60.483,159.167c-32.371,0-54.117-11.52-54.117-22.283v-12.53c9.824,9.388,30.1,15.713,54.117,15.713a123.851,123.851,0,0,0,22.283-1.986v18.989A116.529,116.529,0,0,1,60.483,159.167Zm124.15,22.283a3.183,3.183,0,0,1-3.183,3.183H92.317a3.183,3.183,0,0,1-3.183-3.183v-57.3a3.183,3.183,0,0,1,3.183-3.183H181.45a3.183,3.183,0,0,1,3.183,3.183Z"/>
          <path id="Shape-13" data-name="Shape" d="M42.142,48.367H50.1A3.183,3.183,0,0,0,50.1,42H42.142a11.142,11.142,0,1,0,0,22.283,4.775,4.775,0,0,1,0,9.55H34.183a3.183,3.183,0,1,0,0,6.367h7.958a11.142,11.142,0,1,0,0-22.283,4.775,4.775,0,0,1,0-9.55Z" transform="translate(67.683 91.7)"/>
          <path id="Shape-14" data-name="Shape" d="M64.681,71.729a12.641,12.641,0,0,0,.786-4.262V54.733a12.733,12.733,0,0,0-25.467,0V67.467a12.666,12.666,0,0,0,21.01,9.6l2.206,2.2a3.183,3.183,0,0,0,4.5-4.5Zm-11.947,2.1a6.367,6.367,0,0,1-6.367-6.367V54.733a6.367,6.367,0,0,1,12.733,0V66.149l-.933-.933a3.183,3.183,0,0,0-4.5,4.5l2.846,2.846A6.319,6.319,0,0,1,52.733,73.833Z" transform="translate(87.333 91.7)"/>
          <path id="Shape-15" data-name="Shape" d="M63.733,73.833H57.367V45.183a3.183,3.183,0,0,0-6.367,0V77.017A3.183,3.183,0,0,0,54.183,80.2h9.55a3.183,3.183,0,1,0,0-6.367Z" transform="translate(111.35 91.7)"/>
        </g>
      </g>
    </g>
  </g>
</svg>
