<svg xmlns="http://www.w3.org/2000/svg" width="153.128" height="119.834" viewBox="0 0 153.128 119.834">
  <g id="_5" data-name="5" transform="translate(-1030.872 -1298.468)">
    <rect id="Rectangle_293606" data-name="Rectangle 293606" width="153.128" height="119.834" rx="59.917" transform="translate(1030.872 1298.467)" fill="#084a93"/>
    <g id="Group_113960" data-name="Group 113960">
      <g id="Group_113958" data-name="Group 113958">
        <g id="Group_113956" data-name="Group 113956">
          <path id="Path_119232" data-name="Path 119232" d="M1081.582,1378.525a3.449,3.449,0,0,1-2.528-1.121l-16.14-17.273a4.016,4.016,0,0,1,0-5.41l16.412-17.563a3.412,3.412,0,0,1,5.056,0,4.018,4.018,0,0,1,0,5.41l-13.885,14.858,13.612,14.568a4.016,4.016,0,0,1,0,5.41A3.449,3.449,0,0,1,1081.582,1378.525Z" fill="#fff"/>
        </g>
        <g id="Group_113957" data-name="Group 113957">
          <path id="Path_119233" data-name="Path 119233" d="M1133.288,1378.525a3.452,3.452,0,0,1-2.528-1.121,4.018,4.018,0,0,1,0-5.41l13.615-14.568-13.887-14.858a4.018,4.018,0,0,1,0-5.41,3.412,3.412,0,0,1,5.056,0l16.415,17.563a4.018,4.018,0,0,1,0,5.41l-16.143,17.273A3.449,3.449,0,0,1,1133.288,1378.525Z" fill="#fff"/>
        </g>
      </g>
      <g id="Group_113959" data-name="Group 113959">
        <path id="Path_119234" data-name="Path 119234" d="M1099.423,1383.271a3.352,3.352,0,0,1-1.345-.284,3.924,3.924,0,0,1-1.965-4.985l16.021-42.118a3.5,3.5,0,0,1,4.66-2.1,3.923,3.923,0,0,1,1.965,4.986l-16.021,42.117A3.586,3.586,0,0,1,1099.423,1383.271Z" fill="#fff"/>
      </g>
    </g>
  </g>
</svg>
