<svg xmlns="http://www.w3.org/2000/svg" width="400" height="400.473" viewBox="0 0 400 400.473">
  <g id="_6" data-name="6" transform="translate(-804.451 -1293.664)">
    <g id="Group_112396" data-name="Group 112396" transform="translate(1110.387 1293.664)">
      <g id="Group_112363" data-name="Group 112363" transform="translate(17.051)">
        <g id="Group_112362" data-name="Group 112362">
          <path id="Path_117341" data-name="Path 117341" d="M1171.3,1395.3h-47.881a6.046,6.046,0,0,1-6.039-6.04V1299.7a6.045,6.045,0,0,1,6.039-6.04H1171.3a6.045,6.045,0,0,1,6.04,6.04v89.553A6.046,6.046,0,0,1,1171.3,1395.3Zm-47.881-99.132a3.543,3.543,0,0,0-3.538,3.539v89.553a3.543,3.543,0,0,0,3.538,3.539H1171.3a3.543,3.543,0,0,0,3.539-3.539V1299.7a3.543,3.543,0,0,0-3.539-3.539Z" transform="translate(-1117.384 -1293.664)" fill="#00003e"/>
        </g>
      </g>
      <g id="Group_112365" data-name="Group 112365" transform="translate(54.231 82.086)">
        <g id="Group_112364" data-name="Group 112364">
          <path id="Path_117342" data-name="Path 117342" d="M1158.042,1382.468a4.636,4.636,0,1,1,4.637-4.638A4.642,4.642,0,0,1,1158.042,1382.468Zm0-6.773a2.136,2.136,0,1,0,2.136,2.135A2.137,2.137,0,0,0,1158.042,1375.695Z" transform="translate(-1153.407 -1373.195)" fill="#00003e"/>
        </g>
      </g>
      <g id="Group_112372" data-name="Group 112372" transform="translate(36.61 13.801)">
        <g id="Group_112367" data-name="Group 112367">
          <g id="Group_112366" data-name="Group 112366">
            <path id="Path_117343" data-name="Path 117343" d="M1140.108,1308.922a1.887,1.887,0,1,1-1.887-1.887A1.887,1.887,0,0,1,1140.108,1308.922Z" transform="translate(-1136.334 -1307.035)" fill="#00003e"/>
          </g>
        </g>
        <g id="Group_112369" data-name="Group 112369" transform="translate(7.976)">
          <g id="Group_112368" data-name="Group 112368">
            <path id="Path_117344" data-name="Path 117344" d="M1147.836,1308.922a1.887,1.887,0,1,1-1.887-1.887A1.886,1.886,0,0,1,1147.836,1308.922Z" transform="translate(-1144.062 -1307.035)" fill="#00003e"/>
          </g>
        </g>
        <g id="Group_112371" data-name="Group 112371" transform="translate(15.953)">
          <g id="Group_112370" data-name="Group 112370">
            <path id="Path_117345" data-name="Path 117345" d="M1155.564,1308.922a1.887,1.887,0,1,1-1.887-1.887A1.887,1.887,0,0,1,1155.564,1308.922Z" transform="translate(-1151.79 -1307.035)" fill="#00003e"/>
          </g>
        </g>
      </g>
      <g id="Group_112385" data-name="Group 112385" transform="translate(33.12 24.704)">
        <g id="Group_112374" data-name="Group 112374">
          <g id="Group_112373" data-name="Group 112373">
            <path id="Path_117346" data-name="Path 117346" d="M1159.525,1320.1H1134.2a1.25,1.25,0,0,1,0-2.5h25.322a1.25,1.25,0,0,1,0,2.5Z" transform="translate(-1132.953 -1317.599)" fill="#00003e"/>
          </g>
        </g>
        <g id="Group_112376" data-name="Group 112376" transform="translate(0 9.78)">
          <g id="Group_112375" data-name="Group 112375">
            <path id="Path_117347" data-name="Path 117347" d="M1159.525,1329.576H1134.2a1.25,1.25,0,0,1,0-2.5h25.322a1.25,1.25,0,0,1,0,2.5Z" transform="translate(-1132.953 -1327.075)" fill="#00003e"/>
          </g>
        </g>
        <g id="Group_112378" data-name="Group 112378" transform="translate(0 19.564)">
          <g id="Group_112377" data-name="Group 112377">
            <path id="Path_117348" data-name="Path 117348" d="M1159.525,1339.055H1134.2a1.25,1.25,0,0,1,0-2.5h25.322a1.25,1.25,0,0,1,0,2.5Z" transform="translate(-1132.953 -1336.554)" fill="#00003e"/>
          </g>
        </g>
        <g id="Group_112380" data-name="Group 112380" transform="translate(0 29.344)">
          <g id="Group_112379" data-name="Group 112379">
            <path id="Path_117349" data-name="Path 117349" d="M1159.525,1348.531H1134.2a1.25,1.25,0,0,1,0-2.5h25.322a1.25,1.25,0,0,1,0,2.5Z" transform="translate(-1132.953 -1346.03)" fill="#00003e"/>
          </g>
        </g>
        <g id="Group_112382" data-name="Group 112382" transform="translate(0 39.127)">
          <g id="Group_112381" data-name="Group 112381">
            <path id="Path_117350" data-name="Path 117350" d="M1159.525,1358.009H1134.2a1.25,1.25,0,0,1,0-2.5h25.322a1.25,1.25,0,0,1,0,2.5Z" transform="translate(-1132.953 -1355.508)" fill="#00003e"/>
          </g>
        </g>
        <g id="Group_112384" data-name="Group 112384" transform="translate(0 48.907)">
          <g id="Group_112383" data-name="Group 112383">
            <path id="Path_117351" data-name="Path 117351" d="M1159.525,1367.485H1134.2a1.25,1.25,0,0,1,0-2.5h25.322a1.25,1.25,0,0,1,0,2.5Z" transform="translate(-1132.953 -1364.984)" fill="#00003e"/>
          </g>
        </g>
      </g>
      <g id="Group_112390" data-name="Group 112390" transform="translate(0 12.943)">
        <g id="Group_112387" data-name="Group 112387">
          <g id="Group_112386" data-name="Group 112386">
            <path id="Path_117352" data-name="Path 117352" d="M1117.675,1385.316h-12.369a4.448,4.448,0,0,1-4.442-4.442v-70.227a4.448,4.448,0,0,1,4.442-4.443h12.968a1.25,1.25,0,0,1,0,2.5h-12.968a1.945,1.945,0,0,0-1.941,1.942v70.227a1.945,1.945,0,0,0,1.941,1.942h12.369a1.25,1.25,0,1,1,0,2.5Z" transform="translate(-1100.864 -1306.204)" fill="#00003e"/>
          </g>
        </g>
        <g id="Group_112389" data-name="Group 112389" transform="translate(6.852 11.84)">
          <g id="Group_112388" data-name="Group 112388">
            <path id="Path_117353" data-name="Path 117353" d="M1111.277,1319.562a1.887,1.887,0,1,1-1.887-1.887A1.887,1.887,0,0,1,1111.277,1319.562Z" transform="translate(-1107.503 -1317.675)" fill="#00003e"/>
          </g>
        </g>
      </g>
      <g id="Group_112395" data-name="Group 112395" transform="translate(75.402 12.943)">
        <g id="Group_112392" data-name="Group 112392">
          <g id="Group_112391" data-name="Group 112391">
            <path id="Path_117354" data-name="Path 117354" d="M1188.139,1385.316h-12.371a1.25,1.25,0,1,1,0-2.5h12.371a1.945,1.945,0,0,0,1.941-1.942v-70.227a1.945,1.945,0,0,0-1.941-1.942h-12.97a1.25,1.25,0,0,1,0-2.5h12.97a4.448,4.448,0,0,1,4.442,4.443v70.227A4.448,4.448,0,0,1,1188.139,1385.316Z" transform="translate(-1173.919 -1306.204)" fill="#00003e"/>
          </g>
        </g>
        <g id="Group_112394" data-name="Group 112394" transform="translate(8.034 11.84)">
          <g id="Group_112393" data-name="Group 112393">
            <path id="Path_117355" data-name="Path 117355" d="M1181.7,1319.562a1.887,1.887,0,1,0,1.887-1.887A1.887,1.887,0,0,0,1181.7,1319.562Z" transform="translate(-1181.703 -1317.675)" fill="#00003e"/>
          </g>
        </g>
      </g>
    </g>
    <g id="Group_112398" data-name="Group 112398" transform="translate(831.45 1324.194)">
      <g id="Group_112397" data-name="Group 112397" transform="translate(0 0)">
        <rect id="Rectangle_293433" data-name="Rectangle 293433" width="261.589" height="261.589" rx="10" transform="translate(0 184.972) rotate(-45)" fill="#ffb30b"/>
      </g>
    </g>
    <g id="Group_112452" data-name="Group 112452" transform="translate(940.968 1396.487)">
      <g id="Group_112405" data-name="Group 112405" transform="translate(0 129.372)">
        <g id="Group_112401" data-name="Group 112401" transform="translate(0 8.476)">
          <g id="Group_112400" data-name="Group 112400">
            <g id="Group_112399" data-name="Group 112399">
              <path id="Path_117356" data-name="Path 117356" d="M1024.342,1585.625c-41.022,0-84.623-6.273-84.623-17.9v-41.885h2.5v41.885c0,7.281,33.728,15.4,82.122,15.4s82.121-8.115,82.121-15.4v-41.885h2.5v41.885C1108.964,1579.352,1065.364,1585.625,1024.342,1585.625Z" transform="translate(-939.719 -1525.843)" fill="#fff" stroke="#fff" stroke-width="2"/>
            </g>
          </g>
        </g>
        <g id="Group_112404" data-name="Group 112404">
          <g id="Group_112403" data-name="Group 112403">
            <g id="Group_112402" data-name="Group 112402">
              <path id="Path_117357" data-name="Path 117357" d="M1024.342,1544c-41.022,0-84.623-6.273-84.623-17.9,0-2.945,2.76-5.648,8.2-8.036l1.005,2.29c-4.327,1.9-6.708,3.936-6.708,5.746,0,7.283,33.728,15.4,82.122,15.4s82.121-8.115,82.121-15.4c0-1.951-2.732-4.139-7.692-6.161l.943-2.315c6.139,2.5,9.25,5.353,9.25,8.476C1108.964,1537.732,1065.364,1544,1024.342,1544Z" transform="translate(-939.719 -1517.631)" fill="#fff" stroke="#fff" stroke-width="2"/>
            </g>
          </g>
        </g>
      </g>
      <g id="Group_112412" data-name="Group 112412" transform="translate(0 75.372)">
        <g id="Group_112408" data-name="Group 112408" transform="translate(0 6.821)">
          <g id="Group_112407" data-name="Group 112407">
            <g id="Group_112406" data-name="Group 112406">
              <path id="Path_117358" data-name="Path 117358" d="M1024.342,1531.7c-41.022,0-84.623-6.273-84.623-17.9v-41.884h2.5V1513.8c0,7.283,33.728,15.4,82.122,15.4s82.121-8.115,82.121-15.4v-41.884h2.5V1513.8C1108.964,1525.43,1065.364,1531.7,1024.342,1531.7Z" transform="translate(-939.719 -1471.921)" fill="#fff" stroke="#fff" stroke-width="2"/>
            </g>
          </g>
        </g>
        <g id="Group_112411" data-name="Group 112411">
          <g id="Group_112410" data-name="Group 112410">
            <g id="Group_112409" data-name="Group 112409">
              <path id="Path_117359" data-name="Path 117359" d="M1024.342,1490.031c-41.022,0-84.623-6.274-84.623-17.9,0-2.411,1.841-4.66,5.47-6.689l1.221,2.183c-2.742,1.532-4.19,3.089-4.19,4.506,0,7.282,33.728,15.4,82.122,15.4s82.121-8.116,82.121-15.4c0-1.453-1.523-3.053-4.407-4.623l1.2-2.2c3.79,2.066,5.712,4.36,5.712,6.821C1108.964,1483.757,1065.364,1490.031,1024.342,1490.031Z" transform="translate(-939.719 -1465.312)" fill="#fff" stroke="#fff" stroke-width="2"/>
            </g>
          </g>
        </g>
      </g>
      <g id="Group_112417" data-name="Group 112417" transform="translate(62.324 115.925)">
        <g id="Group_112414" data-name="Group 112414">
          <g id="Group_112413" data-name="Group 112413">
            <path id="Path_117360" data-name="Path 117360" d="M1005.38,1515.157a5.277,5.277,0,1,1,5.277-5.277A5.281,5.281,0,0,1,1005.38,1515.157Zm0-8.053a2.776,2.776,0,1,0,2.777,2.776A2.78,2.78,0,0,0,1005.38,1507.1Z" transform="translate(-1000.103 -1504.603)" fill="#fff" stroke="#fff" stroke-width="2"/>
          </g>
        </g>
        <g id="Group_112416" data-name="Group 112416" transform="translate(17.022)">
          <g id="Group_112415" data-name="Group 112415">
            <path id="Path_117361" data-name="Path 117361" d="M1021.872,1515.157a5.277,5.277,0,1,1,5.277-5.277A5.281,5.281,0,0,1,1021.872,1515.157Zm0-8.053a2.776,2.776,0,1,0,2.776,2.776A2.78,2.78,0,0,0,1021.872,1507.1Z" transform="translate(-1016.595 -1504.603)" fill="#fff" stroke="#fff" stroke-width="2"/>
          </g>
        </g>
      </g>
      <g id="Group_112422" data-name="Group 112422" transform="translate(79.346 170.103)">
        <g id="Group_112419" data-name="Group 112419">
          <g id="Group_112418" data-name="Group 112418">
            <path id="Path_117362" data-name="Path 117362" d="M1021.872,1567.649a5.277,5.277,0,1,1,5.277-5.277A5.282,5.282,0,0,1,1021.872,1567.649Zm0-8.054a2.776,2.776,0,1,0,2.776,2.777A2.78,2.78,0,0,0,1021.872,1559.595Z" transform="translate(-1016.595 -1557.094)" fill="#fff" stroke="#fff" stroke-width="2"/>
          </g>
        </g>
        <g id="Group_112421" data-name="Group 112421" transform="translate(17.021)">
          <g id="Group_112420" data-name="Group 112420">
            <path id="Path_117363" data-name="Path 117363" d="M1038.363,1567.649a5.277,5.277,0,1,1,5.277-5.277A5.282,5.282,0,0,1,1038.363,1567.649Zm0-8.054a2.776,2.776,0,1,0,2.776,2.777A2.78,2.78,0,0,0,1038.363,1559.595Z" transform="translate(-1033.086 -1557.094)" fill="#fff" stroke="#fff" stroke-width="2"/>
          </g>
        </g>
      </g>
      <g id="Group_112425" data-name="Group 112425" transform="translate(0 28.131)">
        <g id="Group_112424" data-name="Group 112424">
          <g id="Group_112423" data-name="Group 112423">
            <path id="Path_117364" data-name="Path 117364" d="M1024.342,1479.323c-41.022,0-84.623-6.273-84.623-17.9v-41.884h2.5v41.884c0,7.283,33.728,15.4,82.122,15.4s82.121-8.115,82.121-15.4v-41.884h2.5v41.884C1108.964,1473.05,1065.364,1479.323,1024.342,1479.323Z" transform="translate(-939.719 -1419.541)" fill="#fff" stroke="#fff" stroke-width="2"/>
          </g>
        </g>
      </g>
      <g id="Group_112430" data-name="Group 112430" transform="translate(0 13.447)">
        <g id="Group_112429" data-name="Group 112429">
          <g id="Group_112428" data-name="Group 112428">
            <g id="Group_112427" data-name="Group 112427">
              <g id="Group_112426" data-name="Group 112426">
                <path id="Path_117365" data-name="Path 117365" d="M1024.342,1437.9c-41.022,0-84.623-6.274-84.623-17.9,0-8.161,21.5-12.614,34.316-14.541l.372,2.472c-23.756,3.575-32.187,8.735-32.187,12.069,0,7.283,33.728,15.4,82.122,15.4s82.121-8.115,82.121-15.4c0-3.4-8.678-8.635-33.138-12.208l.361-2.476c13.175,1.927,35.278,6.393,35.278,14.684C1108.964,1431.622,1065.364,1437.9,1024.342,1437.9Z" transform="translate(-939.719 -1405.314)" fill="#fff" stroke="#fff" stroke-width="2"/>
              </g>
            </g>
          </g>
        </g>
      </g>
      <g id="Group_112435" data-name="Group 112435" transform="translate(62.324 60.239)">
        <g id="Group_112432" data-name="Group 112432">
          <g id="Group_112431" data-name="Group 112431">
            <path id="Path_117366" data-name="Path 117366" d="M1005.38,1461.2a5.277,5.277,0,1,1,5.277-5.277A5.282,5.282,0,0,1,1005.38,1461.2Zm0-8.054a2.776,2.776,0,1,0,2.777,2.776A2.779,2.779,0,0,0,1005.38,1453.151Z" transform="translate(-1000.103 -1450.65)" fill="#fff" stroke="#fff" stroke-width="2"/>
          </g>
        </g>
        <g id="Group_112434" data-name="Group 112434" transform="translate(34.043)">
          <g id="Group_112433" data-name="Group 112433">
            <path id="Path_117367" data-name="Path 117367" d="M1038.363,1461.2a5.277,5.277,0,1,1,5.277-5.277A5.282,5.282,0,0,1,1038.363,1461.2Zm0-8.054a2.776,2.776,0,1,0,2.776,2.776A2.779,2.779,0,0,0,1038.363,1453.151Z" transform="translate(-1033.086 -1450.65)" fill="#fff" stroke="#fff" stroke-width="2"/>
          </g>
        </g>
      </g>
      <g id="Group_112437" data-name="Group 112437" transform="translate(24.082 17.986)">
        <g id="Group_112436" data-name="Group 112436">
          <path id="Path_117368" data-name="Path 117368" d="M1023.592,1429.762c-30.086,0-60.542-4.306-60.542-12.535,0-2.8,3.216-5.141,9.834-7.158l.728,2.393c-5.944,1.812-8.061,3.649-8.061,4.765,0,4.19,22.081,10.034,58.041,10.034s58.041-5.844,58.041-10.034c0-1.214-2.425-3.195-9.228-5.107l.678-2.408c7.437,2.091,11.051,4.55,11.051,7.515C1084.134,1425.456,1053.679,1429.762,1023.592,1429.762Z" transform="translate(-963.051 -1409.712)" fill="#fff" stroke="#fff" stroke-width="2"/>
        </g>
      </g>
      <g id="Group_112440" data-name="Group 112440" transform="translate(34.209 11.332)">
        <g id="Group_112439" data-name="Group 112439">
          <g id="Group_112438" data-name="Group 112438">
            <path id="Path_117369" data-name="Path 117369" d="M1022.239,1429.969c-36.892,0-48.187-5.014-48.648-5.227l-.728-.334v-21.143h2.5v19.482c3,1.051,15.739,4.721,46.875,4.721,31.461,0,45.613-3.72,48.952-4.76v-19.443h2.5v21.2l-.8.311C1072.348,1424.985,1059.09,1429.969,1022.239,1429.969Z" transform="translate(-972.863 -1403.265)" fill="#fff" stroke="#fff" stroke-width="2"/>
          </g>
        </g>
      </g>
      <g id="Group_112445" data-name="Group 112445" transform="translate(34.209)">
        <g id="Group_112444" data-name="Group 112444">
          <g id="Group_112443" data-name="Group 112443">
            <g id="Group_112442" data-name="Group 112442">
              <g id="Group_112441" data-name="Group 112441">
                <path id="Path_117370" data-name="Path 117370" d="M1023.277,1414.419c-20.265,0-50.414-2.948-50.414-11.065s30.149-11.068,50.414-11.068,50.414,2.948,50.414,11.068S1043.541,1414.419,1023.277,1414.419Zm0-19.632c-29.686,0-47.913,4.99-47.913,8.567s18.227,8.565,47.913,8.565,47.914-4.989,47.914-8.565S1052.963,1394.787,1023.277,1394.787Z" transform="translate(-972.863 -1392.286)" fill="#fff" stroke="#fff" stroke-width="2"/>
              </g>
            </g>
          </g>
        </g>
      </g>
      <g id="Group_112447" data-name="Group 112447" transform="translate(59.122 166.901)">
        <g id="Group_112446" data-name="Group 112446">
          <path id="Path_117371" data-name="Path 117371" d="M1005.48,1570.95a8.479,8.479,0,1,1,8.477-8.479A8.49,8.49,0,0,1,1005.48,1570.95Zm0-14.457a5.978,5.978,0,1,0,5.976,5.978A5.984,5.984,0,0,0,1005.48,1556.493Z" transform="translate(-997.001 -1553.992)" fill="#fff" stroke="#fff" stroke-width="2"/>
        </g>
      </g>
      <g id="Group_112449" data-name="Group 112449" transform="translate(93.165 112.724)">
        <g id="Group_112448" data-name="Group 112448">
          <path id="Path_117372" data-name="Path 117372" d="M1038.463,1518.457a8.478,8.478,0,1,1,8.479-8.477A8.488,8.488,0,0,1,1038.463,1518.457Zm0-14.455a5.977,5.977,0,1,0,5.978,5.978A5.984,5.984,0,0,0,1038.463,1504Z" transform="translate(-1029.984 -1501.501)" fill="#fff" stroke="#fff" stroke-width="2"/>
        </g>
      </g>
      <g id="Group_112451" data-name="Group 112451" transform="translate(76.144 57.037)">
        <g id="Group_112450" data-name="Group 112450">
          <path id="Path_117373" data-name="Path 117373" d="M1021.972,1464.5a8.478,8.478,0,1,1,8.476-8.477A8.488,8.488,0,0,1,1021.972,1464.5Zm0-14.455a5.977,5.977,0,1,0,5.975,5.978A5.984,5.984,0,0,0,1021.972,1450.049Z" transform="translate(-1013.493 -1447.548)" fill="#fff" stroke="#fff" stroke-width="2"/>
        </g>
      </g>
    </g>
    <g id="Group_112459" data-name="Group 112459" transform="translate(1123.025 1558.197)">
      <g id="Group_112454" data-name="Group 112454" transform="translate(4.591)">
        <g id="Group_112453" data-name="Group 112453">
          <path id="Path_117374" data-name="Path 117374" d="M1140.937,1570.564a1.25,1.25,0,0,1-1.25-1.251v-7.037a9.815,9.815,0,0,0-19.629,0v7.037a1.25,1.25,0,1,1-2.5,0v-7.037a12.315,12.315,0,0,1,24.631,0v7.037A1.25,1.25,0,0,1,1140.937,1570.564Z" transform="translate(-1117.557 -1549.963)" fill="#00003e"/>
        </g>
      </g>
      <g id="Group_112456" data-name="Group 112456" transform="translate(0 18.63)">
        <g id="Group_112455" data-name="Group 112455">
          <path id="Path_117375" data-name="Path 117375" d="M1140.171,1597.883h-20.811a6.257,6.257,0,0,1-6.252-6.252v-17.367a6.258,6.258,0,0,1,6.252-6.251h20.811a6.258,6.258,0,0,1,6.252,6.251v17.367A6.257,6.257,0,0,1,1140.171,1597.883Zm-20.811-27.369a3.756,3.756,0,0,0-3.752,3.75v17.367a3.756,3.756,0,0,0,3.752,3.751h20.811a3.755,3.755,0,0,0,3.751-3.751v-17.367a3.755,3.755,0,0,0-3.751-3.75Z" transform="translate(-1113.109 -1568.013)" fill="#00003e"/>
        </g>
      </g>
      <g id="Group_112458" data-name="Group 112458" transform="translate(12.65 29.558)">
        <g id="Group_112457" data-name="Group 112457">
          <path id="Path_117376" data-name="Path 117376" d="M1129.372,1586.617a4.008,4.008,0,1,1,4.008-4.008A4.011,4.011,0,0,1,1129.372,1586.617Zm0-5.515a1.507,1.507,0,1,0,1.507,1.507A1.509,1.509,0,0,0,1129.372,1581.1Z" transform="translate(-1125.365 -1578.601)" fill="#00003e"/>
        </g>
      </g>
    </g>
    <g id="Group_112461" data-name="Group 112461" transform="translate(842.196 1519.18)">
      <g id="Group_112460" data-name="Group 112460">
        <path id="Path_117377" data-name="Path 117377" d="M904.435,1514.661H892.286a1.25,1.25,0,1,1,0-2.5h12.149a1.25,1.25,0,0,1,0,2.5Zm-24.653,0h-12.5a1.25,1.25,0,0,1,0-2.5h12.5a1.25,1.25,0,1,1,0,2.5Zm-25.006,0h-12.5a1.25,1.25,0,1,1,0-2.5h12.5a1.25,1.25,0,0,1,0,2.5Z" transform="translate(-841.021 -1512.16)" fill="#00003e"/>
      </g>
    </g>
    <g id="Group_112468" data-name="Group 112468" transform="translate(1044.458 1305.768)">
      <g id="Group_112463" data-name="Group 112463" transform="translate(21.659 18.43)">
        <g id="Group_112462" data-name="Group 112462">
          <path id="Path_117378" data-name="Path 117378" d="M1068.923,1332.52a1.246,1.246,0,0,1-.717-.225l-9.7-6.772a1.251,1.251,0,0,1,1.432-2.051l9.7,6.772a1.25,1.25,0,0,1-.715,2.276Z" transform="translate(-1057.972 -1323.247)" fill="#00003e"/>
        </g>
      </g>
      <g id="Group_112465" data-name="Group 112465" transform="translate(15.679)">
        <g id="Group_112464" data-name="Group 112464">
          <path id="Path_117379" data-name="Path 117379" d="M1053.428,1318.316a1.249,1.249,0,0,1-1.25-1.25v-10.426a1.25,1.25,0,0,1,2.5,0v10.426A1.25,1.25,0,0,1,1053.428,1318.316Z" transform="translate(-1052.178 -1305.391)" fill="#00003e"/>
        </g>
      </g>
      <g id="Group_112467" data-name="Group 112467" transform="translate(0 18.43)">
        <g id="Group_112466" data-name="Group 112466">
          <path id="Path_117380" data-name="Path 117380" d="M1038.238,1332.52a1.25,1.25,0,0,1-.715-2.276l9.7-6.772a1.25,1.25,0,1,1,1.431,2.051l-9.7,6.772A1.243,1.243,0,0,1,1038.238,1332.52Z" transform="translate(-1036.987 -1323.247)" fill="#00003e"/>
        </g>
      </g>
    </g>
    <g id="Group_112511" data-name="Group 112511" transform="translate(850.573 1373.655)">
      <g id="Group_112470" data-name="Group 112470" transform="translate(17.458 16.633)">
        <g id="Group_112469" data-name="Group 112469">
          <path id="Path_117381" data-name="Path 117381" d="M901.239,1426.986H869.8a3.756,3.756,0,0,1-3.751-3.752v-32.2a3.755,3.755,0,0,1,3.751-3.751h31.437a3.755,3.755,0,0,1,3.752,3.751v32.2A3.756,3.756,0,0,1,901.239,1426.986ZM869.8,1389.781a1.252,1.252,0,0,0-1.25,1.25v32.2a1.253,1.253,0,0,0,1.25,1.251h31.437a1.253,1.253,0,0,0,1.251-1.251v-32.2a1.252,1.252,0,0,0-1.251-1.25Z" transform="translate(-866.052 -1387.28)" fill="#00003e"/>
        </g>
      </g>
      <g id="Group_112472" data-name="Group 112472" transform="translate(30.728 23.185)">
        <g id="Group_112471" data-name="Group 112471">
          <path id="Path_117382" data-name="Path 117382" d="M885.024,1405.86a6.116,6.116,0,1,1,6.117-6.116A6.122,6.122,0,0,1,885.024,1405.86Zm0-9.731a3.616,3.616,0,1,0,3.617,3.615A3.619,3.619,0,0,0,885.024,1396.129Z" transform="translate(-878.909 -1393.628)" fill="#00003e"/>
        </g>
      </g>
      <g id="Group_112474" data-name="Group 112474" transform="translate(22.43 41.038)">
        <g id="Group_112473" data-name="Group 112473">
          <path id="Path_117383" data-name="Path 117383" d="M898.445,1413.427H872.12a1.25,1.25,0,1,1,0-2.5h26.325a1.25,1.25,0,0,1,0,2.5Z" transform="translate(-870.869 -1410.926)" fill="#00003e"/>
        </g>
      </g>
      <g id="Group_112476" data-name="Group 112476" transform="translate(25.156 46.95)">
        <g id="Group_112475" data-name="Group 112475">
          <path id="Path_117384" data-name="Path 117384" d="M895.635,1419.155H874.76a1.25,1.25,0,0,1,0-2.5h20.875a1.25,1.25,0,1,1,0,2.5Z" transform="translate(-873.51 -1416.654)" fill="#00003e"/>
        </g>
      </g>
      <g id="Group_112478" data-name="Group 112478" transform="translate(7.668 7.668)">
        <g id="Group_112477" data-name="Group 112477">
          <path id="Path_117385" data-name="Path 117385" d="M908.834,1436.229H862.818a6.258,6.258,0,0,1-6.252-6.252v-45.132a6.258,6.258,0,0,1,6.252-6.252h46.016a6.257,6.257,0,0,1,6.252,6.252v45.132A6.257,6.257,0,0,1,908.834,1436.229Zm-46.016-55.134a3.756,3.756,0,0,0-3.751,3.751v45.132a3.755,3.755,0,0,0,3.751,3.751h46.016a3.755,3.755,0,0,0,3.751-3.751v-45.132a3.755,3.755,0,0,0-3.751-3.751Z" transform="translate(-856.566 -1378.594)" fill="#00003e"/>
        </g>
      </g>
      <g id="Group_112486" data-name="Group 112486" transform="translate(11.534)">
        <g id="Group_112479" data-name="Group 112479">
          <path id="Path_117386" data-name="Path 117386" d="M861.562,1381.333a1.25,1.25,0,0,1-1.25-1.251v-7.668a1.25,1.25,0,0,1,2.5,0v7.668A1.25,1.25,0,0,1,861.562,1381.333Z" transform="translate(-860.312 -1371.165)" fill="#00003e"/>
        </g>
        <g id="Group_112480" data-name="Group 112480" transform="translate(7.944)">
          <path id="Path_117387" data-name="Path 117387" d="M869.259,1381.333a1.249,1.249,0,0,1-1.25-1.251v-7.668a1.25,1.25,0,0,1,2.5,0v7.668A1.25,1.25,0,0,1,869.259,1381.333Z" transform="translate(-868.009 -1371.165)" fill="#00003e"/>
        </g>
        <g id="Group_112481" data-name="Group 112481" transform="translate(15.888)">
          <path id="Path_117388" data-name="Path 117388" d="M876.956,1381.333a1.25,1.25,0,0,1-1.251-1.251v-7.668a1.25,1.25,0,0,1,2.5,0v7.668A1.25,1.25,0,0,1,876.956,1381.333Z" transform="translate(-875.705 -1371.165)" fill="#00003e"/>
        </g>
        <g id="Group_112482" data-name="Group 112482" transform="translate(23.832)">
          <path id="Path_117389" data-name="Path 117389" d="M884.653,1381.333a1.25,1.25,0,0,1-1.251-1.251v-7.668a1.25,1.25,0,0,1,2.5,0v7.668A1.25,1.25,0,0,1,884.653,1381.333Z" transform="translate(-883.402 -1371.165)" fill="#00003e"/>
        </g>
        <g id="Group_112483" data-name="Group 112483" transform="translate(31.776)">
          <path id="Path_117390" data-name="Path 117390" d="M892.349,1381.333a1.25,1.25,0,0,1-1.25-1.251v-7.668a1.25,1.25,0,0,1,2.5,0v7.668A1.25,1.25,0,0,1,892.349,1381.333Z" transform="translate(-891.099 -1371.165)" fill="#00003e"/>
        </g>
        <g id="Group_112484" data-name="Group 112484" transform="translate(39.717)">
          <path id="Path_117391" data-name="Path 117391" d="M900.044,1381.333a1.25,1.25,0,0,1-1.251-1.251v-7.668a1.25,1.25,0,0,1,2.5,0v7.668A1.25,1.25,0,0,1,900.044,1381.333Z" transform="translate(-898.793 -1371.165)" fill="#00003e"/>
        </g>
        <g id="Group_112485" data-name="Group 112485" transform="translate(47.662)">
          <path id="Path_117392" data-name="Path 117392" d="M907.741,1381.333a1.25,1.25,0,0,1-1.251-1.251v-7.668a1.25,1.25,0,0,1,2.5,0v7.668A1.25,1.25,0,0,1,907.741,1381.333Z" transform="translate(-906.49 -1371.165)" fill="#00003e"/>
        </g>
      </g>
      <g id="Group_112494" data-name="Group 112494" transform="translate(64.199 10.901)">
        <g id="Group_112487" data-name="Group 112487">
          <path id="Path_117393" data-name="Path 117393" d="M920.257,1384.227h-7.668a1.25,1.25,0,1,1,0-2.5h7.668a1.25,1.25,0,1,1,0,2.5Z" transform="translate(-911.338 -1381.727)" fill="#00003e"/>
        </g>
        <g id="Group_112488" data-name="Group 112488" transform="translate(0 7.943)">
          <path id="Path_117394" data-name="Path 117394" d="M920.257,1391.924h-7.668a1.25,1.25,0,1,1,0-2.5h7.668a1.25,1.25,0,1,1,0,2.5Z" transform="translate(-911.338 -1389.423)" fill="#00003e"/>
        </g>
        <g id="Group_112489" data-name="Group 112489" transform="translate(0 15.887)">
          <path id="Path_117395" data-name="Path 117395" d="M920.257,1399.621h-7.668a1.25,1.25,0,1,1,0-2.5h7.668a1.25,1.25,0,1,1,0,2.5Z" transform="translate(-911.338 -1397.12)" fill="#00003e"/>
        </g>
        <g id="Group_112490" data-name="Group 112490" transform="translate(0 23.83)">
          <path id="Path_117396" data-name="Path 117396" d="M920.257,1407.315h-7.668a1.25,1.25,0,1,1,0-2.5h7.668a1.25,1.25,0,1,1,0,2.5Z" transform="translate(-911.338 -1404.815)" fill="#00003e"/>
        </g>
        <g id="Group_112491" data-name="Group 112491" transform="translate(0 31.773)">
          <path id="Path_117397" data-name="Path 117397" d="M920.257,1415.012h-7.668a1.25,1.25,0,1,1,0-2.5h7.668a1.25,1.25,0,1,1,0,2.5Z" transform="translate(-911.338 -1412.511)" fill="#00003e"/>
        </g>
        <g id="Group_112492" data-name="Group 112492" transform="translate(0 39.717)">
          <path id="Path_117398" data-name="Path 117398" d="M920.257,1422.709h-7.668a1.25,1.25,0,1,1,0-2.5h7.668a1.25,1.25,0,1,1,0,2.5Z" transform="translate(-911.338 -1420.208)" fill="#00003e"/>
        </g>
        <g id="Group_112493" data-name="Group 112493" transform="translate(0 47.662)">
          <path id="Path_117399" data-name="Path 117399" d="M920.257,1430.406h-7.668a1.25,1.25,0,1,1,0-2.5h7.668a1.25,1.25,0,1,1,0,2.5Z" transform="translate(-911.338 -1427.905)" fill="#00003e"/>
        </g>
      </g>
      <g id="Group_112502" data-name="Group 112502" transform="translate(12.811 62.802)">
        <g id="Group_112495" data-name="Group 112495" transform="translate(47.663)">
          <path id="Path_117400" data-name="Path 117400" d="M908.978,1442.182a1.25,1.25,0,0,1-1.25-1.251v-7.668a1.25,1.25,0,1,1,2.5,0v7.668A1.249,1.249,0,0,1,908.978,1442.182Z" transform="translate(-907.728 -1432.012)" fill="#00003e"/>
        </g>
        <g id="Group_112496" data-name="Group 112496" transform="translate(39.718)">
          <path id="Path_117401" data-name="Path 117401" d="M901.281,1442.182a1.25,1.25,0,0,1-1.25-1.251v-7.668a1.25,1.25,0,1,1,2.5,0v7.668A1.25,1.25,0,0,1,901.281,1442.182Z" transform="translate(-900.031 -1432.012)" fill="#00003e"/>
        </g>
        <g id="Group_112497" data-name="Group 112497" transform="translate(31.774)">
          <path id="Path_117402" data-name="Path 117402" d="M893.585,1442.182a1.25,1.25,0,0,1-1.251-1.251v-7.668a1.25,1.25,0,1,1,2.5,0v7.668A1.25,1.25,0,0,1,893.585,1442.182Z" transform="translate(-892.334 -1432.012)" fill="#00003e"/>
        </g>
        <g id="Group_112498" data-name="Group 112498" transform="translate(23.83)">
          <path id="Path_117403" data-name="Path 117403" d="M885.888,1442.182a1.25,1.25,0,0,1-1.251-1.251v-7.668a1.25,1.25,0,1,1,2.5,0v7.668A1.25,1.25,0,0,1,885.888,1442.182Z" transform="translate(-884.637 -1432.012)" fill="#00003e"/>
        </g>
        <g id="Group_112499" data-name="Group 112499" transform="translate(15.889)">
          <path id="Path_117404" data-name="Path 117404" d="M878.193,1442.182a1.25,1.25,0,0,1-1.25-1.251v-7.668a1.25,1.25,0,1,1,2.5,0v7.668A1.25,1.25,0,0,1,878.193,1442.182Z" transform="translate(-876.943 -1432.012)" fill="#00003e"/>
        </g>
        <g id="Group_112500" data-name="Group 112500" transform="translate(7.944)">
          <path id="Path_117405" data-name="Path 117405" d="M870.5,1442.182a1.25,1.25,0,0,1-1.25-1.251v-7.668a1.25,1.25,0,1,1,2.5,0v7.668A1.25,1.25,0,0,1,870.5,1442.182Z" transform="translate(-869.246 -1432.012)" fill="#00003e"/>
        </g>
        <g id="Group_112501" data-name="Group 112501">
          <path id="Path_117406" data-name="Path 117406" d="M862.8,1442.182a1.25,1.25,0,0,1-1.251-1.251v-7.668a1.25,1.25,0,1,1,2.5,0v7.668A1.25,1.25,0,0,1,862.8,1442.182Z" transform="translate(-861.549 -1432.012)" fill="#00003e"/>
        </g>
      </g>
      <g id="Group_112510" data-name="Group 112510" transform="translate(0 10.901)">
        <g id="Group_112503" data-name="Group 112503" transform="translate(0 47.662)">
          <path id="Path_117407" data-name="Path 117407" d="M858.056,1430.406h-7.669a1.25,1.25,0,0,1,0-2.5h7.669a1.25,1.25,0,0,1,0,2.5Z" transform="translate(-849.137 -1427.905)" fill="#00003e"/>
        </g>
        <g id="Group_112504" data-name="Group 112504" transform="translate(0 39.717)">
          <path id="Path_117408" data-name="Path 117408" d="M858.056,1422.709h-7.669a1.25,1.25,0,0,1,0-2.5h7.669a1.25,1.25,0,0,1,0,2.5Z" transform="translate(-849.137 -1420.208)" fill="#00003e"/>
        </g>
        <g id="Group_112505" data-name="Group 112505" transform="translate(0 31.773)">
          <path id="Path_117409" data-name="Path 117409" d="M858.056,1415.012h-7.669a1.25,1.25,0,0,1,0-2.5h7.669a1.25,1.25,0,0,1,0,2.5Z" transform="translate(-849.137 -1412.511)" fill="#00003e"/>
        </g>
        <g id="Group_112506" data-name="Group 112506" transform="translate(0 23.83)">
          <path id="Path_117410" data-name="Path 117410" d="M858.056,1407.315h-7.669a1.25,1.25,0,0,1,0-2.5h7.669a1.25,1.25,0,0,1,0,2.5Z" transform="translate(-849.137 -1404.815)" fill="#00003e"/>
        </g>
        <g id="Group_112507" data-name="Group 112507" transform="translate(0 15.887)">
          <path id="Path_117411" data-name="Path 117411" d="M858.056,1399.621h-7.669a1.25,1.25,0,0,1,0-2.5h7.669a1.25,1.25,0,0,1,0,2.5Z" transform="translate(-849.137 -1397.12)" fill="#00003e"/>
        </g>
        <g id="Group_112508" data-name="Group 112508" transform="translate(0 7.943)">
          <path id="Path_117412" data-name="Path 117412" d="M858.056,1391.924h-7.669a1.25,1.25,0,0,1,0-2.5h7.669a1.25,1.25,0,0,1,0,2.5Z" transform="translate(-849.137 -1389.423)" fill="#00003e"/>
        </g>
        <g id="Group_112509" data-name="Group 112509">
          <path id="Path_117413" data-name="Path 117413" d="M858.056,1384.227h-7.669a1.25,1.25,0,1,1,0-2.5h7.669a1.25,1.25,0,1,1,0,2.5Z" transform="translate(-849.137 -1381.727)" fill="#00003e"/>
        </g>
      </g>
    </g>
    <g id="Group_112513" data-name="Group 112513" transform="translate(804.451 1507.233)">
      <g id="Group_112512" data-name="Group 112512">
        <path id="Path_117414" data-name="Path 117414" d="M866.449,1503.086H805.7a1.25,1.25,0,1,1,0-2.5h60.747a1.25,1.25,0,0,1,0,2.5Z" transform="translate(-804.451 -1500.585)" fill="#00003e"/>
      </g>
    </g>
    <g id="Group_112515" data-name="Group 112515" transform="translate(1007.3 1349.334)">
      <g id="Group_112514" data-name="Group 112514">
        <path id="Path_117415" data-name="Path 117415" d="M1062.981,1350.1h-60.745a1.25,1.25,0,0,1,0-2.5h60.745a1.25,1.25,0,0,1,0,2.5Z" transform="translate(-1000.986 -1347.601)" fill="#00003e"/>
      </g>
    </g>
    <g id="Group_112517" data-name="Group 112517" transform="translate(1054.471 1361.796)">
      <g id="Group_112516" data-name="Group 112516">
        <path id="Path_117416" data-name="Path 117416" d="M1075.085,1362.176h-27.146a1.25,1.25,0,0,1,0-2.5h27.146a1.25,1.25,0,1,1,0,2.5Z" transform="translate(-1046.689 -1359.675)" fill="#00003e"/>
      </g>
    </g>
    <g id="Group_112526" data-name="Group 112526" transform="translate(836.057 1620.221)">
      <g id="Group_112519" data-name="Group 112519" transform="translate(0 7.462)">
        <g id="Group_112518" data-name="Group 112518">
          <path id="Path_117417" data-name="Path 117417" d="M920.121,1637.576H839.515a4.447,4.447,0,0,1-4.442-4.44v-11.407a4.58,4.58,0,0,1,.078-.8,4.439,4.439,0,0,1,4.364-3.639h80.606a4.47,4.47,0,0,1,4.361,3.637l0,0a4.58,4.58,0,0,1,.077.8v11.407A4.446,4.446,0,0,1,920.121,1637.576Zm-80.606-17.789a1.937,1.937,0,0,0-1.9,1.591,1.84,1.84,0,0,0-.039.351v11.407a1.943,1.943,0,0,0,1.942,1.939h80.606a1.943,1.943,0,0,0,1.941-1.939v-11.407a1.989,1.989,0,0,0-.77-1.531,1.937,1.937,0,0,0-1.171-.411Zm71.977,11.334a4.486,4.486,0,1,1,4.487-4.486A4.49,4.49,0,0,1,911.493,1631.121Zm0-6.471a1.986,1.986,0,1,0,1.986,1.986A1.989,1.989,0,0,0,911.493,1624.649Z" transform="translate(-835.073 -1617.286)" fill="#00003e"/>
        </g>
      </g>
      <g id="Group_112521" data-name="Group 112521" transform="translate(0.007 0)">
        <g id="Group_112520" data-name="Group 112520">
          <path id="Path_117418" data-name="Path 117418" d="M836.381,1622.632a1.306,1.306,0,0,1-1.042-.518,1.26,1.26,0,0,1-.2-1.125l3.333-10.074a1.25,1.25,0,0,1,2.374.786l-3.248,9.811A1.22,1.22,0,0,1,836.381,1622.632Z" transform="translate(-835.08 -1610.057)" fill="#00003e"/>
        </g>
      </g>
      <g id="Group_112523" data-name="Group 112523" transform="translate(84.129)">
        <g id="Group_112522" data-name="Group 112522">
          <path id="Path_117419" data-name="Path 117419" d="M920.694,1622.632a1.255,1.255,0,0,1-1.2-.908l-2.859-10.074a1.252,1.252,0,0,1,2.408-.684l2.859,10.074a1.248,1.248,0,0,1-1.2,1.593Z" transform="translate(-916.583 -1610.056)" fill="#00003e"/>
        </g>
      </g>
      <g id="Group_112525" data-name="Group 112525" transform="translate(71.934 12.324)">
        <g id="Group_112524" data-name="Group 112524">
          <path id="Path_117420" data-name="Path 117420" d="M909.254,1630.969a4.486,4.486,0,1,1,4.487-4.486A4.49,4.49,0,0,1,909.254,1630.969Zm0-6.471a1.986,1.986,0,1,0,1.986,1.986A1.989,1.989,0,0,0,909.254,1624.5Z" transform="translate(-904.768 -1621.997)" fill="#00003e"/>
        </g>
      </g>
    </g>
    <g id="Group_112535" data-name="Group 112535" transform="translate(836.057 1571.114)">
      <g id="Group_112528" data-name="Group 112528" transform="translate(0 31.134)">
        <g id="Group_112527" data-name="Group 112527">
          <path id="Path_117421" data-name="Path 117421" d="M920.121,1612.93H839.515a4.448,4.448,0,0,1-4.442-4.442v-11.407a4.585,4.585,0,0,1,.078-.8,4.439,4.439,0,0,1,4.364-3.636h80.606a4.464,4.464,0,0,1,4.361,3.633l0,0a4.585,4.585,0,0,1,.077.8v11.407A4.447,4.447,0,0,1,920.121,1612.93Zm-80.606-17.788a1.934,1.934,0,0,0-1.9,1.586,1.85,1.85,0,0,0-.039.352v11.407a1.945,1.945,0,0,0,1.942,1.941h80.606a1.945,1.945,0,0,0,1.941-1.941v-11.407a1.9,1.9,0,0,0-.039-.354,1.968,1.968,0,0,0-1.9-1.584Zm71.977,11.331a4.486,4.486,0,1,1,4.487-4.486A4.491,4.491,0,0,1,911.493,1606.473Zm0-6.472a1.985,1.985,0,1,0,1.986,1.986A1.989,1.989,0,0,0,911.493,1600Z" transform="translate(-835.073 -1592.642)" fill="#00003e"/>
        </g>
      </g>
      <g id="Group_112530" data-name="Group 112530" transform="translate(0.007)">
        <g id="Group_112529" data-name="Group 112529">
          <path id="Path_117422" data-name="Path 117422" d="M923.312,1598.722a1.255,1.255,0,0,1-1.2-.908l-8.916-31.425a1.949,1.949,0,0,0-1.868-1.411H849.8a1.939,1.939,0,0,0-1.843,1.33l-10.359,31.3a1.219,1.219,0,0,1-1.214,1.116,1.305,1.305,0,0,1-1.042-.518,1.26,1.26,0,0,1-.2-1.125l10.444-31.557a4.435,4.435,0,0,1,4.217-3.045h61.526a4.462,4.462,0,0,1,4.274,3.228l8.918,31.424a1.248,1.248,0,0,1-1.2,1.593Z" transform="translate(-835.08 -1562.477)" fill="#00003e"/>
        </g>
      </g>
      <g id="Group_112532" data-name="Group 112532" transform="translate(71.934 35.993)">
        <g id="Group_112531" data-name="Group 112531">
          <path id="Path_117423" data-name="Path 117423" d="M909.254,1606.322a4.486,4.486,0,1,1,4.487-4.485A4.49,4.49,0,0,1,909.254,1606.322Zm0-6.471a1.985,1.985,0,1,0,1.986,1.986A1.989,1.989,0,0,0,909.254,1599.851Z" transform="translate(-904.768 -1597.35)" fill="#00003e"/>
        </g>
      </g>
      <g id="Group_112534" data-name="Group 112534" transform="translate(29.383 10.193)">
        <g id="Group_112533" data-name="Group 112533">
          <path id="Path_117424" data-name="Path 117424" d="M881.393,1586.512c-8.872,0-17.852-2.449-17.852-7.133,0-9.368,35.7-9.368,35.7,0C899.242,1584.063,890.263,1586.512,881.393,1586.512Zm0-11.768c-9.37,0-15.351,2.746-15.351,4.635s5.981,4.632,15.351,4.632,15.349-2.745,15.349-4.632S890.763,1574.743,881.393,1574.743Z" transform="translate(-863.541 -1572.353)" fill="#00003e"/>
        </g>
      </g>
    </g>
    <g id="Group_112537" data-name="Group 112537" transform="translate(925.464 1354.702)">
      <g id="Group_112536" data-name="Group 112536">
        <path id="Path_117425" data-name="Path 117425" d="M928.488,1366.385a6.791,6.791,0,1,1,6.791-6.792A6.8,6.8,0,0,1,928.488,1366.385Zm0-11.082a4.291,4.291,0,1,0,4.291,4.291A4.294,4.294,0,0,0,928.488,1355.3Z" transform="translate(-921.697 -1352.802)" fill="#ffb30b"/>
      </g>
    </g>
    <g id="Group_112539" data-name="Group 112539" transform="translate(1164.557 1561.706)">
      <g id="Group_112538" data-name="Group 112538">
        <path id="Path_117426" data-name="Path 117426" d="M1160.137,1566.946a6.791,6.791,0,1,1,6.791-6.792A6.8,6.8,0,0,1,1160.137,1566.946Zm0-11.082a4.291,4.291,0,1,0,4.291,4.29A4.294,4.294,0,0,0,1160.137,1555.864Z" transform="translate(-1153.348 -1553.363)" fill="#ffb30b"/>
      </g>
    </g>
    <g id="Group_112546" data-name="Group 112546" transform="translate(1131.752 1625.611)">
      <g id="Group_112541" data-name="Group 112541">
        <g id="Group_112540" data-name="Group 112540">
          <path id="Path_117427" data-name="Path 117427" d="M1130.385,1632.922h0a3.716,3.716,0,0,1-2.651-1.1l-5.072-5.07a3.758,3.758,0,0,1,0-5.307l5.072-5.069a3.712,3.712,0,0,1,2.651-1.1h0a3.728,3.728,0,0,1,2.653,1.1l5.069,5.069a3.756,3.756,0,0,1,0,5.307l-5.069,5.07A3.732,3.732,0,0,1,1130.385,1632.922Zm0-15.143h0a1.239,1.239,0,0,0-.883.366l-5.072,5.07a1.253,1.253,0,0,0,0,1.77l5.072,5.07a1.242,1.242,0,0,0,.883.366h0a1.244,1.244,0,0,0,.885-.366l5.069-5.07a1.251,1.251,0,0,0,0-1.77l-5.069-5.07A1.24,1.24,0,0,0,1130.385,1617.779Z" transform="translate(-1121.564 -1615.278)" fill="#ffb30b"/>
        </g>
      </g>
      <g id="Group_112543" data-name="Group 112543" transform="translate(21.293 0)">
        <g id="Group_112542" data-name="Group 112542">
          <path id="Path_117428" data-name="Path 117428" d="M1151.013,1632.919a3.735,3.735,0,0,1-2.652-1.1l-5.07-5.07a3.758,3.758,0,0,1,0-5.307l5.07-5.069a3.752,3.752,0,0,1,5.306,0l5.07,5.069a3.757,3.757,0,0,1,0,5.307l-5.07,5.07A3.736,3.736,0,0,1,1151.013,1632.919Zm0-15.14a1.245,1.245,0,0,0-.887.366l-5.07,5.07a1.253,1.253,0,0,0,0,1.77l5.07,5.07a1.253,1.253,0,0,0,1.77,0l5.07-5.07a1.253,1.253,0,0,0,0-1.77l-5.07-5.07A1.243,1.243,0,0,0,1151.016,1617.779Z" transform="translate(-1142.194 -1615.278)" fill="#ffb30b"/>
        </g>
      </g>
      <g id="Group_112545" data-name="Group 112545" transform="translate(42.584 0.028)">
        <g id="Group_112544" data-name="Group 112544">
          <path id="Path_117429" data-name="Path 117429" d="M1171.643,1632.945a3.745,3.745,0,0,1-2.653-1.1l-5.072-5.072a3.758,3.758,0,0,1,0-5.3l5.072-5.073a3.759,3.759,0,0,1,5.3,0l5.073,5.073a3.754,3.754,0,0,1,0,5.3l-5.073,5.072A3.741,3.741,0,0,1,1171.643,1632.945Zm0-15.143a1.247,1.247,0,0,0-.884.366l-5.073,5.073a1.252,1.252,0,0,0,0,1.767l5.073,5.073a1.25,1.25,0,0,0,1.768,0l5.072-5.073a1.249,1.249,0,0,0,0-1.767l-5.072-5.073A1.25,1.25,0,0,0,1171.643,1617.8Z" transform="translate(-1162.823 -1615.305)" fill="#ffb30b"/>
        </g>
      </g>
    </g>
    <g id="Group_112553" data-name="Group 112553" transform="translate(866.59 1662.222)">
      <g id="Group_112548" data-name="Group 112548" transform="translate(17.312 14.735)">
        <g id="Group_112547" data-name="Group 112547">
          <path id="Path_117430" data-name="Path 117430" d="M890.433,1672.936a1.253,1.253,0,0,1-.716-.224l-7.753-5.412a1.25,1.25,0,1,1,1.431-2.051l7.753,5.411a1.25,1.25,0,0,1-.715,2.276Z" transform="translate(-881.428 -1665.026)" fill="#00003e"/>
        </g>
      </g>
      <g id="Group_112550" data-name="Group 112550" transform="translate(12.534)">
        <g id="Group_112549" data-name="Group 112549">
          <path id="Path_117431" data-name="Path 117431" d="M878.049,1661.583a1.249,1.249,0,0,1-1.25-1.251V1652a1.25,1.25,0,1,1,2.5,0v8.332A1.249,1.249,0,0,1,878.049,1661.583Z" transform="translate(-876.799 -1650.75)" fill="#00003e"/>
        </g>
      </g>
      <g id="Group_112552" data-name="Group 112552" transform="translate(0 14.735)">
        <g id="Group_112551" data-name="Group 112551">
          <path id="Path_117432" data-name="Path 117432" d="M865.906,1672.936a1.25,1.25,0,0,1-.715-2.276l7.753-5.411a1.251,1.251,0,1,1,1.432,2.051l-7.753,5.412A1.253,1.253,0,0,1,865.906,1672.936Z" transform="translate(-864.655 -1665.026)" fill="#00003e"/>
        </g>
      </g>
    </g>
    <g id="Group_112555" data-name="Group 112555" transform="translate(983.138 1615.627)">
      <g id="Group_112554" data-name="Group 112554">
        <path id="Path_117433" data-name="Path 117433" d="M1041.343,1608.106h-12.5a1.25,1.25,0,0,1,0-2.5h12.5a1.25,1.25,0,1,1,0,2.5Zm-25.006,0h-12.5a1.25,1.25,0,1,1,0-2.5h12.5a1.25,1.25,0,0,1,0,2.5Zm-25.006,0h-12.5a1.25,1.25,0,0,1,0-2.5h12.5a1.25,1.25,0,0,1,0,2.5Z" transform="translate(-977.576 -1605.605)" fill="#00003e"/>
      </g>
    </g>
    <g id="Group_112557" data-name="Group 112557" transform="translate(1183.971 1407.853)">
      <g id="Group_112556" data-name="Group 112556">
        <path id="Path_117434" data-name="Path 117434" d="M1178.949,1417.879a6.79,6.79,0,1,1,6.791-6.788A6.8,6.8,0,0,1,1178.949,1417.879Zm0-11.079a4.289,4.289,0,1,0,4.291,4.29A4.295,4.295,0,0,0,1178.949,1406.8Z" transform="translate(-1172.158 -1404.299)" fill="#ffb30b"/>
      </g>
    </g>
    <g id="Group_112559" data-name="Group 112559" transform="translate(1044.775 1606.222)">
      <g id="Group_112558" data-name="Group 112558">
        <path id="Path_117435" data-name="Path 117435" d="M1038.546,1617.8a1.25,1.25,0,0,1-.733-2.263l11.155-8.074-11.192-8.735a1.251,1.251,0,0,1,1.539-1.974l12.5,9.759a1.252,1.252,0,0,1-.036,2l-12.5,9.05A1.261,1.261,0,0,1,1038.546,1617.8Z" transform="translate(-1037.295 -1596.493)" fill="#00003e"/>
      </g>
    </g>
    <g id="Group_112561" data-name="Group 112561" transform="translate(911.45 1478.056)">
      <g id="Group_112560" data-name="Group 112560">
        <path id="Path_117436" data-name="Path 117436" d="M912.18,1472.316a4.061,4.061,0,1,1-4.061,4.06A4.061,4.061,0,0,1,912.18,1472.316Z" transform="translate(-908.119 -1472.316)" fill="#00003e"/>
      </g>
    </g>
    <g id="Group_112563" data-name="Group 112563" transform="translate(1133.763 1419.885)">
      <g id="Group_112562" data-name="Group 112562" transform="translate(0 0)">
        <circle id="Ellipse_4750" data-name="Ellipse 4750" cx="4.061" cy="4.061" r="4.061" transform="translate(0 7.51) rotate(-67.62)" fill="#00003e"/>
      </g>
    </g>
    <g id="Group_112565" data-name="Group 112565" transform="translate(976.267 1633.768)">
      <g id="Group_112564" data-name="Group 112564">
        <circle id="Ellipse_4751" data-name="Ellipse 4751" cx="4.061" cy="4.061" r="4.061" fill="#00003e"/>
      </g>
    </g>
    <g id="Group_112567" data-name="Group 112567" transform="translate(1186.702 1462.45)">
      <g id="Group_112566" data-name="Group 112566">
        <circle id="Ellipse_4752" data-name="Ellipse 4752" cx="4.061" cy="4.061" r="4.061" fill="#00003e"/>
      </g>
    </g>
    <g id="Group_112569" data-name="Group 112569" transform="translate(830.853 1478.056)">
      <g id="Group_112568" data-name="Group 112568">
        <path id="Path_117437" data-name="Path 117437" d="M834.092,1472.316a4.061,4.061,0,1,1-4.061,4.06A4.061,4.061,0,0,1,834.092,1472.316Z" transform="translate(-830.031 -1472.316)" fill="#00003e"/>
      </g>
    </g>
    <g id="Group_112571" data-name="Group 112571" transform="translate(951.567 1364.466)">
      <g id="Group_112570" data-name="Group 112570">
        <circle id="Ellipse_4753" data-name="Ellipse 4753" cx="4.061" cy="4.061" r="4.061" fill="#00003e"/>
      </g>
    </g>
    <g id="Group_112573" data-name="Group 112573" transform="translate(1096.681 1653.477)">
      <g id="Group_112572" data-name="Group 112572">
        <circle id="Ellipse_4754" data-name="Ellipse 4754" cx="4.061" cy="4.061" r="4.061" fill="#00003e"/>
      </g>
    </g>
    <g id="Group_112580" data-name="Group 112580" transform="translate(1005.109 1640.674)">
      <g id="Group_112575" data-name="Group 112575" transform="translate(17.312 14.733)">
        <g id="Group_112574" data-name="Group 112574">
          <path id="Path_117438" data-name="Path 117438" d="M1024.64,1652.058a1.244,1.244,0,0,1-.715-.225l-7.753-5.411a1.25,1.25,0,1,1,1.431-2.051l7.753,5.411a1.25,1.25,0,0,1-.715,2.276Z" transform="translate(-1015.636 -1644.146)" fill="#00003e"/>
        </g>
      </g>
      <g id="Group_112577" data-name="Group 112577" transform="translate(12.533)">
        <g id="Group_112576" data-name="Group 112576">
          <path id="Path_117439" data-name="Path 117439" d="M1012.257,1640.7a1.249,1.249,0,0,1-1.251-1.25v-8.332a1.25,1.25,0,0,1,2.5,0v8.332A1.249,1.249,0,0,1,1012.257,1640.7Z" transform="translate(-1011.006 -1629.872)" fill="#00003e"/>
        </g>
      </g>
      <g id="Group_112579" data-name="Group 112579" transform="translate(0 14.733)">
        <g id="Group_112578" data-name="Group 112578">
          <path id="Path_117440" data-name="Path 117440" d="M1000.114,1652.058a1.25,1.25,0,0,1-.715-2.276l7.753-5.411a1.25,1.25,0,1,1,1.431,2.051l-7.753,5.411A1.244,1.244,0,0,1,1000.114,1652.058Z" transform="translate(-998.863 -1644.146)" fill="#00003e"/>
        </g>
      </g>
    </g>
    <g id="Group_112582" data-name="Group 112582" transform="translate(886.166 1340.422)">
      <g id="Group_112581" data-name="Group 112581">
        <path id="Path_117441" data-name="Path 117441" d="M988.578,1378.934a1.25,1.25,0,0,1-1.251-1.25v-12.5a1.25,1.25,0,0,1,2.5,0v12.5A1.25,1.25,0,0,1,988.578,1378.934Zm-103.705-16.093a1.25,1.25,0,0,1-1.251-1.251v-12.5a1.25,1.25,0,0,1,2.5,0v12.5A1.25,1.25,0,0,1,884.873,1362.841Zm103.705-8.913a1.25,1.25,0,0,1-1.251-1.251v-12.23a1.2,1.2,0,0,1-.022-.229,1.232,1.232,0,0,1,1.228-1.251h.044a1.25,1.25,0,0,1,1.25,1.251v12.459A1.25,1.25,0,0,1,988.578,1353.928Zm-12.548-12.46h-12.5a1.25,1.25,0,1,1,0-2.5h12.5a1.25,1.25,0,0,1,0,2.5Zm-25.008,0h-12.5a1.25,1.25,0,0,1,0-2.5h12.5a1.25,1.25,0,1,1,0,2.5Zm-25.006,0h-12.5a1.25,1.25,0,1,1,0-2.5h12.5a1.25,1.25,0,0,1,0,2.5Zm-25.006,0h-12.5a1.25,1.25,0,0,1,0-2.5h12.5a1.25,1.25,0,0,1,0,2.5Z" transform="translate(-883.622 -1338.967)" fill="#00003e"/>
      </g>
    </g>
    <g id="Group_112584" data-name="Group 112584" transform="translate(1116.99 1416.694)">
      <g id="Group_112583" data-name="Group 112583">
        <path id="Path_117442" data-name="Path 117442" d="M1146.023,1501.638h-12.5a1.25,1.25,0,1,1,0-2.5h12.5a1.25,1.25,0,1,1,0,2.5Zm-25.006,0h-12.5a1.25,1.25,0,0,1,0-2.5h12.5a1.25,1.25,0,0,1,0,2.5Zm29.143-8.366a1.25,1.25,0,0,1-1.25-1.251v-12.5a1.25,1.25,0,0,1,2.5,0v12.5A1.25,1.25,0,0,1,1150.159,1493.272Zm0-25.007a1.249,1.249,0,0,1-1.25-1.25v-12.5a1.25,1.25,0,1,1,2.5,0v12.5A1.249,1.249,0,0,1,1150.159,1468.265Zm0-25.006a1.25,1.25,0,0,1-1.25-1.25v-12.5a1.25,1.25,0,0,1,2.5,0v12.5A1.25,1.25,0,0,1,1150.159,1443.258Zm0-25.008a1.249,1.249,0,0,1-1.25-1.25v-2.887a1.25,1.25,0,0,1,2.5,0V1417A1.249,1.249,0,0,1,1150.159,1418.251Z" transform="translate(-1107.262 -1412.864)" fill="#00003e"/>
      </g>
    </g>
    <g id="Group_112586" data-name="Group 112586" transform="translate(879.551 1541.31)">
      <g id="Group_112585" data-name="Group 112585">
        <path id="Path_117443" data-name="Path 117443" d="M878.463,1557.148a1.249,1.249,0,0,1-1.25-1.25V1551.4a1.25,1.25,0,0,1,2.5,0v4.494A1.249,1.249,0,0,1,878.463,1557.148Zm0-17a1.249,1.249,0,0,1-1.25-1.25v-4.049a1.249,1.249,0,0,1,1.25-1.251h8.454a1.25,1.25,0,1,1,0,2.5h-7.2v2.8A1.249,1.249,0,0,1,878.463,1540.151Zm58.468-4.049h-12.5a1.25,1.25,0,0,1,0-2.5h12.5a1.25,1.25,0,1,1,0,2.5Zm-25.006,0h-12.5a1.25,1.25,0,1,1,0-2.5h12.5a1.25,1.25,0,0,1,0,2.5Z" transform="translate(-877.213 -1533.601)" fill="#00003e"/>
      </g>
    </g>
  </g>
</svg>
