<svg xmlns="http://www.w3.org/2000/svg" width="85" height="85" viewBox="0 0 85 85">
  <g id="_1" data-name="1" transform="translate(-0.001)">
    <path id="Path_193450" data-name="Path 193450" d="M86.311,29.88H11.2a3.7,3.7,0,0,0-3.7,3.7V83.411h82.51V33.58A3.7,3.7,0,0,0,86.311,29.88Z" transform="translate(-6.256 -24.919)" fill="#084a93"/>
    <path id="Path_193451" data-name="Path 193451" d="M15.747,29.88H11.2a3.7,3.7,0,0,0-3.7,3.7V83.411h4.545V33.58A3.7,3.7,0,0,1,15.747,29.88Z" transform="translate(-6.256 -24.919)" fill="#003d80"/>
    <rect id="Rectangle_293884" data-name="Rectangle 293884" width="18.927" height="13.097" transform="translate(33.037 66.817)" fill="#ccc"/>
    <rect id="Rectangle_293885" data-name="Rectangle 293885" width="4.981" height="13.097" transform="translate(33.037 66.817)" fill="#bcbbb8"/>
    <path id="Path_193452" data-name="Path 193452" d="M34.879,102.906v33.6a1.263,1.263,0,0,0,1.261,1.261h70.9A1.263,1.263,0,0,0,108.3,136.5v-33.6Z" transform="translate(-29.088 -85.822)" fill="#f9f9f9"/>
    <path id="Path_193453" data-name="Path 193453" d="M39.6,136.5v-33.6H34.879v33.6a1.263,1.263,0,0,0,1.261,1.261h4.726A1.263,1.263,0,0,1,39.6,136.5Z" transform="translate(-29.088 -85.822)" fill="#f2f2f2"/>
    <path id="Path_193454" data-name="Path 193454" d="M7.5,340.256v7.192a3.7,3.7,0,0,0,3.7,3.7H86.31a3.7,3.7,0,0,0,3.7-3.7v-7.192Z" transform="translate(-6.255 -283.768)" fill="#efefef"/>
    <path id="Path_193455" data-name="Path 193455" d="M12.046,347.447v-7.192H7.5v7.192a3.7,3.7,0,0,0,3.7,3.7h4.545A3.7,3.7,0,0,1,12.046,347.447Z" transform="translate(-6.255 -283.767)" fill="#ddd"/>
    <path id="Path_193456" data-name="Path 193456" d="M196.59,481.914H172.733a2.273,2.273,0,0,1-2.273-2.273h0a2.273,2.273,0,0,1,2.273-2.273H196.59a2.272,2.272,0,0,1,2.273,2.273h0A2.273,2.273,0,0,1,196.59,481.914Z" transform="translate(-142.16 -398.118)" fill="#efefef"/>
    <path id="Path_193457" data-name="Path 193457" d="M178.165,479.643a2.273,2.273,0,0,1,2.273-2.273h-7.705a2.273,2.273,0,1,0,0,4.545h7.705A2.273,2.273,0,0,1,178.165,479.643Z" transform="translate(-142.16 -398.119)" fill="#ddd"/>
    <path id="Path_193458" data-name="Path 193458" d="M34.879,58.519v7.829H108.3V58.519a1.263,1.263,0,0,0-1.261-1.261h-70.9A1.263,1.263,0,0,0,34.879,58.519Z" transform="translate(-29.088 -47.752)" fill="#ffb30b"/>
    <path id="Path_193459" data-name="Path 193459" d="M41.081,57.256h-4.94a1.263,1.263,0,0,0-1.261,1.261v7.829h4.94V58.518A1.263,1.263,0,0,1,41.081,57.256Z" transform="translate(-29.089 -47.751)" fill="#ffb30b"/>
    <path id="Path_193460" data-name="Path 193460" d="M125.479,7.253H65.1a1.755,1.755,0,0,0-1.755,1.755V51.431A1.755,1.755,0,0,0,65.1,53.186h60.379a1.755,1.755,0,0,0,1.755-1.755V9.007A1.755,1.755,0,0,0,125.479,7.253Z" transform="translate(-52.828 -6.049)" fill="#b9ddfc"/>
    <path id="Path_193461" data-name="Path 193461" d="M68.324,51.43V9.007a1.755,1.755,0,0,1,1.755-1.755H65.1a1.755,1.755,0,0,0-1.755,1.755V51.43A1.755,1.755,0,0,0,65.1,53.185h4.98A1.754,1.754,0,0,1,68.324,51.43Z" transform="translate(-52.827 -6.048)" fill="#90cafc"/>
    <path id="Path_193462" data-name="Path 193462" d="M63.345,9.007v7.336h63.889V9.007a1.755,1.755,0,0,0-1.755-1.755H65.1A1.755,1.755,0,0,0,63.345,9.007Z" transform="translate(-52.828 -6.048)" fill="#6cebfc"/>
    <path id="Path_193463" data-name="Path 193463" d="M68.324,9.007a1.755,1.755,0,0,1,1.755-1.755H65.1a1.756,1.756,0,0,0-1.676,1.233,1.721,1.721,0,0,0-.043.168,1.76,1.76,0,0,0-.036.354v7.336h4.98Z" transform="translate(-52.827 -6.048)" fill="#00defc"/>
    <path id="Path_193464" data-name="Path 193464" d="M248.709,367.25a1.2,1.2,0,0,0,.154.189,1.252,1.252,0,0,0,.88.364,1.355,1.355,0,0,0,.244-.023,1.27,1.27,0,0,0,.446-.186,1.231,1.231,0,0,0,.191-.155,1.258,1.258,0,0,0,.364-.88,1.335,1.335,0,0,0-.023-.244,1.256,1.256,0,0,0-.071-.232,1.278,1.278,0,0,0-.115-.216,1.418,1.418,0,0,0-.154-.189,1.247,1.247,0,0,0-1.761,0,1.193,1.193,0,0,0-.154.189,1.169,1.169,0,0,0-.115.216,1.267,1.267,0,0,0-.071.232,1.2,1.2,0,0,0,0,.486,1.254,1.254,0,0,0,.071.232A1.164,1.164,0,0,0,248.709,367.25Z" transform="translate(-207.243 -304.666)"/>
    <path id="Path_193465" data-name="Path 193465" d="M88.589,28.16a1.238,1.238,0,0,0-.154-.189,1.314,1.314,0,0,0-.189-.156,1.33,1.33,0,0,0-.216-.115,1.25,1.25,0,0,0-.232-.07,1.2,1.2,0,0,0-.486,0,1.309,1.309,0,0,0-.234.07,1.235,1.235,0,0,0-.4.27,1.266,1.266,0,0,0-.269.4,1.271,1.271,0,0,0-.071.234,1.176,1.176,0,0,0-.025.242,1.22,1.22,0,0,0,.025.244,1.281,1.281,0,0,0,.071.232,1.159,1.159,0,0,0,.115.214,1.121,1.121,0,0,0,.154.189,1.293,1.293,0,0,0,.189.156,1.21,1.21,0,0,0,.448.184,1.191,1.191,0,0,0,.242.025,1.23,1.23,0,0,0,.244-.025A1.25,1.25,0,0,0,88.03,30a1.344,1.344,0,0,0,.216-.115,1.323,1.323,0,0,0,.189-.156,1.229,1.229,0,0,0,.154-.189,1.256,1.256,0,0,0,.114-.214,1.312,1.312,0,0,0,.072-.232,1.349,1.349,0,0,0,.023-.244,1.317,1.317,0,0,0-.023-.242,1.272,1.272,0,0,0-.072-.234A1.249,1.249,0,0,0,88.589,28.16Z" transform="translate(-71.979 -23.023)"/>
    <path id="Path_193466" data-name="Path 193466" d="M117.043,28.16a1.249,1.249,0,0,0-.156-.189,1.221,1.221,0,0,0-.189-.156,1.138,1.138,0,0,0-.214-.113,1.177,1.177,0,0,0-.232-.072,1.207,1.207,0,0,0-.488,0,1.159,1.159,0,0,0-.232.072,1.137,1.137,0,0,0-.214.113,1.238,1.238,0,0,0-.189.156,1.14,1.14,0,0,0-.155.189,1.058,1.058,0,0,0-.114.214,1.187,1.187,0,0,0-.072.232,1.218,1.218,0,0,0-.025.244,1.233,1.233,0,0,0,.025.244,1.173,1.173,0,0,0,.072.232,1.076,1.076,0,0,0,.114.214,1.139,1.139,0,0,0,.155.189,1.211,1.211,0,0,0,.189.156,1.25,1.25,0,0,0,.214.115,1.288,1.288,0,0,0,.232.07,1.215,1.215,0,0,0,.244.025,1.231,1.231,0,0,0,.244-.025,1.288,1.288,0,0,0,.232-.07,1.262,1.262,0,0,0,.214-.115,1.278,1.278,0,0,0,.345-.345,1.255,1.255,0,0,0,.114-.214,1.28,1.28,0,0,0,.07-.232,1.206,1.206,0,0,0,.025-.244,1.221,1.221,0,0,0-.025-.244,1.274,1.274,0,0,0-.07-.232A1.262,1.262,0,0,0,117.043,28.16Z" transform="translate(-95.709 -23.022)"/>
    <path id="Path_193467" data-name="Path 193467" d="M145.492,28.16a1.138,1.138,0,0,0-.154-.189,1.321,1.321,0,0,0-.189-.156,1.252,1.252,0,0,0-.935-.184,1.129,1.129,0,0,0-.232.072,1.2,1.2,0,0,0-.216.113,1.333,1.333,0,0,0-.189.156,1.228,1.228,0,0,0-.154.189,1.254,1.254,0,0,0-.115.214,1.29,1.29,0,0,0-.07.232,1.217,1.217,0,0,0-.025.244,1.23,1.23,0,0,0,.025.244,1.288,1.288,0,0,0,.07.232,1.267,1.267,0,0,0,.115.214,1.228,1.228,0,0,0,.154.189,1.3,1.3,0,0,0,.189.156,1.323,1.323,0,0,0,.216.115,1.251,1.251,0,0,0,.232.07,1.218,1.218,0,0,0,.244.025,1.2,1.2,0,0,0,.242-.025,1.3,1.3,0,0,0,.234-.07,1.235,1.235,0,0,0,.4-.27,1.131,1.131,0,0,0,.154-.189,1.159,1.159,0,0,0,.115-.214,1.189,1.189,0,0,0,.071-.232,1.219,1.219,0,0,0,.025-.244,1.234,1.234,0,0,0-.025-.244,1.262,1.262,0,0,0-.186-.446Z" transform="translate(-119.437 -23.022)"/>
    <path id="Path_193468" data-name="Path 193468" d="M178.157,28.852A1.245,1.245,0,0,0,179.4,30.1h38.591a1.245,1.245,0,0,0,0-2.49H179.4A1.245,1.245,0,0,0,178.157,28.852Z" transform="translate(-148.579 -23.024)"/>
    <path id="Path_193469" data-name="Path 193469" d="M105.181,130.808h2.176a1.245,1.245,0,1,0,0-2.49h-2.176a1.245,1.245,0,1,0,0,2.49Z" transform="translate(-86.68 -107.015)"/>
    <path id="Path_193470" data-name="Path 193470" d="M105.181,94.805h2.176a1.245,1.245,0,0,0,0-2.49h-2.176a1.245,1.245,0,0,0,0,2.49Z" transform="translate(-86.68 -76.989)"/>
    <path id="Path_193471" data-name="Path 193471" d="M105.181,166.81h2.176a1.245,1.245,0,1,0,0-2.49h-2.176a1.245,1.245,0,1,0,0,2.49Z" transform="translate(-86.68 -137.04)"/>
    <path id="Path_193472" data-name="Path 193472" d="M105.181,202.812h2.176a1.245,1.245,0,0,0,0-2.49h-2.176a1.245,1.245,0,0,0,0,2.49Z" transform="translate(-86.68 -167.065)"/>
    <path id="Path_193473" data-name="Path 193473" d="M105.181,238.814h2.176a1.245,1.245,0,0,0,0-2.49h-2.176a1.245,1.245,0,1,0,0,2.49Z" transform="translate(-86.68 -197.09)"/>
    <path id="Path_193474" data-name="Path 193474" d="M267.312,127.817H248.386a1.245,1.245,0,0,0,0,2.49h18.926a1.245,1.245,0,0,0,0-2.49Z" transform="translate(-206.111 -106.597)"/>
    <path id="Path_193475" data-name="Path 193475" d="M275.166,94.305h9.293a1.245,1.245,0,0,0,0-2.49h-9.293a1.245,1.245,0,0,0,0,2.49Z" transform="translate(-228.445 -76.572)"/>
    <path id="Path_193476" data-name="Path 193476" d="M358.689,94.305h5.893a1.245,1.245,0,0,0,0-2.49h-5.893a1.245,1.245,0,0,0,0,2.49Z" transform="translate(-298.102 -76.572)"/>
    <path id="Path_193477" data-name="Path 193477" d="M153.476,94.305h15.072a1.245,1.245,0,0,0,0-2.49H153.476a1.245,1.245,0,0,0,0,2.49Z" transform="translate(-126.957 -76.572)"/>
    <path id="Path_193478" data-name="Path 193478" d="M200.207,129.062a1.245,1.245,0,0,0-1.245-1.245h-4.534a1.245,1.245,0,0,0,0,2.49h4.534A1.245,1.245,0,0,0,200.207,129.062Z" transform="translate(-161.111 -106.597)"/>
    <path id="Path_193479" data-name="Path 193479" d="M152.168,130.308h2.378a1.245,1.245,0,0,0,0-2.49h-2.378a1.245,1.245,0,0,0,0,2.49Z" transform="translate(-125.867 -106.598)"/>
    <path id="Path_193480" data-name="Path 193480" d="M393.147,129.755a1.215,1.215,0,0,0,.155.189,1.249,1.249,0,0,0,1.761,0,1.309,1.309,0,0,0,.154-.189,1.263,1.263,0,0,0,.115-.216,1.249,1.249,0,0,0,.071-.232,1.276,1.276,0,0,0,0-.487,1.242,1.242,0,0,0-.071-.232,1.269,1.269,0,0,0-.115-.216,1.313,1.313,0,0,0-.154-.189,1.3,1.3,0,0,0-.189-.154,1.338,1.338,0,0,0-.216-.115,1.23,1.23,0,0,0-.719-.071,1.313,1.313,0,0,0-.234.071,1.33,1.33,0,0,0-.214.115,1.219,1.219,0,0,0-.189.154,1.2,1.2,0,0,0-.155.189,1.292,1.292,0,0,0-.186.448,1.2,1.2,0,0,0,0,.487,1.24,1.24,0,0,0,.072.232A1.285,1.285,0,0,0,393.147,129.755Z" transform="translate(-327.702 -106.599)"/>
    <path id="Path_193481" data-name="Path 193481" d="M197.9,201.067a1.245,1.245,0,0,0-1.245-1.245H183.969a1.245,1.245,0,1,0,0,2.49H196.65A1.245,1.245,0,0,0,197.9,201.067Z" transform="translate(-152.388 -166.648)"/>
    <path id="Path_193482" data-name="Path 193482" d="M215.213,166.31h3.048a1.245,1.245,0,1,0,0-2.49h-3.048a1.245,1.245,0,0,0,0,2.49Z" transform="translate(-178.445 -136.623)"/>
    <path id="Path_193483" data-name="Path 193483" d="M152.168,166.31h5.893a1.245,1.245,0,1,0,0-2.49h-5.893a1.245,1.245,0,0,0,0,2.49Z" transform="translate(-125.867 -136.623)"/>
    <path id="Path_193484" data-name="Path 193484" d="M263.23,165.064a1.245,1.245,0,0,0,1.245,1.245h21.317a1.245,1.245,0,0,0,0-2.49H264.475A1.245,1.245,0,0,0,263.23,165.064Z" transform="translate(-219.529 -136.622)"/>
    <path id="Path_193485" data-name="Path 193485" d="M287,199.821a1.245,1.245,0,0,0,0,2.49h10.778a1.245,1.245,0,0,0,0-2.49Z" transform="translate(-238.316 -166.648)"/>
    <path id="Path_193486" data-name="Path 193486" d="M382.242,199.821h-2.378a1.245,1.245,0,0,0,0,2.49h2.378a1.245,1.245,0,0,0,0-2.49Z" transform="translate(-315.761 -166.648)"/>
    <path id="Path_193487" data-name="Path 193487" d="M151.017,201.544a1.278,1.278,0,0,0,.115.216,1.33,1.33,0,0,0,.156.189,1.146,1.146,0,0,0,.189.154,1.255,1.255,0,0,0,.214.115,1.308,1.308,0,0,0,.232.071,1.294,1.294,0,0,0,.488,0,1.294,1.294,0,0,0,.232-.071,1.266,1.266,0,0,0,.214-.115,1.226,1.226,0,0,0,.189-.154,1.309,1.309,0,0,0,.156-.189,1.266,1.266,0,0,0,.115-.216,1.246,1.246,0,0,0,.07-.232,1.2,1.2,0,0,0,0-.487,1.21,1.21,0,0,0-.184-.448,1.323,1.323,0,0,0-.156-.189,1.131,1.131,0,0,0-.189-.154,1.255,1.255,0,0,0-.214-.115,1.311,1.311,0,0,0-.232-.071,1.27,1.27,0,0,0-.488,0,1.294,1.294,0,0,0-.232.071,1.255,1.255,0,0,0-.214.115,1.068,1.068,0,0,0-.189.154,1.219,1.219,0,0,0-.34.638,1.2,1.2,0,0,0,0,.487A1.222,1.222,0,0,0,151.017,201.544Z" transform="translate(-125.867 -166.65)"/>
    <path id="Path_193488" data-name="Path 193488" d="M267.312,236.323H248.386a1.245,1.245,0,0,0,0,2.49h18.926a1.245,1.245,0,0,0,0-2.49Z" transform="translate(-206.111 -197.09)"/>
    <path id="Path_193489" data-name="Path 193489" d="M198.962,236.323h-4.534a1.245,1.245,0,0,0,0,2.49h4.534a1.245,1.245,0,1,0,0-2.49Z" transform="translate(-161.111 -197.09)"/>
    <path id="Path_193490" data-name="Path 193490" d="M152.168,238.814h2.378a1.245,1.245,0,0,0,0-2.49h-2.378a1.245,1.245,0,0,0,0,2.49Z" transform="translate(-125.867 -197.09)"/>
    <path id="Path_193491" data-name="Path 193491" d="M394.182,236.318a1.244,1.244,0,1,0,.882.365A1.253,1.253,0,0,0,394.182,236.318Z" transform="translate(-327.702 -197.085)"/>
    <path id="Path_193492" data-name="Path 193492" d="M80.056,3.674h-4.4V3a3.005,3.005,0,0,0-3-3H67.008a1.245,1.245,0,0,0,0,2.49h5.643A.51.51,0,0,1,73.161,3V9.09h-61.4V3a.51.51,0,0,1,.509-.509H61.2A1.245,1.245,0,1,0,61.2,0H12.272A3,3,0,0,0,9.278,2.87c-.012.113,0,.137-.007.8H4.947A4.951,4.951,0,0,0,0,8.62V63.639a4.951,4.951,0,0,0,4.946,4.946H16.684a1.245,1.245,0,1,0,0-2.49H4.947a2.458,2.458,0,0,1-2.455-2.455V57.692H82.511v5.947a2.458,2.458,0,0,1-2.455,2.455H22.495a1.245,1.245,0,0,0,0,2.49h9.3v9.38h-1.22a3.518,3.518,0,1,0,0,7.035H54.43a3.518,3.518,0,1,0,0-7.035H53.21v-9.38H80.055A4.951,4.951,0,0,0,85,63.639V8.62A4.951,4.951,0,0,0,80.056,3.674Zm-24.6,77.808A1.028,1.028,0,0,1,54.43,82.51H30.573a1.027,1.027,0,1,1,0-2.055H54.43A1.028,1.028,0,0,1,55.457,81.482Zm-4.738-3.518H34.283v-9.38H50.719ZM77.966,18.18H75.651v-6.6a17.385,17.385,0,0,1,2.315.016Zm-4.805-6.6c0,21.582.006,33.867-.01,33.945-.163.793,2.887.223-60.879.407a.51.51,0,0,1-.509-.509V11.58ZM9.272,18.18H7.036c.009-6.807-.018-6.6.016-6.6H9.272v6.6ZM2.491,55.2V8.62A2.458,2.458,0,0,1,4.947,6.165H9.272V9.09H7.053A2.51,2.51,0,0,0,4.546,11.6c0,1.124,0,36.944,0,39.043a2.509,2.509,0,0,0,2.507,2.507h70.9a2.509,2.509,0,0,0,2.507-2.507V43.384a1.245,1.245,0,1,0-2.49,0V50.64a.018.018,0,0,1-.016.016c-74.217-.009-70.913.018-70.913-.016V20.671H9.272V45.423a3,3,0,0,0,3,3h60.38a3,3,0,0,0,3-3V20.671h2.315v16.9a1.245,1.245,0,1,0,2.49,0V11.6A2.509,2.509,0,0,0,77.949,9.09h-2.3V6.165h4.4A2.458,2.458,0,0,1,82.51,8.62V55.2Z"/>
  </g>
</svg>
