<svg xmlns="http://www.w3.org/2000/svg" width="523.826" height="432.938" viewBox="0 0 523.826 432.938">
  <g id="_1" data-name="1" transform="translate(-838.906 -410.1)">
    <path id="BG" d="M0,0H523.826V432.938H0Z" transform="translate(838.906 410.1)" fill="#e8e8e8" opacity="0.949"/>
    <g id="_1-2" data-name="1" transform="translate(1002.007 463.825)">
      <g id="Group_128942" data-name="Group 128942" transform="translate(0 0)">
        <g id="Group_128894" data-name="Group 128894">
          <path id="Path_189787" data-name="Path 189787" d="M635.058,563.365H428.607V691.222H602.4l10.76,24.754,9.539-24.754h12.356Z" transform="translate(-428.406 -563.183)" fill="#fff"/>
          <g id="Group_128893" data-name="Group 128893">
            <path id="Path_189788" data-name="Path 189788" d="M635.118,563.42c0,1.24.057,49.273.155,127.857v.154h-.155l-12.356.006.148-.1c-2.986,7.758-6.2,16.122-9.528,24.758l-.151.388-.165-.382c-3.375-7.755-7.022-16.141-10.767-24.75l.162.109-157.167.019H428.467v-.2c.006-45.567.013-88.811.019-127.857v-.182h.182c121.888.109,204.823.181,206.45.182-1.626,0-84.562.076-206.45.182l.184-.182c0,39.047.012,82.29.017,127.857l-.2-.2H445.3l157.167.023h.119l.047.107,10.751,24.759-.316.006c3.329-8.634,6.554-16.993,9.547-24.751l.042-.1h.109l12.356.007-.155.155C635.057,612.693,635.115,564.659,635.118,563.42Z" transform="translate(-428.467 -563.238)" fill="#1a2e35"/>
          </g>
        </g>
        <rect id="Rectangle_41365" data-name="Rectangle 41365" width="206.523" height="12.659" transform="translate(0.019 0)" fill="#0ddcf1"/>
        <g id="Group_128941" data-name="Group 128941" transform="translate(0.512 5.319)">
          <g id="Group_128896" data-name="Group 128896" transform="translate(0 7.057)">
            <g id="Group_128895" data-name="Group 128895">
              <path id="Path_189789" data-name="Path 189789" d="M634.854,572.146c0,.156-46.124.283-103.01.283-56.905,0-103.02-.126-103.02-.283s46.115-.283,103.02-.283C588.73,571.863,634.854,571.991,634.854,572.146Z" transform="translate(-428.824 -571.863)" fill="#1a2e35"/>
            </g>
          </g>
          <g id="Group_128900" data-name="Group 128900" transform="translate(7.276)">
            <g id="Group_128897" data-name="Group 128897">
              <path id="Path_189790" data-name="Path 189790" d="M437.28,568.637a1.692,1.692,0,1,1-1.693-1.692A1.694,1.694,0,0,1,437.28,568.637Z" transform="translate(-433.895 -566.945)" fill="#1a2e35"/>
            </g>
            <g id="Group_128898" data-name="Group 128898" transform="translate(6.124)">
              <path id="Path_189791" data-name="Path 189791" d="M441.548,568.637a1.692,1.692,0,1,1-1.693-1.692A1.694,1.694,0,0,1,441.548,568.637Z" transform="translate(-438.163 -566.945)" fill="#1a2e35"/>
            </g>
            <g id="Group_128899" data-name="Group 128899" transform="translate(12.248)">
              <path id="Path_189792" data-name="Path 189792" d="M445.816,568.637a1.692,1.692,0,1,1-1.693-1.692A1.694,1.694,0,0,1,445.816,568.637Z" transform="translate(-442.431 -566.945)" fill="#1a2e35"/>
            </g>
          </g>
          <g id="Group_128902" data-name="Group 128902" transform="translate(16.019 25.309)">
            <g id="Group_128901" data-name="Group 128901" transform="translate(0)">
              <path id="Path_189793" data-name="Path 189793" d="M446.175,588.349l-4.9,1.891,4.9,1.894v1.148l-6.187-2.448v-1.187l6.187-2.446Z" transform="translate(-439.988 -583.446)" fill="#154f8d"/>
              <path id="Path_189794" data-name="Path 189794" d="M449.237,584.584h1.2l-4.557,13.01h-1.2Z" transform="translate(-437.949 -584.584)" fill="#154f8d"/>
              <path id="Path_189795" data-name="Path 189795" d="M455.171,589.647v1.187l-6.188,2.448v-1.148l4.917-1.894-4.917-1.891V587.2Z" transform="translate(-436.077 -583.446)" fill="#154f8d"/>
              <path id="Path_189796" data-name="Path 189796" d="M454.385,592.366a.923.923,0,0,1,.94-.938.908.908,0,0,1,.911.938.922.922,0,0,1-.911.956A.937.937,0,0,1,454.385,592.366Z" transform="translate(-433.727 -581.608)" fill="#154f8d"/>
              <path id="Path_189797" data-name="Path 189797" d="M456.572,592.366a.922.922,0,0,1,.938-.938.907.907,0,0,1,.911.938.921.921,0,0,1-.911.956A.935.935,0,0,1,456.572,592.366Z" transform="translate(-432.776 -581.608)" fill="#154f8d"/>
              <path id="Path_189798" data-name="Path 189798" d="M458.758,592.366a.922.922,0,0,1,.938-.938.908.908,0,0,1,.911.938.922.922,0,0,1-.911.956A.935.935,0,0,1,458.758,592.366Z" transform="translate(-431.826 -581.608)" fill="#154f8d"/>
            </g>
          </g>
          <g id="Group_128904" data-name="Group 128904" transform="translate(16.251 48.185)">
            <g id="Group_128903" data-name="Group 128903">
              <path id="Path_189799" data-name="Path 189799" d="M576.472,600.81c0,.156-30.518.281-68.159.281s-68.163-.125-68.163-.281,30.512-.283,68.163-.283S576.472,600.653,576.472,600.81Z" transform="translate(-440.15 -600.527)" fill="#375a64"/>
            </g>
          </g>
          <g id="Group_128906" data-name="Group 128906" transform="translate(161.736 48.59)">
            <g id="Group_128905" data-name="Group 128905">
              <path id="Path_189800" data-name="Path 189800" d="M554.642,601.09a76.415,76.415,0,0,1-13.1,0,76.382,76.382,0,0,1,13.1,0Z" transform="translate(-541.543 -600.809)" fill="#1a2e35"/>
            </g>
          </g>
          <g id="Group_128908" data-name="Group 128908" transform="translate(179.672 48.59)">
            <g id="Group_128907" data-name="Group 128907" transform="translate(0)">
              <path id="Path_189801" data-name="Path 189801" d="M568.35,601.09a91.132,91.132,0,0,1-14.307,0,91.093,91.093,0,0,1,14.307,0Z" transform="translate(-554.043 -600.809)" fill="#1a2e35"/>
            </g>
          </g>
          <g id="Group_128910" data-name="Group 128910" transform="translate(16.41 59.671)">
            <g id="Group_128909" data-name="Group 128909">
              <path id="Path_189802" data-name="Path 189802" d="M526.905,608.813c0,.158-19.4.283-43.32.283s-43.324-.125-43.324-.283,19.392-.281,43.324-.281S526.905,608.658,526.905,608.813Z" transform="translate(-440.261 -608.532)" fill="#375a64"/>
            </g>
          </g>
          <g id="Group_128912" data-name="Group 128912" transform="translate(15.791 102.529)">
            <g id="Group_128911" data-name="Group 128911" transform="translate(0)">
              <path id="Path_189803" data-name="Path 189803" d="M526.475,638.684c0,.156-19.4.283-43.321.283s-43.324-.126-43.324-.283,19.392-.283,43.324-.283S526.475,638.527,526.475,638.684Z" transform="translate(-439.829 -638.401)" fill="#375a64"/>
            </g>
          </g>
          <g id="Group_128914" data-name="Group 128914" transform="translate(110.959 59.671)">
            <g id="Group_128913" data-name="Group 128913" transform="translate(0)">
              <path id="Path_189804" data-name="Path 189804" d="M529.728,608.813c0,.158-5.276.283-11.784.283s-11.789-.125-11.789-.283,5.276-.281,11.789-.281S529.728,608.658,529.728,608.813Z" transform="translate(-506.155 -608.532)" fill="#1a2e35"/>
            </g>
          </g>
          <g id="Group_128916" data-name="Group 128916" transform="translate(110.711 102.529)">
            <g id="Group_128915" data-name="Group 128915" transform="translate(0)">
              <path id="Path_189805" data-name="Path 189805" d="M529.558,638.684c0,.156-5.277.283-11.787.283s-11.789-.126-11.789-.283,5.277-.283,11.789-.283S529.558,638.527,529.558,638.684Z" transform="translate(-505.982 -638.401)" fill="#1a2e35"/>
            </g>
          </g>
          <g id="Group_128918" data-name="Group 128918" transform="translate(16.251 65.516)">
            <g id="Group_128917" data-name="Group 128917">
              <path id="Path_189806" data-name="Path 189806" d="M445.994,612.886a15.252,15.252,0,0,1-5.844,0,15.317,15.317,0,0,1,5.844,0Z" transform="translate(-440.15 -612.605)" fill="#0ddcf1"/>
            </g>
          </g>
          <g id="Group_128920" data-name="Group 128920" transform="translate(29.551 65.636)">
            <g id="Group_128919" data-name="Group 128919" transform="translate(0)">
              <path id="Path_189807" data-name="Path 189807" d="M462.115,612.97a71.451,71.451,0,0,1-12.7,0,71.76,71.76,0,0,1,12.7,0Z" transform="translate(-449.419 -612.689)" fill="#1a2e35"/>
            </g>
          </g>
          <g id="Group_128922" data-name="Group 128922" transform="translate(44.26 65.636)">
            <g id="Group_128921" data-name="Group 128921" transform="translate(0)">
              <path id="Path_189808" data-name="Path 189808" d="M470.552,612.97a52.532,52.532,0,0,1-10.882,0,52.758,52.758,0,0,1,10.882,0Z" transform="translate(-459.67 -612.689)" fill="#1a2e35"/>
            </g>
          </g>
          <g id="Group_128924" data-name="Group 128924" transform="translate(60.38 65.636)">
            <g id="Group_128923" data-name="Group 128923" transform="translate(0)">
              <path id="Path_189809" data-name="Path 189809" d="M481.988,612.97a54.484,54.484,0,0,1-11.083,0,54.719,54.719,0,0,1,11.083,0Z" transform="translate(-470.905 -612.689)" fill="#1a2e35"/>
            </g>
          </g>
          <g id="Group_128926" data-name="Group 128926" transform="translate(75.695 65.636)">
            <g id="Group_128925" data-name="Group 128925" transform="translate(0)">
              <path id="Path_189810" data-name="Path 189810" d="M491.655,612.97a45.068,45.068,0,0,1-10.077,0,45.262,45.262,0,0,1,10.077,0Z" transform="translate(-481.578 -612.689)" fill="#1a2e35"/>
            </g>
          </g>
          <g id="Group_128928" data-name="Group 128928" transform="translate(88.792 65.636)">
            <g id="Group_128927" data-name="Group 128927">
              <path id="Path_189811" data-name="Path 189811" d="M535.037,612.97c0,.158-9.923.283-22.164.283s-22.167-.125-22.167-.283,9.924-.281,22.167-.281S535.037,612.815,535.037,612.97Z" transform="translate(-490.706 -612.689)" fill="#1a2e35"/>
            </g>
          </g>
          <g id="Group_128930" data-name="Group 128930" transform="translate(16.251 72.971)">
            <g id="Group_128929" data-name="Group 128929" transform="translate(0)">
              <path id="Path_189812" data-name="Path 189812" d="M445.188,618.081a11.365,11.365,0,0,1-5.038,0,11.481,11.481,0,0,1,5.038,0Z" transform="translate(-440.15 -617.801)" fill="#0ddcf1"/>
            </g>
          </g>
          <g id="Group_128932" data-name="Group 128932" transform="translate(16.251 80.629)">
            <g id="Group_128931" data-name="Group 128931" transform="translate(0)">
              <path id="Path_189813" data-name="Path 189813" d="M445.389,623.419a12.273,12.273,0,0,1-5.239,0,12.34,12.34,0,0,1,5.239,0Z" transform="translate(-440.15 -623.138)" fill="#0ddcf1"/>
            </g>
          </g>
          <g id="Group_128934" data-name="Group 128934" transform="translate(16.251 89.293)">
            <g id="Group_128933" data-name="Group 128933" transform="translate(0)">
              <path id="Path_189814" data-name="Path 189814" d="M445.389,629.459a12.4,12.4,0,0,1-5.239,0,12.28,12.28,0,0,1,5.239,0Z" transform="translate(-440.15 -629.176)" fill="#0ddcf1"/>
            </g>
          </g>
          <g id="Group_128936" data-name="Group 128936" transform="translate(30.155 88.891)">
            <g id="Group_128935" data-name="Group 128935">
              <path id="Path_189815" data-name="Path 189815" d="M488.933,629.177c0,.155-8.751.283-19.546.283s-19.547-.128-19.547-.283,8.75-.281,19.547-.281S488.933,629.021,488.933,629.177Z" transform="translate(-449.84 -628.896)" fill="#1a2e35"/>
            </g>
          </g>
          <g id="Group_128938" data-name="Group 128938" transform="translate(28.544 80.629)">
            <g id="Group_128937" data-name="Group 128937" transform="translate(0)">
              <path id="Path_189816" data-name="Path 189816" d="M486,623.419c0,.156-8.347.283-18.64.283s-18.639-.126-18.639-.283,8.344-.281,18.639-.281S486,623.264,486,623.419Z" transform="translate(-448.717 -623.138)" fill="#1a2e35"/>
            </g>
          </g>
          <g id="Group_128940" data-name="Group 128940" transform="translate(28.947 72.569)">
            <g id="Group_128939" data-name="Group 128939">
              <path id="Path_189817" data-name="Path 189817" d="M575.946,617.8c0,.155-28.422.281-63.472.281S449,617.957,449,617.8s28.414-.281,63.475-.281S575.946,617.646,575.946,617.8Z" transform="translate(-448.998 -617.521)" fill="#1a2e35"/>
            </g>
          </g>
        </g>
      </g>
      <g id="Group_128986" data-name="Group 128986" transform="translate(201.926 52.316)">
        <g id="Group_128944" data-name="Group 128944" transform="translate(0)">
          <path id="Path_189818" data-name="Path 189818" d="M586.449,599.806V708.46l-16.893,14.095h88.352V599.806Z" transform="translate(-569.04 -599.653)" fill="#fff"/>
          <g id="Group_128943" data-name="Group 128943">
            <path id="Path_189819" data-name="Path 189819" d="M586.605,599.853s.418-.01,1.247-.017,2.076-.009,3.7-.017c3.264-.007,8.06-.02,14.227-.037,12.377-.017,30.255-.046,52.289-.082h.149l0,.154c.013,32.795.029,75.63.047,122.748v.2H645.671c-26.906,0-52.612-.009-75.958-.014H569.2l.395-.327,16.9-14.09-.066.136c.039-32.484.069-59.666.092-78.732.019-9.512.035-17,.044-22.113.01-2.544.016-4.5.022-5.823,0-.654.007-1.148.01-1.489s.01-.5.01-.5.006.178.01.515.006.849.01,1.509c.006,1.334.013,3.3.02,5.857.012,5.125.027,12.624.047,22.153.02,19.039.053,46.181.089,78.619v.083l-.065.053-16.885,14.1-.119-.328,75.958-.016h12.393l-.2.2c.02-47.118.037-89.953.05-122.748l.152.151-52.2-.08c-6.183-.016-10.988-.029-14.26-.039-1.63-.007-2.878-.014-3.723-.016S586.605,599.853,586.605,599.853Z" transform="translate(-569.196 -599.699)" fill="#1a2e35"/>
          </g>
        </g>
        <rect id="Rectangle_41366" data-name="Rectangle 41366" width="71.657" height="11.079" transform="translate(17.409 0.153)" fill="#084a93"/>
        <g id="Group_128985" data-name="Group 128985" transform="translate(18.108 4.112)">
          <g id="Group_128945" data-name="Group 128945" transform="translate(2.896)">
            <path id="Path_189820" data-name="Path 189820" d="M586.73,604.011a1.448,1.448,0,1,1-1.448-1.446A1.449,1.449,0,0,1,586.73,604.011Z" transform="translate(-583.834 -602.565)" fill="#0ddcf1"/>
            <path id="Path_189821" data-name="Path 189821" d="M590.382,604.011a1.448,1.448,0,1,1-1.448-1.446A1.448,1.448,0,0,1,590.382,604.011Z" transform="translate(-582.246 -602.565)" fill="#0ddcf1"/>
            <path id="Path_189822" data-name="Path 189822" d="M594.032,604.011a1.447,1.447,0,1,1-1.446-1.446A1.447,1.447,0,0,1,594.032,604.011Z" transform="translate(-580.658 -602.565)" fill="#0ddcf1"/>
          </g>
          <g id="Group_128984" data-name="Group 128984" transform="translate(0 6.887)">
            <g id="Group_128947" data-name="Group 128947" transform="translate(10.651 27.805)">
              <g id="Group_128946" data-name="Group 128946">
                <path id="Path_189823" data-name="Path 189823" d="M629.7,626.976c0,.128-9.058.231-20.232.231s-20.234-.1-20.234-.231,9.06-.233,20.234-.233S629.7,626.846,629.7,626.976Z" transform="translate(-589.239 -626.743)" fill="#084a93"/>
              </g>
            </g>
            <g id="Group_128949" data-name="Group 128949" transform="translate(10.309 37.635)">
              <g id="Group_128948" data-name="Group 128948">
                <path id="Path_189824" data-name="Path 189824" d="M638.245,633.824c0,.129-11.023.232-24.621.232s-24.624-.1-24.624-.232,11.024-.23,24.624-.23S638.245,633.7,638.245,633.824Z" transform="translate(-589.001 -633.594)" fill="#084a93"/>
              </g>
            </g>
            <g id="Group_128951" data-name="Group 128951" transform="translate(9.053 74.307)">
              <g id="Group_128950" data-name="Group 128950">
                <path id="Path_189825" data-name="Path 189825" d="M640.634,659.383c0,.128-11.757.232-26.254.232s-26.255-.1-26.255-.232,11.753-.231,26.255-.231S640.634,659.257,640.634,659.383Z" transform="translate(-588.125 -659.152)" fill="#084a93"/>
              </g>
            </g>
            <g id="Group_128953" data-name="Group 128953" transform="translate(9.446 42.634)">
              <g id="Group_128952" data-name="Group 128952" transform="translate(0)">
                <path id="Path_189826" data-name="Path 189826" d="M593.4,637.309a13.576,13.576,0,0,1-5,0,13.66,13.66,0,0,1,5,0Z" transform="translate(-588.399 -637.078)" fill="#084a93"/>
              </g>
            </g>
            <g id="Group_128955" data-name="Group 128955" transform="translate(20.827 42.737)">
              <g id="Group_128954" data-name="Group 128954" transform="translate(0)">
                <path id="Path_189827" data-name="Path 189827" d="M607.194,637.381a63.187,63.187,0,0,1-10.863,0,64,64,0,0,1,10.863,0Z" transform="translate(-596.331 -637.15)" fill="#084a93"/>
              </g>
            </g>
            <g id="Group_128957" data-name="Group 128957" transform="translate(33.414 42.737)">
              <g id="Group_128956" data-name="Group 128956" transform="translate(0)">
                <path id="Path_189828" data-name="Path 189828" d="M614.415,637.381a46.463,46.463,0,0,1-9.312,0,47.061,47.061,0,0,1,9.312,0Z" transform="translate(-605.103 -637.15)" fill="#084a93"/>
              </g>
            </g>
            <g id="Group_128959" data-name="Group 128959" transform="translate(9.446 49.013)">
              <g id="Group_128958" data-name="Group 128958" transform="translate(0)">
                <path id="Path_189829" data-name="Path 189829" d="M592.711,641.755a10.115,10.115,0,0,1-4.312,0,10.172,10.172,0,0,1,4.312,0Z" transform="translate(-588.399 -641.524)" fill="#084a93"/>
              </g>
            </g>
            <g id="Group_128961" data-name="Group 128961" transform="translate(9.446 55.565)">
              <g id="Group_128960" data-name="Group 128960" transform="translate(0)">
                <path id="Path_189830" data-name="Path 189830" d="M592.883,646.323a10.994,10.994,0,0,1-4.484,0,10.929,10.929,0,0,1,4.484,0Z" transform="translate(-588.399 -646.09)" fill="#084a93"/>
              </g>
            </g>
            <g id="Group_128963" data-name="Group 128963" transform="translate(9.446 62.979)">
              <g id="Group_128962" data-name="Group 128962" transform="translate(0)">
                <path id="Path_189831" data-name="Path 189831" d="M592.883,651.488a10.865,10.865,0,0,1-4.484,0,10.994,10.994,0,0,1,4.484,0Z" transform="translate(-588.399 -651.257)" fill="#084a93"/>
              </g>
            </g>
            <g id="Group_128965" data-name="Group 128965" transform="translate(21.344 62.636)">
              <g id="Group_128964" data-name="Group 128964">
                <path id="Path_189832" data-name="Path 189832" d="M630.143,651.249c0,.128-7.489.232-16.723.232s-16.729-.1-16.729-.232,7.489-.231,16.729-.231S630.143,651.121,630.143,651.249Z" transform="translate(-596.691 -651.018)" fill="#084a93"/>
              </g>
            </g>
            <g id="Group_128967" data-name="Group 128967" transform="translate(19.965 55.565)">
              <g id="Group_128966" data-name="Group 128966">
                <path id="Path_189833" data-name="Path 189833" d="M627.63,646.323c0,.128-7.141.231-15.948.231s-15.951-.1-15.951-.231,7.14-.232,15.951-.232S627.63,646.195,627.63,646.323Z" transform="translate(-595.73 -646.09)" fill="#084a93"/>
              </g>
            </g>
            <g id="Group_128969" data-name="Group 128969" transform="translate(12.711 84.097)">
              <g id="Group_128968" data-name="Group 128968" transform="translate(0)">
                <path id="Path_189834" data-name="Path 189834" d="M595.159,666.207a11,11,0,0,1-4.484,0,10.929,10.929,0,0,1,4.484,0Z" transform="translate(-590.675 -665.975)" fill="#084a93"/>
              </g>
            </g>
            <g id="Group_128971" data-name="Group 128971" transform="translate(12.711 91.512)">
              <g id="Group_128970" data-name="Group 128970" transform="translate(0)">
                <path id="Path_189835" data-name="Path 189835" d="M595.159,671.375a11.06,11.06,0,0,1-4.484,0,10.927,10.927,0,0,1,4.484,0Z" transform="translate(-590.675 -671.143)" fill="#084a93"/>
              </g>
            </g>
            <g id="Group_128973" data-name="Group 128973" transform="translate(24.611 91.165)">
              <g id="Group_128972" data-name="Group 128972">
                <path id="Path_189836" data-name="Path 189836" d="M632.417,671.133c0,.128-7.49.234-16.725.234s-16.725-.106-16.725-.234,7.486-.232,16.725-.232S632.417,671.006,632.417,671.133Z" transform="translate(-598.968 -670.901)" fill="#084a93"/>
              </g>
            </g>
            <g id="Group_128975" data-name="Group 128975" transform="translate(23.23 84.097)">
              <g id="Group_128974" data-name="Group 128974">
                <path id="Path_189837" data-name="Path 189837" d="M629.9,666.207c0,.128-7.141.231-15.948.231s-15.95-.1-15.95-.231,7.14-.232,15.95-.232S629.9,666.078,629.9,666.207Z" transform="translate(-598.006 -665.975)" fill="#084a93"/>
              </g>
            </g>
            <g id="Group_128977" data-name="Group 128977" transform="translate(20.312 48.67)">
              <g id="Group_128976" data-name="Group 128976">
                <path id="Path_189838" data-name="Path 189838" d="M639.384,641.515c0,.129-9.718.232-21.705.232s-21.707-.1-21.707-.232,9.716-.23,21.707-.23S639.384,641.388,639.384,641.515Z" transform="translate(-595.972 -641.285)" fill="#084a93"/>
              </g>
            </g>
            <g id="Group_128979" data-name="Group 128979">
              <g id="Group_128978" data-name="Group 128978">
                <path id="Path_189839" data-name="Path 189839" d="M651.9,607.6c0,.126-15.69.232-35.042.232s-35.045-.106-35.045-.232,15.688-.232,35.045-.232S651.9,607.467,651.9,607.6Z" transform="translate(-581.816 -607.365)" fill="#1a2e35"/>
              </g>
            </g>
            <g id="Group_128981" data-name="Group 128981" transform="translate(10.632 21.877)">
              <g id="Group_128980" data-name="Group 128980">
                <path id="Path_189840" data-name="Path 189840" d="M604.028,622.843a117.92,117.92,0,0,1-14.8,0,118.666,118.666,0,0,1,14.8,0Z" transform="translate(-589.226 -622.612)" fill="#084a93"/>
              </g>
            </g>
            <g id="Group_128983" data-name="Group 128983" transform="translate(10.076 8.471)">
              <g id="Group_128982" data-name="Group 128982">
                <path id="Path_189841" data-name="Path 189841" d="M595.819,613.5a26.642,26.642,0,0,1-6.981,0,26.159,26.159,0,0,1,6.981,0Z" transform="translate(-588.838 -613.269)" fill="#084a93"/>
              </g>
            </g>
          </g>
        </g>
      </g>
      <g id="Group_129278" data-name="Group 129278" transform="translate(35.43 98.455)">
        <g id="Group_129023" data-name="Group 129023" transform="translate(42.664 66.878)">
          <g id="Group_129008" data-name="Group 129008" transform="translate(0)">
            <g id="Group_129007" data-name="Group 129007" transform="translate(0)">
              <g id="Group_129006" data-name="Group 129006">
                <g id="Group_128991" data-name="Group 128991">
                  <path id="Path_189842" data-name="Path 189842" d="M511.563,755.088l-17.037-16.843,30.382-52.029a29.327,29.327,0,0,1,11.663-8.109l10.7-4.066,26.6-4.881,18.885,7.438a11.294,11.294,0,0,1,7.075,11.84l-4.941,41.582-2.91,54.146-68.625-11.9,6.905-20.025-.23-31.225Z" transform="translate(-494.526 -669.16)" fill="#26defc"/>
                  <g id="Group_128990" data-name="Group 128990" transform="translate(34.95 33.436)">
                    <g id="Group_128989" data-name="Group 128989" transform="translate(0)">
                      <g id="Group_128988" data-name="Group 128988">
                        <g id="Group_128987" data-name="Group 128987">
                          <path id="Path_189843" data-name="Path 189843" d="M538.94,738.694c-.161,0-.2-10.819-.093-24.156s.328-24.156.488-24.155.2,10.815.091,24.158S539.1,738.7,538.94,738.694Z" transform="translate(-538.786 -690.383)" fill="#26defc"/>
                        </g>
                      </g>
                    </g>
                  </g>
                </g>
                <g id="Group_128993" data-name="Group 128993" transform="translate(37.618 7.438)">
                  <g id="Group_128992" data-name="Group 128992">
                    <path id="Path_189844" data-name="Path 189844" d="M489.605,756.127l41.462-16.693a9.472,9.472,0,0,0,5.911-8.068l3.034-39.753s-.359-16.909,10.2-17.732l6.009,2.368c7.762,4.121,9.687,15.427,8.632,24.155-1.5,12.4-2.128,29.952-3.809,40.717-1.377,8.805-6.663,15.77-15.035,18.819l-51.074,11.055Z" transform="translate(-489.605 -673.881)" fill="#26defc"/>
                  </g>
                </g>
                <g id="Group_128996" data-name="Group 128996" transform="translate(36.142 31.232)">
                  <g id="Group_128995" data-name="Group 128995">
                    <g id="Group_128994" data-name="Group 128994">
                      <path id="Path_189845" data-name="Path 189845" d="M557.2,688.984a5.924,5.924,0,0,0-.131.912q-.1.971-.266,2.62c-.211,2.33-.51,5.607-.878,9.64-.35,4.088-.767,8.931-1.229,14.305q-.168,2.018-.347,4.134a30.96,30.96,0,0,1-.529,4.252,7.065,7.065,0,0,1-2.061,3.726,14.031,14.031,0,0,1-3.825,2.38c-11.436,4.947-21.973,9.032-29.622,11.9l-9.081,3.343-2.47.911a6.094,6.094,0,0,0-.851.353,5.566,5.566,0,0,0,.888-.247q.926-.3,2.5-.811c2.169-.719,5.3-1.8,9.145-3.181,7.693-2.776,18.248-6.8,29.716-11.762a14.445,14.445,0,0,0,3.973-2.483,7.6,7.6,0,0,0,2.212-4,31.425,31.425,0,0,0,.528-4.329q.168-2.115.329-4.139c.416-5.377.792-10.223,1.111-14.314.293-4.038.531-7.321.7-9.656.066-1.1.121-1.979.161-2.628A5.637,5.637,0,0,0,557.2,688.984Z" transform="translate(-505.913 -688.984)" fill="#26defc"/>
                    </g>
                  </g>
                </g>
                <g id="Group_128999" data-name="Group 128999" transform="translate(88.637 52.843)">
                  <g id="Group_128998" data-name="Group 128998" transform="translate(0)">
                    <g id="Group_128997" data-name="Group 128997">
                      <path id="Path_189846" data-name="Path 189846" d="M513.372,702.7a2.179,2.179,0,0,0-.082.534c-.036.414-.082.922-.135,1.534-.125,1.418-.29,3.324-.493,5.642-.225,2.381-.515,5.21-.93,8.342a79.672,79.672,0,0,1-1.87,10.07,15.089,15.089,0,0,1-2.024,4.8,27.657,27.657,0,0,1-3.1,3.806,26.591,26.591,0,0,1-6.636,4.978,24.988,24.988,0,0,1-7.282,2.382,1.824,1.824,0,0,0,.539-.013,11.327,11.327,0,0,0,1.535-.2,20.273,20.273,0,0,0,5.388-1.826,25.971,25.971,0,0,0,6.82-4.969,27.475,27.475,0,0,0,3.182-3.86,15.429,15.429,0,0,0,2.108-4.956,74.548,74.548,0,0,0,1.845-10.154c.388-3.146.636-5.985.813-8.373s.269-4.325.317-5.664c.014-.614.024-1.122.033-1.539A1.815,1.815,0,0,0,513.372,702.7Z" transform="translate(-490.822 -702.702)" fill="#26defc"/>
                    </g>
                  </g>
                </g>
                <g id="Group_129002" data-name="Group 129002" transform="translate(81.989 70.846)">
                  <g id="Group_129001" data-name="Group 129001" transform="translate(0)">
                    <g id="Group_129000" data-name="Group 129000">
                      <path id="Path_189847" data-name="Path 189847" d="M513.556,723.945a6.063,6.063,0,0,0-.753-2.21,14.273,14.273,0,0,0-8.414-7.184,6.089,6.089,0,0,0-2.3-.4c-.017.093.854.268,2.171.77a16.133,16.133,0,0,1,8.2,7C513.162,723.144,513.468,723.977,513.556,723.945Z" transform="translate(-502.09 -714.129)" fill="#26defc"/>
                    </g>
                  </g>
                </g>
                <g id="Group_129005" data-name="Group 129005" transform="translate(49.533 43.051)" opacity="0.3">
                  <g id="Group_129004" data-name="Group 129004">
                    <g id="Group_129003" data-name="Group 129003">
                      <path id="Path_189848" data-name="Path 189848" d="M506.777,738.379c4.433-2.5,8.77-4.427,13.409-6.533s9.175-4.812,12.21-8.9c5.724-7.712,5.071-18.844,10.929-26.456q-.574,7.678-1.149,15.356c-.35,4.69.369,9.328-2.653,12.517-2.544,2.686-7.507,4.745-11.02,5.9-7.061,2.329-14.664,5.79-21.725,8.117" transform="translate(-506.777 -696.486)" fill="#26defc"/>
                    </g>
                  </g>
                </g>
              </g>
            </g>
          </g>
          <path id="Path_189849" data-name="Path 189849" d="M542.474,692.242l-3.586,22.122,3.4-6.265Z" transform="translate(-506.982 -655.878)" opacity="0.3"/>
          <g id="Group_129009" data-name="Group 129009" transform="translate(88.682 22.537)">
            <path id="Path_189850" data-name="Path 189850" d="M489.682,683.641a4.2,4.2,0,0,0,.96.072l2.615.068c2.209.055,5.256.167,8.613.407s6.393.566,8.585.824q1.536.184,2.6.309a3.905,3.905,0,0,0,.961.065,4.06,4.06,0,0,0-.934-.235c-.608-.123-1.487-.277-2.584-.446-2.185-.339-5.221-.714-8.592-.956s-6.431-.3-8.641-.277c-1.108.011-2,.036-2.62.073A4.01,4.01,0,0,0,489.682,683.641Z" transform="translate(-489.682 -683.465)" fill="#375a64"/>
          </g>
          <g id="Group_129010" data-name="Group 129010" transform="translate(87.501 43.864)">
            <path id="Path_189851" data-name="Path 189851" d="M490.442,697.027c-.009.12,5.426.667,12.139,1.223s12.166.906,12.175.786-5.423-.671-12.137-1.226S490.451,696.9,490.442,697.027Z" transform="translate(-490.442 -697.003)" fill="#375a64"/>
          </g>
          <g id="Group_129011" data-name="Group 129011" transform="translate(85.502 66.141)">
            <path id="Path_189852" data-name="Path 189852" d="M491.722,711.146a4.455,4.455,0,0,0,.862.491c.566.295,1.4.684,2.451,1.125a50.715,50.715,0,0,0,17.3,3.874c1.137.047,2.061.054,2.7.027a4.287,4.287,0,0,0,.988-.077,4.325,4.325,0,0,0-.985-.1c-.632-.024-1.55-.079-2.681-.164a60.537,60.537,0,0,1-17.2-3.852c-1.059-.4-1.909-.744-2.494-.994A4.209,4.209,0,0,0,491.722,711.146Z" transform="translate(-491.722 -711.142)" fill="#375a64"/>
          </g>
          <g id="Group_129012" data-name="Group 129012" transform="translate(70.758 77.554)">
            <path id="Path_189853" data-name="Path 189853" d="M512.069,718.395a16.554,16.554,0,0,1,6.976,7.724,4.147,4.147,0,0,0-.457-1.516,12.111,12.111,0,0,0-5.059-5.6A4,4,0,0,0,512.069,718.395Z" transform="translate(-512.067 -718.387)" fill="#375a64"/>
          </g>
          <g id="Group_129013" data-name="Group 129013" transform="translate(51.329 84.126)">
            <path id="Path_189854" data-name="Path 189854" d="M530.447,730.648a16.258,16.258,0,0,0-4.43-8.087c-.1.082,1.2,1.7,2.415,3.936S530.319,730.69,530.447,730.648Z" transform="translate(-526.011 -722.558)" fill="#375a64"/>
          </g>
          <g id="Group_129014" data-name="Group 129014" transform="translate(79.397 10.24)">
            <path id="Path_189855" data-name="Path 189855" d="M503.525,675.682a81.8,81.8,0,0,0,11.806,2.132,41.516,41.516,0,0,0-5.865-1.282A40.448,40.448,0,0,0,503.525,675.682Z" transform="translate(-503.525 -675.66)" fill="#375a64"/>
          </g>
          <g id="Group_129015" data-name="Group 129015" transform="translate(39.701 10.119)">
            <path id="Path_189856" data-name="Path 189856" d="M525.927,677.53a149.966,149.966,0,0,0,16.21-1.922,75.565,75.565,0,0,0-8.129.742A77.428,77.428,0,0,0,525.927,677.53Z" transform="translate(-525.927 -675.583)" fill="#375a64"/>
          </g>
          <g id="Group_129016" data-name="Group 129016" transform="translate(36.312 30.199)">
            <path id="Path_189857" data-name="Path 189857" d="M505.98,688.657a2.175,2.175,0,0,0,.518.036c.391,0,.882.006,1.49.011,1.348,0,3.2,0,5.47-.006,4.619,0,11,.033,18.043.214s13.42.471,18.034.711c2.261.121,4.114.219,5.461.29l1.487.063a2.113,2.113,0,0,0,.52-.006,2.34,2.34,0,0,0-.514-.082l-1.479-.147c-1.289-.121-3.153-.266-5.457-.428-4.611-.32-10.989-.659-18.04-.84s-13.436-.169-18.058-.088c-2.31.042-4.178.095-5.47.148l-1.487.071A2.4,2.4,0,0,0,505.98,688.657Z" transform="translate(-505.98 -688.329)" fill="#375a64"/>
          </g>
          <g id="Group_129017" data-name="Group 129017" transform="translate(35.827 53.893)">
            <path id="Path_189858" data-name="Path 189858" d="M507.814,703.383c-.009.121,10.87.938,24.293,1.82s24.319,1.5,24.326,1.381-10.869-.937-24.3-1.82S507.822,703.262,507.814,703.383Z" transform="translate(-507.814 -703.368)" fill="#375a64"/>
          </g>
          <g id="Group_129018" data-name="Group 129018" transform="translate(36.982 74.499)">
            <path id="Path_189859" data-name="Path 189859" d="M522.39,716.453a4.157,4.157,0,0,0,.917.391c.6.228,1.47.529,2.557.885,2.174.709,5.205,1.6,8.6,2.418s6.5,1.4,8.76,1.752c1.128.18,2.045.307,2.68.376a4.292,4.292,0,0,0,.991.068,4.3,4.3,0,0,0-.964-.236l-2.655-.512c-2.237-.433-5.325-1.063-8.707-1.88s-6.418-1.651-8.608-2.286l-2.6-.747A4.413,4.413,0,0,0,522.39,716.453Z" transform="translate(-522.39 -716.448)" fill="#375a64"/>
          </g>
          <g id="Group_129019" data-name="Group 129019" transform="translate(19.586 37.159)">
            <path id="Path_189860" data-name="Path 189860" d="M538.888,692.758a77.3,77.3,0,0,0,7.9,2.267,76.482,76.482,0,0,0,8.008,1.845,77.132,77.132,0,0,0-7.9-2.269A75.8,75.8,0,0,0,538.888,692.758Z" transform="translate(-538.888 -692.747)" fill="#375a64"/>
          </g>
          <g id="Group_129020" data-name="Group 129020" transform="translate(27.88 21.331)">
            <path id="Path_189861" data-name="Path 189861" d="M539.227,682.735a29.372,29.372,0,0,0,7.077,1.273,29.351,29.351,0,0,0-7.077-1.273Z" transform="translate(-539.227 -682.7)" fill="#375a64"/>
          </g>
          <g id="Group_129021" data-name="Group 129021" transform="translate(87.295 10.796)">
            <path id="Path_189862" data-name="Path 189862" d="M495.109,691.489c.085.014.214-1.405.989-3.53a17.787,17.787,0,0,1,12.569-11.294c2.2-.544,3.622-.522,3.617-.608a3.747,3.747,0,0,0-.994-.038,15.067,15.067,0,0,0-2.692.34,17.219,17.219,0,0,0-12.8,11.5,15.439,15.439,0,0,0-.625,2.641A3.727,3.727,0,0,0,495.109,691.489Z" transform="translate(-495.096 -676.013)" fill="#1a2e35"/>
          </g>
          <g id="Group_129022" data-name="Group 129022" transform="translate(35.398 14.993)">
            <path id="Path_189863" data-name="Path 189863" d="M539.85,678.677a140.743,140.743,0,0,0-2.486,15.537,141.673,141.673,0,0,0,2.486-15.537Z" transform="translate(-537.345 -678.677)" fill="#1a2e35"/>
          </g>
        </g>
        <g id="Group_129059" data-name="Group 129059" transform="translate(0 204.837)">
          <g id="Group_129026" data-name="Group 129026" transform="translate(0 1.702)">
            <g id="Group_129025" data-name="Group 129025">
              <g id="Group_129024" data-name="Group 129024">
                <path id="Path_189864" data-name="Path 189864" d="M596.381,757.809s-31.871,8.821-33.149,9.271c-1.922.676-1.6,7.712,1.388,7.6,1.413-.052,24.482.86,27.4.676s11.709-3.646,11.709-3.646Z" transform="translate(-562.03 -757.809)" fill="#768691"/>
              </g>
            </g>
          </g>
          <g id="Group_129030" data-name="Group 129030" transform="translate(17.412 7.497)">
            <g id="Group_129029" data-name="Group 129029">
              <g id="Group_129028" data-name="Group 129028">
                <g id="Group_129027" data-name="Group 129027">
                  <path id="Path_189865" data-name="Path 189865" d="M578.742,767.854a30.416,30.416,0,0,0-1.405-3.42,30.062,30.062,0,0,0-2.253-2.935,7.093,7.093,0,0,1,3.658,6.355Z" transform="translate(-575.079 -761.487)" fill="#1a2e35"/>
                </g>
              </g>
            </g>
          </g>
          <g id="Group_129034" data-name="Group 129034" transform="translate(21.326 6.267)">
            <g id="Group_129033" data-name="Group 129033" transform="translate(0)">
              <g id="Group_129032" data-name="Group 129032">
                <g id="Group_129031" data-name="Group 129031">
                  <path id="Path_189866" data-name="Path 189866" d="M576.049,766.795c-.154.03-.479-1.478-1.327-3.144s-1.851-2.829-1.736-2.937a7.989,7.989,0,0,1,3.063,6.081Z" transform="translate(-572.978 -760.707)" fill="#1a2e35"/>
                </g>
              </g>
            </g>
          </g>
          <g id="Group_129038" data-name="Group 129038" transform="translate(25.027 5.166)">
            <g id="Group_129037" data-name="Group 129037" transform="translate(0)">
              <g id="Group_129036" data-name="Group 129036">
                <g id="Group_129035" data-name="Group 129035">
                  <path id="Path_189867" data-name="Path 189867" d="M573.385,766.364a21.566,21.566,0,0,0-.744-3.367,21.927,21.927,0,0,0-1.736-2.979,5.979,5.979,0,0,1,2.48,6.346Z" transform="translate(-570.897 -760.007)" fill="#1a2e35"/>
                </g>
              </g>
            </g>
          </g>
          <g id="Group_129042" data-name="Group 129042" transform="translate(26.608)">
            <g id="Group_129041" data-name="Group 129041" transform="translate(0)">
              <g id="Group_129040" data-name="Group 129040">
                <g id="Group_129039" data-name="Group 129039">
                  <path id="Path_189868" data-name="Path 189868" d="M570.127,764.135a5.669,5.669,0,0,1-.342-2.373,11.05,11.05,0,0,1,.323-2.6,11.21,11.21,0,0,1,.473-1.481,1.781,1.781,0,0,1,.512-.781.851.851,0,0,1,1.095.055,1.421,1.421,0,0,1,.424.9,6.725,6.725,0,0,1,.043.841,7.133,7.133,0,0,1-.2,1.561,9.54,9.54,0,0,1-.98,2.437,6.4,6.4,0,0,1-1.434,1.917c-.071-.052.463-.792,1.1-2.094a10.577,10.577,0,0,0,.838-2.37,7,7,0,0,0,.151-1.456c-.014-.488-.006-1.1-.295-1.338a.307.307,0,0,0-.419-.035,1.337,1.337,0,0,0-.35.558,12.137,12.137,0,0,0-.485,1.405,12.877,12.877,0,0,0-.419,2.489C570.067,763.22,570.214,764.121,570.127,764.135Z" transform="translate(-569.785 -756.728)" fill="#1a2e35"/>
                </g>
              </g>
            </g>
          </g>
          <g id="Group_129046" data-name="Group 129046" transform="translate(26.989 6.752)">
            <g id="Group_129045" data-name="Group 129045" transform="translate(0)">
              <g id="Group_129044" data-name="Group 129044">
                <g id="Group_129043" data-name="Group 129043">
                  <path id="Path_189869" data-name="Path 189869" d="M567.318,761.345a4.456,4.456,0,0,1,2.056-.331,9.167,9.167,0,0,1,2.261.276,4.979,4.979,0,0,1,1.3.479,1.343,1.343,0,0,1,.72,1.459,1.59,1.59,0,0,1-1.147,1.136,2.936,2.936,0,0,1-1.429,0,5.466,5.466,0,0,1-2.072-1.021,5.576,5.576,0,0,1-1.481-1.457,14.064,14.064,0,0,1,1.7,1.15,5.665,5.665,0,0,0,1.955.846,2.5,2.5,0,0,0,1.183-.017,1.079,1.079,0,0,0,.775-.756.823.823,0,0,0-.476-.89,4.936,4.936,0,0,0-1.153-.451,10.815,10.815,0,0,0-2.147-.375C568.114,761.3,567.332,761.43,567.318,761.345Z" transform="translate(-567.318 -761.014)" fill="#1a2e35"/>
                </g>
              </g>
            </g>
          </g>
          <g id="Group_129050" data-name="Group 129050" transform="translate(13.982 8.822)">
            <g id="Group_129049" data-name="Group 129049" transform="translate(0)">
              <g id="Group_129048" data-name="Group 129048">
                <g id="Group_129047" data-name="Group 129047">
                  <path id="Path_189870" data-name="Path 189870" d="M580.267,767.71a8.6,8.6,0,0,0-2.19-5.368,4.569,4.569,0,0,1,2.19,5.368Z" transform="translate(-578.07 -762.328)" fill="#1a2e35"/>
                </g>
              </g>
            </g>
          </g>
          <g id="Group_129054" data-name="Group 129054" transform="translate(4.223 15.668)">
            <g id="Group_129053" data-name="Group 129053">
              <g id="Group_129052" data-name="Group 129052">
                <g id="Group_129051" data-name="Group 129051">
                  <path id="Path_189871" data-name="Path 189871" d="M598.3,766.682a6.537,6.537,0,0,1-1.232.58,27.254,27.254,0,0,1-3.546,1.1,50.486,50.486,0,0,1-12.169,1.155c-4.775-.054-9.081-.271-12.2-.394-1.478-.08-2.718-.143-3.694-.2a6.684,6.684,0,0,1-1.352-.145,6.855,6.855,0,0,1,1.358-.061c.978.006,2.218.014,3.7.025,3.227.061,7.483.147,12.192.238a56.889,56.889,0,0,0,12.081-.986C596.488,767.367,598.266,766.583,598.3,766.682Z" transform="translate(-564.112 -766.674)" fill="#1a2e35"/>
                </g>
              </g>
            </g>
          </g>
          <g id="Group_129058" data-name="Group 129058" transform="translate(23.888 13.692)">
            <g id="Group_129057" data-name="Group 129057">
              <g id="Group_129056" data-name="Group 129056">
                <g id="Group_129055" data-name="Group 129055">
                  <path id="Path_189872" data-name="Path 189872" d="M578.985,768.13c-.044.072-.917-.436-2.39-1.082a11.106,11.106,0,0,0-6.028-1,9.552,9.552,0,0,0-5.215,3.1,18.73,18.73,0,0,1-1.837,1.875,9.85,9.85,0,0,1,1.56-2.13,12.577,12.577,0,0,1,2.113-1.977,7.581,7.581,0,0,1,3.293-1.4,10.551,10.551,0,0,1,6.273,1.188A8.487,8.487,0,0,1,578.985,768.13Z" transform="translate(-563.512 -765.419)" fill="#1a2e35"/>
                </g>
              </g>
            </g>
          </g>
        </g>
        <g id="Group_129099" data-name="Group 129099" transform="translate(60.854 199.141)">
          <g id="Group_129062" data-name="Group 129062" transform="translate(0)">
            <g id="Group_129061" data-name="Group 129061">
              <g id="Group_129060" data-name="Group 129060">
                <path id="Path_189873" data-name="Path 189873" d="M533.754,753.113S563.913,772.86,565,773.676c1.623,1.227-.239,7.071-3.052,6.061-1.331-.479-26.641-7.518-29.361-8.577s-10.047-7.033-10.047-7.033Z" transform="translate(-522.536 -753.113)" fill="#768691"/>
              </g>
            </g>
          </g>
          <g id="Group_129066" data-name="Group 129066" transform="translate(20.155 10.65)">
            <g id="Group_129065" data-name="Group 129065" transform="translate(0)">
              <g id="Group_129064" data-name="Group 129064">
                <g id="Group_129063" data-name="Group 129063">
                  <path id="Path_189874" data-name="Path 189874" d="M533.646,764.84a7.075,7.075,0,0,1,5.415-4.942,13.966,13.966,0,0,0-5.415,4.942Z" transform="translate(-533.626 -759.873)" fill="#1a2e35"/>
                </g>
              </g>
            </g>
          </g>
          <g id="Group_129070" data-name="Group 129070" transform="translate(17.45 8.293)">
            <g id="Group_129069" data-name="Group 129069" transform="translate(0)">
              <g id="Group_129068" data-name="Group 129068">
                <g id="Group_129067" data-name="Group 129067">
                  <path id="Path_189875" data-name="Path 189875" d="M535.773,763.259a7.992,7.992,0,0,1,4.766-4.866c.077.138-1.245.931-2.546,2.273S535.911,763.332,535.773,763.259Z" transform="translate(-535.756 -758.377)" fill="#1a2e35"/>
                </g>
              </g>
            </g>
          </g>
          <g id="Group_129074" data-name="Group 129074" transform="translate(14.71 6.117)">
            <g id="Group_129073" data-name="Group 129073" transform="translate(0)">
              <g id="Group_129072" data-name="Group 129072">
                <g id="Group_129071" data-name="Group 129071">
                  <path id="Path_189876" data-name="Path 189876" d="M537.822,762.312a5.981,5.981,0,0,1,4.292-5.3,11.19,11.19,0,0,0-4.292,5.3Z" transform="translate(-537.781 -756.996)" fill="#1a2e35"/>
                </g>
              </g>
            </g>
          </g>
          <g id="Group_129078" data-name="Group 129078" transform="translate(15.474 0.137)">
            <g id="Group_129077" data-name="Group 129077">
              <g id="Group_129076" data-name="Group 129076">
                <g id="Group_129075" data-name="Group 129075">
                  <path id="Path_189877" data-name="Path 189877" d="M539.451,760.745c-.081-.038.332-.854.682-2.256a12.9,12.9,0,0,0,.354-2.5,11.356,11.356,0,0,0-.035-1.489,1.343,1.343,0,0,0-.162-.635.31.31,0,0,0-.414-.095c-.342.137-.523.723-.685,1.185a7.037,7.037,0,0,0-.3,1.435,10.4,10.4,0,0,0,.079,2.51c.211,1.432.493,2.3.408,2.328a6.411,6.411,0,0,1-.78-2.265,9.428,9.428,0,0,1-.2-2.618,6.9,6.9,0,0,1,.287-1.544,5.823,5.823,0,0,1,.3-.791,1.4,1.4,0,0,1,.677-.729.852.852,0,0,1,1.06.28,1.78,1.78,0,0,1,.249.9,11.276,11.276,0,0,1-.479,4.129A5.69,5.69,0,0,1,539.451,760.745Z" transform="translate(-538.385 -753.2)" fill="#1a2e35"/>
                </g>
              </g>
            </g>
          </g>
          <g id="Group_129082" data-name="Group 129082" transform="translate(9.985 5.979)">
            <g id="Group_129081" data-name="Group 129081" transform="translate(0)">
              <g id="Group_129080" data-name="Group 129080">
                <g id="Group_129079" data-name="Group 129079">
                  <path id="Path_189878" data-name="Path 189878" d="M545.947,758.289c-.038.079-.744-.282-1.958-.577a10.837,10.837,0,0,0-2.161-.3,4.963,4.963,0,0,0-1.237.079.824.824,0,0,0-.722.7,1.077,1.077,0,0,0,.509.958,2.507,2.507,0,0,0,1.12.373,5.611,5.611,0,0,0,2.121-.211,14.476,14.476,0,0,1,1.968-.581,5.625,5.625,0,0,1-1.857.942,5.462,5.462,0,0,1-2.28.34,2.93,2.93,0,0,1-1.364-.43,1.594,1.594,0,0,1-.747-1.434,1.336,1.336,0,0,1,1.128-1.167,4.924,4.924,0,0,1,1.383-.061,9.138,9.138,0,0,1,2.242.422A4.4,4.4,0,0,1,545.947,758.289Z" transform="translate(-539.333 -756.908)" fill="#1a2e35"/>
                </g>
              </g>
            </g>
          </g>
          <g id="Group_129086" data-name="Group 129086" transform="translate(34.712 18.071)">
            <g id="Group_129085" data-name="Group 129085" transform="translate(0)">
              <g id="Group_129084" data-name="Group 129084">
                <g id="Group_129083" data-name="Group 129083">
                  <path id="Path_189879" data-name="Path 189879" d="M526.116,772.035c-.035.047-.507-.306-.737-1.171a4.446,4.446,0,0,1,.564-3.272,11.961,11.961,0,0,1,1.011-1.506,5.6,5.6,0,0,1,1.022-1.1,1.8,1.8,0,0,1,.964-.4c.252-.011.38.052.377.082a2.88,2.88,0,0,0-1.1.61,7.046,7.046,0,0,0-.87,1.1,17.315,17.315,0,0,0-.942,1.472,4.667,4.667,0,0,0-.662,2.941C525.856,771.572,526.187,771.981,526.116,772.035Z" transform="translate(-525.264 -764.583)" fill="#1a2e35"/>
                </g>
              </g>
            </g>
          </g>
          <g id="Group_129090" data-name="Group 129090" transform="translate(24.682 12.95)">
            <g id="Group_129089" data-name="Group 129089" transform="translate(0)">
              <g id="Group_129088" data-name="Group 129088">
                <g id="Group_129087" data-name="Group 129087">
                  <path id="Path_189880" data-name="Path 189880" d="M531.865,765.814a4.564,4.564,0,0,1,3.715-4.451,8.588,8.588,0,0,0-3.715,4.451Z" transform="translate(-531.808 -761.333)" fill="#1a2e35"/>
                </g>
              </g>
            </g>
          </g>
          <g id="Group_129094" data-name="Group 129094" transform="translate(3.101 12.077)">
            <g id="Group_129093" data-name="Group 129093">
              <g id="Group_129092" data-name="Group 129092">
                <g id="Group_129091" data-name="Group 129091">
                  <path id="Path_189881" data-name="Path 189881" d="M523.722,760.781a10.939,10.939,0,0,1,1.325.91,38.8,38.8,0,0,0,3.718,2.28,49.385,49.385,0,0,0,5.908,2.629c2.283.851,4.844,1.653,7.553,2.439,5.426,1.563,10.337,2.989,13.881,4.057l4.191,1.286a9.473,9.473,0,0,1,1.519.542,9.474,9.474,0,0,1-1.574-.34c-1.095-.291-2.519-.671-4.238-1.127-3.573-.972-8.5-2.343-13.928-3.906-2.715-.786-5.286-1.608-7.578-2.492a44.4,44.4,0,0,1-5.913-2.759,29.527,29.527,0,0,1-3.661-2.442A8.434,8.434,0,0,1,523.722,760.781Z" transform="translate(-523.721 -760.779)" fill="#1a2e35"/>
                </g>
              </g>
            </g>
          </g>
          <g id="Group_129098" data-name="Group 129098" transform="translate(1.983 11.636)">
            <g id="Group_129097" data-name="Group 129097">
              <g id="Group_129096" data-name="Group 129096">
                <g id="Group_129095" data-name="Group 129095">
                  <path id="Path_189882" data-name="Path 189882" d="M539.809,761.35a8.4,8.4,0,0,1,2.557-.681,10.529,10.529,0,0,1,6.338.774,7.587,7.587,0,0,1,2.714,2.33,12.807,12.807,0,0,1,1.412,2.524,9.9,9.9,0,0,1,.838,2.506,19.064,19.064,0,0,1-1.18-2.346,9.56,9.56,0,0,0-4.025-4.539,11.1,11.1,0,0,0-6.05-.876C540.813,761.211,539.828,761.432,539.809,761.35Z" transform="translate(-539.809 -760.499)" fill="#1a2e35"/>
                </g>
              </g>
            </g>
          </g>
        </g>
        <g id="Group_129119" data-name="Group 129119" transform="translate(0.292 148.142)">
          <g id="Group_129102" data-name="Group 129102">
            <g id="Group_129101" data-name="Group 129101">
              <g id="Group_129100" data-name="Group 129100">
                <path id="Path_189883" data-name="Path 189883" d="M537.166,722.36s-9.048,3.228-9.085,13.375c-.073,19.432,39.263,40.851,39.263,40.851L619.69,741.9l3.28-1.328S552.307,714.029,537.166,722.36Z" transform="translate(-528.08 -720.742)" fill="#113356"/>
              </g>
            </g>
          </g>
          <g id="Group_129106" data-name="Group 129106" transform="translate(33.36 11.433)">
            <g id="Group_129105" data-name="Group 129105">
              <g id="Group_129104" data-name="Group 129104">
                <g id="Group_129103" data-name="Group 129103">
                  <path id="Path_189884" data-name="Path 189884" d="M578.727,755.246a10.093,10.093,0,0,1-1.364-.926c-.859-.622-2.084-1.542-3.581-2.7-3-2.316-7.075-5.6-11.461-9.364s-8.251-7.3-10.992-9.916c-1.372-1.3-2.47-2.376-3.214-3.129A10.324,10.324,0,0,1,546.993,728a9.2,9.2,0,0,1,1.264,1.056c.855.774,1.976,1.783,3.327,3,2.807,2.539,6.7,6.023,11.085,9.788s8.413,7.083,11.349,9.473c1.409,1.15,2.579,2.1,3.471,2.834A9.652,9.652,0,0,1,578.727,755.246Z" transform="translate(-546.992 -727.999)" fill="#375a64"/>
                </g>
              </g>
            </g>
          </g>
          <g id="Group_129110" data-name="Group 129110" transform="translate(23.862 8.748)">
            <g id="Group_129109" data-name="Group 129109" transform="translate(0)">
              <g id="Group_129108" data-name="Group 129108">
                <g id="Group_129107" data-name="Group 129107">
                  <path id="Path_189885" data-name="Path 189885" d="M567.114,726.426a12.99,12.99,0,0,1,9.53,2.812c-.087.14-1.993-1.078-4.637-1.842C569.378,726.6,567.113,726.59,567.114,726.426Z" transform="translate(-567.114 -726.295)" fill="#375a64"/>
                </g>
              </g>
            </g>
          </g>
          <g id="Group_129114" data-name="Group 129114" transform="translate(28.369 5.804)">
            <g id="Group_129113" data-name="Group 129113" transform="translate(0)">
              <g id="Group_129112" data-name="Group 129112">
                <g id="Group_129111" data-name="Group 129111">
                  <path id="Path_189886" data-name="Path 189886" d="M567.286,724.44a7.956,7.956,0,0,1,4.731,5.858c-.151.052-.723-1.577-2.043-3.189C568.676,725.482,567.2,724.577,567.286,724.44Z" transform="translate(-567.283 -724.426)" fill="#375a64"/>
                </g>
              </g>
            </g>
          </g>
          <g id="Group_129118" data-name="Group 129118" transform="translate(6.206 67.293)">
            <g id="Group_129117" data-name="Group 129117" transform="translate(0)">
              <g id="Group_129116" data-name="Group 129116">
                <g id="Group_129115" data-name="Group 129115">
                  <path id="Path_189887" data-name="Path 189887" d="M582.516,763.51c-.028-.061.622-.186,1.349.41a4.886,4.886,0,0,1,1.512,3.037,5.966,5.966,0,0,1-.476,3.351c-.37.8-.78,1.169-.824,1.129-.071-.049.216-.49.474-1.27a6.768,6.768,0,0,0,.3-3.134,5.248,5.248,0,0,0-1.238-2.834C583.058,763.62,582.505,763.6,582.516,763.51Z" transform="translate(-582.515 -763.455)" fill="#1a2e35"/>
                </g>
              </g>
            </g>
          </g>
        </g>
        <g id="Group_129126" data-name="Group 129126" transform="translate(12.873 117.421)">
          <g id="Group_129123" data-name="Group 129123">
            <g id="Group_129122" data-name="Group 129122">
              <g id="Group_129121" data-name="Group 129121">
                <path id="Path_189888" data-name="Path 189888" d="M515.426,705.936l14.891,40.119a5.778,5.778,0,0,0,5.5,3.767l81.977-1.079v-6.228l-30.419,1.111-12.916-40.043a3.27,3.27,0,0,0-3.119-2.267l-52.878.153A3.268,3.268,0,0,0,515.426,705.936Z" transform="translate(-515.178 -701.2)" fill="#fdb32b"/>
                <g id="Group_129120" data-name="Group 129120">
                  <path id="Path_189889" data-name="Path 189889" d="M515.357,705.978s-.011-.042-.034-.126a2.9,2.9,0,0,1-.1-.373,3.17,3.17,0,0,1,.033-1.5,3.271,3.271,0,0,1,1.438-1.941,3.211,3.211,0,0,1,1.489-.47c.562-.025,1.177-.008,1.82-.013l22.061-.025c4.7-.009,9.873-.021,15.46-.03q4.187-.01,8.682-.017l4.561-.011a3.594,3.594,0,0,1,2.185.48,3.181,3.181,0,0,1,1.355,1.783c3.9,12.109,8.238,25.579,12.874,39.975l.03.093.1,0,30.417-1.106-.136-.132v6.228l.129-.132-51.548.692c-7.9.11-15.4.211-22.411.309q-2.626.033-5.163.071l-2.511.035a6,6,0,0,1-2.384-.348,5.668,5.668,0,0,1-3.283-3.162q-.822-2.188-1.6-4.276c-4.156-11.143-7.51-20.137-9.831-26.366-1.161-3.1-2.062-5.5-2.678-7.146-.616-1.629-.948-2.481-.948-2.481s.3.865.9,2.5,1.492,4.06,2.631,7.165c2.3,6.231,5.632,15.238,9.755,26.393q.782,2.091,1.593,4.282a5.886,5.886,0,0,0,3.4,3.28,6.2,6.2,0,0,0,2.455.364l2.51-.031q2.536-.028,5.166-.066c7.011-.087,14.508-.181,22.409-.28l51.55-.666.131,0v-6.5l-.139.006c-10.5.384-20.717.756-30.417,1.114l.126.09c-4.648-14.395-9-27.86-12.906-39.966a3.432,3.432,0,0,0-1.453-1.9,3.846,3.846,0,0,0-2.3-.509l-4.561.017-8.685.031c-5.583.021-10.756.043-15.457.06l-22.061.1c-.644.008-1.251-.006-1.826.023a3.257,3.257,0,0,0-1.519.49,3.33,3.33,0,0,0-1.449,1.985,3.172,3.172,0,0,0-.008,1.523A3.109,3.109,0,0,0,515.357,705.978Z" transform="translate(-515.11 -701.242)" fill="#1a2e35"/>
                </g>
              </g>
            </g>
          </g>
          <g id="Group_129125" data-name="Group 129125" transform="translate(31.604 19.498)">
            <g id="Group_129124" data-name="Group 129124" transform="translate(0)">
              <path id="Path_189890" data-name="Path 189890" d="M561.118,714.026a3.684,3.684,0,0,0-3.984.425,3.221,3.221,0,0,0-.78,3.531,3.5,3.5,0,0,0,2.994,2.092,3.15,3.15,0,0,0,3.165-2.091c.38-1.311-.042-3.267-1.394-3.957" transform="translate(-556.126 -713.618)" fill="#fff"/>
            </g>
          </g>
        </g>
        <g id="Group_129135" data-name="Group 129135" transform="translate(30.38 152.198)">
          <g id="Group_129129" data-name="Group 129129" transform="translate(0.348 0.16)">
            <g id="Group_129128" data-name="Group 129128">
              <g id="Group_129127" data-name="Group 129127">
                <path id="Path_189891" data-name="Path 189891" d="M495.963,777.232s73.879-47.322,77.14-49.179c2.773-1.579,10.2-6.149,17.514-4.129s13.881,8.58,17.163,18.169c1.873,5.48,2.759,14.83,3.176,21.839a32.4,32.4,0,0,1-7.583,23.1,20.651,20.651,0,0,1-9.223,6.548c-.77.239-1.571.447-2.39.625a34.785,34.785,0,0,1-36.21-15.2l-1.727-2.625s-48.382,17.774-49.138,17.522Z" transform="translate(-495.963 -723.418)" fill="#113356"/>
              </g>
            </g>
          </g>
          <g id="Group_129130" data-name="Group 129130" transform="translate(73.675)">
            <path id="Path_189892" data-name="Path 189892" d="M495.749,730.733a.843.843,0,0,0,.184-.109c.137-.093.307-.211.517-.353.452-.312,1.12-.775,2-1.336a38.844,38.844,0,0,1,7.846-3.987A21.125,21.125,0,0,1,512.2,723.7a17.045,17.045,0,0,1,6.8,1.111,21.966,21.966,0,0,1,6.532,3.961,29.924,29.924,0,0,1,2.9,2.848,21.165,21.165,0,0,1,2.4,3.414,34.878,34.878,0,0,1,3.187,7.611c.695,2.577,1.253,5.123,1.783,7.526a68.665,68.665,0,0,1,1.7,12.963,46.8,46.8,0,0,1-.669,8.786c-.164,1.03-.345,1.82-.458,2.359-.047.249-.088.451-.118.615a.681.681,0,0,0-.027.213.865.865,0,0,0,.069-.2c.044-.159.1-.358.162-.6.142-.533.351-1.319.54-2.349a44.192,44.192,0,0,0,.815-8.821,67.343,67.343,0,0,0-1.615-13.04c-.525-2.423-1.067-4.948-1.768-7.564a35.087,35.087,0,0,0-3.22-7.713,21.47,21.47,0,0,0-2.451-3.48,29.968,29.968,0,0,0-2.949-2.89,22.234,22.234,0,0,0-6.667-4.013,17.311,17.311,0,0,0-6.959-1.093,21.166,21.166,0,0,0-6,1.317,37.123,37.123,0,0,0-7.833,4.137c-.87.588-1.521,1.073-1.957,1.408-.2.158-.361.285-.491.391A.751.751,0,0,0,495.749,730.733Z" transform="translate(-495.749 -723.316)" fill="#375a64"/>
          </g>
          <g id="Group_129134" data-name="Group 129134" transform="translate(0 3.406)">
            <g id="Group_129133" data-name="Group 129133">
              <g id="Group_129132" data-name="Group 129132">
                <g id="Group_129131" data-name="Group 129131">
                  <path id="Path_189893" data-name="Path 189893" d="M602.762,762.693s-.132.068-.4.18l-1.211.48c-1.09.419-2.666,1.027-4.689,1.8-4.114,1.55-10.048,3.787-17.426,6.565-7.4,2.762-16.268,6.047-26.215,9.665s-20.974,7.584-32.747,11.575l-.213.069-.105-.2c-1.849-3.531-3.8-7.253-5.779-11.034-1.01-1.927-2.01-3.842-2.948-5.627l-.112-.216.2-.129c22.209-14.1,42.077-26.713,56.415-35.815L584.48,729.32c1.983-1.24,3.531-2.2,4.6-2.872.515-.313.914-.559,1.2-.736.273-.162.419-.235.419-.235s-.128.1-.389.279c-.284.188-.674.447-1.175.777-1.059.688-2.589,1.682-4.55,2.955-3.989,2.562-9.738,6.255-16.857,10.83-14.316,9.136-34.152,21.8-56.325,35.952l.091-.348c.936,1.788,1.938,3.7,2.944,5.627,1.979,3.781,3.931,7.507,5.777,11.036l-.318-.126c11.767-3.977,22.8-7.928,32.752-11.515,9.946-3.617,18.826-6.852,26.256-9.555,7.4-2.715,13.355-4.9,17.479-6.412,2.037-.742,3.625-1.317,4.723-1.717l1.227-.435C602.615,762.729,602.762,762.693,602.762,762.693Z" transform="translate(-510.912 -725.478)" fill="#375a64"/>
                </g>
              </g>
            </g>
          </g>
        </g>
        <g id="Group_129277" data-name="Group 129277" transform="translate(70.495 0)">
          <path id="Path_189894" data-name="Path 189894" d="M558.854,662.541a38.053,38.053,0,0,0,3.285-7.852,12.816,12.816,0,0,0-.44-8.361c-.687-1.514-1.769-2.84-2.308-4.413-.744-2.165-.44-4.72-1.78-6.573-2.092-2.9-6.574-2.225-9.812-3.742-2.521-1.182-4.284-3.732-6.938-4.583-2.316-.742-4.841-.03-7.08.926s-4.419,2.179-6.831,2.494a48.078,48.078,0,0,1-5.2.014,6.845,6.845,0,0,0-4.8,1.654c-1.221,1.232-1.479,3.507-.158,4.63-3.03-.515-5.891,2.515-5.851,5.591s2.357,5.788,5.156,7.066a18.321,18.321,0,0,0,9.063,1.125c8.687-.676,17.413-3.978,23.328-10.377" transform="translate(-510.945 -626.709)" fill="#9e6f08"/>
          <g id="Group_129265" data-name="Group 129265" transform="translate(6.318 4.762)">
            <g id="Group_129242" data-name="Group 129242" transform="translate(1.991 1.508)">
              <g id="Group_129241" data-name="Group 129241">
                <g id="Group_129240" data-name="Group 129240">
                  <g id="Group_129156" data-name="Group 129156">
                    <g id="Group_129155" data-name="Group 129155">
                      <g id="Group_129154" data-name="Group 129154">
                        <g id="Group_129144" data-name="Group 129144">
                          <g id="Group_129143" data-name="Group 129143">
                            <g id="Group_129142" data-name="Group 129142">
                              <g id="Group_129141" data-name="Group 129141">
                                <g id="Group_129140" data-name="Group 129140">
                                  <g id="Group_129139" data-name="Group 129139">
                                    <g id="Group_129138" data-name="Group 129138">
                                      <g id="Group_129137" data-name="Group 129137">
                                        <g id="Group_129136" data-name="Group 129136">
                                          <path id="Path_189895" data-name="Path 189895" d="M548.425,649.383l5.916,43.008a12.916,12.916,0,0,1-11.668,14.628h0a12.92,12.92,0,0,1-13.922-11.127c-.443-3.236-.819-5.935-.885-6.266,0,0-11.091.477-13.374-10.251-1.1-5.185-2.5-16.047-3.657-25.891a20.426,20.426,0,0,1,16.3-22.4l1.037-.208C539.486,629.292,547.155,638.021,548.425,649.383Z" transform="translate(-510.694 -630.689)" fill="#ffbf9d"/>
                                        </g>
                                      </g>
                                    </g>
                                  </g>
                                </g>
                              </g>
                            </g>
                          </g>
                        </g>
                        <g id="Group_129153" data-name="Group 129153" transform="translate(17.122 51.999)">
                          <g id="Group_129152" data-name="Group 129152">
                            <g id="Group_129151" data-name="Group 129151">
                              <g id="Group_129150" data-name="Group 129150">
                                <g id="Group_129149" data-name="Group 129149">
                                  <g id="Group_129148" data-name="Group 129148">
                                    <g id="Group_129147" data-name="Group 129147">
                                      <g id="Group_129146" data-name="Group 129146">
                                        <g id="Group_129145" data-name="Group 129145">
                                          <path id="Path_189896" data-name="Path 189896" d="M519.213,670.48a25.511,25.511,0,0,0,13.226-6.785s-1.769,8.4-12.693,9.577Z" transform="translate(-519.213 -663.695)" fill="#ff9a6c"/>
                                        </g>
                                      </g>
                                    </g>
                                  </g>
                                </g>
                              </g>
                            </g>
                          </g>
                        </g>
                      </g>
                    </g>
                  </g>
                  <g id="Group_129239" data-name="Group 129239" transform="translate(3.076 16.27)">
                    <g id="Group_129238" data-name="Group 129238" transform="translate(0)">
                      <g id="Group_129219" data-name="Group 129219" transform="translate(0.387 6.105)">
                        <g id="Group_129218" data-name="Group 129218" transform="translate(0)">
                          <g id="Group_129217" data-name="Group 129217">
                            <g id="Group_129176" data-name="Group 129176" transform="translate(0 2.939)">
                              <g id="Group_129165" data-name="Group 129165" transform="translate(1.48 4.905)">
                                <g id="Group_129164" data-name="Group 129164">
                                  <g id="Group_129163" data-name="Group 129163">
                                    <g id="Group_129162" data-name="Group 129162">
                                      <g id="Group_129161" data-name="Group 129161">
                                        <g id="Group_129160" data-name="Group 129160">
                                          <g id="Group_129159" data-name="Group 129159">
                                            <g id="Group_129158" data-name="Group 129158">
                                              <g id="Group_129157" data-name="Group 129157">
                                                <path id="Path_189897" data-name="Path 189897" d="M533.367,651.59a1.569,1.569,0,0,0,1.791,1.253,1.5,1.5,0,0,0,1.308-1.7,1.568,1.568,0,0,0-1.788-1.256A1.5,1.5,0,0,0,533.367,651.59Z" transform="translate(-533.348 -649.87)" fill="#1a2e35"/>
                                              </g>
                                            </g>
                                          </g>
                                        </g>
                                      </g>
                                    </g>
                                  </g>
                                </g>
                              </g>
                              <g id="Group_129175" data-name="Group 129175">
                                <g id="Group_129174" data-name="Group 129174">
                                  <g id="Group_129173" data-name="Group 129173">
                                    <g id="Group_129172" data-name="Group 129172">
                                      <g id="Group_129171" data-name="Group 129171">
                                        <g id="Group_129170" data-name="Group 129170">
                                          <g id="Group_129169" data-name="Group 129169">
                                            <g id="Group_129168" data-name="Group 129168">
                                              <g id="Group_129167" data-name="Group 129167">
                                                <g id="Group_129166" data-name="Group 129166">
                                                  <path id="Path_189898" data-name="Path 189898" d="M532.45,649.054c.23.162,1.221-.931,2.875-1.256,1.648-.351,3.031.257,3.17.021.069-.109-.2-.432-.8-.711a4.32,4.32,0,0,0-2.587-.263,4.109,4.109,0,0,0-2.237,1.249C532.439,648.586,532.339,648.985,532.45,649.054Z" transform="translate(-532.408 -646.757)" fill="#1a2e35"/>
                                                </g>
                                              </g>
                                            </g>
                                          </g>
                                        </g>
                                      </g>
                                    </g>
                                  </g>
                                </g>
                              </g>
                            </g>
                            <g id="Group_129196" data-name="Group 129196" transform="translate(16.308)">
                              <g id="Group_129185" data-name="Group 129185" transform="translate(0.587 5.182)">
                                <g id="Group_129184" data-name="Group 129184">
                                  <g id="Group_129183" data-name="Group 129183">
                                    <g id="Group_129182" data-name="Group 129182">
                                      <g id="Group_129181" data-name="Group 129181">
                                        <g id="Group_129180" data-name="Group 129180">
                                          <g id="Group_129179" data-name="Group 129179">
                                            <g id="Group_129178" data-name="Group 129178">
                                              <g id="Group_129177" data-name="Group 129177">
                                                <path id="Path_189899" data-name="Path 189899" d="M523.582,649.9a1.567,1.567,0,0,0,1.791,1.254,1.5,1.5,0,0,0,1.308-1.7,1.567,1.567,0,0,0-1.79-1.254A1.5,1.5,0,0,0,523.582,649.9Z" transform="translate(-523.564 -648.181)" fill="#1a2e35"/>
                                              </g>
                                            </g>
                                          </g>
                                        </g>
                                      </g>
                                    </g>
                                  </g>
                                </g>
                              </g>
                              <g id="Group_129195" data-name="Group 129195" transform="translate(0)">
                                <g id="Group_129194" data-name="Group 129194">
                                  <g id="Group_129193" data-name="Group 129193">
                                    <g id="Group_129192" data-name="Group 129192">
                                      <g id="Group_129191" data-name="Group 129191">
                                        <g id="Group_129190" data-name="Group 129190">
                                          <g id="Group_129189" data-name="Group 129189">
                                            <g id="Group_129188" data-name="Group 129188">
                                              <g id="Group_129187" data-name="Group 129187">
                                                <g id="Group_129186" data-name="Group 129186">
                                                  <path id="Path_189900" data-name="Path 189900" d="M522.1,647.192c.23.161,1.221-.933,2.877-1.259,1.646-.35,3.028.258,3.167.019.071-.107-.194-.428-.8-.709a4.333,4.333,0,0,0-2.588-.265,4.15,4.15,0,0,0-2.237,1.252C522.089,646.723,521.987,647.12,522.1,647.192Z" transform="translate(-522.057 -644.892)" fill="#1a2e35"/>
                                                </g>
                                              </g>
                                            </g>
                                          </g>
                                        </g>
                                      </g>
                                    </g>
                                  </g>
                                </g>
                              </g>
                            </g>
                            <g id="Group_129206" data-name="Group 129206" transform="translate(8.316 1.832)">
                              <g id="Group_129205" data-name="Group 129205" transform="translate(0)">
                                <g id="Group_129204" data-name="Group 129204">
                                  <g id="Group_129203" data-name="Group 129203">
                                    <g id="Group_129202" data-name="Group 129202">
                                      <g id="Group_129201" data-name="Group 129201">
                                        <g id="Group_129200" data-name="Group 129200">
                                          <g id="Group_129199" data-name="Group 129199">
                                            <g id="Group_129198" data-name="Group 129198">
                                              <g id="Group_129197" data-name="Group 129197">
                                                <path id="Path_189901" data-name="Path 189901" d="M532.638,659.977a11.045,11.045,0,0,0-2.782.052c-.432.039-.846.035-.975-.238a2.173,2.173,0,0,1,.033-1.308c.194-1.1.391-2.254.605-3.464.819-4.92,1.322-8.934,1.123-8.964s-1.024,3.932-1.842,8.854q-.291,1.815-.551,3.472a2.5,2.5,0,0,0,.113,1.7,1.081,1.081,0,0,0,.818.479,2.812,2.812,0,0,0,.736-.046A11.188,11.188,0,0,0,532.638,659.977Z" transform="translate(-528.153 -646.055)" fill="#1a2e35"/>
                                              </g>
                                            </g>
                                          </g>
                                        </g>
                                      </g>
                                    </g>
                                  </g>
                                </g>
                              </g>
                            </g>
                            <g id="Group_129216" data-name="Group 129216" transform="translate(13.5 15.923)">
                              <g id="Group_129215" data-name="Group 129215" transform="translate(0)">
                                <g id="Group_129214" data-name="Group 129214">
                                  <g id="Group_129213" data-name="Group 129213">
                                    <g id="Group_129212" data-name="Group 129212">
                                      <g id="Group_129211" data-name="Group 129211">
                                        <g id="Group_129210" data-name="Group 129210">
                                          <g id="Group_129209" data-name="Group 129209">
                                            <g id="Group_129208" data-name="Group 129208">
                                              <g id="Group_129207" data-name="Group 129207">
                                                <path id="Path_189902" data-name="Path 189902" d="M528.99,655c-.273.038.083,1.832-1.2,3.412s-3.23,1.765-3.193,2.018c0,.118.495.263,1.308.123a4.553,4.553,0,0,0,2.688-1.58,3.989,3.989,0,0,0,.888-2.839C529.4,655.368,529.112,654.966,528.99,655Z" transform="translate(-524.598 -654.999)" fill="#1a2e35"/>
                                              </g>
                                            </g>
                                          </g>
                                        </g>
                                      </g>
                                    </g>
                                  </g>
                                </g>
                              </g>
                            </g>
                          </g>
                        </g>
                      </g>
                      <g id="Group_129228" data-name="Group 129228" transform="translate(14.991)">
                        <g id="Group_129227" data-name="Group 129227">
                          <g id="Group_129226" data-name="Group 129226">
                            <g id="Group_129225" data-name="Group 129225">
                              <g id="Group_129224" data-name="Group 129224">
                                <g id="Group_129223" data-name="Group 129223">
                                  <g id="Group_129222" data-name="Group 129222">
                                    <g id="Group_129221" data-name="Group 129221">
                                      <g id="Group_129220" data-name="Group 129220">
                                        <path id="Path_189903" data-name="Path 189903" d="M522.134,643.028c.254.419,1.861-.124,3.846-.281,1.983-.192,3.66.063,3.838-.391.074-.216-.28-.585-1-.892a6.37,6.37,0,0,0-2.984-.422,6.441,6.441,0,0,0-2.869.933C522.311,642.4,522.021,642.829,522.134,643.028Z" transform="translate(-522.11 -641.017)" fill="#9e6f08"/>
                                      </g>
                                    </g>
                                  </g>
                                </g>
                              </g>
                            </g>
                          </g>
                        </g>
                      </g>
                      <g id="Group_129237" data-name="Group 129237" transform="translate(0 4.067)">
                        <g id="Group_129236" data-name="Group 129236" transform="translate(0)">
                          <g id="Group_129235" data-name="Group 129235">
                            <g id="Group_129234" data-name="Group 129234">
                              <g id="Group_129233" data-name="Group 129233">
                                <g id="Group_129232" data-name="Group 129232">
                                  <g id="Group_129231" data-name="Group 129231">
                                    <g id="Group_129230" data-name="Group 129230">
                                      <g id="Group_129229" data-name="Group 129229">
                                        <path id="Path_189904" data-name="Path 189904" d="M533.016,645.969c.367.317,1.429-.3,2.792-.592,1.358-.34,2.581-.255,2.768-.7.079-.214-.18-.555-.758-.807a4.128,4.128,0,0,0-4.477,1.04C532.932,645.391,532.85,645.81,533.016,645.969Z" transform="translate(-532.935 -643.598)" fill="#9e6f08"/>
                                      </g>
                                    </g>
                                  </g>
                                </g>
                              </g>
                            </g>
                          </g>
                        </g>
                      </g>
                    </g>
                  </g>
                </g>
              </g>
            </g>
            <g id="Group_129262" data-name="Group 129262" transform="translate(40.434 27.39)">
              <g id="Group_129251" data-name="Group 129251" transform="translate(0)">
                <g id="Group_129250" data-name="Group 129250">
                  <g id="Group_129249" data-name="Group 129249">
                    <g id="Group_129248" data-name="Group 129248">
                      <g id="Group_129247" data-name="Group 129247">
                        <g id="Group_129246" data-name="Group 129246">
                          <g id="Group_129245" data-name="Group 129245">
                            <g id="Group_129244" data-name="Group 129244">
                              <g id="Group_129243" data-name="Group 129243">
                                <path id="Path_189905" data-name="Path 189905" d="M508.794,648.068c.167-.117,6.952-3.663,8.186,3.739s-6.45,7.11-6.5,6.9S508.794,648.068,508.794,648.068Z" transform="translate(-508.794 -647.118)" fill="#ffbf9d"/>
                              </g>
                            </g>
                          </g>
                        </g>
                      </g>
                    </g>
                  </g>
                </g>
              </g>
              <g id="Group_129261" data-name="Group 129261" transform="translate(3.119 2.305)">
                <g id="Group_129260" data-name="Group 129260">
                  <g id="Group_129259" data-name="Group 129259">
                    <g id="Group_129258" data-name="Group 129258">
                      <g id="Group_129257" data-name="Group 129257">
                        <g id="Group_129256" data-name="Group 129256">
                          <g id="Group_129255" data-name="Group 129255">
                            <g id="Group_129254" data-name="Group 129254">
                              <g id="Group_129253" data-name="Group 129253">
                                <g id="Group_129252" data-name="Group 129252">
                                  <path id="Path_189906" data-name="Path 189906" d="M510.385,654.683c.027-.028.142.069.377.134a1.315,1.315,0,0,0,.967-.142,3.231,3.231,0,0,0,1-3.105,4.3,4.3,0,0,0-.67-1.788,1.509,1.509,0,0,0-1.134-.829.663.663,0,0,0-.7.482c-.066.224.006.362-.031.383-.017.022-.18-.1-.17-.413a.838.838,0,0,1,.213-.514.984.984,0,0,1,.682-.306,1.832,1.832,0,0,1,1.538.922,4.433,4.433,0,0,1,.792,1.988c.2,1.5-.329,3.022-1.349,3.508a1.4,1.4,0,0,1-1.212,0C510.428,654.861,510.36,654.7,510.385,654.683Z" transform="translate(-510.021 -648.581)" fill="#ff9a6c"/>
                                </g>
                              </g>
                            </g>
                          </g>
                        </g>
                      </g>
                    </g>
                  </g>
                </g>
              </g>
            </g>
            <g id="Group_129264" data-name="Group 129264" transform="translate(0)">
              <g id="Group_129263" data-name="Group 129263">
                <path id="Path_189907" data-name="Path 189907" d="M513.532,644.043c1.271,2.738,7.8,3.794,12.586,2.349,4.41-1.334,6.012-4.132,8.819-6.576,1.775-1.544,1.775-1.544,4.674-1.843,2.341-.241,4.224,2.091,5.995,3.643-.986,5.881,1.629,11.7,4.177,17.093a3,3,0,0,0,1.2,1.527c1,.493,2.2-.288,2.8-1.235a9.233,9.233,0,0,0,1.037-5.19,30.853,30.853,0,0,0-2.453-11.914,21.009,21.009,0,0,0-7.735-9.264,19.92,19.92,0,0,0-14.716-2.439,24.437,24.437,0,0,0-12.9,7.746,14.324,14.324,0,0,0-3.475,6.1" transform="translate(-513.532 -629.732)" fill="#9e6f08"/>
              </g>
            </g>
          </g>
          <g id="Group_129274" data-name="Group 129274" transform="translate(6.753 26.484)">
            <g id="Group_129267" data-name="Group 129267" transform="translate(0 3.065)">
              <g id="Group_129266" data-name="Group 129266">
                <path id="Path_189908" data-name="Path 189908" d="M544.78,652.879c-.064,0-.042-.637-.337-1.721a7.136,7.136,0,0,0-2.62-3.8,6.96,6.96,0,0,0-6.549-.945,6.832,6.832,0,0,0-3.184,2.409,6.852,6.852,0,0,0,0,8.117,6.819,6.819,0,0,0,3.184,2.407,6.96,6.96,0,0,0,6.549-.944,7.142,7.142,0,0,0,2.62-3.8c.295-1.082.273-1.724.337-1.72a1.385,1.385,0,0,1,.036.46,5.55,5.55,0,0,1-.15,1.317,7.123,7.123,0,0,1-2.585,4.082,7.376,7.376,0,0,1-10.464-1.454,7.386,7.386,0,0,1,0-8.81,7.372,7.372,0,0,1,10.463-1.454,7.118,7.118,0,0,1,2.587,4.082,5.55,5.55,0,0,1,.15,1.317A1.4,1.4,0,0,1,544.78,652.879Z" transform="translate(-530.16 -645.465)" fill="#1a2e35"/>
              </g>
            </g>
            <g id="Group_129269" data-name="Group 129269" transform="translate(17.552)">
              <g id="Group_129268" data-name="Group 129268">
                <path id="Path_189909" data-name="Path 189909" d="M533.638,650.932c-.063,0-.041-.636-.336-1.719a7.132,7.132,0,0,0-2.622-3.8,6.952,6.952,0,0,0-6.546-.942,6.84,6.84,0,0,0-3.189,2.406,6.867,6.867,0,0,0,0,8.118,6.829,6.829,0,0,0,3.189,2.406,6.957,6.957,0,0,0,6.546-.942,7.126,7.126,0,0,0,2.622-3.8c.294-1.081.273-1.722.336-1.72a1.417,1.417,0,0,1,.038.462,5.592,5.592,0,0,1-.148,1.315,7.13,7.13,0,0,1-2.59,4.082,7.367,7.367,0,0,1-10.461-1.453,7.389,7.389,0,0,1,0-8.811,7.369,7.369,0,0,1,10.461-1.454,7.138,7.138,0,0,1,2.59,4.084,5.6,5.6,0,0,1,.148,1.317A1.386,1.386,0,0,1,533.638,650.932Z" transform="translate(-519.019 -643.52)" fill="#1a2e35"/>
              </g>
            </g>
            <g id="Group_129271" data-name="Group 129271" transform="translate(13.785 7.022)">
              <g id="Group_129270" data-name="Group 129270" transform="translate(0)">
                <path id="Path_189910" data-name="Path 189910" d="M532.143,648.617c-.072.15-1.015-.29-2.106.044s-1.642,1.213-1.786,1.128c-.069-.033-.033-.314.213-.689a2.633,2.633,0,0,1,3.126-.937C532,648.336,532.184,648.552,532.143,648.617Z" transform="translate(-528.219 -647.977)" fill="#1a2e35"/>
              </g>
            </g>
            <g id="Group_129273" data-name="Group 129273" transform="translate(31.583 5.135)">
              <g id="Group_129272" data-name="Group 129272" transform="translate(0)">
                <path id="Path_189911" data-name="Path 189911" d="M523.263,647.161a46.466,46.466,0,0,1-10.53-.148,46.459,46.459,0,0,1,10.53.148Z" transform="translate(-512.733 -646.78)" fill="#1a2e35"/>
              </g>
            </g>
          </g>
          <g id="Group_129275" data-name="Group 129275" transform="translate(2.862 12.012)">
            <path id="Path_189912" data-name="Path 189912" d="M531.628,634.334a2.174,2.174,0,0,0,.115.706,3.488,3.488,0,0,0,1.109,1.593,4.88,4.88,0,0,0,2.663,1.089,13.254,13.254,0,0,0,3.527-.184,60.438,60.438,0,0,0,6.28-1.267c.794-.206,1.431-.389,1.87-.525.18-.055.343-.109.5-.159a.674.674,0,0,0,.17-.068.894.894,0,0,0-.18.033c-.162.039-.331.084-.512.129-.547.136-1.171.291-1.881.466-1.591.383-3.8.851-6.275,1.216a13.623,13.623,0,0,1-3.485.2,4.859,4.859,0,0,1-2.6-1.024,3.492,3.492,0,0,1-1.125-1.519C531.658,634.589,531.648,634.331,531.628,634.334Z" transform="translate(-531.627 -634.334)" fill="#fff"/>
          </g>
          <g id="Group_129276" data-name="Group 129276" transform="translate(1.223 13.692)">
            <path id="Path_189913" data-name="Path 189913" d="M535.953,635.4a6.822,6.822,0,0,0,.633,2.024,8.665,8.665,0,0,0,8.345,4.991,6.806,6.806,0,0,0,2.083-.4,4.632,4.632,0,0,0-.559.106,9.43,9.43,0,0,1-1.53.168,8.785,8.785,0,0,1-8.225-4.918,9.4,9.4,0,0,1-.575-1.426A4.708,4.708,0,0,0,535.953,635.4Z" transform="translate(-535.953 -635.4)" fill="#fff"/>
          </g>
        </g>
      </g>
    </g>
  </g>
</svg>
