<svg xmlns="http://www.w3.org/2000/svg" width="85" height="85.014" viewBox="0 0 85 85.014">
  <g id="_1" data-name="1" transform="translate(-0.042 0)">
    <path id="Path_193328" data-name="Path 193328" d="M130.145,223.861v9.64l10.617.333a.039.039,0,0,0,0,0l.012-.007V223.817A12.723,12.723,0,0,1,130.145,223.861Z" transform="translate(-108.5 -186.654)" fill="#eab883"/>
    <path id="Path_193329" data-name="Path 193329" d="M135.128,225.222a12.288,12.288,0,0,1-4.983-1.14v9.64l6.1.191-.772-2.133C134.918,230.258,135.209,229.423,135.128,225.222Z" transform="translate(-108.5 -186.875)" fill="#dda36f"/>
    <path id="Path_193330" data-name="Path 193330" d="M143.991,268.807a7.6,7.6,0,0,1-8.916-.053l-.069-.05v10.632h9.128V268.7Z" transform="translate(-112.555 -224.088)" fill="#efefef"/>
    <path id="Path_193331" data-name="Path 193331" d="M142.518,277.27l-2.552-7.055a7.916,7.916,0,0,1-4.958-1.51v10.632h5.014C140.893,278.7,142.518,277.27,142.518,277.27Z" transform="translate(-112.555 -224.088)" fill="#ddd"/>
    <path id="Path_193332" data-name="Path 193332" d="M58.822,298.339l-4.38-27.223a5.982,5.982,0,0,0-4.568-4.644h0l-4.892-1.354-.6-.352-9.808,8.792,0-.006a1.464,1.464,0,0,1-2.739,0l0,.006-9.808-8.792-.6.352-4.892,1.354h0a5.982,5.982,0,0,0-4.568,4.644L7.6,298.339a5.282,5.282,0,0,0,5.179,6.234H53.643A5.282,5.282,0,0,0,58.822,298.339Z" transform="translate(-6.239 -220.804)" fill="#00defc"/>
    <g id="Group_132615" data-name="Group 132615" transform="translate(1.285 40.512)">
      <path id="Path_193333" data-name="Path 193333" d="M12.57,304.411l4.38-29.547a5.741,5.741,0,0,1,1.391-2.816l-1.795.5h0a5.983,5.983,0,0,0-4.568,4.644L7.6,304.411a5.282,5.282,0,0,0,5.179,6.234h4.972A5.282,5.282,0,0,1,12.57,304.411Z" transform="translate(-7.524 -267.388)" fill="#00b6cf"/>
      <path id="Path_193334" data-name="Path 193334" d="M101.731,256.228l-10.4-8.441,6.446-3.8V246Z" transform="translate(-77.411 -243.985)" fill="#00b6cf"/>
      <path id="Path_193335" data-name="Path 193335" d="M170.455,256.228l10.4-8.441-6.468-3.8V246Z" transform="translate(-143.401 -243.985)" fill="#00b6cf"/>
    </g>
    <path id="Path_193336" data-name="Path 193336" d="M110.09,418.648v6.062h12.858v-6.062a3.588,3.588,0,0,1,2.718-3.475c-2.3-1.166-3.155-3.661-3.466-5.153a1.5,1.5,0,0,0-1.463-1.2h-8.533a1.5,1.5,0,0,0-1.463,1.2c-.31,1.485-1.156,3.963-3.434,5.135A3.589,3.589,0,0,1,110.09,418.648Z" transform="translate(-89.455 -340.941)" fill="#00defc"/>
    <path id="Path_193337" data-name="Path 193337" d="M114.386,424.71v-5.92a3.828,3.828,0,0,0-.725-2.246,3.131,3.131,0,0,1,.029-3.585,9.791,9.791,0,0,0,1.4-3.446,1.626,1.626,0,0,1,.328-.69h-3.209a1.5,1.5,0,0,0-1.463,1.2c-.31,1.485-1.156,3.963-3.434,5.135a3.589,3.589,0,0,1,2.782,3.491v6.062Z" transform="translate(-89.456 -340.941)" fill="#00b6cf"/>
    <g id="Group_132616" data-name="Group 132616" transform="translate(19.722 76.826)">
      <path id="Path_193338" data-name="Path 193338" d="M169.491,462.688h-.327a6.963,6.963,0,0,0-6.943,6.943h7.269v-6.943Z" transform="translate(-154.972 -462.688)" fill="#eab883"/>
      <path id="Path_193339" data-name="Path 193339" d="M118.563,462.688v6.943h7.249a6.963,6.963,0,0,0-6.943-6.943Z" transform="translate(-118.563 -462.688)" fill="#eab883"/>
    </g>
    <g id="Group_132617" data-name="Group 132617" transform="translate(19.722 80.298)">
      <path id="Path_193340" data-name="Path 193340" d="M162.222,487.065h7.269v-3.471h-6.331A6.882,6.882,0,0,0,162.222,487.065Z" transform="translate(-154.973 -483.594)" fill="#dda36f"/>
      <path id="Path_193341" data-name="Path 193341" d="M118.563,483.594v3.471h7.249a6.884,6.884,0,0,0-.939-3.471Z" transform="translate(-118.563 -483.594)" fill="#dda36f"/>
    </g>
    <path id="Path_193342" data-name="Path 193342" d="M91.973,12.02a1.941,1.941,0,0,1-1.1-.675C86.55,5.961,75.062,6.407,69.089,12.38c-5.5,5.5-2.459,14.286-2.459,14.286H97.065C99.724,15.5,94.014,12.466,91.973,12.02Z" transform="translate(-54.83 -6.326)" fill="#727997"/>
    <path id="Path_193343" data-name="Path 193343" d="M76.639,12.382a16.889,16.889,0,0,1,8.453-4.387,17.967,17.967,0,0,0-16,4.387c-5.5,5.5-2.459,14.286-2.459,14.286h7.55S71.135,17.886,76.639,12.382Z" transform="translate(-54.83 -6.327)" fill="#5e6897"/>
    <g id="Group_132618" data-name="Group 132618" transform="translate(10.333 18.84)">
      <path id="Path_193344" data-name="Path 193344" d="M63.5,114.191l0,0a3.007,3.007,0,0,0,0,5.183l0,0a4.446,4.446,0,0,0,2.477.729v-6.63h0A4.447,4.447,0,0,0,63.5,114.191Z" transform="translate(-62.018 -113.462)" fill="#eab883"/>
      <path id="Path_193345" data-name="Path 193345" d="M241.551,114.192l0,0a3.248,3.248,0,0,1,1.435,2.085l0,.014c.009.049.016.1.023.148,0,.014,0,.028,0,.041,0,.042.009.085.012.128s0,.076,0,.114c0,.019,0,.038,0,.057,0,0,0,0,0,0s0,0,0,0c0,.019,0,.038,0,.057,0,.038,0,.076,0,.114s-.007.086-.012.128c0,.014,0,.028,0,.042-.006.05-.014.1-.023.148l0,.014a3.247,3.247,0,0,1-1.435,2.085l0,0a4.447,4.447,0,0,1-2.477.729v-6.63A4.49,4.49,0,0,1,241.551,114.192Z" transform="translate(-209.675 -113.464)" fill="#eab883"/>
    </g>
    <g id="Group_132619" data-name="Group 132619" transform="translate(10.332 20.663)">
      <path id="Path_193346" data-name="Path 193346" d="M63.5,125.546a3.518,3.518,0,0,1-1.057-1.1,2.979,2.979,0,0,0,1.057,4.083l0,0a4.446,4.446,0,0,0,2.477.729v-2.983a4.445,4.445,0,0,1-2.477-.729Z" transform="translate(-62.013 -124.446)" fill="#dda36f"/>
      <path id="Path_193347" data-name="Path 193347" d="M243.036,125.875c0-.038,0-.076,0-.114s-.007-.086-.012-.128c0-.014,0-.028,0-.041-.006-.05-.014-.1-.023-.148l0-.014a2.93,2.93,0,0,0-.379-.985,3.512,3.512,0,0,1-1.057,1.1l0,0a4.447,4.447,0,0,1-2.477.729v2.983a4.446,4.446,0,0,0,2.477-.729l0,0a3.247,3.247,0,0,0,1.435-2.085l0-.014c.009-.049.016-.1.023-.148,0-.014,0-.028,0-.041,0-.043.009-.085.012-.128s0-.076,0-.114c0-.019,0-.038,0-.057,0,0,0,0,0,0s0,0,0,0C243.038,125.913,243.036,125.894,243.036,125.875Z" transform="translate(-209.674 -124.445)" fill="#dda36f"/>
    </g>
    <path id="Path_193348" data-name="Path 193348" d="M111.152,105.6v-4.27a5.48,5.48,0,0,1-5.059-1.973,1.13,1.13,0,0,0-1.554-.231c-3.01,2.182-11.493,5.557-18.86,2.2v2.439h-.014a52.086,52.086,0,0,0,.357,8.273,12.667,12.667,0,0,0,2.727,5.346c7.732,8.99,22.4,3.409,22.4-8.292,0-1.441,0-2.583,0-3.5h0Z" transform="translate(-71.399 -82.489)" fill="#f7cf9c"/>
    <path id="Path_193349" data-name="Path 193349" d="M90.96,124.175A52.084,52.084,0,0,1,90.6,115.9h.014v-1.12a15.809,15.809,0,0,1-4.937-1.319V115.9h-.014a52.106,52.106,0,0,0,.357,8.273,12.64,12.64,0,0,0,14.729,9.551A12.8,12.8,0,0,1,90.96,124.175Z" transform="translate(-71.399 -94.623)" fill="#eab883"/>
    <path id="Path_193350" data-name="Path 193350" d="M273.271,229.268c-44.884,0-41.895-.087-42.509.247a2.046,2.046,0,0,0-1.071,1.8v32.7a2.046,2.046,0,0,0,2.046,2.046h41.534a2.046,2.046,0,0,0,2.046-2.046v-32.7A2.32,2.32,0,0,0,273.271,229.268Z" transform="translate(-191.517 -191.191)" fill="#efefef"/>
    <path id="Path_193351" data-name="Path 193351" d="M236.809,264.023v-32.7a2.046,2.046,0,0,1,2.046-2.046c-7.211.083-7.294-.187-8.094.247a2.046,2.046,0,0,0-1.071,1.8v32.7a2.046,2.046,0,0,0,2.046,2.046h7.118A2.046,2.046,0,0,1,236.809,264.023Z" transform="translate(-191.517 -191.2)" fill="#ddd"/>
    <path id="Path_193352" data-name="Path 193352" d="M328.168,79.936h-26.6a2,2,0,0,0-1.992,1.992V95.376a2,2,0,0,0,1.992,1.992h23.412a2.188,2.188,0,0,1,1.472.569l1.941,1.763a1.056,1.056,0,0,0,1.766-.781V81.929A2,2,0,0,0,328.168,79.936Z" transform="translate(-249.8 -66.663)" fill="#ffb30b"/>
    <path id="Path_193353" data-name="Path 193353" d="M305.114,95.376V81.928a2,2,0,0,1,1.992-1.992h-5.535a2,2,0,0,0-1.992,1.992V95.376a2,2,0,0,0,1.992,1.992h5.535A2,2,0,0,1,305.114,95.376Z" transform="translate(-249.8 -66.663)" fill="#eba200"/>
    <circle id="Ellipse_4827" data-name="Ellipse 4827" cx="2.701" cy="2.701" r="2.701" transform="translate(58.256 44.757)" fill="#ccc"/>
    <path id="Path_193354" data-name="Path 193354" d="M353.319,269.56a2.7,2.7,0,1,0,2.337,4.047A2.7,2.7,0,0,1,353.319,269.56Z" transform="translate(-292.361 -224.801)" fill="#bcbbb8"/>
    <path id="Path_193355" data-name="Path 193355" d="M349.18,363.745V338.427a0,0,0,0,0,0,0h-9.341a0,0,0,0,0,0,0v25.318Z" transform="translate(-283.369 -282.229)" fill="#ddd"/>
    <path id="Path_193356" data-name="Path 193356" d="M344.506,338.427a0,0,0,0,1,0,0h-4.675a0,0,0,0,0,0,0v25.318h4.675Z" transform="translate(-283.369 -282.229)" fill="#ccc"/>
    <path id="Path_193357" data-name="Path 193357" d="M331.655,479.612h0a2.254,2.254,0,0,0-2.254-2.254H316.294a2.254,2.254,0,0,0-2.254,2.254h0a2.253,2.253,0,0,0,2.254,2.254H329.4A2.254,2.254,0,0,0,331.655,479.612Z" transform="translate(-261.86 -398.096)" fill="#efefef"/>
    <path id="Path_193358" data-name="Path 193358" d="M320.742,479.612h0A2.254,2.254,0,0,1,323,477.358h-6.7a2.254,2.254,0,0,0-2.254,2.254h0a2.253,2.253,0,0,0,2.254,2.254H323A2.254,2.254,0,0,1,320.742,479.612Z" transform="translate(-261.861 -398.096)" fill="#ddd"/>
    <path id="Path_193359" data-name="Path 193359" d="M343.117,265.994a3.946,3.946,0,1,0,3.946-3.946A3.951,3.951,0,0,0,343.117,265.994Zm5.4,0a1.456,1.456,0,1,1-1.456-1.456A1.458,1.458,0,0,1,348.519,265.994Z" transform="translate(-286.109 -218.537)"/>
    <path id="Path_193360" data-name="Path 193360" d="M254.746,410.5a1.245,1.245,0,1,0,0,2.49h3.833a1.245,1.245,0,0,0,0-2.49Z" transform="translate(-211.373 -342.342)"/>
    <path id="Path_193361" data-name="Path 193361" d="M304.079,410.869a1.257,1.257,0,0,0-1.124-.34,1.237,1.237,0,0,0-.232.071,1.28,1.28,0,0,0-.216.115,1.214,1.214,0,0,0-.344.344,1.282,1.282,0,0,0-.186.448,1.24,1.24,0,0,0,.746,1.393,1.242,1.242,0,0,0,1.625-1.625A1.66,1.66,0,0,0,304.079,410.869Z" transform="translate(-251.782 -342.343)"/>
    <path id="Path_193362" data-name="Path 193362" d="M338.092,105.134a1.245,1.245,0,0,0-1.761,0l-3.073,3.073a1.245,1.245,0,0,0,0,1.761l3.073,3.073a1.245,1.245,0,0,0,1.761-1.761l-2.193-2.193,2.193-2.192A1.245,1.245,0,0,0,338.092,105.134Z" transform="translate(-277.583 -87.373)"/>
    <path id="Path_193363" data-name="Path 193363" d="M414.479,113.406c.891,0,.964-.61,3.954-3.438a1.245,1.245,0,0,0,0-1.761l-3.073-3.073a1.245,1.245,0,1,0-1.761,1.761l2.193,2.192L413.6,111.28A1.247,1.247,0,0,0,414.479,113.406Z" transform="translate(-344.583 -87.373)"/>
    <path id="Path_193364" data-name="Path 193364" d="M374.642,97.192l-3.451,9.483a1.245,1.245,0,1,0,2.34.852l3.451-9.483a1.245,1.245,0,1,0-2.34-.852Z" transform="translate(-309.459 -80.371)"/>
    <path id="Path_193365" data-name="Path 193365" d="M81.751,36.832c-43.284.14-41.732-.348-43.1.4a3.291,3.291,0,0,0-1.722,2.893v1.761l-3.408-2.072v-.877A13.716,13.716,0,0,0,40.97,26.6v-.019a5.52,5.52,0,0,0,1.806-.731,1.235,1.235,0,0,0,.128-.076,4.385,4.385,0,0,0,2.029-3.514,4.191,4.191,0,0,0-1.342-3.179c.988-4.647.655-8.333-1-10.962a8.186,8.186,0,0,0-5.212-3.647.7.7,0,0,1-.4-.238c-3.509-4.373-11.3-5.528-18.121-2.688a1.245,1.245,0,0,0,.957,2.3C25.561,1.46,32.247,2.315,35.041,5.8A3.2,3.2,0,0,0,36.85,6.91a5.711,5.711,0,0,1,3.636,2.539c1.212,1.931,1.486,4.739.82,8.358a5.285,5.285,0,0,0-1.9-.179A4.2,4.2,0,0,1,35.646,16.1a2.373,2.373,0,0,0-3.262-.468c-2.77,2.007-10.643,5.14-17.448,2.149a1.231,1.231,0,0,0-.664-.182.812.812,0,0,0-.1,0,5.87,5.87,0,0,0-1.6.241c-.938-4.067-.289-8.193,2.732-11.089h0a1.245,1.245,0,1,0-1.724-1.8c-3.9,3.739-4.687,9.116-3.248,14.192-2.573,2.574-1.1,6.667,2.722,7.45a19.981,19.981,0,0,0,.331,3.244A13.822,13.822,0,0,0,16.38,35.71,14.246,14.246,0,0,0,20.4,38.968V39.8l-5.691,3.358c-.017,0-5.154,1.427-4.825,1.337a7.116,7.116,0,0,0-5.365,5.573c0,.015-.006.031-.008.046L.128,77.337a6.626,6.626,0,0,0,6.541,7.677H47.4a6.482,6.482,0,0,0,4.157-1.506,3.5,3.5,0,0,0,2.872,1.506H67.538a3.5,3.5,0,0,0,0-7h-.485v-1.9h4.995a1.245,1.245,0,0,0,0-2.49H67.053V57.27a1.246,1.246,0,0,0-.614-2.328H55.681a1.246,1.246,0,0,0-.467,2.4V73.624c-16.555,0-15.256.073-15.563-.235-.34-.34-.234,1.666-.234-33.266a.8.8,0,0,1,.8-.8c44.249.034,41.58-.086,41.915.1a.8.8,0,0,1,.42.705v32.7a.8.8,0,0,1-.42.705c-.31.168-.213.064-4.273.1a1.245,1.245,0,1,0,0,2.49c3.7-.1,4.862.394,6.219-.964a3.269,3.269,0,0,0,.964-2.328v-32.7A3.291,3.291,0,0,0,81.751,36.832ZM33.379,75.6a8.192,8.192,0,0,0-6.41,3.836A8.193,8.193,0,0,0,20.58,75.6a3.607,3.607,0,0,0-.906-1.145A9.264,9.264,0,0,0,22.5,69.127h8.939a9.255,9.255,0,0,0,2.837,5.338A3.6,3.6,0,0,0,33.379,75.6ZM26.758,52.291l-2.015-5.2a8.78,8.78,0,0,0,4.522,0L27.217,52.3a.223.223,0,0,1-.228.155C26.821,52.455,26.8,52.395,26.758,52.291Zm4.27-12.33v2.655l-.47,1.2a6.339,6.339,0,0,1-7.081.005L22.888,42.3v-2.29A13.924,13.924,0,0,0,31.027,39.961Zm5.582,4.645-5.372,4.278c2.342-5.955,2.311-5.723,2.281-6.158ZM40.971,23.99V20.32C42.9,21.093,42.959,23.194,40.971,23.99ZM13.009,20.32c-.017.972-.032,2.292-.019,3.661C11.018,23.176,11.081,21.091,13.009,20.32Zm5.26,13.767C14.847,30.1,15.592,26.436,15.5,20.652c6.205,1.995,13.924.124,18.25-2.94a6.5,6.5,0,0,0,4.731,2.412c0,.607-.007,2.875,0,6.482C38.48,37.19,25.22,42.168,18.268,34.087Zm2.139,8.6c.044.348.174.463,2.342,6.151l-5.376-4.361ZM9.9,44.493q-.052.018-.1.041A.888.888,0,0,1,9.9,44.493ZM2.587,77.732l4.376-27.2c.774-3.8,4.333-3.634,7.948-4.848l4.243,3.442v8a1.245,1.245,0,0,0,2.49,0V51.149l2.957,2.4a2.736,2.736,0,0,0,4.771.006l2.96-2.357v5.931a1.245,1.245,0,0,0,2.49,0V49.213l2.1-1.674c.012,26.986-.026,25.257.028,25.692a4.713,4.713,0,0,1-2.333-2.343,8.846,8.846,0,0,1-.851-3.068,1.245,1.245,0,0,0-1.243-1.182H21.413a1.248,1.248,0,0,0-1.243,1.178,8.847,8.847,0,0,1-.851,3.072c-1.84,3.656-5.181,2.526-6.491,2.737l2.38-16.088a1.245,1.245,0,1,0-2.463-.365L10.31,73.624H9.027a1.245,1.245,0,1,0,0,2.49H17.38a1.1,1.1,0,0,1,1.095,1.091v5.318H6.669A4.135,4.135,0,0,1,2.587,77.732Zm18.378,4.791V78.149a5.714,5.714,0,0,1,4.622,4.375Zm12.028-4.379v4.378H28.351A5.714,5.714,0,0,1,32.993,78.145Zm35.553,3.37a1.009,1.009,0,0,1-1.008,1.008H54.43a1.008,1.008,0,1,1,0-2.016H67.538A1.009,1.009,0,0,1,68.546,81.516ZM57.7,78.017V57.438h6.859V78.017Zm-2.49,0a8.09,8.09,0,0,0-1.337.048c-.037-.524-.088-.673-.286-1.951h1.623Zm-4.146-1.9.285,1.771A4,4,0,0,1,47.4,82.524H35.484V77.206a1.1,1.1,0,0,1,1.095-1.091Z" transform="translate(0 0)"/>
    <path id="Path_193366" data-name="Path 193366" d="M295.3,92.359h23.412c.618,0,.743.436,2.575,2.009a2.3,2.3,0,0,0,3.849-1.7v-7.2a1.245,1.245,0,1,0-2.49,0v6.767c-1.2-.927-2-2.368-3.933-2.368H295.3a.757.757,0,0,1-.747-.747V75.675a.757.757,0,0,1,.747-.747h26.6a.757.757,0,0,1,.747.747v3.984a1.245,1.245,0,1,0,2.49,0V75.675a3.241,3.241,0,0,0-3.237-3.238H295.3a3.241,3.241,0,0,0-3.237,3.238V89.122A3.241,3.241,0,0,0,295.3,92.359Z" transform="translate(-243.529 -60.409)"/>
  </g>
</svg>
