<svg xmlns="http://www.w3.org/2000/svg" width="610" height="392" viewBox="0 0 610 392">
  <g id="_10" data-name="10" transform="translate(-495 -6001)">
    <path id="Path_193520" data-name="Path 193520" d="M0,0H610V392H0Z" transform="translate(495 6001)" fill="none"/>
    <path id="Path_193521" data-name="Path 193521" d="M10,0H245.67a10,10,0,0,1,10,10V245.67a10,10,0,0,1-10,10H10a10,10,0,0,1-10-10V10A10,10,0,0,1,10,0Z" transform="translate(637.964 6197.357) rotate(-45)" fill="#ffb30b"/>
    <path id="Path_188703" data-name="Path 188703" d="M990.687,1974.675c-30.04,0-61.968-4.594-61.968-13.107V1930.9h1.831v30.671c0,5.333,24.7,11.276,60.137,11.276s60.137-5.944,60.137-11.276V1930.9h1.831v30.671C1052.655,1970.08,1020.727,1974.675,990.687,1974.675Z" transform="translate(-172.259 4311.055)" fill="#fff" stroke="#fff" stroke-miterlimit="10" stroke-width="0.75"/>
    <path id="Path_188704" data-name="Path 188704" d="M990.687,1945.416c-30.04,0-61.968-4.594-61.968-13.105,0-2.157,2.021-4.137,6.007-5.885l.737,1.677c-3.169,1.39-4.913,2.883-4.913,4.208,0,5.332,24.7,11.275,60.137,11.275s60.137-5.942,60.137-11.275c0-1.429-2-3.031-5.633-4.512l.69-1.7c4.5,1.831,6.774,3.919,6.774,6.208C1052.655,1940.822,1020.727,1945.416,990.687,1945.416Z" transform="translate(-172.259 4309.642)" fill="#fff" stroke="#fff" stroke-miterlimit="10" stroke-width="0.75"/>
    <path id="Path_188705" data-name="Path 188705" d="M990.687,1943.2c-30.04,0-61.968-4.594-61.968-13.107v-30.672h1.831v30.672c0,5.333,24.7,11.275,60.137,11.275s60.137-5.942,60.137-11.275v-30.672h1.831v30.672C1052.655,1938.606,1020.727,1943.2,990.687,1943.2Z" transform="translate(-172.259 4301.773)" fill="#fff" stroke="#fff" stroke-miterlimit="10" stroke-width="0.75"/>
    <path id="Path_188706" data-name="Path 188706" d="M990.687,1913.666c-30.04,0-61.968-4.594-61.968-13.106,0-1.765,1.348-3.412,4.006-4.9l.893,1.6c-2.008,1.121-3.069,2.262-3.069,3.3,0,5.333,24.7,11.276,60.137,11.276s60.137-5.942,60.137-11.276c0-1.063-1.116-2.235-3.228-3.385l.877-1.61c2.776,1.514,4.183,3.192,4.183,4.995C1052.655,1909.072,1020.727,1913.666,990.687,1913.666Z" transform="translate(-172.259 4300.636)" fill="#fff" stroke="#fff" stroke-miterlimit="10" stroke-width="0.75"/>
    <path id="Path_188707" data-name="Path 188707" d="M967.829,1926.228a3.865,3.865,0,1,1,3.865-3.865A3.868,3.868,0,0,1,967.829,1926.228Zm0-5.9a2.034,2.034,0,1,0,2.035,2.033A2.035,2.035,0,0,0,967.829,1920.33Z" transform="translate(-161.865 4307.399)" fill="#fff" stroke="#fff" stroke-miterlimit="10" stroke-width="0.75"/>
    <path id="Path_188708" data-name="Path 188708" d="M977.455,1926.228a3.865,3.865,0,1,1,3.865-3.865A3.868,3.868,0,0,1,977.455,1926.228Zm0-5.9a2.034,2.034,0,1,0,2.033,2.033A2.035,2.035,0,0,0,977.455,1920.33Z" transform="translate(-159.026 4307.399)" fill="#fff" stroke="#fff" stroke-miterlimit="10" stroke-width="0.75"/>
    <path id="Path_188709" data-name="Path 188709" d="M977.455,1956.866A3.864,3.864,0,1,1,981.32,1953,3.867,3.867,0,0,1,977.455,1956.866Zm0-5.9a2.033,2.033,0,1,0,2.033,2.033A2.035,2.035,0,0,0,977.455,1950.969Z" transform="translate(-159.026 4316.434)" fill="#fff" stroke="#fff" stroke-miterlimit="10" stroke-width="0.75"/>
    <path id="Path_188710" data-name="Path 188710" d="M987.081,1956.866a3.864,3.864,0,1,1,3.865-3.864A3.867,3.867,0,0,1,987.081,1956.866Zm0-5.9a2.033,2.033,0,1,0,2.033,2.033A2.035,2.035,0,0,0,987.081,1950.969Z" transform="translate(-156.188 4316.434)" fill="#fff" stroke="#fff" stroke-miterlimit="10" stroke-width="0.75"/>
    <path id="Path_188711" data-name="Path 188711" d="M990.687,1912.626c-30.04,0-61.968-4.594-61.968-13.106v-30.671h1.831v30.671c0,5.332,24.7,11.276,60.137,11.276s60.137-5.943,60.137-11.276v-30.671h1.831v30.671C1052.655,1908.032,1020.727,1912.626,990.687,1912.626Z" transform="translate(-172.259 4292.759)" fill="#fff" stroke="#fff" stroke-miterlimit="10" stroke-width="0.75"/>
    <path id="Path_188712" data-name="Path 188712" d="M990.687,1884.4c-30.04,0-61.968-4.594-61.968-13.107,0-5.977,15.745-9.236,25.13-10.648l.272,1.81c-17.4,2.618-23.571,6.4-23.571,8.837,0,5.333,24.7,11.275,60.137,11.275s60.137-5.942,60.137-11.275c0-2.488-6.355-6.324-24.268-8.94l.266-1.813c9.647,1.41,25.833,4.681,25.833,10.752C1052.655,1879.81,1020.727,1884.4,990.687,1884.4Z" transform="translate(-172.259 4290.31)" fill="#fff" stroke="#fff" stroke-miterlimit="10" stroke-width="0.75"/>
    <path id="Path_188713" data-name="Path 188713" d="M967.829,1894.736a3.865,3.865,0,1,1,3.865-3.865A3.868,3.868,0,0,1,967.829,1894.736Zm0-5.9a2.034,2.034,0,1,0,2.035,2.033A2.035,2.035,0,0,0,967.829,1888.838Z" transform="translate(-161.865 4298.113)" fill="#fff" stroke="#fff" stroke-miterlimit="10" stroke-width="0.75"/>
    <path id="Path_188714" data-name="Path 188714" d="M987.081,1894.736a3.865,3.865,0,1,1,3.865-3.865A3.868,3.868,0,0,1,987.081,1894.736Zm0-5.9a2.034,2.034,0,1,0,2.033,2.033A2.035,2.035,0,0,0,987.081,1888.838Z" transform="translate(-156.188 4298.113)" fill="#fff" stroke="#fff" stroke-miterlimit="10" stroke-width="0.75"/>
    <path id="Path_188715" data-name="Path 188715" d="M986.671,1877.793c-22.031,0-44.333-3.152-44.333-9.179,0-2.049,2.354-3.764,7.2-5.24l.533,1.752c-4.353,1.328-5.9,2.671-5.9,3.489,0,3.069,16.169,7.348,42.5,7.348s42.5-4.28,42.5-7.348c0-.888-1.777-2.339-6.758-3.739l.5-1.763c5.445,1.53,8.092,3.332,8.092,5.5C1031.005,1874.642,1008.7,1877.793,986.671,1877.793Z" transform="translate(-168.243 4291.066)" fill="#fff" stroke="#fff" stroke-miterlimit="10" stroke-width="0.75"/>
    <path id="Path_188716" data-name="Path 188716" d="M984.222,1878.9c-27.015,0-35.287-3.671-35.625-3.826l-.532-.245v-15.483H949.9v14.267c2.2.768,11.526,3.456,34.326,3.456,23.039,0,33.4-2.723,35.846-3.486v-14.237h1.832v15.522l-.585.227C1020.916,1875.254,1011.207,1878.9,984.222,1878.9Z" transform="translate(-166.555 4289.957)" fill="#fff" stroke="#fff" stroke-miterlimit="10" stroke-width="0.75"/>
    <path id="Path_188717" data-name="Path 188717" d="M984.982,1869.148c-14.839,0-36.917-2.158-36.917-8.1s22.078-8.1,36.917-8.1,36.918,2.159,36.918,8.1S999.821,1869.148,984.982,1869.148Zm0-14.376c-21.739,0-35.086,3.653-35.086,6.272s13.348,6.273,35.086,6.273,35.086-3.654,35.086-6.273S1006.721,1854.772,984.982,1854.772Z" transform="translate(-166.555 4288.067)" fill="#fff" stroke="#fff" stroke-miterlimit="10" stroke-width="0.75"/>
    <path id="Path_188718" data-name="Path 188718" d="M968.363,1959.745a6.209,6.209,0,1,1,6.208-6.209A6.217,6.217,0,0,1,968.363,1959.745Zm0-10.587a4.378,4.378,0,1,0,4.377,4.378A4.382,4.382,0,0,0,968.363,1949.158Z" transform="translate(-162.4 4315.9)" fill="#fff" stroke="#fff" stroke-miterlimit="10" stroke-width="0.75"/>
    <path id="Path_188719" data-name="Path 188719" d="M987.615,1929.1a6.208,6.208,0,1,1,6.209-6.208A6.216,6.216,0,0,1,987.615,1929.1Zm0-10.584a4.377,4.377,0,1,0,4.378,4.377A4.382,4.382,0,0,0,987.615,1918.52Z" transform="translate(-156.723 4306.865)" fill="#fff" stroke="#fff" stroke-miterlimit="10" stroke-width="0.75"/>
    <path id="Path_188720" data-name="Path 188720" d="M977.989,1897.613a6.208,6.208,0,1,1,6.208-6.208A6.216,6.216,0,0,1,977.989,1897.613Zm0-10.586a4.377,4.377,0,1,0,4.377,4.378A4.383,4.383,0,0,0,977.989,1887.027Z" transform="translate(-159.562 4297.579)" fill="#fff" stroke="#fff" stroke-miterlimit="10" stroke-width="0.75"/>
    <path id="Path_188721" data-name="Path 188721" d="M891.773,1951.853H790.646a5.579,5.579,0,0,1-5.573-5.571v-14.31a5.763,5.763,0,0,1,.1-1.009,5.568,5.568,0,0,1,5.475-4.564H891.773a5.609,5.609,0,0,1,5.471,4.562l0,0a5.769,5.769,0,0,1,.1,1.009v14.31A5.578,5.578,0,0,1,891.773,1951.853Zm-101.126-22.316a2.428,2.428,0,0,0-2.386,1.994,2.318,2.318,0,0,0-.049.442v14.31a2.438,2.438,0,0,0,2.436,2.433H891.773a2.438,2.438,0,0,0,2.436-2.433v-14.31a2.376,2.376,0,0,0-.049-.444,2.475,2.475,0,0,0-2.387-1.991Zm90.3,14.219a5.628,5.628,0,1,1,5.629-5.629A5.634,5.634,0,0,1,880.947,1943.755Zm0-8.119a2.491,2.491,0,1,0,2.491,2.49A2.495,2.495,0,0,0,880.947,1935.637Z" transform="translate(-214.618 4309.729)" fill="#00003e"/>
    <path id="Path_188722" data-name="Path 188722" d="M786.713,1934.946a1.641,1.641,0,0,1-1.308-.649,1.584,1.584,0,0,1-.254-1.413l4.181-12.638a1.569,1.569,0,0,1,2.978.987l-4.075,12.311A1.529,1.529,0,0,1,786.713,1934.946Z" transform="translate(-214.615 4307.597)" fill="#00003e"/>
    <path id="Path_188723" data-name="Path 188723" d="M871.74,1934.946a1.573,1.573,0,0,1-1.511-1.139l-3.587-12.638a1.57,1.57,0,1,1,3.021-.857l3.587,12.638a1.57,1.57,0,0,1-1.081,1.938A1.592,1.592,0,0,1,871.74,1934.946Z" transform="translate(-190.582 4307.597)" fill="#00003e"/>
    <path id="Path_188724" data-name="Path 188724" d="M860.4,1942.366a5.628,5.628,0,1,1,5.629-5.629A5.634,5.634,0,0,1,860.4,1942.366Zm0-8.119a2.491,2.491,0,1,0,2.491,2.49A2.495,2.495,0,0,0,860.4,1934.247Z" transform="translate(-194.065 4311.118)" fill="#00003e"/>
    <path id="Path_188725" data-name="Path 188725" d="M891.773,1927.208H790.646a5.579,5.579,0,0,1-5.573-5.573v-14.31a5.754,5.754,0,0,1,.1-1.009,5.568,5.568,0,0,1,5.475-4.562H891.773a5.6,5.6,0,0,1,5.471,4.559l0,0a5.76,5.76,0,0,1,.1,1.009v14.31A5.578,5.578,0,0,1,891.773,1927.208Zm-101.126-22.316a2.426,2.426,0,0,0-2.386,1.991,2.32,2.32,0,0,0-.049.442v14.31a2.44,2.44,0,0,0,2.436,2.436H891.773a2.44,2.44,0,0,0,2.436-2.436v-14.31a2.4,2.4,0,0,0-.049-.445,2.469,2.469,0,0,0-2.387-1.988Zm90.3,14.215a5.628,5.628,0,1,1,5.629-5.628A5.633,5.633,0,0,1,880.947,1919.107Zm0-8.119a2.491,2.491,0,1,0,2.491,2.491A2.5,2.5,0,0,0,880.947,1910.988Z" transform="translate(-214.618 4302.461)" fill="#00003e"/>
    <path id="Path_188726" data-name="Path 188726" d="M895.774,1917.061a1.574,1.574,0,0,1-1.511-1.139L883.078,1876.5a2.445,2.445,0,0,0-2.344-1.77H803.545a2.433,2.433,0,0,0-2.313,1.669l-13,39.266a1.529,1.529,0,0,1-1.523,1.4,1.641,1.641,0,0,1-1.308-.649,1.584,1.584,0,0,1-.254-1.413l13.1-39.591a5.564,5.564,0,0,1,5.291-3.82h77.189a5.6,5.6,0,0,1,5.362,4.051l11.188,39.424A1.571,1.571,0,0,1,896.2,1917,1.593,1.593,0,0,1,895.774,1917.061Z" transform="translate(-214.615 4293.566)" fill="#00003e"/>
    <path id="Path_188727" data-name="Path 188727" d="M860.4,1917.718a5.628,5.628,0,1,1,5.629-5.627A5.633,5.633,0,0,1,860.4,1917.718Zm0-8.119a2.491,2.491,0,1,0,2.491,2.491A2.5,2.5,0,0,0,860.4,1909.6Z" transform="translate(-194.065 4303.851)" fill="#00003e"/>
    <path id="Path_188728" data-name="Path 188728" d="M835.937,1899.229c-11.131,0-22.4-3.074-22.4-8.95,0-11.752,44.79-11.752,44.79,0C858.331,1896.156,847.065,1899.229,835.937,1899.229Zm0-14.765c-11.755,0-19.259,3.445-19.259,5.815s7.5,5.813,19.259,5.813,19.256-3.445,19.256-5.813S847.693,1884.464,835.937,1884.464Z" transform="translate(-206.224 4296.479)" fill="#00003e"/>
    <path id="Path_188729" data-name="Path 188729" d="M1164.906,1984.553h-58.121a7.338,7.338,0,0,1-7.332-7.332v-108.7a7.338,7.338,0,0,1,7.332-7.332h58.121a7.338,7.338,0,0,1,7.332,7.332v108.7A7.338,7.338,0,0,1,1164.906,1984.553Zm-58.121-120.332a4.3,4.3,0,0,0-4.3,4.3v108.7a4.3,4.3,0,0,0,4.3,4.3h58.121a4.3,4.3,0,0,0,4.3-4.3v-108.7a4.3,4.3,0,0,0-4.3-4.3Z" transform="translate(-121.912 4290.499)" fill="#00003e"/>
    <path id="Path_188730" data-name="Path 188730" d="M1139.933,1949.391a5.628,5.628,0,1,1,5.63-5.629A5.634,5.634,0,0,1,1139.933,1949.391Zm0-8.22a2.592,2.592,0,1,0,2.6,2.591A2.592,2.592,0,0,0,1139.933,1941.172Z" transform="translate(-111.634 4313.19)" fill="#00003e"/>
    <path id="Path_188731" data-name="Path 188731" d="M1122.369,1876.413a2.29,2.29,0,1,1-2.29-2.29A2.29,2.29,0,0,1,1122.369,1876.413Z" transform="translate(-116.505 4294.313)" fill="#00003e"/>
    <path id="Path_188732" data-name="Path 188732" d="M1129.846,1876.413a2.291,2.291,0,1,1-2.291-2.29A2.291,2.291,0,0,1,1129.846,1876.413Z" transform="translate(-114.3 4294.313)" fill="#00003e"/>
    <path id="Path_188733" data-name="Path 188733" d="M1137.323,1876.413a2.291,2.291,0,1,1-2.291-2.29A2.291,2.291,0,0,1,1137.323,1876.413Z" transform="translate(-112.096 4294.313)" fill="#00003e"/>
    <path id="Path_188734" data-name="Path 188734" d="M1146.771,1887.38h-30.737a1.518,1.518,0,0,1,0-3.035h30.737a1.518,1.518,0,0,1,0,3.035Z" transform="translate(-117.47 4297.328)" fill="#00003e"/>
    <path id="Path_188735" data-name="Path 188735" d="M1146.771,1896.548h-30.737a1.518,1.518,0,0,1,0-3.035h30.737a1.518,1.518,0,0,1,0,3.035Z" transform="translate(-117.47 4300.031)" fill="#00003e"/>
    <path id="Path_188736" data-name="Path 188736" d="M1146.771,1905.719h-30.737a1.518,1.518,0,0,1,0-3.035h30.737a1.518,1.518,0,0,1,0,3.035Z" transform="translate(-117.47 4302.736)" fill="#00003e"/>
    <path id="Path_188737" data-name="Path 188737" d="M1146.771,1914.887h-30.737a1.518,1.518,0,1,1,0-3.035h30.737a1.518,1.518,0,1,1,0,3.035Z" transform="translate(-117.47 4305.439)" fill="#00003e"/>
    <path id="Path_188738" data-name="Path 188738" d="M1146.771,1924.058h-30.737a1.518,1.518,0,1,1,0-3.035h30.737a1.518,1.518,0,1,1,0,3.035Z" transform="translate(-117.47 4308.144)" fill="#00003e"/>
    <path id="Path_188739" data-name="Path 188739" d="M1146.771,1933.227h-30.737a1.517,1.517,0,1,1,0-3.035h30.737a1.517,1.517,0,1,1,0,3.035Z" transform="translate(-117.47 4310.848)" fill="#00003e"/>
    <path id="Path_188740" data-name="Path 188740" d="M1103.876,1969.349h-15.014a5.4,5.4,0,0,1-5.392-5.392v-85.246a5.4,5.4,0,0,1,5.392-5.392h15.74a1.518,1.518,0,0,1,0,3.035h-15.74a2.361,2.361,0,0,0-2.357,2.357v85.246a2.36,2.36,0,0,0,2.357,2.356h15.014a1.518,1.518,0,1,1,0,3.035Z" transform="translate(-126.625 4294.077)" fill="#00003e"/>
    <path id="Path_188741" data-name="Path 188741" d="M1094.474,1886.707a2.291,2.291,0,1,1-2.291-2.29A2.291,2.291,0,0,1,1094.474,1886.707Z" transform="translate(-124.73 4297.35)" fill="#00003e"/>
    <path id="Path_188742" data-name="Path 188742" d="M1171.414,1969.349H1156.4a1.518,1.518,0,1,1,0-3.035h15.017a2.361,2.361,0,0,0,2.358-2.356v-85.246a2.362,2.362,0,0,0-2.358-2.357h-15.743a1.518,1.518,0,1,1,0-3.035h15.743a5.4,5.4,0,0,1,5.393,5.392v85.246A5.4,5.4,0,0,1,1171.414,1969.349Z" transform="translate(-105.781 4294.077)" fill="#00003e"/>
    <path id="Path_188743" data-name="Path 188743" d="M1161.685,1886.707a2.291,2.291,0,1,0,2.291-2.29A2.29,2.29,0,0,0,1161.685,1886.707Z" transform="translate(-103.561 4297.35)" fill="#00003e"/>
    <path id="Path_188744" data-name="Path 188744" d="M955.732,1996.351h26.988v-23.832" transform="translate(-164.293 4323.329)" fill="none" stroke="#00003e" stroke-miterlimit="10" stroke-width="2"/>
    <path id="Path_188745" data-name="Path 188745" d="M830.836,1954.115v47.664h22.395" transform="translate(-201.123 4317.902)" fill="none" stroke="#00003e" stroke-miterlimit="10" stroke-width="2"/>
    <path id="Path_188746" data-name="Path 188746" d="M1029.349,1913.024h38.338v77.039" transform="translate(-142.585 4305.785)" fill="none" stroke="#00003e" stroke-miterlimit="10" stroke-width="2"/>
    <path id="Path_188747" data-name="Path 188747" d="M1132.48,1964.7v33.951h-23.912" transform="translate(-119.225 4321.024)" fill="none" stroke="#00003e" stroke-miterlimit="10" stroke-width="2"/>
    <path id="Path_188748" data-name="Path 188748" d="M830.836,1823.256v-27.733h383.542v27.733" transform="translate(-201.123 4271.136)" fill="none" stroke="#00003e" stroke-miterlimit="10" stroke-width="2"/>
    <path id="Path_193522" data-name="Path 193522" d="M0,0V40.682" transform="translate(819.022 6053.71)" fill="none" stroke="#00003e" stroke-width="2"/>
    <path id="Path_193367" data-name="Path 193367" d="M1.665,0V-22.039h7.1a10.443,10.443,0,0,1,5.252,1.324,9.31,9.31,0,0,1,3.64,3.739,11.288,11.288,0,0,1,1.324,5.411v1.014A11.353,11.353,0,0,1,17.7-5.124,9.35,9.35,0,0,1,14.1-1.37,10.213,10.213,0,0,1,8.916,0ZM6.978-17.937v13.85H8.825a4.133,4.133,0,0,0,3.512-1.627,7.974,7.974,0,0,0,1.226-4.836V-11.5a7.909,7.909,0,0,0-1.226-4.813,4.205,4.205,0,0,0-3.572-1.62ZM21.706,0V-22.039h7.917q4.253,0,6.471,1.559a5.188,5.188,0,0,1,2.218,4.526,5.244,5.244,0,0,1-.787,2.921,4.587,4.587,0,0,1-2.316,1.786,4.645,4.645,0,0,1,2.649,1.7,4.929,4.929,0,0,1,.923,3.027,5.836,5.836,0,0,1-2.051,4.866Q34.678-.03,30.652,0Zm5.313-9.37v5.283H30.5a3.311,3.311,0,0,0,2.21-.658A2.3,2.3,0,0,0,33.482-6.6a2.443,2.443,0,0,0-2.74-2.77Zm0-3.481h2.77a3.935,3.935,0,0,0,2.482-.638,2.262,2.262,0,0,0,.742-1.837,2.376,2.376,0,0,0-.8-2.012,4.294,4.294,0,0,0-2.588-.615h-2.6ZM48.68-22.039,53.6-6.706l4.9-15.333H65.5V0H60.168V-5.146l.515-10.535L55.355,0H51.843L46.5-15.7l.515,10.55V0H41.7V-22.039ZM80.24-5.858a2.183,2.183,0,0,0-.825-1.816,10.253,10.253,0,0,0-2.9-1.347,27.809,27.809,0,0,1-3.391-1.347q-4.284-2.1-4.284-5.782a5.185,5.185,0,0,1,1.067-3.232,6.9,6.9,0,0,1,3.02-2.18,11.752,11.752,0,0,1,4.39-.78,10.279,10.279,0,0,1,4.261.848,6.746,6.746,0,0,1,2.929,2.414,6.3,6.3,0,0,1,1.044,3.58h-5.3a2.664,2.664,0,0,0-.825-2.089,3.215,3.215,0,0,0-2.233-.742,3.626,3.626,0,0,0-2.248.628,1.927,1.927,0,0,0-.825,1.6,1.94,1.94,0,0,0,.908,1.536,11.453,11.453,0,0,0,3.194,1.423,19.565,19.565,0,0,1,3.754,1.582,6.308,6.308,0,0,1,3.572,5.676,5.381,5.381,0,0,1-2.18,4.541A9.7,9.7,0,0,1,77.394.3a11.862,11.862,0,0,1-4.851-.961,7.314,7.314,0,0,1-3.27-2.634,6.863,6.863,0,0,1-1.1-3.852H73.5a3.38,3.38,0,0,0,.916,2.611,4.329,4.329,0,0,0,2.974.84,3.419,3.419,0,0,0,2.081-.568A1.873,1.873,0,0,0,80.24-5.858Z" transform="translate(772.779 6038.342)" fill="#00003e"/>
    <path id="Path_193368" data-name="Path 193368" d="M-91.033-12.8l4.184,10.441L-82.666-12.8h2.188V0h-1.687V-4.983l.158-5.379L-86.208,0H-87.5l-4.192-10.336.167,5.353V0h-1.687V-12.8Zm12.85,7.954a5.617,5.617,0,0,1,.549-2.514A4.1,4.1,0,0,1-76.1-9.079a4.163,4.163,0,0,1,2.237-.606,4.01,4.01,0,0,1,3.142,1.345,5.174,5.174,0,0,1,1.2,3.577v.114a5.666,5.666,0,0,1-.532,2.492A4.038,4.038,0,0,1-71.578-.439,4.211,4.211,0,0,1-73.85.176a4,4,0,0,1-3.133-1.345,5.147,5.147,0,0,1-1.2-3.56Zm1.635.193a4.068,4.068,0,0,0,.734,2.54,2.349,2.349,0,0,0,1.964.958,2.335,2.335,0,0,0,1.969-.971,4.449,4.449,0,0,0,.729-2.72,4.061,4.061,0,0,0-.743-2.536,2.361,2.361,0,0,0-1.973-.971,2.335,2.335,0,0,0-1.942.958A4.416,4.416,0,0,0-76.548-4.649Zm11.268-7.163v2.3h1.775v1.257h-1.775v5.9a1.32,1.32,0,0,0,.237.858,1,1,0,0,0,.809.286,3.937,3.937,0,0,0,.773-.105V0a4.742,4.742,0,0,1-1.248.175,2.025,2.025,0,0,1-1.644-.659,2.832,2.832,0,0,1-.554-1.872v-5.9h-1.731V-9.51h1.731v-2.3Zm3.067,6.97a5.617,5.617,0,0,1,.549-2.514,4.1,4.1,0,0,1,1.529-1.723A4.163,4.163,0,0,1-57.9-9.686a4.01,4.01,0,0,1,3.142,1.345,5.174,5.174,0,0,1,1.2,3.577v.114a5.666,5.666,0,0,1-.532,2.492A4.038,4.038,0,0,1-55.608-.439,4.211,4.211,0,0,1-57.88.176a4,4,0,0,1-3.133-1.345,5.147,5.147,0,0,1-1.2-3.56Zm1.635.193a4.068,4.068,0,0,0,.734,2.54,2.349,2.349,0,0,0,1.964.958,2.335,2.335,0,0,0,1.969-.971,4.449,4.449,0,0,0,.729-2.72,4.061,4.061,0,0,0-.743-2.536A2.361,2.361,0,0,0-57.9-8.35a2.335,2.335,0,0,0-1.942.958A4.416,4.416,0,0,0-60.579-4.649Zm13.658-3.4a4.873,4.873,0,0,0-.8-.062A2.143,2.143,0,0,0-49.891-6.75V0h-1.626V-9.51h1.582l.026,1.1a2.532,2.532,0,0,1,2.268-1.274,1.661,1.661,0,0,1,.721.123Zm5.555,3.217a5.571,5.571,0,0,1,1.037-3.52,3.28,3.28,0,0,1,2.716-1.332,3.3,3.3,0,0,1,2.646,1.143V-13.5h1.626V0h-1.494l-.079-1.02A3.311,3.311,0,0,1-37.63.176a3.248,3.248,0,0,1-2.694-1.354,5.634,5.634,0,0,1-1.042-3.533Zm1.626.185a4.218,4.218,0,0,0,.668,2.531,2.159,2.159,0,0,0,1.846.914,2.372,2.372,0,0,0,2.259-1.389V-6.961a2.39,2.39,0,0,0-2.241-1.345,2.17,2.17,0,0,0-1.863.923A4.644,4.644,0,0,0-39.74-4.649ZM-26.873.176a4.155,4.155,0,0,1-3.146-1.27,4.714,4.714,0,0,1-1.213-3.4v-.3a5.707,5.707,0,0,1,.541-2.527,4.217,4.217,0,0,1,1.512-1.74,3.8,3.8,0,0,1,2.1-.628,3.562,3.562,0,0,1,2.883,1.222,5.289,5.289,0,0,1,1.028,3.5v.677h-6.442a3.38,3.38,0,0,0,.822,2.272,2.583,2.583,0,0,0,2,.866A2.832,2.832,0,0,0-25.326-1.5a3.666,3.666,0,0,0,1.046-.932l.993.773A3.993,3.993,0,0,1-26.873.176Zm-.2-8.525a2.169,2.169,0,0,0-1.652.716,3.482,3.482,0,0,0-.826,2.008h4.764v-.123a3.1,3.1,0,0,0-.668-1.92A2.042,2.042,0,0,0-27.075-8.35Zm18.3,3.7a5.654,5.654,0,0,1-1,3.5A3.2,3.2,0,0,1-12.467.176,3.315,3.315,0,0,1-15.253-1.1L-15.333,0h-1.494V-13.5H-15.2v5.036a3.3,3.3,0,0,1,2.716-1.222,3.221,3.221,0,0,1,2.72,1.31A5.824,5.824,0,0,1-8.776-4.79ZM-10.4-4.834A4.394,4.394,0,0,0-11.043-7.4a2.124,2.124,0,0,0-1.846-.905A2.387,2.387,0,0,0-15.2-6.812V-2.7A2.454,2.454,0,0,0-12.872-1.2a2.112,2.112,0,0,0,1.819-.905A4.672,4.672,0,0,0-10.4-4.834ZM-.857,0a3.416,3.416,0,0,1-.229-1A3.628,3.628,0,0,1-3.792.176,3.357,3.357,0,0,1-6.1-.62,2.573,2.573,0,0,1-7-2.637,2.688,2.688,0,0,1-5.871-4.944a5.325,5.325,0,0,1,3.177-.822h1.582v-.747a1.826,1.826,0,0,0-.51-1.358,2.049,2.049,0,0,0-1.5-.505,2.371,2.371,0,0,0-1.459.439,1.3,1.3,0,0,0-.589,1.063H-6.807A2.244,2.244,0,0,1-6.3-8.249,3.449,3.449,0,0,1-4.931-9.3a4.613,4.613,0,0,1,1.9-.387,3.759,3.759,0,0,1,2.575.822A2.964,2.964,0,0,1,.514-6.6v4.377A5.351,5.351,0,0,0,.848-.141V0Zm-2.7-1.239a2.858,2.858,0,0,0,1.45-.4,2.392,2.392,0,0,0,.993-1.028V-4.614H-2.386q-2.988,0-2.988,1.749a1.48,1.48,0,0,0,.51,1.2A1.959,1.959,0,0,0-3.555-1.239ZM8.6-2.522a1.2,1.2,0,0,0-.5-1.024,4.78,4.78,0,0,0-1.731-.628,8.186,8.186,0,0,1-1.96-.633A2.788,2.788,0,0,1,3.34-5.687,2.1,2.1,0,0,1,2.993-6.9a2.467,2.467,0,0,1,.989-1.978,3.861,3.861,0,0,1,2.527-.809,3.974,3.974,0,0,1,2.624.835,2.652,2.652,0,0,1,1.006,2.136H8.5a1.468,1.468,0,0,0-.567-1.151A2.124,2.124,0,0,0,6.508-8.35a2.223,2.223,0,0,0-1.389.387,1.217,1.217,0,0,0-.5,1.011.986.986,0,0,0,.466.888,5.731,5.731,0,0,0,1.683.571,8.77,8.77,0,0,1,1.973.65,2.878,2.878,0,0,1,1.121.91,2.237,2.237,0,0,1,.365,1.3A2.434,2.434,0,0,1,9.207-.593,4.277,4.277,0,0,1,6.561.176a4.789,4.789,0,0,1-2.021-.4A3.288,3.288,0,0,1,3.164-1.358a2.722,2.722,0,0,1-.5-1.569H4.293a1.683,1.683,0,0,0,.655,1.3,2.54,2.54,0,0,0,1.613.479,2.622,2.622,0,0,0,1.481-.374A1.148,1.148,0,0,0,8.6-2.522ZM18.215,0a3.416,3.416,0,0,1-.229-1A3.628,3.628,0,0,1,15.28.176a3.357,3.357,0,0,1-2.307-.8,2.573,2.573,0,0,1-.9-2.017A2.688,2.688,0,0,1,13.2-4.944a5.325,5.325,0,0,1,3.177-.822H17.96v-.747a1.826,1.826,0,0,0-.51-1.358,2.049,2.049,0,0,0-1.5-.505,2.371,2.371,0,0,0-1.459.439A1.3,1.3,0,0,0,13.9-6.873H12.265a2.244,2.244,0,0,1,.505-1.375A3.449,3.449,0,0,1,14.142-9.3a4.613,4.613,0,0,1,1.9-.387,3.759,3.759,0,0,1,2.575.822A2.964,2.964,0,0,1,19.586-6.6v4.377A5.351,5.351,0,0,0,19.92-.141V0Zm-2.7-1.239a2.858,2.858,0,0,0,1.45-.4,2.392,2.392,0,0,0,.993-1.028V-4.614H16.686q-2.988,0-2.988,1.749a1.48,1.48,0,0,0,.51,1.2A1.959,1.959,0,0,0,15.517-1.239ZM26.2-4.834a5.571,5.571,0,0,1,1.037-3.52,3.28,3.28,0,0,1,2.716-1.332,3.3,3.3,0,0,1,2.646,1.143V-13.5H34.22V0H32.726l-.079-1.02a3.311,3.311,0,0,1-2.716,1.2,3.248,3.248,0,0,1-2.694-1.354A5.634,5.634,0,0,1,26.2-4.711Zm1.626.185a4.218,4.218,0,0,0,.668,2.531,2.159,2.159,0,0,0,1.846.914,2.372,2.372,0,0,0,2.259-1.389V-6.961a2.39,2.39,0,0,0-2.241-1.345,2.17,2.17,0,0,0-1.863.923A4.644,4.644,0,0,0,27.822-4.649ZM40.689.176a4.155,4.155,0,0,1-3.146-1.27,4.714,4.714,0,0,1-1.213-3.4v-.3a5.707,5.707,0,0,1,.541-2.527,4.217,4.217,0,0,1,1.512-1.74,3.8,3.8,0,0,1,2.1-.628A3.562,3.562,0,0,1,43.37-8.464a5.289,5.289,0,0,1,1.028,3.5v.677H37.956a3.38,3.38,0,0,0,.822,2.272,2.583,2.583,0,0,0,2,.866A2.832,2.832,0,0,0,42.236-1.5a3.666,3.666,0,0,0,1.046-.932l.993.773A3.993,3.993,0,0,1,40.689.176Zm-.2-8.525a2.169,2.169,0,0,0-1.652.716,3.482,3.482,0,0,0-.826,2.008h4.764v-.123a3.1,3.1,0,0,0-.668-1.92A2.042,2.042,0,0,0,40.487-8.35Zm9.853,3.516a5.571,5.571,0,0,1,1.037-3.52,3.28,3.28,0,0,1,2.716-1.332,3.3,3.3,0,0,1,2.646,1.143V-13.5h1.626V0H56.87l-.079-1.02a3.311,3.311,0,0,1-2.716,1.2,3.248,3.248,0,0,1-2.694-1.354,5.634,5.634,0,0,1-1.042-3.533Zm1.626.185a4.218,4.218,0,0,0,.668,2.531,2.159,2.159,0,0,0,1.846.914,2.372,2.372,0,0,0,2.259-1.389V-6.961A2.39,2.39,0,0,0,54.5-8.306a2.17,2.17,0,0,0-1.863.923A4.644,4.644,0,0,0,51.965-4.649ZM66.757,0a3.416,3.416,0,0,1-.229-1A3.628,3.628,0,0,1,63.822.176a3.357,3.357,0,0,1-2.307-.8,2.573,2.573,0,0,1-.9-2.017,2.688,2.688,0,0,1,1.129-2.307,5.325,5.325,0,0,1,3.177-.822H66.5v-.747a1.826,1.826,0,0,0-.51-1.358,2.049,2.049,0,0,0-1.5-.505,2.371,2.371,0,0,0-1.459.439,1.3,1.3,0,0,0-.589,1.063H60.807a2.244,2.244,0,0,1,.505-1.375A3.449,3.449,0,0,1,62.684-9.3a4.613,4.613,0,0,1,1.9-.387,3.759,3.759,0,0,1,2.575.822A2.964,2.964,0,0,1,68.128-6.6v4.377a5.351,5.351,0,0,0,.334,2.083V0Zm-2.7-1.239a2.858,2.858,0,0,0,1.45-.4A2.392,2.392,0,0,0,66.5-2.663V-4.614H65.228q-2.988,0-2.988,1.749a1.48,1.48,0,0,0,.51,1.2A1.959,1.959,0,0,0,64.059-1.239Zm8.824-10.573v2.3h1.775v1.257H72.883v5.9a1.32,1.32,0,0,0,.237.858,1,1,0,0,0,.809.286A3.937,3.937,0,0,0,74.7-1.31V0a4.742,4.742,0,0,1-1.248.175,2.025,2.025,0,0,1-1.644-.659,2.832,2.832,0,0,1-.554-1.872v-5.9H69.526V-9.51h1.731v-2.3Zm3.067,6.97A5.617,5.617,0,0,1,76.5-7.356a4.1,4.1,0,0,1,1.529-1.723,4.163,4.163,0,0,1,2.237-.606,4.01,4.01,0,0,1,3.142,1.345,5.174,5.174,0,0,1,1.2,3.577v.114a5.666,5.666,0,0,1-.532,2.492A4.038,4.038,0,0,1,82.556-.439a4.211,4.211,0,0,1-2.272.615A4,4,0,0,1,77.15-1.169a5.147,5.147,0,0,1-1.2-3.56Zm1.635.193a4.068,4.068,0,0,0,.734,2.54,2.349,2.349,0,0,0,1.964.958,2.335,2.335,0,0,0,1.969-.971,4.449,4.449,0,0,0,.729-2.72,4.061,4.061,0,0,0-.743-2.536,2.361,2.361,0,0,0-1.973-.971,2.335,2.335,0,0,0-1.942.958A4.416,4.416,0,0,0,77.585-4.649Zm14.6,2.127a1.2,1.2,0,0,0-.5-1.024,4.78,4.78,0,0,0-1.731-.628A8.186,8.186,0,0,1,88-4.808a2.788,2.788,0,0,1-1.072-.879A2.1,2.1,0,0,1,86.577-6.9a2.467,2.467,0,0,1,.989-1.978,3.861,3.861,0,0,1,2.527-.809,3.974,3.974,0,0,1,2.624.835,2.652,2.652,0,0,1,1.006,2.136H92.087a1.468,1.468,0,0,0-.567-1.151,2.124,2.124,0,0,0-1.428-.483,2.223,2.223,0,0,0-1.389.387,1.217,1.217,0,0,0-.5,1.011.986.986,0,0,0,.466.888,5.731,5.731,0,0,0,1.683.571,8.77,8.77,0,0,1,1.973.65,2.878,2.878,0,0,1,1.121.91,2.237,2.237,0,0,1,.365,1.3,2.434,2.434,0,0,1-1.02,2.043,4.277,4.277,0,0,1-2.646.769,4.789,4.789,0,0,1-2.021-.4,3.288,3.288,0,0,1-1.375-1.129,2.722,2.722,0,0,1-.5-1.569h1.626a1.683,1.683,0,0,0,.655,1.3,2.54,2.54,0,0,0,1.613.479,2.622,2.622,0,0,0,1.481-.374A1.148,1.148,0,0,0,92.184-2.522Z" transform="translate(623 6120.302)" fill="#00003e"/>
    <path id="Path_193369" data-name="Path 193369" d="M-21.937,0V-12.8h3.612a5.815,5.815,0,0,1,2.953.738,4.993,4.993,0,0,1,1.982,2.1,6.837,6.837,0,0,1,.708,3.129v.817a6.861,6.861,0,0,1-.7,3.173,4.915,4.915,0,0,1-2,2.092A6.185,6.185,0,0,1-18.4,0Zm1.688-11.417V-1.38h1.775a3.863,3.863,0,0,0,3.037-1.214,5.016,5.016,0,0,0,1.085-3.457V-6.8a5.1,5.1,0,0,0-1.024-3.391,3.644,3.644,0,0,0-2.9-1.227ZM-4.518,0a3.416,3.416,0,0,1-.229-1A3.628,3.628,0,0,1-7.453.176,3.357,3.357,0,0,1-9.76-.62a2.573,2.573,0,0,1-.9-2.017A2.688,2.688,0,0,1-9.532-4.944a5.325,5.325,0,0,1,3.177-.822h1.582v-.747a1.826,1.826,0,0,0-.51-1.358,2.049,2.049,0,0,0-1.5-.505,2.371,2.371,0,0,0-1.459.439,1.3,1.3,0,0,0-.589,1.063h-1.635a2.244,2.244,0,0,1,.505-1.375A3.449,3.449,0,0,1-8.591-9.3a4.613,4.613,0,0,1,1.9-.387,3.759,3.759,0,0,1,2.575.822A2.964,2.964,0,0,1-3.146-6.6v4.377A5.351,5.351,0,0,0-2.812-.141V0Zm-2.7-1.239a2.858,2.858,0,0,0,1.45-.4,2.392,2.392,0,0,0,.993-1.028V-4.614H-6.047q-2.988,0-2.988,1.749a1.48,1.48,0,0,0,.51,1.2A1.959,1.959,0,0,0-7.216-1.239ZM1.608-11.812v2.3H3.384v1.257H1.608v5.9a1.32,1.32,0,0,0,.237.858,1,1,0,0,0,.809.286,3.937,3.937,0,0,0,.773-.105V0A4.742,4.742,0,0,1,2.18.176,2.025,2.025,0,0,1,.536-.483,2.832,2.832,0,0,1-.018-2.355v-5.9H-1.749V-9.51H-.018v-2.3Zm3.067,6.97a5.617,5.617,0,0,1,.549-2.514A4.1,4.1,0,0,1,6.754-9.079a4.163,4.163,0,0,1,2.237-.606,4.01,4.01,0,0,1,3.142,1.345,5.174,5.174,0,0,1,1.2,3.577v.114A5.666,5.666,0,0,1,12.8-2.158,4.038,4.038,0,0,1,11.281-.439,4.211,4.211,0,0,1,9.009.176,4,4,0,0,1,5.875-1.169a5.147,5.147,0,0,1-1.2-3.56Zm1.635.193a4.068,4.068,0,0,0,.734,2.54,2.349,2.349,0,0,0,1.964.958,2.335,2.335,0,0,0,1.969-.971,4.449,4.449,0,0,0,.729-2.72,4.061,4.061,0,0,0-.743-2.536A2.361,2.361,0,0,0,8.991-8.35a2.335,2.335,0,0,0-1.942.958A4.416,4.416,0,0,0,6.311-4.649Zm14.6,2.127a1.2,1.2,0,0,0-.5-1.024,4.78,4.78,0,0,0-1.731-.628,8.186,8.186,0,0,1-1.96-.633,2.788,2.788,0,0,1-1.072-.879A2.1,2.1,0,0,1,15.3-6.9a2.467,2.467,0,0,1,.989-1.978,3.861,3.861,0,0,1,2.527-.809,3.974,3.974,0,0,1,2.624.835,2.652,2.652,0,0,1,1.006,2.136H20.813a1.468,1.468,0,0,0-.567-1.151,2.124,2.124,0,0,0-1.428-.483,2.223,2.223,0,0,0-1.389.387,1.217,1.217,0,0,0-.5,1.011.986.986,0,0,0,.466.888,5.731,5.731,0,0,0,1.683.571,8.77,8.77,0,0,1,1.973.65,2.878,2.878,0,0,1,1.121.91,2.237,2.237,0,0,1,.365,1.3,2.434,2.434,0,0,1-1.02,2.043A4.277,4.277,0,0,1,18.87.176a4.789,4.789,0,0,1-2.021-.4,3.288,3.288,0,0,1-1.375-1.129,2.722,2.722,0,0,1-.5-1.569H16.6a1.683,1.683,0,0,0,.655,1.3,2.54,2.54,0,0,0,1.613.479,2.622,2.622,0,0,0,1.481-.374A1.148,1.148,0,0,0,20.909-2.522Z" transform="translate(816.451 6120.302)" fill="#00003e"/>
    <path id="Path_193370" data-name="Path 193370" d="M-53.108-12.8l4.184,10.441L-44.741-12.8h2.188V0H-44.24V-4.983l.158-5.379L-48.283,0h-1.292l-4.192-10.336.167,5.353V0h-1.687V-12.8Zm12.85,7.954a5.617,5.617,0,0,1,.549-2.514A4.1,4.1,0,0,1-38.18-9.079a4.163,4.163,0,0,1,2.237-.606A4.01,4.01,0,0,1-32.8-8.341a5.174,5.174,0,0,1,1.2,3.577v.114a5.666,5.666,0,0,1-.532,2.492A4.038,4.038,0,0,1-33.653-.439a4.211,4.211,0,0,1-2.272.615,4,4,0,0,1-3.133-1.345,5.147,5.147,0,0,1-1.2-3.56Zm1.635.193a4.068,4.068,0,0,0,.734,2.54,2.349,2.349,0,0,0,1.964.958,2.335,2.335,0,0,0,1.969-.971,4.449,4.449,0,0,0,.729-2.72,4.061,4.061,0,0,0-.743-2.536,2.361,2.361,0,0,0-1.973-.971,2.335,2.335,0,0,0-1.942.958A4.416,4.416,0,0,0-38.624-4.649Zm8.666-.185a5.571,5.571,0,0,1,1.037-3.52A3.28,3.28,0,0,1-26.2-9.686a3.3,3.3,0,0,1,2.646,1.143V-13.5h1.626V0h-1.494l-.079-1.02a3.311,3.311,0,0,1-2.716,1.2,3.248,3.248,0,0,1-2.694-1.354,5.634,5.634,0,0,1-1.042-3.533Zm1.626.185a4.218,4.218,0,0,0,.668,2.531,2.159,2.159,0,0,0,1.846.914,2.372,2.372,0,0,0,2.259-1.389V-6.961A2.39,2.39,0,0,0-25.8-8.306a2.17,2.17,0,0,0-1.863.923A4.644,4.644,0,0,0-28.332-4.649ZM-15.464.176a4.155,4.155,0,0,1-3.146-1.27,4.714,4.714,0,0,1-1.213-3.4v-.3a5.707,5.707,0,0,1,.541-2.527,4.217,4.217,0,0,1,1.512-1.74,3.8,3.8,0,0,1,2.1-.628,3.562,3.562,0,0,1,2.883,1.222,5.289,5.289,0,0,1,1.028,3.5v.677H-18.2a3.38,3.38,0,0,0,.822,2.272,2.583,2.583,0,0,0,2,.866A2.832,2.832,0,0,0-13.917-1.5a3.666,3.666,0,0,0,1.046-.932l.993.773A3.993,3.993,0,0,1-15.464.176Zm-.2-8.525a2.169,2.169,0,0,0-1.652.716,3.482,3.482,0,0,0-.826,2.008h4.764v-.123a3.1,3.1,0,0,0-.668-1.92A2.042,2.042,0,0,0-15.667-8.35ZM-8.108,0H-9.734V-13.5h1.626Zm2.171-4.843a5.617,5.617,0,0,1,.549-2.514A4.1,4.1,0,0,1-3.858-9.079a4.163,4.163,0,0,1,2.237-.606A4.01,4.01,0,0,1,1.521-8.341a5.174,5.174,0,0,1,1.2,3.577v.114a5.666,5.666,0,0,1-.532,2.492A4.038,4.038,0,0,1,.668-.439,4.211,4.211,0,0,1-1.6.176,4,4,0,0,1-4.737-1.169a5.147,5.147,0,0,1-1.2-3.56Zm1.635.193a4.068,4.068,0,0,0,.734,2.54A2.349,2.349,0,0,0-1.6-1.151,2.335,2.335,0,0,0,.365-2.123a4.449,4.449,0,0,0,.729-2.72A4.061,4.061,0,0,0,.352-7.378,2.361,2.361,0,0,0-1.622-8.35a2.335,2.335,0,0,0-1.942.958A4.416,4.416,0,0,0-4.3-4.649ZM10.982,0H9.356V-13.5h1.626Zm2.171-4.843A5.617,5.617,0,0,1,13.7-7.356a4.1,4.1,0,0,1,1.529-1.723,4.163,4.163,0,0,1,2.237-.606A4.01,4.01,0,0,1,20.61-8.341a5.174,5.174,0,0,1,1.2,3.577v.114a5.666,5.666,0,0,1-.532,2.492A4.038,4.038,0,0,1,19.758-.439a4.211,4.211,0,0,1-2.272.615,4,4,0,0,1-3.133-1.345,5.147,5.147,0,0,1-1.2-3.56Zm1.635.193a4.068,4.068,0,0,0,.734,2.54,2.349,2.349,0,0,0,1.964.958,2.335,2.335,0,0,0,1.969-.971,4.449,4.449,0,0,0,.729-2.72,4.061,4.061,0,0,0-.743-2.536,2.361,2.361,0,0,0-1.973-.971,2.335,2.335,0,0,0-1.942.958A4.416,4.416,0,0,0,14.788-4.649ZM18.207-13.5h1.969L17.82-10.916l-1.31,0Zm5.256,8.666a5.589,5.589,0,0,1,1.028-3.538,3.289,3.289,0,0,1,2.725-1.314,3.271,3.271,0,0,1,2.716,1.23L30.01-9.51H31.5V-.229A3.869,3.869,0,0,1,30.4,2.681a4.038,4.038,0,0,1-2.94,1.063A4.891,4.891,0,0,1,25.449,3.3a3.465,3.465,0,0,1-1.5-1.2l.844-.976a3.18,3.18,0,0,0,2.558,1.292,2.491,2.491,0,0,0,1.85-.668,2.553,2.553,0,0,0,.664-1.881V-.949A3.342,3.342,0,0,1,27.2.176a3.248,3.248,0,0,1-2.7-1.345A5.876,5.876,0,0,1,23.462-4.834Zm1.635.185a4.264,4.264,0,0,0,.659,2.527A2.142,2.142,0,0,0,27.6-1.2a2.382,2.382,0,0,0,2.259-1.4V-6.943A2.41,2.41,0,0,0,27.62-8.306a2.161,2.161,0,0,0-1.854.923A4.644,4.644,0,0,0,25.1-4.649ZM35.714,0H34.088V-9.51h1.626ZM33.957-12.032A.971.971,0,0,1,34.2-12.7a.907.907,0,0,1,.716-.272.922.922,0,0,1,.721.272.96.96,0,0,1,.246.668.929.929,0,0,1-.246.659.938.938,0,0,1-.721.264.924.924,0,0,1-.716-.264A.938.938,0,0,1,33.957-12.032ZM42.13-1.151a2.342,2.342,0,0,0,1.521-.527A1.855,1.855,0,0,0,44.372-3H45.91a2.949,2.949,0,0,1-.562,1.556A3.7,3.7,0,0,1,43.963-.264,3.994,3.994,0,0,1,42.13.176a3.918,3.918,0,0,1-3.089-1.3,5.163,5.163,0,0,1-1.147-3.546v-.272a5.725,5.725,0,0,1,.51-2.47,3.883,3.883,0,0,1,1.463-1.679,4.157,4.157,0,0,1,2.254-.6,3.814,3.814,0,0,1,2.659.958A3.424,3.424,0,0,1,45.91-6.24H44.372a2.241,2.241,0,0,0-.7-1.516,2.174,2.174,0,0,0-1.551-.593,2.276,2.276,0,0,0-1.92.892,4.19,4.19,0,0,0-.681,2.58v.308A4.106,4.106,0,0,0,40.2-2.039,2.287,2.287,0,0,0,42.13-1.151Zm5.177-3.691a5.617,5.617,0,0,1,.549-2.514,4.1,4.1,0,0,1,1.529-1.723,4.163,4.163,0,0,1,2.237-.606,4.01,4.01,0,0,1,3.142,1.345,5.174,5.174,0,0,1,1.2,3.577v.114a5.666,5.666,0,0,1-.532,2.492A4.038,4.038,0,0,1,53.912-.439,4.211,4.211,0,0,1,51.64.176a4,4,0,0,1-3.133-1.345,5.147,5.147,0,0,1-1.2-3.56Zm1.635.193a4.068,4.068,0,0,0,.734,2.54,2.349,2.349,0,0,0,1.964.958,2.335,2.335,0,0,0,1.969-.971,4.449,4.449,0,0,0,.729-2.72A4.061,4.061,0,0,0,53.6-7.378a2.361,2.361,0,0,0-1.973-.971,2.335,2.335,0,0,0-1.942.958A4.416,4.416,0,0,0,48.942-4.649Z" transform="translate(1009.722 6120.302)" fill="#00003e"/>
    <path id="Path_193371" data-name="Path 193371" d="M-34.22-11.417h-4.113V0h-1.679V-11.417h-4.1V-12.8h9.9Zm5.581,3.366a4.873,4.873,0,0,0-.8-.062A2.143,2.143,0,0,0-31.61-6.75V0h-1.626V-9.51h1.582l.026,1.1A2.532,2.532,0,0,1-29.36-9.686a1.661,1.661,0,0,1,.721.123ZM-21.625,0a3.416,3.416,0,0,1-.229-1A3.628,3.628,0,0,1-24.561.176a3.357,3.357,0,0,1-2.307-.8,2.573,2.573,0,0,1-.9-2.017A2.688,2.688,0,0,1-26.64-4.944a5.325,5.325,0,0,1,3.177-.822h1.582v-.747a1.826,1.826,0,0,0-.51-1.358,2.049,2.049,0,0,0-1.5-.505,2.371,2.371,0,0,0-1.459.439,1.3,1.3,0,0,0-.589,1.063h-1.635a2.244,2.244,0,0,1,.505-1.375A3.449,3.449,0,0,1-25.7-9.3a4.613,4.613,0,0,1,1.9-.387,3.759,3.759,0,0,1,2.575.822A2.964,2.964,0,0,1-20.254-6.6v4.377A5.351,5.351,0,0,0-19.92-.141V0Zm-2.7-1.239a2.858,2.858,0,0,0,1.45-.4,2.392,2.392,0,0,0,.993-1.028V-4.614h-1.274q-2.988,0-2.988,1.749a1.48,1.48,0,0,0,.51,1.2A1.959,1.959,0,0,0-24.324-1.239ZM-18.1-4.834a5.571,5.571,0,0,1,1.037-3.52,3.28,3.28,0,0,1,2.716-1.332A3.3,3.3,0,0,1-11.7-8.543V-13.5h1.626V0h-1.494l-.079-1.02a3.311,3.311,0,0,1-2.716,1.2A3.248,3.248,0,0,1-17.06-1.178,5.634,5.634,0,0,1-18.1-4.711Zm1.626.185a4.218,4.218,0,0,0,.668,2.531,2.159,2.159,0,0,0,1.846.914A2.372,2.372,0,0,0-11.7-2.593V-6.961a2.39,2.39,0,0,0-2.241-1.345,2.17,2.17,0,0,0-1.863.923A4.644,4.644,0,0,0-16.475-4.649ZM-1.683-.94A3.454,3.454,0,0,1-4.469.176,2.956,2.956,0,0,1-6.785-.708a3.823,3.823,0,0,1-.8-2.615V-9.51h1.626v6.144q0,2.162,1.758,2.162A2.434,2.434,0,0,0-1.727-2.593V-9.51H-.1V0H-1.648Zm7.866-.211A2.342,2.342,0,0,0,7.7-1.679,1.855,1.855,0,0,0,8.424-3H9.962A2.949,2.949,0,0,1,9.4-1.441,3.7,3.7,0,0,1,8.016-.264,3.994,3.994,0,0,1,6.183.176a3.918,3.918,0,0,1-3.089-1.3A5.163,5.163,0,0,1,1.947-4.667v-.272a5.725,5.725,0,0,1,.51-2.47A3.883,3.883,0,0,1,3.92-9.088a4.157,4.157,0,0,1,2.254-.6,3.814,3.814,0,0,1,2.659.958A3.424,3.424,0,0,1,9.962-6.24H8.424a2.241,2.241,0,0,0-.7-1.516A2.174,2.174,0,0,0,6.174-8.35a2.276,2.276,0,0,0-1.92.892,4.19,4.19,0,0,0-.681,2.58v.308A4.106,4.106,0,0,0,4.25-2.039,2.287,2.287,0,0,0,6.183-1.151Zm9.422,0a2.342,2.342,0,0,0,1.521-.527A1.855,1.855,0,0,0,17.846-3h1.538a2.949,2.949,0,0,1-.562,1.556A3.7,3.7,0,0,1,17.438-.264,3.994,3.994,0,0,1,15.6.176a3.918,3.918,0,0,1-3.089-1.3,5.163,5.163,0,0,1-1.147-3.546v-.272a5.725,5.725,0,0,1,.51-2.47,3.883,3.883,0,0,1,1.463-1.679,4.157,4.157,0,0,1,2.254-.6,3.814,3.814,0,0,1,2.659.958A3.424,3.424,0,0,1,19.384-6.24H17.846a2.241,2.241,0,0,0-.7-1.516A2.174,2.174,0,0,0,15.6-8.35a2.276,2.276,0,0,0-1.92.892,4.19,4.19,0,0,0-.681,2.58v.308a4.106,4.106,0,0,0,.677,2.531A2.287,2.287,0,0,0,15.6-1.151ZM22.979,0H21.353V-9.51h1.626ZM21.221-12.032a.971.971,0,0,1,.242-.668.907.907,0,0,1,.716-.272.922.922,0,0,1,.721.272.96.96,0,0,1,.246.668.929.929,0,0,1-.246.659.938.938,0,0,1-.721.264.924.924,0,0,1-.716-.264A.938.938,0,0,1,21.221-12.032ZM25.15-4.843A5.617,5.617,0,0,1,25.7-7.356a4.1,4.1,0,0,1,1.529-1.723,4.163,4.163,0,0,1,2.237-.606,4.01,4.01,0,0,1,3.142,1.345,5.174,5.174,0,0,1,1.2,3.577v.114a5.666,5.666,0,0,1-.532,2.492A4.038,4.038,0,0,1,31.755-.439a4.211,4.211,0,0,1-2.272.615A4,4,0,0,1,26.35-1.169a5.147,5.147,0,0,1-1.2-3.56Zm1.635.193a4.068,4.068,0,0,0,.734,2.54,2.349,2.349,0,0,0,1.964.958,2.335,2.335,0,0,0,1.969-.971,4.449,4.449,0,0,0,.729-2.72,4.061,4.061,0,0,0-.743-2.536,2.361,2.361,0,0,0-1.973-.971,2.335,2.335,0,0,0-1.942.958A4.416,4.416,0,0,0,26.785-4.649ZM30.2-13.5h1.969l-2.355,2.584-1.31,0Zm7.181,3.99.053,1.2a3.465,3.465,0,0,1,2.848-1.371q3.015,0,3.041,3.4V0H41.7V-6.293a2.189,2.189,0,0,0-.47-1.521,1.884,1.884,0,0,0-1.437-.492,2.347,2.347,0,0,0-1.389.422,2.865,2.865,0,0,0-.932,1.107V0H35.846V-9.51Z" transform="translate(922.618 6323.081)" fill="#00003e"/>
    <path id="Path_193372" data-name="Path 193372" d="M-27.769-3.349H-33.13L-34.334,0h-1.74l4.887-12.8h1.477l4.9,12.8h-1.731Zm-4.852-1.38h4.351l-2.18-5.985Zm13.087,3.577a2.342,2.342,0,0,0,1.521-.527A1.855,1.855,0,0,0-17.292-3h1.538a2.949,2.949,0,0,1-.562,1.556A3.7,3.7,0,0,1-17.7-.264a3.994,3.994,0,0,1-1.833.439,3.918,3.918,0,0,1-3.089-1.3A5.163,5.163,0,0,1-23.77-4.667v-.272a5.725,5.725,0,0,1,.51-2.47A3.883,3.883,0,0,1-21.8-9.088a4.157,4.157,0,0,1,2.254-.6,3.814,3.814,0,0,1,2.659.958A3.424,3.424,0,0,1-15.754-6.24h-1.538a2.241,2.241,0,0,0-.7-1.516,2.174,2.174,0,0,0-1.551-.593,2.276,2.276,0,0,0-1.92.892,4.19,4.19,0,0,0-.681,2.58v.308a4.106,4.106,0,0,0,.677,2.531A2.287,2.287,0,0,0-19.534-1.151Zm9.422,0a2.342,2.342,0,0,0,1.521-.527A1.855,1.855,0,0,0-7.871-3h1.538A2.949,2.949,0,0,1-6.9-1.441,3.7,3.7,0,0,1-8.279-.264a3.994,3.994,0,0,1-1.833.439,3.918,3.918,0,0,1-3.089-1.3,5.163,5.163,0,0,1-1.147-3.546v-.272a5.725,5.725,0,0,1,.51-2.47,3.883,3.883,0,0,1,1.463-1.679,4.157,4.157,0,0,1,2.254-.6,3.814,3.814,0,0,1,2.659.958A3.424,3.424,0,0,1-6.333-6.24H-7.871a2.241,2.241,0,0,0-.7-1.516,2.174,2.174,0,0,0-1.551-.593,2.276,2.276,0,0,0-1.92.892,4.19,4.19,0,0,0-.681,2.58v.308a4.106,4.106,0,0,0,.677,2.531A2.287,2.287,0,0,0-10.112-1.151ZM-.558.176A4.155,4.155,0,0,1-3.7-1.094a4.714,4.714,0,0,1-1.213-3.4v-.3a5.707,5.707,0,0,1,.541-2.527,4.217,4.217,0,0,1,1.512-1.74,3.8,3.8,0,0,1,2.1-.628A3.562,3.562,0,0,1,2.123-8.464a5.289,5.289,0,0,1,1.028,3.5v.677H-3.292A3.38,3.38,0,0,0-2.47-2.017a2.583,2.583,0,0,0,2,.866A2.832,2.832,0,0,0,.989-1.5a3.666,3.666,0,0,0,1.046-.932l.993.773A3.993,3.993,0,0,1-.558.176ZM-.76-8.35a2.169,2.169,0,0,0-1.652.716,3.482,3.482,0,0,0-.826,2.008H1.525v-.123a3.1,3.1,0,0,0-.668-1.92A2.042,2.042,0,0,0-.76-8.35ZM10.569-2.522a1.2,1.2,0,0,0-.5-1.024,4.78,4.78,0,0,0-1.731-.628,8.186,8.186,0,0,1-1.96-.633,2.788,2.788,0,0,1-1.072-.879A2.1,2.1,0,0,1,4.961-6.9,2.467,2.467,0,0,1,5.95-8.877a3.861,3.861,0,0,1,2.527-.809,3.974,3.974,0,0,1,2.624.835,2.652,2.652,0,0,1,1.006,2.136H10.472a1.468,1.468,0,0,0-.567-1.151A2.124,2.124,0,0,0,8.477-8.35a2.223,2.223,0,0,0-1.389.387,1.217,1.217,0,0,0-.5,1.011.986.986,0,0,0,.466.888,5.731,5.731,0,0,0,1.683.571,8.77,8.77,0,0,1,1.973.65,2.878,2.878,0,0,1,1.121.91,2.237,2.237,0,0,1,.365,1.3,2.434,2.434,0,0,1-1.02,2.043A4.277,4.277,0,0,1,8.53.176a4.789,4.789,0,0,1-2.021-.4A3.288,3.288,0,0,1,5.133-1.358a2.722,2.722,0,0,1-.5-1.569H6.262a1.683,1.683,0,0,0,.655,1.3,2.54,2.54,0,0,0,1.613.479,2.622,2.622,0,0,0,1.481-.374A1.148,1.148,0,0,0,10.569-2.522Zm3.313-2.32a5.617,5.617,0,0,1,.549-2.514,4.1,4.1,0,0,1,1.529-1.723A4.163,4.163,0,0,1,18.2-9.686,4.01,4.01,0,0,1,21.34-8.341a5.174,5.174,0,0,1,1.2,3.577v.114a5.666,5.666,0,0,1-.532,2.492A4.038,4.038,0,0,1,20.487-.439a4.211,4.211,0,0,1-2.272.615,4,4,0,0,1-3.133-1.345,5.147,5.147,0,0,1-1.2-3.56Zm1.635.193a4.068,4.068,0,0,0,.734,2.54,2.349,2.349,0,0,0,1.964.958,2.335,2.335,0,0,0,1.969-.971,4.449,4.449,0,0,0,.729-2.72,4.061,4.061,0,0,0-.743-2.536A2.361,2.361,0,0,0,18.2-8.35a2.335,2.335,0,0,0-1.942.958A4.416,4.416,0,0,0,15.517-4.649ZM32.146-2.382,34.361-9.51H36.1L32.278,1.468q-.888,2.373-2.821,2.373l-.308-.026L28.542,3.7V2.382l.439.035a2.164,2.164,0,0,0,1.288-.334A2.417,2.417,0,0,0,31.03.861l.36-.967L28-9.51h1.775Zm-83.4,13.872.044,1.055a3.512,3.512,0,0,1,2.821-1.23,2.719,2.719,0,0,1,2.716,1.529,3.6,3.6,0,0,1,1.235-1.107,3.647,3.647,0,0,1,1.8-.422q3.129,0,3.182,3.313V21h-1.626V14.725a2.184,2.184,0,0,0-.466-1.525,2.051,2.051,0,0,0-1.564-.505,2.156,2.156,0,0,0-1.5.541,2.193,2.193,0,0,0-.694,1.455V21h-1.635V14.769a1.814,1.814,0,0,0-2.03-2.074,2.175,2.175,0,0,0-2.188,1.362V21H-52.8V11.49ZM-31.14,21a3.416,3.416,0,0,1-.229-1,3.628,3.628,0,0,1-2.707,1.178,3.357,3.357,0,0,1-2.307-.8,2.573,2.573,0,0,1-.9-2.017,2.688,2.688,0,0,1,1.129-2.307,5.325,5.325,0,0,1,3.177-.822h1.582v-.747a1.826,1.826,0,0,0-.51-1.358,2.049,2.049,0,0,0-1.5-.505,2.371,2.371,0,0,0-1.459.439,1.3,1.3,0,0,0-.589,1.063H-37.09a2.244,2.244,0,0,1,.505-1.375,3.449,3.449,0,0,1,1.371-1.05,4.613,4.613,0,0,1,1.9-.387,3.759,3.759,0,0,1,2.575.822,2.964,2.964,0,0,1,.967,2.263v4.377a5.351,5.351,0,0,0,.334,2.083V21Zm-2.7-1.239a2.858,2.858,0,0,0,1.45-.4,2.392,2.392,0,0,0,.993-1.028V16.386h-1.274q-2.988,0-2.988,1.749a1.48,1.48,0,0,0,.51,1.2A1.959,1.959,0,0,0-33.838,19.761Zm8.156-8.271.053,1.2a3.465,3.465,0,0,1,2.848-1.371q3.015,0,3.041,3.4V21h-1.626V14.707a2.189,2.189,0,0,0-.47-1.521,1.884,1.884,0,0,0-1.437-.492,2.347,2.347,0,0,0-1.389.422,2.865,2.865,0,0,0-.932,1.107V21H-27.22V11.49ZM-15.521,21h-1.626V11.49h1.626ZM-17.279,8.968a.971.971,0,0,1,.242-.668.907.907,0,0,1,.716-.272A.922.922,0,0,1-15.6,8.3a.96.96,0,0,1,.246.668.929.929,0,0,1-.246.659.938.938,0,0,1-.721.264.924.924,0,0,1-.716-.264A.938.938,0,0,1-17.279,8.968Zm12.393,7.383a5.694,5.694,0,0,1-.993,3.5,3.183,3.183,0,0,1-2.689,1.327,3.488,3.488,0,0,1-2.725-1.1v4.579H-12.92V11.49h1.485l.079,1.055a3.35,3.35,0,0,1,2.76-1.23,3.243,3.243,0,0,1,2.711,1.292,5.756,5.756,0,0,1,1,3.595Zm-1.626-.185a4.2,4.2,0,0,0-.686-2.54,2.208,2.208,0,0,0-1.881-.932A2.39,2.39,0,0,0-11.294,14v4.544a2.4,2.4,0,0,0,2.232,1.3A2.2,2.2,0,0,0-7.2,18.921,4.587,4.587,0,0,0-6.513,16.166ZM3.05,20.06A3.454,3.454,0,0,1,.264,21.176a2.956,2.956,0,0,1-2.316-.883,3.823,3.823,0,0,1-.8-2.615V11.49H-1.23v6.144Q-1.23,19.8.527,19.8a2.434,2.434,0,0,0,2.479-1.389V11.49H4.632V21H3.085ZM8.868,21H7.242V7.5H8.868Zm8.473,0a3.416,3.416,0,0,1-.229-1,3.628,3.628,0,0,1-2.707,1.178,3.357,3.357,0,0,1-2.307-.8,2.573,2.573,0,0,1-.9-2.017,2.688,2.688,0,0,1,1.129-2.307,5.325,5.325,0,0,1,3.177-.822h1.582v-.747a1.826,1.826,0,0,0-.51-1.358,2.049,2.049,0,0,0-1.5-.505,2.371,2.371,0,0,0-1.459.439,1.3,1.3,0,0,0-.589,1.063H11.391a2.244,2.244,0,0,1,.505-1.375,3.449,3.449,0,0,1,1.371-1.05,4.613,4.613,0,0,1,1.9-.387,3.759,3.759,0,0,1,2.575.822,2.964,2.964,0,0,1,.967,2.263v4.377a5.351,5.351,0,0,0,.334,2.083V21Zm-2.7-1.239a2.858,2.858,0,0,0,1.45-.4,2.392,2.392,0,0,0,.993-1.028V16.386H15.812q-2.988,0-2.988,1.749a1.48,1.48,0,0,0,.51,1.2A1.959,1.959,0,0,0,14.643,19.761Zm10.433.088a2.342,2.342,0,0,0,1.521-.527A1.855,1.855,0,0,0,27.316,18h1.538a2.949,2.949,0,0,1-.562,1.556,3.7,3.7,0,0,1-1.384,1.178,3.994,3.994,0,0,1-1.833.439,3.918,3.918,0,0,1-3.089-1.3,5.163,5.163,0,0,1-1.147-3.546v-.272a5.725,5.725,0,0,1,.51-2.47,3.883,3.883,0,0,1,1.463-1.679,4.157,4.157,0,0,1,2.254-.6,3.814,3.814,0,0,1,2.659.958,3.424,3.424,0,0,1,1.129,2.487H27.316a2.241,2.241,0,0,0-.7-1.516,2.174,2.174,0,0,0-1.551-.593,2.276,2.276,0,0,0-1.92.892,4.19,4.19,0,0,0-.681,2.58v.308a4.106,4.106,0,0,0,.677,2.531A2.287,2.287,0,0,0,25.075,19.849ZM32.449,21H30.823V11.49h1.626ZM30.691,8.968a.971.971,0,0,1,.242-.668.907.907,0,0,1,.716-.272.922.922,0,0,1,.721.272.96.96,0,0,1,.246.668.929.929,0,0,1-.246.659.938.938,0,0,1-.721.264.924.924,0,0,1-.716-.264A.938.938,0,0,1,30.691,8.968Zm3.929,7.189a5.617,5.617,0,0,1,.549-2.514A4.1,4.1,0,0,1,36.7,11.921a4.163,4.163,0,0,1,2.237-.606,4.01,4.01,0,0,1,3.142,1.345,5.174,5.174,0,0,1,1.2,3.577v.114a5.666,5.666,0,0,1-.532,2.492,4.038,4.038,0,0,1-1.521,1.718,4.211,4.211,0,0,1-2.272.615,4,4,0,0,1-3.133-1.345,5.147,5.147,0,0,1-1.2-3.56Zm1.635.193a4.068,4.068,0,0,0,.734,2.54,2.487,2.487,0,0,0,3.933-.013,4.449,4.449,0,0,0,.729-2.72,4.061,4.061,0,0,0-.743-2.536,2.361,2.361,0,0,0-1.973-.971,2.335,2.335,0,0,0-1.942.958A4.416,4.416,0,0,0,36.255,16.351ZM39.674,7.5h1.969l-2.355,2.584-1.31,0Zm7.181,3.99.053,1.2a3.465,3.465,0,0,1,2.848-1.371q3.015,0,3.041,3.4V21H51.17V14.707a2.189,2.189,0,0,0-.47-1.521,1.884,1.884,0,0,0-1.437-.492,2.347,2.347,0,0,0-1.389.422,2.865,2.865,0,0,0-.932,1.107V21H45.316V11.49Z" transform="translate(719.258 6313.757)" fill="#00003e"/>
  </g>
</svg>
