<svg xmlns="http://www.w3.org/2000/svg" width="397" height="303.331" viewBox="0 0 397 303.331">
  <g id="_13" data-name="13" transform="translate(-379.781 -1163.626)">
    <g id="Group_128772" data-name="Group 128772" transform="translate(379.781 1163.626)">
      <g id="Group_128667" data-name="Group 128667" transform="translate(0 7.874)">
        <path id="Path_188752" data-name="Path 188752" d="M776.781,1409.944c0,91.278-94.091,48.234-194.831,48.234s-202.17,19.927-202.17-71.351,18-206.6,183.58-213.687C743.192,1165.443,776.781,1318.666,776.781,1409.944Z" transform="translate(-379.781 -1172.861)" fill="#fff4db"/>
      </g>
      <g id="Group_128771" data-name="Group 128771" transform="translate(3.186)">
        <g id="Group_128668" data-name="Group 128668">
          <path id="Path_188753" data-name="Path 188753" d="M711.323,1456.524a.455.455,0,0,1-.084-.9.473.473,0,0,1,.557.355.434.434,0,0,1-.332.53l-.055.009A.4.4,0,0,1,711.323,1456.524Zm2.542-.5a.455.455,0,0,1-.09-.9q1.239-.255,2.474-.531a.456.456,0,1,1,.2.889q-1.242.279-2.49.535A.5.5,0,0,1,713.864,1456.025Zm4.955-1.113a.455.455,0,0,1-.109-.9q1.229-.3,2.447-.633a.455.455,0,0,1,.238.879q-1.228.332-2.466.638A.433.433,0,0,1,718.819,1454.913Zm4.9-1.329a.455.455,0,0,1-.13-.892q1.212-.362,2.409-.756a.456.456,0,0,1,.285.866q-1.21.4-2.434.763A.457.457,0,0,1,723.717,1453.584Zm4.82-1.59a.455.455,0,0,1-.156-.883q1.188-.434,2.355-.9a.455.455,0,1,1,.342.844q-1.182.477-2.385.915A.452.452,0,0,1,728.537,1451.994Zm4.705-1.9a.455.455,0,0,1-.186-.871q1.152-.515,2.277-1.073a.456.456,0,1,1,.406.816q-1.141.567-2.312,1.089A.444.444,0,0,1,733.242,1450.092Zm4.542-2.259a.455.455,0,0,1-.22-.854c.737-.407,1.468-.834,2.172-1.268a.455.455,0,1,1,.477.776c-.716.441-1.46.876-2.21,1.289A.453.453,0,0,1,737.784,1447.834Zm4.317-2.663a.456.456,0,0,1-.257-.831c.693-.477,1.377-.975,2.03-1.478a.456.456,0,0,1,.557.721c-.668.513-1.363,1.021-2.071,1.508A.45.45,0,0,1,742.1,1445.171Zm4.016-3.1a.455.455,0,0,1-.3-.8c.638-.554,1.259-1.126,1.849-1.7a.456.456,0,0,1,.636.653c-.6.587-1.238,1.171-1.889,1.735A.453.453,0,0,1,746.117,1442.07Zm-311.088-1.384a.455.455,0,0,1,0-.911q1.265-.01,2.528-.049a.491.491,0,0,1,.47.442.455.455,0,0,1-.442.469q-1.275.04-2.548.049Zm-2.539-.008h-.006q-1.275-.018-2.547-.065a.456.456,0,0,1-.439-.472.463.463,0,0,1,.472-.438q1.264.046,2.527.065a.455.455,0,0,1-.007.911Zm7.613-.144a.455.455,0,0,1-.023-.91q1.262-.066,2.524-.161a.456.456,0,0,1,.068.91q-1.271.095-2.545.16Zm-12.685-.042h-.029q-1.272-.078-2.546-.194a.456.456,0,0,1-.412-.5.466.466,0,0,1,.5-.411q1.258.116,2.518.191a.456.456,0,0,1-.027.911Zm17.749-.334a.456.456,0,0,1-.043-.909q1.258-.12,2.514-.269a.455.455,0,1,1,.107.9q-1.266.15-2.534.272Zm-22.8-.142a.371.371,0,0,1-.061,0c-.879-.119-1.73-.256-2.53-.406a.455.455,0,1,1,.169-.9c.784.147,1.62.281,2.483.4a.456.456,0,0,1-.061.907Zm27.845-.454a.456.456,0,0,1-.063-.907q1.252-.175,2.5-.379a.455.455,0,0,1,.145.9q-1.257.2-2.519.383A.563.563,0,0,1,450.208,1439.562Zm-32.83-.492a.424.424,0,0,1-.113-.014c-.856-.217-1.686-.46-2.468-.72a.455.455,0,1,1,.287-.864c.761.251,1.57.489,2.406.7a.456.456,0,0,1-.112.9Zm37.84-.326a.456.456,0,0,1-.083-.9q1.244-.23,2.481-.488a.456.456,0,0,1,.187.893q-1.248.259-2.5.492A.478.478,0,0,1,455.219,1438.745Zm294.53-.218a.456.456,0,0,1-.338-.762c.559-.614,1.107-1.256,1.629-1.908a.455.455,0,1,1,.711.569c-.534.667-1.095,1.323-1.665,1.952A.455.455,0,0,1,749.749,1438.526Zm-289.559-.817a.456.456,0,0,1-.1-.9q1.232-.284,2.457-.6a.455.455,0,0,1,.225.883q-1.237.315-2.477.6A.43.43,0,0,1,460.189,1437.71Zm-47.622-.246a.455.455,0,0,1-.178-.037c-.167-.071-.333-.144-.5-.218-.614-.276-1.229-.578-1.824-.9a.456.456,0,0,1,.429-.8c.578.309,1.174.6,1.769.869.16.073.321.143.483.212a.456.456,0,0,1-.179.875Zm52.542-1.006a.456.456,0,0,1-.122-.894q1.219-.338,2.429-.7a.456.456,0,0,1,.263.873q-1.22.367-2.448.708A.465.465,0,0,1,465.11,1436.457Zm-57.011-1.382a.451.451,0,0,1-.248-.074c-.713-.464-1.418-.969-2.094-1.5a.456.456,0,0,1,.563-.718c.656.514,1.338,1,2.029,1.454a.455.455,0,0,1-.25.836Zm61.871-.085a.455.455,0,0,1-.141-.888q1.2-.391,2.395-.81a.455.455,0,1,1,.3.859q-1.2.422-2.414.817A.426.426,0,0,1,469.969,1434.99Zm282.949-.423a.462.462,0,0,1-.267-.085.456.456,0,0,1-.1-.636l.06-.084c.449-.645.893-1.32,1.317-2.009a.456.456,0,1,1,.777.477c-.435.7-.888,1.395-1.348,2.051l-.067.1A.455.455,0,0,1,752.919,1434.567Zm-278.158-1.256a.456.456,0,0,1-.16-.882q1.184-.445,2.357-.917a.456.456,0,0,1,.339.846q-1.182.476-2.376.923A.44.44,0,0,1,474.761,1433.311Zm-70.648-1.357a.453.453,0,0,1-.31-.122c-.62-.576-1.229-1.192-1.81-1.828a.456.456,0,1,1,.673-.615c.564.618,1.155,1.215,1.758,1.775a.456.456,0,0,1-.31.789Zm75.359-.534a.455.455,0,0,1-.179-.874q1.164-.5,2.316-1.018a.456.456,0,0,1,.375.831q-1.161.523-2.333,1.024A.462.462,0,0,1,479.472,1431.419Zm276.115-1.168a.447.447,0,0,1-.218-.056.454.454,0,0,1-.182-.617c.4-.725.783-1.478,1.152-2.238a.455.455,0,1,1,.819.4c-.375.772-.769,1.538-1.172,2.276A.454.454,0,0,1,755.587,1430.251Zm-271.487-.92a.456.456,0,0,1-.2-.867q1.143-.542,2.277-1.1a.455.455,0,1,1,.4.816q-1.141.567-2.292,1.11A.454.454,0,0,1,484.1,1429.332Zm-83.409-1.118a.453.453,0,0,1-.359-.175c-.518-.659-1.026-1.36-1.512-2.08a.456.456,0,1,1,.755-.51c.474.7.969,1.386,1.472,2.029a.454.454,0,0,1-.357.736Zm87.96-1.131a.455.455,0,0,1-.208-.861q1.127-.578,2.247-1.171a.456.456,0,1,1,.425.806q-1.125.594-2.256,1.176A.454.454,0,0,1,488.652,1427.083Zm269.158-1.395a.444.444,0,0,1-.182-.038.456.456,0,0,1-.236-.6q.5-1.148.964-2.331a.455.455,0,0,1,.847.333q-.469,1.2-.976,2.362A.456.456,0,0,1,757.81,1425.688Zm-264.67-.978a.456.456,0,0,1-.217-.856q1.113-.6,2.221-1.22a.455.455,0,1,1,.442.8q-1.113.617-2.23,1.224A.451.451,0,0,1,493.14,1424.711Zm-95.289-.7a.454.454,0,0,1-.394-.227c-.421-.722-.832-1.48-1.223-2.254a.456.456,0,0,1,.813-.411c.382.758.785,1.5,1.2,2.207a.455.455,0,0,1-.393.684Zm99.729-1.761a.456.456,0,0,1-.224-.853q1.1-.621,2.206-1.252a.456.456,0,0,1,.452.791q-1.1.63-2.21,1.255A.46.46,0,0,1,497.581,1422.248Zm262.089-1.286a.435.435,0,0,1-.153-.026.454.454,0,0,1-.276-.582q.421-1.184.813-2.392a.452.452,0,0,1,.574-.292.457.457,0,0,1,.293.574q-.4,1.22-.821,2.416A.457.457,0,0,1,759.669,1420.963Zm-257.679-1.231a.456.456,0,0,1-.228-.85l2.2-1.268a.455.455,0,1,1,.456.789l-2.2,1.269A.457.457,0,0,1,501.99,1419.732Zm-106.429-.251a.455.455,0,0,1-.418-.273c-.336-.769-.662-1.566-.967-2.373a.455.455,0,1,1,.852-.322c.3.791.62,1.576.95,2.33a.455.455,0,0,1-.235.6A.461.461,0,0,1,395.561,1419.481Zm110.825-2.289a.455.455,0,0,1-.228-.85l2.2-1.27a.456.456,0,1,1,.455.789l-2.2,1.27A.458.458,0,0,1,506.387,1417.192Zm254.851-1.061a.467.467,0,0,1-.13-.019.455.455,0,0,1-.306-.566q.358-1.211.692-2.435a.456.456,0,0,1,.88.24q-.338,1.233-.7,2.454A.454.454,0,0,1,761.238,1416.131Zm-367.48-1.395a.456.456,0,0,1-.433-.314q-.4-1.21-.745-2.448a.456.456,0,1,1,.877-.247c.229.812.473,1.617.734,2.409a.457.457,0,0,1-.433.6Zm117.024-.084a.456.456,0,0,1-.229-.85l2.2-1.27a.455.455,0,1,1,.455.789l-2.2,1.271A.457.457,0,0,1,510.783,1414.652Zm4.395-2.542a.456.456,0,0,1-.228-.85l2.2-1.271a.456.456,0,0,1,.456.79l-2.2,1.271A.459.459,0,0,1,515.178,1412.11Zm247.4-.88a.465.465,0,0,1-.112-.014.456.456,0,0,1-.33-.553q.309-1.226.6-2.46a.456.456,0,0,1,.888.209q-.29,1.239-.6,2.475A.454.454,0,0,1,762.579,1411.23Zm-370.2-1.379a.455.455,0,0,1-.443-.349q-.3-1.24-.554-2.5a.455.455,0,1,1,.893-.182q.252,1.243.547,2.467a.456.456,0,0,1-.336.549A.472.472,0,0,1,392.378,1409.851Zm127.193-.286a.455.455,0,0,1-.229-.849l2.2-1.273a.455.455,0,1,1,.456.788l-2.2,1.273A.452.452,0,0,1,519.571,1409.566Zm4.392-2.547a.456.456,0,0,1-.229-.849l2.194-1.276a.455.455,0,1,1,.459.787l-2.2,1.276A.459.459,0,0,1,523.963,1407.019Zm239.78-.733a.437.437,0,0,1-.1-.01.455.455,0,0,1-.346-.543q.271-1.238.527-2.476a.456.456,0,0,1,.893.185q-.258,1.242-.53,2.487A.455.455,0,0,1,763.743,1406.286Zm-372.381-1.417a.455.455,0,0,1-.448-.38c-.142-.837-.271-1.68-.387-2.524a.455.455,0,1,1,.9-.125q.173,1.253.384,2.5a.454.454,0,0,1-.45.531Zm136.991-.4a.456.456,0,0,1-.229-.849l2.194-1.277a.455.455,0,1,1,.459.787l-2.194,1.277A.452.452,0,0,1,528.352,1404.467Zm4.387-2.555a.456.456,0,0,1-.229-.85l2.192-1.279a.455.455,0,1,1,.46.786l-2.193,1.281A.458.458,0,0,1,532.74,1401.912Zm232.032-.6a.525.525,0,0,1-.089-.008.456.456,0,0,1-.359-.536q.245-1.25.478-2.489a.456.456,0,1,1,.9.168q-.235,1.244-.48,2.5A.456.456,0,0,1,764.772,1401.315Zm-374.107-1.478a.455.455,0,0,1-.452-.406q-.138-1.27-.242-2.54a.455.455,0,0,1,.418-.49.45.45,0,0,1,.491.417q.1,1.257.239,2.515a.456.456,0,0,1-.4.5Zm146.458-.486a.455.455,0,0,1-.23-.848l2.19-1.283a.455.455,0,1,1,.46.786l-2.191,1.282A.448.448,0,0,1,537.124,1399.351Zm4.38-2.569a.455.455,0,0,1-.231-.848l2.188-1.286a.456.456,0,1,1,.462.786l-2.189,1.286A.453.453,0,0,1,541.5,1396.782Zm224.209-.457a.472.472,0,0,1-.084-.008.456.456,0,0,1-.366-.53q.231-1.258.451-2.5a.463.463,0,0,1,.529-.368.455.455,0,0,1,.368.529q-.223,1.239-.452,2.5A.454.454,0,0,1,765.713,1396.325Zm-375.463-1.549a.455.455,0,0,1-.454-.43q-.07-1.276-.111-2.545a.456.456,0,0,1,.441-.47.445.445,0,0,1,.47.442c.026.837.063,1.68.111,2.523a.455.455,0,0,1-.43.479Zm155.629-.569a.455.455,0,0,1-.232-.847l2.186-1.29a.456.456,0,1,1,.464.784l-2.187,1.29A.447.447,0,0,1,545.879,1394.207Zm4.371-2.584a.456.456,0,0,1-.233-.848l2.183-1.294a.455.455,0,1,1,.465.783l-2.183,1.3A.452.452,0,0,1,550.25,1391.623Zm216.359-.3a.517.517,0,0,1-.08-.007.457.457,0,0,1-.369-.529l.445-2.5a.462.462,0,0,1,.53-.368.457.457,0,0,1,.367.53l-.445,2.5A.456.456,0,0,1,766.609,1391.326ZM390.089,1389.7a.455.455,0,0,1-.455-.451c0-.325,0-.647,0-.969q0-.793.011-1.579a.448.448,0,0,1,.461-.45.455.455,0,0,1,.449.461c-.007.521-.011,1.043-.011,1.568q0,.478,0,.961a.455.455,0,0,1-.451.459Zm164.528-.672a.456.456,0,0,1-.234-.847l2.18-1.3a.456.456,0,1,1,.467.783l-2.181,1.3A.454.454,0,0,1,554.617,1389.032Zm4.36-2.6a.455.455,0,0,1-.234-.846l2.177-1.305a.455.455,0,1,1,.468.781l-2.177,1.305A.449.449,0,0,1,558.977,1386.429Zm208.524-.1a.479.479,0,0,1-.078-.006.455.455,0,0,1-.371-.527q.216-1.245.421-2.5a.456.456,0,1,1,.9.147q-.2,1.257-.423,2.507A.456.456,0,0,1,767.5,1386.325Zm-369.7-1.258a10.2,10.2,0,0,1-1.6-.128.455.455,0,0,1-.379-.52.45.45,0,0,1,.52-.379,9.015,9.015,0,0,0,2.409.064.455.455,0,0,1,.1.905A9.659,9.659,0,0,1,397.8,1385.067Zm-7.641-.439h-.02a.457.457,0,0,1-.435-.476c.043-.949.1-1.787.189-2.561a.455.455,0,1,1,.905.1c-.083.755-.143,1.573-.184,2.5A.456.456,0,0,1,390.163,1384.628Zm11.089-.25a.455.455,0,0,1-.187-.87,6.478,6.478,0,0,0,1.933-1.351.455.455,0,1,1,.645.643,7.341,7.341,0,0,1-2.2,1.539A.437.437,0,0,1,401.252,1384.377Zm-7.417-.117a.442.442,0,0,1-.17-.033,13.633,13.633,0,0,1-2.325-1.215.456.456,0,0,1,.5-.765,12.7,12.7,0,0,0,2.168,1.136.455.455,0,0,1-.17.877Zm169.494-.444a.456.456,0,0,1-.235-.846l2.174-1.31a.455.455,0,1,1,.471.779l-2.175,1.312A.452.452,0,0,1,563.33,1383.816Zm-173.737-2.293a.45.45,0,0,1-.31-.123,15.5,15.5,0,0,1-1.756-1.935.455.455,0,1,1,.724-.552,14.665,14.665,0,0,0,1.653,1.822.455.455,0,0,1-.31.789Zm378.724-.21c-.022,0-.044,0-.068,0a.455.455,0,0,1-.383-.518q.187-1.251.358-2.507a.449.449,0,0,1,.512-.39.456.456,0,0,1,.39.512q-.171,1.262-.36,2.519A.455.455,0,0,1,768.317,1381.313Zm-200.642-.122a.455.455,0,0,1-.236-.845l2.17-1.317a.456.456,0,0,1,.474.779l-2.172,1.317A.458.458,0,0,1,567.675,1381.191Zm-162.871-.307a.46.46,0,0,1-.211-.052.455.455,0,0,1-.193-.615,8.936,8.936,0,0,0,.813-2.266.455.455,0,0,1,.891.188,9.791,9.791,0,0,1-.9,2.5A.455.455,0,0,1,404.8,1380.884Zm-14.051-1.294a.426.426,0,0,1-.1-.011.455.455,0,0,1-.348-.542,17.172,17.172,0,0,1,.742-2.5.456.456,0,0,1,.851.328,16.17,16.17,0,0,0-.7,2.363A.456.456,0,0,1,390.753,1379.59Zm181.262-1.037a.455.455,0,0,1-.238-.844l2.166-1.324a.456.456,0,0,1,.477.777l-2.168,1.325A.452.452,0,0,1,572.015,1378.553Zm-185.894-1.3a19.934,19.934,0,0,1-1.027-2.379.455.455,0,1,1,.858-.307,18.979,18.979,0,0,0,.96,2.23l-.383.251Zm382.877-.97a.41.41,0,0,1-.055,0,.455.455,0,0,1-.4-.506q.148-1.257.28-2.516a.46.46,0,0,1,.5-.406.454.454,0,0,1,.406.5q-.129,1.266-.281,2.53A.454.454,0,0,1,769,1376.282Zm-363.173-.305a.455.455,0,0,1-.454-.417,6.207,6.207,0,0,0-.619-2.269.455.455,0,0,1,.813-.409,7.076,7.076,0,0,1,.713,2.6.455.455,0,0,1-.414.493Zm170.52-.073a.456.456,0,0,1-.239-.844l2.161-1.33a.456.456,0,1,1,.478.776l-2.162,1.331A.461.461,0,0,1,576.345,1375.9Zm-183.738-1.011a.454.454,0,0,1-.383-.7,10.15,10.15,0,0,1,1.714-2.022.455.455,0,1,1,.614.673,9.262,9.262,0,0,0-1.561,1.841A.455.455,0,0,1,392.607,1374.893Zm188.061-1.654a.456.456,0,0,1-.241-.843l2.159-1.338a.455.455,0,0,1,.479.774l-2.158,1.338A.455.455,0,0,1,580.668,1373.239Zm-195.86-.5a.456.456,0,0,1-.443-.351c-.188-.8-.345-1.653-.47-2.537a.456.456,0,0,1,.9-.126c.12.856.273,1.682.454,2.454a.455.455,0,0,1-.339.548A.437.437,0,0,1,384.809,1372.741Zm18.73-1.119a.456.456,0,0,1-.267-.086,4.944,4.944,0,0,0-.705-.426,5.517,5.517,0,0,0-1.431-.481.456.456,0,0,1-.362-.533.45.45,0,0,1,.533-.362,6.429,6.429,0,0,1,1.666.56,5.99,5.99,0,0,1,.834.5.455.455,0,0,1-.268.824Zm-7.222-.116a.456.456,0,0,1-.213-.859,9,9,0,0,1,2.51-.892.455.455,0,1,1,.171.894,8.134,8.134,0,0,0-2.256.8A.448.448,0,0,1,396.317,1371.506Zm373.2-.275a.276.276,0,0,1-.038,0,.456.456,0,0,1-.417-.491q.1-1.261.185-2.523a.474.474,0,0,1,.483-.426.457.457,0,0,1,.426.484q-.08,1.271-.187,2.541A.455.455,0,0,1,769.516,1371.231Zm-184.535-.672a.455.455,0,0,1-.242-.842l2.152-1.345a.456.456,0,1,1,.483.772l-2.153,1.345A.45.45,0,0,1,584.981,1370.559Zm4.3-2.7a.455.455,0,0,1-.243-.841l2.147-1.353a.455.455,0,1,1,.486.769l-2.148,1.355A.447.447,0,0,1,589.284,1367.863Zm-205.2-.142a.455.455,0,0,1-.454-.424c-.056-.806-.092-1.645-.11-2.559a.455.455,0,0,1,.447-.464.463.463,0,0,1,.465.448c.017.9.052,1.72.107,2.512a.455.455,0,0,1-.423.486Zm385.747-1.555h-.02a.458.458,0,0,1-.437-.475q.052-1.263.075-2.527a.455.455,0,0,1,.456-.447h.008a.456.456,0,0,1,.448.464q-.023,1.272-.075,2.548A.456.456,0,0,1,769.834,1366.166Zm-176.259-1.016a.455.455,0,0,1-.245-.84l2.141-1.362a.455.455,0,0,1,.489.768l-2.142,1.363A.444.444,0,0,1,593.575,1365.149Zm-209.6-2.5h-.006a.456.456,0,0,1-.45-.461c.009-.72.025-1.438.043-2.152l.01-.391a.464.464,0,0,1,.467-.443.456.456,0,0,1,.443.467l-.01.393c-.018.709-.034,1.422-.043,2.138A.455.455,0,0,1,383.974,1362.645Zm213.883-.225a.455.455,0,0,1-.246-.839q1.068-.683,2.134-1.372a.456.456,0,0,1,.495.766q-1.068.688-2.137,1.373A.454.454,0,0,1,597.857,1362.42Zm172.064-1.331a.456.456,0,0,1-.455-.452q-.012-1.265-.056-2.525a.455.455,0,0,1,.438-.472.449.449,0,0,1,.472.438q.046,1.274.056,2.551a.455.455,0,0,1-.451.459Zm-167.795-1.417a.456.456,0,0,1-.248-.838l2.129-1.381a.456.456,0,0,1,.5.765l-2.131,1.381A.457.457,0,0,1,602.126,1359.672Zm-218.02-2.1h-.016a.456.456,0,0,1-.439-.472q.045-1.271.1-2.547a.469.469,0,0,1,.475-.435.457.457,0,0,1,.435.477q-.057,1.271-.1,2.537A.455.455,0,0,1,384.106,1357.569Zm222.276-.663a.456.456,0,0,1-.25-.837l2.123-1.391a.455.455,0,0,1,.5.761l-2.125,1.392A.459.459,0,0,1,606.383,1356.906Zm163.351-.889a.456.456,0,0,1-.454-.425q-.083-1.262-.2-2.517a.457.457,0,0,1,.409-.5.465.465,0,0,1,.5.41q.123,1.269.207,2.544a.457.457,0,0,1-.425.485Zm-159.108-1.9a.455.455,0,0,1-.251-.836l2.115-1.4a.456.456,0,0,1,.5.76l-2.117,1.4A.451.451,0,0,1,610.626,1354.118Zm-226.29-1.633h-.025a.456.456,0,0,1-.431-.48q.07-1.27.155-2.542a.449.449,0,0,1,.485-.425.455.455,0,0,1,.424.485q-.084,1.267-.153,2.532A.456.456,0,0,1,384.336,1352.485Zm230.519-1.176a.455.455,0,0,1-.254-.834l2.109-1.412a.456.456,0,0,1,.508.756l-2.111,1.413A.454.454,0,0,1,614.855,1351.309Zm154.386-.344a.458.458,0,0,1-.451-.4q-.164-1.253-.373-2.5a.456.456,0,0,1,.9-.15q.211,1.26.377,2.527a.454.454,0,0,1-.392.511A.36.36,0,0,1,769.24,1350.965Zm-150.169-2.484a.456.456,0,0,1-.256-.833l2.1-1.423a.456.456,0,1,1,.511.755l-2.1,1.423A.45.45,0,0,1,619.071,1348.481Zm-234.4-1.069a.29.29,0,0,1-.037,0,.455.455,0,0,1-.418-.489q.1-1.27.217-2.537a.455.455,0,1,1,.907.083q-.116,1.262-.217,2.525A.455.455,0,0,1,384.675,1347.411ZM768.4,1345.96a.455.455,0,0,1-.445-.363q-.256-1.234-.559-2.458a.456.456,0,0,1,.884-.22q.309,1.242.567,2.493a.456.456,0,0,1-.354.539A.422.422,0,0,1,768.4,1345.96Zm-145.128-.332a.456.456,0,0,1-.258-.832l2.095-1.432a.455.455,0,1,1,.514.751l-2.095,1.434A.455.455,0,0,1,623.271,1345.628Zm4.185-2.874a.456.456,0,0,1-.26-.83l2.085-1.445a.455.455,0,0,1,.52.748l-2.088,1.447A.445.445,0,0,1,627.456,1342.754Zm-242.313-.4-.049,0a.455.455,0,0,1-.4-.5q.135-1.265.29-2.528a.456.456,0,1,1,.9.11q-.153,1.257-.289,2.515A.455.455,0,0,1,385.144,1342.353Zm382.032-1.319a.455.455,0,0,1-.437-.327q-.354-1.21-.759-2.4a.456.456,0,0,1,.863-.293q.412,1.214.77,2.44a.456.456,0,0,1-.309.565A.487.487,0,0,1,767.175,1341.034Zm-135.552-1.178a.456.456,0,0,1-.261-.829l2.077-1.457a.456.456,0,0,1,.524.745l-2.079,1.459A.457.457,0,0,1,631.623,1339.855Zm-245.86-2.542a.4.4,0,0,1-.064,0,.456.456,0,0,1-.388-.514q.176-1.262.374-2.518a.456.456,0,0,1,.9.141q-.2,1.248-.372,2.5A.456.456,0,0,1,385.763,1337.314Zm250.009-.379a.456.456,0,0,1-.263-.828l2.067-1.466a.456.456,0,1,1,.528.743l-2.068,1.467A.455.455,0,0,1,635.772,1336.935Zm115.294-.558a6.762,6.762,0,0,1-1.211-.11.455.455,0,1,1,.168-.9,5.661,5.661,0,0,0,1.037.095h.006a6.492,6.492,0,0,0,1.3-.136.456.456,0,0,1,.183.893A7.441,7.441,0,0,1,751.065,1336.378Zm14.477-.15a.456.456,0,0,1-.423-.286l-.078-.2c-.284-.72-.593-1.427-.916-2.1a.456.456,0,0,1,.823-.393c.332.694.648,1.421.94,2.161l.078.2a.456.456,0,0,1-.254.592A.471.471,0,0,1,765.542,1336.228Zm-10.714-.888a.455.455,0,0,1-.225-.852,7.339,7.339,0,0,0,1.811-1.433.491.491,0,0,1,.668-.06.426.426,0,0,1,.061.613l-.052.058a8.267,8.267,0,0,1-2.037,1.615A.454.454,0,0,1,754.828,1335.339Zm-7.171-.113a.458.458,0,0,1-.287-.1c-.049-.04-.1-.082-.146-.124a4.722,4.722,0,0,1-1.419-2.158.456.456,0,0,1,.871-.269,3.812,3.812,0,0,0,1.152,1.745l.116.1a.455.455,0,0,1-.287.809ZM639.906,1334a.455.455,0,0,1-.263-.826l2.063-1.471a.456.456,0,1,1,.53.742l-2.065,1.471A.458.458,0,0,1,639.906,1334Zm-253.351-1.7a.431.431,0,0,1-.08-.008.454.454,0,0,1-.368-.528q.221-1.254.47-2.5a.45.45,0,0,1,.535-.358.456.456,0,0,1,.358.536q-.246,1.237-.466,2.484A.458.458,0,0,1,386.555,1332.3Zm371.7-.616a.447.447,0,0,1-.218-.056.455.455,0,0,1-.182-.618,14.6,14.6,0,0,0,.98-2.255.456.456,0,0,1,.861.3,15.431,15.431,0,0,1-1.043,2.395A.454.454,0,0,1,758.256,1331.688Zm5.083-.031a.457.457,0,0,1-.392-.221,21.334,21.334,0,0,0-1.391-2.058.455.455,0,0,1,.722-.555,22.232,22.232,0,0,1,1.452,2.145.454.454,0,0,1-.39.689Zm-119.3-.6a.456.456,0,0,1-.265-.827l2.067-1.472a.455.455,0,1,1,.528.743l-2.065,1.472A.456.456,0,0,1,644.035,1331.054Zm102.151-.4a.439.439,0,0,1-.1-.011.456.456,0,0,1-.344-.545,7.631,7.631,0,0,1,1.065-2.466.455.455,0,1,1,.764.5,6.832,6.832,0,0,0-.94,2.171A.457.457,0,0,1,746.186,1330.656Zm-98.018-2.546a.456.456,0,0,1-.264-.827l2.07-1.469a.455.455,0,0,1,.526.743l-2.068,1.468A.452.452,0,0,1,648.168,1328.11Zm112.062-.447a.456.456,0,0,1-.315-.126,12.38,12.38,0,0,0-1.918-1.514.455.455,0,1,1,.488-.769,12.445,12.445,0,0,1,1.1.783c.136-.621.27-1.311.415-2.142a.456.456,0,0,1,.9.157c-.174,1-.332,1.794-.5,2.514a.421.421,0,0,1-.049.127c.066.062.131.123.2.185a.456.456,0,0,1-.315.785Zm-372.686-.335a.446.446,0,0,1-.1-.011.454.454,0,0,1-.346-.542q.275-1.246.578-2.479a.461.461,0,0,1,.552-.334.456.456,0,0,1,.333.552q-.3,1.223-.573,2.458A.456.456,0,0,1,387.544,1327.328Zm361.312-.894a.456.456,0,0,1-.3-.8,8.634,8.634,0,0,1,2.266-1.414.456.456,0,0,1,.353.841,7.711,7.711,0,0,0-2.026,1.265A.452.452,0,0,1,748.856,1326.434Zm-96.547-1.257a.456.456,0,0,1-.263-.828l2.078-1.461a.455.455,0,1,1,.523.746l-2.075,1.46A.455.455,0,0,1,652.309,1325.177Zm103.647-.171a.463.463,0,0,1-.142-.023,9.225,9.225,0,0,0-1.556-.365,5.272,5.272,0,0,0-.744-.053.475.475,0,0,1-.478-.455.436.436,0,0,1,.432-.455h.046a6.2,6.2,0,0,1,.873.061,10.108,10.108,0,0,1,1.712.4.456.456,0,0,1-.142.888Zm-367.2-2.6a.49.49,0,0,1-.12-.016.456.456,0,0,1-.32-.559q.335-1.231.7-2.448a.456.456,0,0,1,.872.263q-.363,1.2-.695,2.424A.456.456,0,0,1,388.755,1322.407Zm267.712-.146a.455.455,0,0,1-.261-.828q1.044-.727,2.088-1.449a.456.456,0,0,1,.518.75q-1.046.72-2.084,1.446A.463.463,0,0,1,656.468,1322.262Zm104.367-.341a.471.471,0,0,1-.061,0,.455.455,0,0,1-.391-.512q.165-1.239.281-2.5a.456.456,0,0,1,.907.084q-.119,1.283-.286,2.541A.454.454,0,0,1,760.835,1321.921Zm-100.187-2.544a.456.456,0,0,1-.258-.831q1.051-.718,2.1-1.43a.455.455,0,0,1,.512.754q-1.051.713-2.1,1.428A.456.456,0,0,1,660.648,1319.377Zm-270.431-1.822a.472.472,0,0,1-.143-.023.456.456,0,0,1-.289-.576q.4-1.213.838-2.406a.456.456,0,1,1,.856.313q-.431,1.18-.829,2.38A.456.456,0,0,1,390.217,1317.555Zm371.081-.689h-.022a.455.455,0,0,1-.432-.477q.061-1.256.07-2.519a.432.432,0,0,1,.458-.453.455.455,0,0,1,.453.459q-.008,1.28-.072,2.557A.455.455,0,0,1,761.3,1316.866Zm-96.442-.336a.455.455,0,0,1-.253-.834q1.058-.707,2.119-1.408a.456.456,0,0,1,.5.761q-1.059.7-2.114,1.4A.454.454,0,0,1,664.856,1316.53Zm4.242-2.8a.456.456,0,0,1-.249-.838q1.068-.693,2.139-1.379a.456.456,0,0,1,.491.768q-1.069.683-2.134,1.375A.452.452,0,0,1,669.1,1313.733Zm-277.141-.937a.463.463,0,0,1-.17-.033.455.455,0,0,1-.252-.593q.476-1.184.989-2.35a.456.456,0,0,1,.834.368q-.508,1.15-.978,2.321A.455.455,0,0,1,391.958,1312.8Zm369.366-1.006a.457.457,0,0,1-.455-.436c-.036-.848-.092-1.693-.17-2.508a.455.455,0,0,1,.411-.5.46.46,0,0,1,.5.41c.078.832.136,1.692.173,2.556a.456.456,0,0,1-.436.475Zm-87.941-.8a.455.455,0,0,1-.243-.841q1.077-.677,2.161-1.346a.456.456,0,0,1,.477.777q-1.079.665-2.154,1.34A.449.449,0,0,1,673.382,1310.993Zm4.328-2.668a.456.456,0,0,1-.236-.846q1.091-.659,2.187-1.305a.455.455,0,0,1,.463.784q-1.092.645-2.179,1.3A.446.446,0,0,1,677.709,1308.326Zm-283.7-.166a.457.457,0,0,1-.41-.654q.556-1.151,1.154-2.277a.456.456,0,0,1,.8.427q-.59,1.111-1.139,2.246A.456.456,0,0,1,394.005,1308.159Zm366.838-1.42a.456.456,0,0,1-.45-.387c-.127-.838-.281-1.667-.455-2.468a.456.456,0,0,1,.348-.542.452.452,0,0,1,.543.349c.178.818.335,1.668.466,2.524a.456.456,0,0,1-.382.519A.479.479,0,0,1,760.843,1306.739Zm-78.757-1a.455.455,0,0,1-.228-.85q1.1-.637,2.213-1.26a.455.455,0,0,1,.446.794q-1.1.622-2.2,1.256A.454.454,0,0,1,682.086,1305.741Zm-285.7-2.059a.455.455,0,0,1-.393-.685q.643-1.1,1.329-2.183a.456.456,0,0,1,.769.49q-.677,1.061-1.31,2.15A.455.455,0,0,1,396.383,1303.682Zm290.136-.432a.455.455,0,0,1-.219-.855q1.119-.611,2.243-1.208a.455.455,0,0,1,.426.8q-1.119.593-2.233,1.2A.456.456,0,0,1,686.519,1303.25Zm73.234-1.466a.454.454,0,0,1-.436-.326c-.244-.818-.517-1.614-.811-2.366a.456.456,0,0,1,.85-.331c.3.774.582,1.594.833,2.437a.455.455,0,0,1-.306.567A.463.463,0,0,1,759.753,1301.784Zm-68.743-.917a.456.456,0,0,1-.209-.861q1.134-.583,2.275-1.149a.455.455,0,0,1,.4.816q-1.134.564-2.263,1.143A.445.445,0,0,1,691.009,1300.867Zm-291.9-1.462a.456.456,0,0,1-.373-.717q.733-1.047,1.512-2.065a.456.456,0,0,1,.724.553q-.769,1-1.489,2.034A.456.456,0,0,1,399.113,1299.405Zm296.45-.8a.456.456,0,0,1-.2-.866q1.149-.551,2.306-1.083a.455.455,0,1,1,.381.827q-1.151.53-2.294,1.077A.45.45,0,0,1,695.563,1298.606Zm62.332-1.541a.455.455,0,0,1-.407-.25,22.413,22.413,0,0,0-1.242-2.153.456.456,0,1,1,.762-.5,23.428,23.428,0,0,1,1.293,2.24.456.456,0,0,1-.406.662Zm-57.715-.584a.455.455,0,0,1-.183-.872q1.166-.514,2.339-1.009a.455.455,0,0,1,.353.839q-1.165.492-2.325,1A.455.455,0,0,1,700.18,1296.482ZM402.2,1295.373a.456.456,0,0,1-.349-.749c.552-.656,1.121-1.3,1.693-1.924a.456.456,0,0,1,.67.618c-.563.61-1.124,1.247-1.665,1.893A.455.455,0,0,1,402.2,1295.373Zm302.66-.865a.455.455,0,0,1-.17-.878q1.183-.475,2.374-.928a.455.455,0,1,1,.322.852q-1.18.449-2.357.921A.446.446,0,0,1,704.862,1294.509Zm50.246-1.671a.454.454,0,0,1-.347-.16,18.012,18.012,0,0,0-1.726-1.769.456.456,0,0,1,.606-.68,18.779,18.779,0,0,1,1.813,1.859.455.455,0,0,1-.347.75Zm-45.5-.135a.456.456,0,0,1-.154-.885q1.2-.431,2.405-.838a.456.456,0,0,1,.291.864q-1.2.4-2.387.832A.442.442,0,0,1,709.607,1292.7Zm-303.963-1.063a.455.455,0,0,1-.321-.779q.445-.44.9-.87.476-.45.961-.886a.455.455,0,0,1,.61.677q-.477.43-.945.871-.449.423-.887.856A.454.454,0,0,1,405.645,1291.64Zm308.77-.562a.456.456,0,0,1-.137-.89q1.214-.383,2.435-.742a.455.455,0,0,1,.257.874q-1.212.356-2.417.737A.46.46,0,0,1,714.415,1291.078Zm4.866-1.428a.456.456,0,0,1-.119-.9q1.228-.332,2.462-.639a.456.456,0,0,1,.22.885q-1.226.3-2.444.632A.435.435,0,0,1,719.281,1289.65Zm32.049-.175a.451.451,0,0,1-.251-.076,17.565,17.565,0,0,0-2.151-1.212.456.456,0,0,1,.39-.824,18.339,18.339,0,0,1,2.264,1.277.455.455,0,0,1-.252.835Zm-27.131-1.043a.456.456,0,0,1-.1-.9q1.239-.278,2.486-.528a.456.456,0,0,1,.18.893q-1.238.248-2.466.524A.447.447,0,0,1,724.2,1288.433Zm-314.785-.187a.455.455,0,0,1-.29-.807q.987-.812,2.005-1.582a.455.455,0,1,1,.55.725q-1,.76-1.977,1.56A.451.451,0,0,1,409.413,1288.245Zm319.75-.808a.455.455,0,0,1-.078-.9q1.251-.221,2.513-.413a.455.455,0,1,1,.136.9q-1.249.19-2.492.41A.414.414,0,0,1,729.163,1287.437Zm17.6-.13a.477.477,0,0,1-.136-.021,19.974,19.974,0,0,0-2.408-.587.456.456,0,0,1,.161-.9,20.721,20.721,0,0,1,2.519.615.456.456,0,0,1-.136.891Zm-12.581-.632a.455.455,0,0,1-.054-.907c.906-.11,1.74-.193,2.547-.252a.466.466,0,0,1,.488.42.455.455,0,0,1-.421.488c-.793.059-1.611.14-2.5.249A.457.457,0,0,1,734.18,1286.675Zm7.6-.284h-.034c-.694-.051-1.424-.078-2.167-.078l-.331,0h-.005a.455.455,0,0,1-.005-.911l.341,0c.766,0,1.518.026,2.234.079a.455.455,0,0,1-.032.91Zm-328.325-1.212a.456.456,0,0,1-.262-.829q1.045-.733,2.114-1.431a.456.456,0,0,1,.5.762q-1.058.691-2.091,1.414A.456.456,0,0,1,413.455,1285.179Zm4.247-2.782a.455.455,0,0,1-.24-.843q1.087-.666,2.19-1.308a.456.456,0,1,1,.458.788q-1.093.637-2.171,1.3A.457.457,0,0,1,417.7,1282.4Zm4.39-2.555a.455.455,0,0,1-.222-.854q1.113-.618,2.237-1.217a.455.455,0,1,1,.429.8q-1.118.6-2.224,1.21A.446.446,0,0,1,422.092,1279.842Zm4.479-2.4a.456.456,0,0,1-.211-.86q1.128-.586,2.263-1.161a.455.455,0,1,1,.413.812q-1.131.575-2.256,1.158A.449.449,0,0,1,426.57,1277.446Zm4.525-2.306a.456.456,0,0,1-.205-.863l2.27-1.141a.456.456,0,0,1,.409.814l-2.269,1.141A.452.452,0,0,1,431.095,1275.14Zm4.536-2.286a.456.456,0,0,1-.207-.862q1.13-.573,2.257-1.154a.455.455,0,0,1,.419.809q-1.129.583-2.263,1.158A.446.446,0,0,1,435.63,1272.855Zm4.508-2.334a.455.455,0,0,1-.214-.858q1.118-.595,2.226-1.2a.456.456,0,0,1,.44.8q-1.115.614-2.239,1.21A.451.451,0,0,1,440.139,1270.521Zm4.444-2.452a.455.455,0,0,1-.228-.85q1.1-.632,2.176-1.287a.455.455,0,1,1,.473.778q-1.088.661-2.194,1.3A.45.45,0,0,1,444.582,1268.069Zm4.335-2.639a.456.456,0,0,1-.247-.838q1.062-.684,2.1-1.4a.456.456,0,0,1,.517.75q-1.05.724-2.123,1.416A.451.451,0,0,1,448.918,1265.43Zm4.175-2.886a.455.455,0,0,1-.272-.82l.559-.421q.717-.545,1.423-1.128a.456.456,0,0,1,.581.7c-.478.4-.965.781-1.454,1.152l-.566.425A.449.449,0,0,1,453.093,1262.544Zm3.894-3.254a.456.456,0,0,1-.317-.783,23.847,23.847,0,0,0,1.7-1.821.455.455,0,1,1,.7.583,24.49,24.49,0,0,1-1.762,1.892A.453.453,0,0,1,456.986,1259.29Zm3.219-3.909a.448.448,0,0,1-.24-.068.454.454,0,0,1-.147-.627,14.21,14.21,0,0,0,.721-1.313.455.455,0,0,1,.3-.678c.026-.067.054-.132.079-.2a.456.456,0,1,1,.848.333c-.022.057-.045.115-.068.172a13.693,13.693,0,0,0,1.716.631.455.455,0,1,1-.255.874,14.526,14.526,0,0,1-1.834-.673c-.219.448-.465.893-.737,1.333A.455.455,0,0,1,460.206,1255.381Zm7.711-.252a19.5,19.5,0,0,1-2.188-.122.456.456,0,0,1,.1-.905,18.693,18.693,0,0,0,2.085.116l.39,0a.455.455,0,1,1,.017.911Zm2.926-.2a.456.456,0,0,1-.061-.907c.8-.109,1.621-.264,2.451-.461a.456.456,0,0,1,.211.887c-.859.2-1.712.364-2.538.477A.507.507,0,0,1,470.843,1254.924Zm4.939-1.156a.456.456,0,0,1-.14-.889c.761-.246,1.557-.532,2.363-.848a.455.455,0,0,1,.333.848c-.824.324-1.637.616-2.417.867A.444.444,0,0,1,475.782,1253.768Zm-17.016-1.49a.454.454,0,0,1-.269-.087,15.294,15.294,0,0,1-1.972-1.717.456.456,0,1,1,.655-.633,14.269,14.269,0,0,0,1.855,1.614.456.456,0,0,1-.269.823Zm21.744-.356a.456.456,0,0,1-.188-.871c.77-.346,1.53-.708,2.281-1.079a.455.455,0,1,1,.4.817q-1.14.564-2.309,1.093A.455.455,0,0,1,480.51,1251.921Zm-18.493-1.246a.437.437,0,0,1-.073-.006.455.455,0,0,1-.377-.523l.033-.227a7.259,7.259,0,0,0,.066-.992,8,8,0,0,0-.087-1.17.456.456,0,1,1,.9-.133,9.124,9.124,0,0,1,.1,1.3,8.232,8.232,0,0,1-.074,1.115l-.037.25A.456.456,0,0,1,462.017,1250.676Zm23.049-.992a.455.455,0,0,1-.211-.858q1.122-.586,2.232-1.193a.456.456,0,0,1,.437.8q-1.118.611-2.247,1.2A.454.454,0,0,1,485.067,1249.683Zm-29.8-1.05a.455.455,0,0,1-.382-.206,12.022,12.022,0,0,1-1.2-2.347.456.456,0,0,1,.853-.32,11.115,11.115,0,0,0,1.1,2.169.455.455,0,0,1-.381.7Zm34.252-1.385a.456.456,0,0,1-.227-.851q1.1-.628,2.184-1.276a.456.456,0,0,1,.467.783q-1.093.652-2.2,1.285A.455.455,0,0,1,489.522,1247.249Zm-28.2-1.532a.455.455,0,0,1-.417-.272,9.171,9.171,0,0,0-1.252-2.061.456.456,0,1,1,.708-.573,10.038,10.038,0,0,1,1.377,2.266.454.454,0,0,1-.232.6A.46.46,0,0,1,461.325,1245.716Zm32.555-1.071a.456.456,0,0,1-.241-.842q1.073-.67,2.134-1.359a.456.456,0,0,1,.5.764q-1.068.694-2.149,1.368A.448.448,0,0,1,493.88,1244.646Zm-40.343-.732a.456.456,0,0,1-.453-.41,9.47,9.47,0,0,1-.048-.946,9.356,9.356,0,0,1,.158-1.71.456.456,0,0,1,.9.167,8.4,8.4,0,0,0-.1,2.4.455.455,0,0,1-.408.5Zm44.6-2.036a.455.455,0,0,1-.256-.832q1.047-.711,2.081-1.439a.455.455,0,0,1,.525.744q-1.041.734-2.1,1.448A.455.455,0,0,1,498.136,1241.877Zm-39.993-.031a.458.458,0,0,1-.248-.073,5.754,5.754,0,0,0-2.166-.876.456.456,0,0,1,.155-.9,6.679,6.679,0,0,1,2.509,1.009.455.455,0,0,1-.25.837Zm44.142-2.9a.456.456,0,0,1-.27-.823q1.021-.748,2.025-1.517a.456.456,0,0,1,.553.724q-1.012.774-2.039,1.527A.45.45,0,0,1,502.285,1238.95Zm4.034-3.081a.456.456,0,0,1-.284-.812q.991-.788,1.966-1.593a.456.456,0,1,1,.58.7q-.982.81-1.979,1.6A.457.457,0,0,1,506.319,1235.869Zm3.915-3.233a.455.455,0,0,1-.3-.8q.96-.822,1.905-1.664a.455.455,0,1,1,.606.679q-.952.848-1.918,1.677A.457.457,0,0,1,510.234,1232.636Zm3.791-3.376a.456.456,0,0,1-.31-.79q.928-.858,1.841-1.735a.455.455,0,1,1,.631.656q-.918.883-1.853,1.748A.451.451,0,0,1,514.026,1229.26Zm3.66-3.518a.455.455,0,0,1-.321-.777q.9-.9,1.773-1.8a.456.456,0,0,1,.656.633q-.885.916-1.786,1.817A.455.455,0,0,1,517.686,1225.742Zm3.525-3.654a.456.456,0,0,1-.333-.766q.861-.927,1.7-1.871a.456.456,0,0,1,.68.608q-.849.949-1.715,1.882A.453.453,0,0,1,521.211,1222.088Zm3.383-3.785a.456.456,0,0,1-.345-.753q.825-.959,1.632-1.934a.455.455,0,0,1,.7.581q-.812.982-1.643,1.947A.454.454,0,0,1,524.594,1218.3Zm174.2-.207a.456.456,0,0,1-.445-.363c-.169-.81-.365-1.632-.582-2.446a.456.456,0,0,1,.881-.235c.222.829.422,1.669.594,2.495a.456.456,0,0,1-.353.54A.45.45,0,0,1,698.8,1218.1Zm-170.965-3.7a.455.455,0,0,1-.356-.738q.788-.991,1.556-2a.456.456,0,0,1,.724.554q-.774,1.011-1.567,2.009A.455.455,0,0,1,527.831,1214.392Zm169.658-1.2a.456.456,0,0,1-.433-.315c-.259-.8-.541-1.593-.842-2.369a.456.456,0,1,1,.851-.328c.3.791.593,1.6.857,2.415a.454.454,0,0,1-.292.574A.449.449,0,0,1,697.489,1213.192Zm-166.574-2.832a.455.455,0,0,1-.366-.726q.749-1.019,1.487-2.05a.455.455,0,1,1,.741.529q-.742,1.037-1.495,2.062A.456.456,0,0,1,530.915,1210.36Zm164.751-1.9a.457.457,0,0,1-.416-.27c-.34-.765-.7-1.529-1.081-2.271a.455.455,0,1,1,.813-.412c.384.755.754,1.533,1.1,2.311a.456.456,0,0,1-.231.6A.462.462,0,0,1,695.666,1208.455Zm-161.8-2.225a.455.455,0,0,1-.372-.716q.726-1.039,1.444-2.084a.455.455,0,1,1,.75.517q-.72,1.049-1.448,2.09A.454.454,0,0,1,533.871,1206.23Zm159.5-2.3a.456.456,0,0,1-.4-.229c-.419-.731-.857-1.454-1.3-2.152a.456.456,0,0,1,.767-.491c.454.71.9,1.447,1.327,2.19a.456.456,0,0,1-.4.682Zm-156.617-1.883a.456.456,0,0,1-.376-.713l1.431-2.1a.456.456,0,0,1,.753.514l-1.432,2.1A.454.454,0,0,1,536.753,1202.048Zm153.885-2.392a.455.455,0,0,1-.373-.192c-.478-.674-.985-1.353-1.5-2.017a.456.456,0,0,1,.718-.561c.528.674,1.042,1.364,1.529,2.051a.456.456,0,0,1-.371.72Zm-151.02-1.8a.45.45,0,0,1-.258-.08.455.455,0,0,1-.117-.634q.72-1.047,1.447-2.09a.456.456,0,0,1,.747.522q-.725,1.039-1.443,2.084A.456.456,0,0,1,539.618,1197.857Zm101.648-1.447a.456.456,0,0,1,0-.911,4.72,4.72,0,0,0,1.861-.4q.187-.081.364-.174a.456.456,0,1,1,.421.808c-.137.072-.28.14-.425.2a5.622,5.622,0,0,1-2.218.476Zm-2.437-.612a.448.448,0,0,1-.209-.051,7.678,7.678,0,0,1-2.117-1.65.456.456,0,1,1,.671-.616,6.771,6.771,0,0,0,1.865,1.457.456.456,0,0,1-.21.86Zm48.677-.137a.452.452,0,0,1-.344-.158c-.546-.633-1.114-1.26-1.689-1.866a.456.456,0,0,1,.662-.628c.584.617,1.162,1.256,1.716,1.9a.454.454,0,0,1-.047.642A.449.449,0,0,1,687.507,1195.66Zm-41.884-1.5a.455.455,0,0,1-.36-.734,6.847,6.847,0,0,0,1.09-2.1.456.456,0,0,1,.867.28,7.757,7.757,0,0,1-1.237,2.38A.45.45,0,0,1,645.623,1194.157Zm-103.1-.461a.448.448,0,0,1-.264-.085.455.455,0,0,1-.106-.635q.739-1.036,1.492-2.061a.456.456,0,1,1,.734.54q-.748,1.018-1.485,2.05A.456.456,0,0,1,542.526,1193.7Zm92.872-1.532a.455.455,0,0,1-.405-.247,10.892,10.892,0,0,1-.918-2.48.456.456,0,0,1,.888-.209,9.861,9.861,0,0,0,.841,2.271.456.456,0,0,1-.2.614A.448.448,0,0,1,635.4,1192.163Zm48.619-.187a.454.454,0,0,1-.315-.128c-.6-.573-1.219-1.146-1.854-1.7a.456.456,0,0,1,.6-.685c.645.566,1.279,1.148,1.884,1.732a.455.455,0,0,1-.315.783Zm-138.482-2.369a.455.455,0,0,1-.361-.732q.774-1.014,1.566-2.009a.456.456,0,0,1,.713.568q-.788.987-1.555,1.994A.454.454,0,0,1,545.536,1189.607Zm101.681-.186H647.2a.456.456,0,0,1-.439-.471c0-.107.006-.215.006-.322a9.263,9.263,0,0,0-.235-2.079.456.456,0,1,1,.888-.205,10.186,10.186,0,0,1,.258,2.285c0,.118,0,.237-.006.356A.455.455,0,0,1,647.216,1189.421Zm32.985-.791a.456.456,0,0,1-.284-.1c-.656-.523-1.33-1.036-2-1.524a.456.456,0,0,1,.535-.738c.686.5,1.372,1.019,2.038,1.55a.455.455,0,0,1-.284.812Zm-45.934-1.362h-.018a.455.455,0,0,1-.437-.473,8.074,8.074,0,0,1,.534-2.623.456.456,0,0,1,.849.331,7.137,7.137,0,0,0-.472,2.328A.456.456,0,0,1,634.268,1187.268Zm41.823-1.615a.446.446,0,0,1-.249-.075c-.705-.462-1.424-.909-2.137-1.329a.456.456,0,1,1,.463-.785c.726.427,1.457.883,2.173,1.353a.455.455,0,0,1-.25.837Zm-127.388-.011a.456.456,0,0,1-.349-.749q.822-.978,1.669-1.93a.456.456,0,1,1,.68.606q-.839.941-1.651,1.91A.456.456,0,0,1,548.7,1185.641Zm97.366-1.1a.454.454,0,0,1-.4-.239,12.5,12.5,0,0,0-1.376-2.02.456.456,0,1,1,.7-.582,13.4,13.4,0,0,1,1.476,2.168.455.455,0,0,1-.4.673Zm25.65-1.467a.449.449,0,0,1-.212-.053c-.735-.387-1.493-.765-2.254-1.12a.455.455,0,1,1,.386-.824c.773.361,1.546.745,2.293,1.139a.456.456,0,0,1-.212.859Zm-35.645-.447a.451.451,0,0,1-.284-.1.456.456,0,0,1-.072-.64,11.877,11.877,0,0,1,1.866-1.859.455.455,0,1,1,.568.712,10.931,10.931,0,0,0-1.721,1.716A.455.455,0,0,1,636.073,1182.626Zm-83.992-.773a.455.455,0,0,1-.33-.77q.881-.925,1.795-1.817a.455.455,0,1,1,.636.651q-.9.881-1.771,1.795A.455.455,0,0,1,552.081,1181.853Zm115.037-.929a.455.455,0,0,1-.172-.034c-.775-.316-1.566-.617-2.351-.893a.455.455,0,1,1,.3-.859c.8.281,1.6.587,2.394.909a.456.456,0,0,1-.172.877Zm-24.245-.295a.459.459,0,0,1-.3-.115,22.177,22.177,0,0,0-1.757-1.4q-.312.144-.609.3a.456.456,0,0,1-.421-.808,16.69,16.69,0,0,1,2.4-1.014.455.455,0,1,1,.29.864c-.234.078-.462.16-.688.247.5.377.956.751,1.389,1.136a.456.456,0,0,1-.3.8Zm19.458-1.386a.49.49,0,0,1-.13-.019c-.8-.237-1.616-.454-2.428-.65a.456.456,0,1,1,.213-.886c.827.2,1.658.421,2.473.661a.456.456,0,0,1-.129.893Zm-106.615-.931a.455.455,0,0,1-.3-.794q.95-.854,1.94-1.668a.455.455,0,0,1,.579.7q-.974.8-1.91,1.643A.45.45,0,0,1,555.715,1178.311Zm101.682-.25a.455.455,0,0,1-.084-.008c-.824-.152-1.658-.282-2.481-.389a.455.455,0,1,1,.117-.9c.838.108,1.689.241,2.529.4a.456.456,0,0,1-.081.9Zm-12.616-.236a.456.456,0,0,1-.089-.9,25.239,25.239,0,0,1,2.559-.372.456.456,0,0,1,.087.907,24.064,24.064,0,0,0-2.466.359A.47.47,0,0,1,644.781,1177.825Zm-6.021-.165a.46.46,0,0,1-.237-.066c-.53-.325-1.065-.639-1.6-.944l-.578-.327a.456.456,0,0,1,.447-.795l.582.332c.542.309,1.085.627,1.624.958a.455.455,0,0,1-.24.843Zm13.607-.246h-.033c-.76-.055-1.527-.082-2.277-.082h-.227a.456.456,0,0,1,0-.912h.229c.772,0,1.56.028,2.342.083a.456.456,0,0,1-.031.911Zm-18.026-2.247a.45.45,0,0,1-.212-.053q-1.115-.588-2.25-1.15a.456.456,0,0,1,.4-.817q1.143.568,2.27,1.161a.456.456,0,0,1-.212.859Zm-74.7-.074a.456.456,0,0,1-.273-.821q.3-.224.606-.444.735-.532,1.487-1.035a.456.456,0,0,1,.507.757q-.738.494-1.46,1.016-.3.216-.6.437A.456.456,0,0,1,559.639,1175.091Zm70.153-2.177a.467.467,0,0,1-.192-.042q-1.143-.53-2.306-1.03a.455.455,0,1,1,.36-.836q1.174.5,2.329,1.039a.455.455,0,0,1-.191.869Zm-65.935-.648a.456.456,0,0,1-.234-.847c.726-.435,1.476-.858,2.229-1.259a.455.455,0,1,1,.428.8c-.739.394-1.476.81-2.189,1.237A.45.45,0,0,1,563.857,1172.267Zm61.273-1.36a.453.453,0,0,1-.169-.033q-1.173-.468-2.358-.906a.456.456,0,0,1,.315-.855q1.2.442,2.381.916a.456.456,0,0,1-.169.879Zm-56.8-1.025a.456.456,0,0,1-.194-.868c.769-.362,1.558-.708,2.343-1.033a.456.456,0,0,1,.348.843c-.772.318-1.547.659-2.3,1.014A.444.444,0,0,1,568.333,1169.882Zm52.033-.733a.444.444,0,0,1-.147-.025q-1.2-.405-2.4-.778a.455.455,0,1,1,.268-.87q1.218.376,2.427.786a.456.456,0,0,1-.147.887Zm-47.342-1.2a.456.456,0,0,1-.153-.885c.8-.284,1.613-.555,2.43-.8a.455.455,0,1,1,.266.87c-.8.246-1.607.512-2.389.792A.468.468,0,0,1,573.024,1167.948Zm42.492-.3a.472.472,0,0,1-.123-.017q-1.218-.339-2.442-.644a.455.455,0,1,1,.22-.884q1.235.307,2.466.65a.456.456,0,0,1-.122.894Zm-37.639-1.189a.456.456,0,0,1-.113-.9q1.238-.318,2.491-.582a.456.456,0,0,1,.188.892q-1.234.259-2.452.573A.487.487,0,0,1,577.877,1166.462Zm32.711-.036a.429.429,0,0,1-.1-.011q-1.234-.27-2.474-.5a.455.455,0,1,1,.168-.9q1.253.235,2.5.507a.456.456,0,0,1-.1.9Zm-4.989-.937a.514.514,0,0,1-.072-.005q-1.249-.2-2.5-.353a.455.455,0,1,1,.113-.9q1.263.158,2.529.356a.455.455,0,0,1-.07.905Zm-22.757-.076a.455.455,0,0,1-.073-.9q1.258-.211,2.53-.37a.456.456,0,0,1,.113.9q-1.252.157-2.494.364A.448.448,0,0,1,582.842,1165.413Zm17.718-.554a.325.325,0,0,1-.043,0q-1.26-.116-2.517-.192a.455.455,0,0,1-.427-.482.442.442,0,0,1,.482-.427q1.271.075,2.547.193a.455.455,0,0,1-.042.909Zm-12.68-.078a.456.456,0,0,1-.038-.91q1.271-.109,2.55-.169a.44.44,0,0,1,.477.434.457.457,0,0,1-.434.477q-1.262.059-2.515.166Zm7.611-.222h-.011c-.6-.015-1.2-.023-1.794-.023l-.728,0h-.005a.456.456,0,0,1-.005-.911l.738,0q.907,0,1.817.022a.456.456,0,0,1-.012.911Z" transform="translate(-383.518 -1163.626)" fill="#a39686"/>
        </g>
        <g id="Group_128770" data-name="Group 128770" transform="translate(0.212 17.81)">
          <g id="Group_128671" data-name="Group 128671" transform="translate(49.84 31.026)">
            <g id="Group_128669" data-name="Group 128669">
              <path id="Path_188754" data-name="Path 188754" d="M458.439,1239.592a2.467,2.467,0,0,1-1.749-.724l-13.741-13.741a2.473,2.473,0,0,1,3.5-3.5l13.741,13.74a2.472,2.472,0,0,1-1.749,4.221Z" transform="translate(-442.226 -1220.907)" fill="#ffca7a"/>
            </g>
            <g id="Group_128670" data-name="Group 128670">
              <path id="Path_188755" data-name="Path 188755" d="M444.7,1239.592a2.472,2.472,0,0,1-1.749-4.221l13.741-13.74a2.473,2.473,0,0,1,3.5,3.5l-13.741,13.741A2.467,2.467,0,0,1,444.7,1239.592Z" transform="translate(-442.226 -1220.907)" fill="#ffca7a"/>
            </g>
          </g>
          <g id="Group_128674" data-name="Group 128674" transform="translate(325.183 241.011)">
            <g id="Group_128672" data-name="Group 128672">
              <path id="Path_188756" data-name="Path 188756" d="M781.823,1486.382a2.529,2.529,0,0,1-1.794-.743l-14.1-14.1a2.537,2.537,0,0,1,3.588-3.589l14.1,14.1a2.538,2.538,0,0,1-1.795,4.332Z" transform="translate(-765.183 -1467.204)" fill="#ffca7a"/>
            </g>
            <g id="Group_128673" data-name="Group 128673">
              <path id="Path_188757" data-name="Path 188757" d="M767.72,1486.382a2.538,2.538,0,0,1-1.794-4.332l14.1-14.1a2.537,2.537,0,0,1,3.588,3.589l-14.1,14.1A2.531,2.531,0,0,1,767.72,1486.382Z" transform="translate(-765.183 -1467.204)" fill="#ffca7a"/>
            </g>
          </g>
          <g id="Group_128677" data-name="Group 128677" transform="translate(218.406 11.057)">
            <g id="Group_128675" data-name="Group 128675">
              <path id="Path_188758" data-name="Path 188758" d="M656.581,1216.662a2.531,2.531,0,0,1-1.795-.744l-14.1-14.1a2.537,2.537,0,0,1,3.588-3.589l14.1,14.1a2.538,2.538,0,0,1-1.794,4.332Z" transform="translate(-639.942 -1197.485)" fill="#ffca7a"/>
            </g>
            <g id="Group_128676" data-name="Group 128676">
              <path id="Path_188759" data-name="Path 188759" d="M642.479,1216.662a2.538,2.538,0,0,1-1.795-4.332l14.1-14.1a2.537,2.537,0,0,1,3.588,3.589l-14.1,14.1A2.529,2.529,0,0,1,642.479,1216.662Z" transform="translate(-639.942 -1197.485)" fill="#ffca7a"/>
            </g>
          </g>
          <g id="Group_128678" data-name="Group 128678" transform="translate(43.907 219.94)">
            <path id="Path_188760" data-name="Path 188760" d="M442.474,1456.9a7.207,7.207,0,1,1,7.208-7.207A7.215,7.215,0,0,1,442.474,1456.9Zm0-12.7a5.5,5.5,0,1,0,5.5,5.5A5.5,5.5,0,0,0,442.474,1444.2Z" transform="translate(-435.267 -1442.489)" fill="#00defc"/>
          </g>
          <g id="Group_128679" data-name="Group 128679" transform="translate(346.299 243.392)">
            <path id="Path_188761" data-name="Path 188761" d="M797.157,1484.412a7.207,7.207,0,1,1,7.207-7.207A7.215,7.215,0,0,1,797.157,1484.412Zm0-12.706a5.5,5.5,0,1,0,5.5,5.5A5.506,5.506,0,0,0,797.157,1471.706Z" transform="translate(-789.95 -1469.997)" fill="#00defc"/>
          </g>
          <g id="Group_128766" data-name="Group 128766">
            <g id="Group_128689" data-name="Group 128689" transform="translate(276.992 18.637)">
              <g id="Group_128682" data-name="Group 128682">
                <g id="Group_128680" data-name="Group 128680">
                  <path id="Path_188762" data-name="Path 188762" d="M799.05,1325.125H708.658V1206.376h69.693l20.711,23.041Z" transform="translate(-708.658 -1206.376)" fill="#eae2d3"/>
                </g>
                <g id="Group_128681" data-name="Group 128681" transform="translate(69.693)">
                  <path id="Path_188763" data-name="Path 188763" d="M790.4,1206.376l20.711,23.041H790.4Z" transform="translate(-790.403 -1206.376)" fill="#a9c0d9"/>
                </g>
              </g>
              <g id="Group_128688" data-name="Group 128688" transform="translate(13.89 35.448)">
                <g id="Group_128683" data-name="Group 128683" transform="translate(6.166)">
                  <rect id="Rectangle_293620" data-name="Rectangle 293620" width="50.291" height="4.431" fill="#fff"/>
                </g>
                <g id="Group_128684" data-name="Group 128684" transform="translate(0 10.043)">
                  <rect id="Rectangle_293621" data-name="Rectangle 293621" width="62.624" height="4.431" fill="#fff"/>
                </g>
                <g id="Group_128685" data-name="Group 128685" transform="translate(0 20.087)">
                  <rect id="Rectangle_293622" data-name="Rectangle 293622" width="62.624" height="4.431" fill="#fff"/>
                </g>
                <g id="Group_128686" data-name="Group 128686" transform="translate(0 39.504)">
                  <rect id="Rectangle_293623" data-name="Rectangle 293623" width="62.624" height="4.431" fill="#fff"/>
                </g>
                <g id="Group_128687" data-name="Group 128687" transform="translate(0 49.902)">
                  <rect id="Rectangle_293624" data-name="Rectangle 293624" width="62.624" height="4.431" fill="#fff"/>
                </g>
              </g>
            </g>
            <g id="Group_128696" data-name="Group 128696" transform="translate(0 57.661)">
              <g id="Group_128692" data-name="Group 128692" transform="translate(0 26.611)">
                <g id="Group_128690" data-name="Group 128690" transform="translate(10.427)">
                  <rect id="Rectangle_293625" data-name="Rectangle 293625" width="18.796" height="36.545" fill="#ffb30b"/>
                </g>
                <g id="Group_128691" data-name="Group 128691" transform="translate(0 33.397)">
                  <path id="Path_188764" data-name="Path 188764" d="M423.418,1322.533l-19.825,19.825-19.825-19.825Z" transform="translate(-383.767 -1322.533)" fill="#ffb30b"/>
                </g>
              </g>
              <g id="Group_128695" data-name="Group 128695" transform="translate(26.402)">
                <g id="Group_128693" data-name="Group 128693" transform="translate(10.427 16.678)">
                  <rect id="Rectangle_293626" data-name="Rectangle 293626" width="18.796" height="36.545" transform="translate(18.796 36.545) rotate(180)" fill="#00defc"/>
                </g>
                <g id="Group_128694" data-name="Group 128694">
                  <path id="Path_188765" data-name="Path 188765" d="M414.735,1271.973l19.825-19.825,19.825,19.825Z" transform="translate(-414.735 -1252.148)" fill="#00defc"/>
                </g>
              </g>
            </g>
            <g id="Group_128719" data-name="Group 128719" transform="translate(33.027 92.066)">
              <g id="Group_128701" data-name="Group 128701">
                <g id="Group_128697" data-name="Group 128697" transform="translate(28.807)">
                  <path id="Rectangle_293627" data-name="Rectangle 293627" d="M9.6,0H241.863a9.6,9.6,0,0,1,9.6,9.6V175.181a0,0,0,0,1,0,0H0a0,0,0,0,1,0,0V9.6A9.6,9.6,0,0,1,9.6,0Z" fill="#473632"/>
                </g>
                <g id="Group_128698" data-name="Group 128698" transform="translate(41.314 11.43)">
                  <rect id="Rectangle_293628" data-name="Rectangle 293628" width="226.453" height="152.131" fill="#fff"/>
                </g>
                <g id="Group_128699" data-name="Group 128699" transform="translate(0 175.181)">
                  <path id="Rectangle_293629" data-name="Rectangle 293629" d="M0,0H309.082a0,0,0,0,1,0,0V0a16.267,16.267,0,0,1-16.267,16.267H16.267A16.267,16.267,0,0,1,0,0V0A0,0,0,0,1,0,0Z" fill="#a9c0d9"/>
                </g>
                <g id="Group_128700" data-name="Group 128700" transform="translate(126.848 175.181)">
                  <rect id="Rectangle_293630" data-name="Rectangle 293630" width="55.387" height="8.134" fill="#277691"/>
                </g>
              </g>
              <g id="Group_128702" data-name="Group 128702" transform="translate(148.159 60.521)">
                <path id="Path_188766" data-name="Path 188766" d="M625.524,1406.944a17.718,17.718,0,0,1-4.161,5.632,18.539,18.539,0,0,1-6.171,3.659,22.189,22.189,0,0,1-7.642,1.292,12.01,12.01,0,0,1-5.739-1.543,18.172,18.172,0,0,1-5.526-4.914l5.31-10.4a7.906,7.906,0,0,0,1.507,1.9,11.3,11.3,0,0,0,2.261,1.685,16.794,16.794,0,0,0,2.511,1.184,6.563,6.563,0,0,0,2.26.466,6.056,6.056,0,0,0,1.794-.287,5.8,5.8,0,0,0,1.721-.861,4.719,4.719,0,0,0,1.257-1.327,3.276,3.276,0,0,0,.466-1.759,5.189,5.189,0,0,0-1.113-3.193,16.141,16.141,0,0,0-2.762-2.8q-1.651-1.326-3.588-2.691a33.045,33.045,0,0,1-3.552-2.871,16.187,16.187,0,0,1-2.762-3.372,7.779,7.779,0,0,1-1.148-4.162,12.035,12.035,0,0,1,2.224-6.96,21.943,21.943,0,0,1,5.561-5.56,29.441,29.441,0,0,1,7.283-3.7,22.9,22.9,0,0,1,7.463-1.363,13.972,13.972,0,0,1,3.659.466,7.826,7.826,0,0,1,2.978,1.507,7.628,7.628,0,0,1,2.009,2.619,9.143,9.143,0,0,1,.754,3.946,11.4,11.4,0,0,1-.18,2.009q-.179,1.006-.323,2.154l-10.4,3.013q.143-.573.251-1.148a6.222,6.222,0,0,0,.107-1.148,5.119,5.119,0,0,0-.754-3.122,2.383,2.383,0,0,0-1.973-.969,3.172,3.172,0,0,0-1.4.431,9.529,9.529,0,0,0-1.651,1.112,6.475,6.475,0,0,0-1.4,1.615,3.758,3.758,0,0,0-.575,2.009,4.3,4.3,0,0,0,.969,2.871,12.457,12.457,0,0,0,2.4,2.153q1.435,1.005,3.121,2.044a13.709,13.709,0,0,1,3.121,2.692,14.02,14.02,0,0,1,2.4,4.125,17.421,17.421,0,0,1,.968,6.279A16.839,16.839,0,0,1,625.524,1406.944Z" transform="translate(-596.285 -1363.713)" fill="#ffb30b"/>
                <path id="Path_188767" data-name="Path 188767" d="M666.587,1417.484q-1.471,1.828-2.547,3.121-1.436-2.009-2.978-4.091t-2.977-4.233l-.359-.575a27.458,27.458,0,0,1-6.638,4.27,15.892,15.892,0,0,1-6.422,1.472,10.107,10.107,0,0,1-4.305-.9,9.439,9.439,0,0,1-3.373-2.654,12.892,12.892,0,0,1-2.259-4.521,23.352,23.352,0,0,1-.825-6.637,38.459,38.459,0,0,1,1-8.468,60.48,60.48,0,0,1,2.727-8.825,48.6,48.6,0,0,1,4.234-8.324,41.95,41.95,0,0,1,5.525-7,25.932,25.932,0,0,1,6.458-4.844,15.343,15.343,0,0,1,7.175-1.794,9.907,9.907,0,0,1,5.346,1.327,9.489,9.489,0,0,1,3.3,3.445,15.707,15.707,0,0,1,1.686,4.772,28.635,28.635,0,0,1,.5,5.31,46.215,46.215,0,0,1-1.722,12.952,48.308,48.308,0,0,1-4.449,10.655l6.817,8.036q-1.579,2.082-3.158,4.018Q668.059,1415.655,666.587,1417.484Zm-21.706-14.961a4.981,4.981,0,0,0,.789,1.507,4.709,4.709,0,0,0,1.256,1.112,3.011,3.011,0,0,0,1.615.467,8.2,8.2,0,0,0,4.592-1.364l-2.87-4.735q3.013-2.3,4.628-3.588l2.332-1.865c.575-.477.908-.765,1-.861l1.579,1.794a42,42,0,0,0,1.507-5.454,25.879,25.879,0,0,0,.573-5.166,17.854,17.854,0,0,0-.107-1.866,7.613,7.613,0,0,0-.431-1.865,3.688,3.688,0,0,0-1.005-1.471,2.651,2.651,0,0,0-1.83-.61,8.156,8.156,0,0,0-4.233,1.148,13.07,13.07,0,0,0-3.48,3.049,21.541,21.541,0,0,0-2.692,4.305,42.468,42.468,0,0,0-1.973,4.879,29.027,29.027,0,0,0-1.184,4.844,27.8,27.8,0,0,0-.358,4.09A5.222,5.222,0,0,0,644.882,1402.523Z" transform="translate(-601.831 -1363.489)" fill="#ffb30b"/>
                <path id="Path_188768" data-name="Path 188768" d="M690.732,1415.157q-2.475.145-4.986.431t-4.916.754a34.674,34.674,0,0,0-4.341,1.112q.431-3.229,1.005-7.175t1.327-8.179q.752-4.234,1.507-8.539t1.543-8.251q1.792-9.4,3.8-19.158l12.557-1.651q-1.936,8.325-3.731,16.217-.79,3.374-1.578,7t-1.507,7.068q-.717,3.444-1.292,6.673t-.933,5.74q1.793-.143,3.839-.179t3.623-.036q.07,1.363.216,2.691t.321,2.4q.179,1.077.287,1.9c.072.55.132.921.18,1.111-.384,0-.753-.01-1.112-.036s-.731-.036-1.113-.036Q693.207,1415.013,690.732,1415.157Z" transform="translate(-608.11 -1363.638)" fill="#ffb30b"/>
              </g>
              <g id="Group_128703" data-name="Group 128703" transform="translate(41.314 11.43)">
                <rect id="Rectangle_293631" data-name="Rectangle 293631" width="82.009" height="152.131" fill="#ffca7a"/>
              </g>
              <g id="Group_128718" data-name="Group 128718" transform="translate(55.304 25.918)">
                <g id="Group_128711" data-name="Group 128711">
                  <g id="Group_128704" data-name="Group 128704">
                    <rect id="Rectangle_293632" data-name="Rectangle 293632" width="15.012" height="5.846" fill="#fff"/>
                  </g>
                  <g id="Group_128705" data-name="Group 128705" transform="translate(0 11.621)">
                    <rect id="Rectangle_293633" data-name="Rectangle 293633" width="43.501" height="5.846" fill="#fff"/>
                  </g>
                  <g id="Group_128706" data-name="Group 128706" transform="translate(0 23.243)">
                    <rect id="Rectangle_293634" data-name="Rectangle 293634" width="30.021" height="5.846" fill="#fff"/>
                  </g>
                  <g id="Group_128707" data-name="Group 128707" transform="translate(0 34.864)">
                    <rect id="Rectangle_293635" data-name="Rectangle 293635" width="12.117" height="5.846" fill="#fff"/>
                  </g>
                  <g id="Group_128708" data-name="Group 128708" transform="translate(0 46.485)">
                    <rect id="Rectangle_293636" data-name="Rectangle 293636" width="54.401" height="5.846" fill="#fff"/>
                  </g>
                  <g id="Group_128709" data-name="Group 128709" transform="translate(0 58.107)">
                    <rect id="Rectangle_293637" data-name="Rectangle 293637" width="37.675" height="5.846" fill="#fff"/>
                  </g>
                  <g id="Group_128710" data-name="Group 128710" transform="translate(0 69.728)">
                    <rect id="Rectangle_293638" data-name="Rectangle 293638" width="20.663" height="5.846" fill="#fff"/>
                  </g>
                </g>
                <g id="Group_128717" data-name="Group 128717" transform="translate(0 69.728)">
                  <g id="Group_128712" data-name="Group 128712">
                    <rect id="Rectangle_293639" data-name="Rectangle 293639" width="15.012" height="5.846" fill="#fff"/>
                  </g>
                  <g id="Group_128713" data-name="Group 128713" transform="translate(0 11.621)">
                    <rect id="Rectangle_293640" data-name="Rectangle 293640" width="43.501" height="5.846" fill="#fff"/>
                  </g>
                  <g id="Group_128714" data-name="Group 128714" transform="translate(0 23.243)">
                    <rect id="Rectangle_293641" data-name="Rectangle 293641" width="30.021" height="5.846" fill="#fff"/>
                  </g>
                  <g id="Group_128715" data-name="Group 128715" transform="translate(0 34.864)">
                    <rect id="Rectangle_293642" data-name="Rectangle 293642" width="12.117" height="5.846" fill="#fff"/>
                  </g>
                  <g id="Group_128716" data-name="Group 128716" transform="translate(0 46.485)">
                    <rect id="Rectangle_293643" data-name="Rectangle 293643" width="54.401" height="5.846" fill="#fff"/>
                  </g>
                </g>
              </g>
            </g>
            <g id="Group_128727" data-name="Group 128727" transform="translate(271.497 144.384)">
              <g id="Group_128720" data-name="Group 128720" transform="translate(13.55)">
                <circle id="Ellipse_4798" data-name="Ellipse 4798" cx="45.095" cy="45.095" r="45.095" fill="#ffca7a"/>
              </g>
              <g id="Group_128721" data-name="Group 128721" transform="translate(0 59.646)">
                <path id="Path_188769" data-name="Path 188769" d="M730.874,1423.828l-28.661,41.483,39.919-30.594Z" transform="translate(-702.213 -1423.828)" fill="#ffca7a"/>
              </g>
              <g id="Group_128726" data-name="Group 128726" transform="translate(22.282 7.427)">
                <g id="Group_128722" data-name="Group 128722" transform="translate(25.718 32.895)">
                  <path id="Path_188770" data-name="Path 188770" d="M758.514,1422.383a4.567,4.567,0,0,0,3.768,4.5l2.349.418a15.646,15.646,0,0,0,.973,2.258l-1.389,1.99a4.567,4.567,0,0,0,6.358,6.359l2.125-1.484a15.677,15.677,0,0,0,2.08.83l.46,2.587a4.566,4.566,0,0,0,8.992,0l.483-2.715a15.741,15.741,0,0,0,1.906-.806l2.276,1.588a4.567,4.567,0,0,0,6.358-6.359l-1.594-2.283a15.625,15.625,0,0,0,.8-1.9l2.727-.484a4.567,4.567,0,0,0,0-8.993l-2.611-.464a15.735,15.735,0,0,0-.82-2.055l1.5-2.147a4.567,4.567,0,0,0-6.358-6.359l-2.011,1.4a15.662,15.662,0,0,0-2.233-.964l-.422-2.374a4.566,4.566,0,0,0-8.992,0l-.4,2.246a15.585,15.585,0,0,0-2.406.986l-1.86-1.3a4.567,4.567,0,0,0-6.358,6.359l1.294,1.854a15.639,15.639,0,0,0-.993,2.414l-2.234.4A4.567,4.567,0,0,0,758.514,1422.383Zm9.356-.16a11.687,11.687,0,1,1,11.686,11.687A11.7,11.7,0,0,1,767.87,1422.222Z" transform="translate(-758.514 -1401.162)" fill="#fff"/>
                </g>
                <g id="Group_128723" data-name="Group 128723" transform="translate(0 20.539)">
                  <path id="Path_188771" data-name="Path 188771" d="M728.349,1401.588a3.21,3.21,0,0,0,2.649,3.161l1.651.294a11.021,11.021,0,0,0,.684,1.588l-.977,1.4a3.21,3.21,0,0,0,4.47,4.47l1.495-1.043a11.129,11.129,0,0,0,1.462.583l.323,1.818a3.211,3.211,0,0,0,6.322,0l.339-1.909a10.992,10.992,0,0,0,1.34-.567l1.6,1.117a3.21,3.21,0,0,0,4.47-4.47l-1.121-1.6a11.031,11.031,0,0,0,.563-1.334l1.917-.341a3.21,3.21,0,0,0,0-6.321l-1.836-.326a11.051,11.051,0,0,0-.576-1.444l1.054-1.509a3.21,3.21,0,0,0-4.47-4.47l-1.414.987a10.923,10.923,0,0,0-1.569-.677l-.3-1.669a3.21,3.21,0,0,0-6.322,0l-.28,1.578a11.031,11.031,0,0,0-1.691.693l-1.308-.913a3.21,3.21,0,0,0-4.47,4.47l.91,1.3a10.969,10.969,0,0,0-.7,1.7l-1.57.279A3.211,3.211,0,0,0,728.349,1401.588Zm6.578-.113a8.216,8.216,0,1,1,8.215,8.215A8.225,8.225,0,0,1,734.927,1401.475Z" transform="translate(-728.349 -1386.67)" fill="#a9c0d9"/>
                </g>
                <g id="Group_128725" data-name="Group 128725" transform="translate(24.545)">
                  <g id="Group_128724" data-name="Group 128724">
                    <path id="Path_188772" data-name="Path 188772" d="M757.138,1379.026a3.539,3.539,0,0,0,2.92,3.485l1.821.324a12.117,12.117,0,0,0,.754,1.75l-1.077,1.542a3.539,3.539,0,0,0,4.929,4.928l1.647-1.15a12.071,12.071,0,0,0,1.612.643l.356,2.005a3.54,3.54,0,0,0,6.97,0l.374-2.1a12.11,12.11,0,0,0,1.478-.625l1.764,1.231a3.539,3.539,0,0,0,4.929-4.928l-1.235-1.77a12.358,12.358,0,0,0,.62-1.471l2.114-.376a3.54,3.54,0,0,0,0-6.97l-2.024-.36a12.113,12.113,0,0,0-.636-1.593l1.162-1.664a3.54,3.54,0,0,0-4.929-4.929l-1.558,1.089a12.1,12.1,0,0,0-1.731-.746l-.327-1.84a3.539,3.539,0,0,0-6.97,0l-.309,1.74a12.162,12.162,0,0,0-1.865.764L766.485,1367a3.54,3.54,0,0,0-4.929,4.929l1,1.438a12.027,12.027,0,0,0-.77,1.871l-1.732.308A3.539,3.539,0,0,0,757.138,1379.026Zm7.252-.124a9.058,9.058,0,1,1,9.058,9.059A9.068,9.068,0,0,1,764.39,1378.9Z" transform="translate(-757.138 -1362.579)" fill="#ffb30b"/>
                  </g>
                </g>
              </g>
            </g>
            <g id="Group_128757" data-name="Group 128757" transform="translate(80.683)">
              <g id="Group_128728" data-name="Group 128728">
                <path id="Path_188773" data-name="Path 188773" d="M612.825,1225.37a19.945,19.945,0,0,0-3.007.251,29.838,29.838,0,0,0-42.765-25.166,29.824,29.824,0,0,0-56.128,11.563,26.912,26.912,0,1,0-5.612,53.234H612.825a19.941,19.941,0,1,0,0-39.881Z" transform="translate(-478.402 -1184.516)" fill="#ffca7a"/>
              </g>
              <g id="Group_128756" data-name="Group 128756" transform="translate(41.327 18.202)">
                <g id="Group_128729" data-name="Group 128729" transform="translate(32.732)">
                  <path id="Path_188774" data-name="Path 188774" d="M566.445,1218.806a1.176,1.176,0,0,1-1.177-1.177v-10.586a1.177,1.177,0,0,1,2.353,0v10.586A1.176,1.176,0,0,1,566.445,1218.806Z" transform="translate(-565.268 -1205.866)" fill="#473632"/>
                </g>
                <g id="Group_128733" data-name="Group 128733" transform="translate(4.224 1.266)">
                  <g id="Group_128730" data-name="Group 128730" transform="translate(18.181)">
                    <path id="Path_188775" data-name="Path 188775" d="M554.332,1220.29a1.177,1.177,0,0,1-1.177-1.177v-10.586a1.177,1.177,0,0,1,2.353,0v10.586A1.177,1.177,0,0,1,554.332,1220.29Z" transform="translate(-553.155 -1207.351)" fill="#473632"/>
                  </g>
                  <g id="Group_128731" data-name="Group 128731" transform="translate(9.091 4.028)">
                    <path id="Path_188776" data-name="Path 188776" d="M543.669,1225.014a1.176,1.176,0,0,1-1.176-1.177v-10.586a1.176,1.176,0,1,1,2.352,0v10.586A1.176,1.176,0,0,1,543.669,1225.014Z" transform="translate(-542.493 -1212.075)" fill="#473632"/>
                  </g>
                  <g id="Group_128732" data-name="Group 128732" transform="translate(0 10.586)">
                    <path id="Path_188777" data-name="Path 188777" d="M533.007,1232.708a1.176,1.176,0,0,1-1.177-1.177v-10.586a1.177,1.177,0,0,1,2.353,0v10.586A1.176,1.176,0,0,1,533.007,1232.708Z" transform="translate(-531.83 -1219.768)" fill="#473632"/>
                  </g>
                </g>
                <g id="Group_128755" data-name="Group 128755" transform="translate(0 1.266)">
                  <g id="Group_128742" data-name="Group 128742" transform="translate(0 13.566)">
                    <g id="Group_128736" data-name="Group 128736">
                      <g id="Group_128735" data-name="Group 128735">
                        <g id="Group_128734" data-name="Group 128734">
                          <path id="Path_188778" data-name="Path 188778" d="M594.694,1241.674s-15.182,18.411-33.909,18.411-33.908-18.411-33.908-18.411,15.182-18.411,33.908-18.411S594.694,1241.674,594.694,1241.674Z" transform="translate(-526.876 -1223.263)" fill="#fff"/>
                        </g>
                      </g>
                    </g>
                    <g id="Group_128741" data-name="Group 128741" transform="translate(21.166 4.545)">
                      <g id="Group_128739" data-name="Group 128739">
                        <g id="Group_128737" data-name="Group 128737">
                          <circle id="Ellipse_4799" data-name="Ellipse 4799" cx="12.743" cy="12.743" r="12.743" fill="#00defc"/>
                        </g>
                        <g id="Group_128738" data-name="Group 128738" transform="translate(7.04 7.04)">
                          <circle id="Ellipse_4800" data-name="Ellipse 4800" cx="5.703" cy="5.703" r="5.703" fill="#473632"/>
                        </g>
                      </g>
                      <g id="Group_128740" data-name="Group 128740" transform="translate(14.163 13.526)">
                        <circle id="Ellipse_4801" data-name="Ellipse 4801" cx="2.785" cy="2.785" r="2.785" fill="#fff"/>
                      </g>
                    </g>
                  </g>
                  <g id="Group_128746" data-name="Group 128746" transform="translate(43.616)">
                    <g id="Group_128743" data-name="Group 128743">
                      <path id="Path_188779" data-name="Path 188779" d="M579.211,1220.29a1.177,1.177,0,0,1-1.177-1.177v-10.586a1.177,1.177,0,0,1,2.353,0v10.586A1.177,1.177,0,0,1,579.211,1220.29Z" transform="translate(-578.034 -1207.351)" fill="#473632"/>
                    </g>
                    <g id="Group_128744" data-name="Group 128744" transform="translate(9.091 4.028)">
                      <path id="Path_188780" data-name="Path 188780" d="M589.874,1225.014a1.176,1.176,0,0,1-1.177-1.177v-10.586a1.176,1.176,0,1,1,2.352,0v10.586A1.176,1.176,0,0,1,589.874,1225.014Z" transform="translate(-588.697 -1212.075)" fill="#473632"/>
                    </g>
                    <g id="Group_128745" data-name="Group 128745" transform="translate(18.181 10.586)">
                      <path id="Path_188781" data-name="Path 188781" d="M600.536,1232.708a1.176,1.176,0,0,1-1.177-1.177v-10.586a1.177,1.177,0,0,1,2.353,0v10.586A1.176,1.176,0,0,1,600.536,1232.708Z" transform="translate(-599.359 -1219.768)" fill="#473632"/>
                    </g>
                  </g>
                  <g id="Group_128754" data-name="Group 128754" transform="translate(8.481 45.223)">
                    <g id="Group_128747" data-name="Group 128747" transform="translate(24.25 6.444)">
                      <path id="Path_188782" data-name="Path 188782" d="M566.445,1274.6a1.177,1.177,0,0,1-1.177-1.177v-4.3a1.177,1.177,0,0,1,2.353,0v4.3A1.176,1.176,0,0,1,566.445,1274.6Z" transform="translate(-565.268 -1267.952)" fill="#473632"/>
                    </g>
                    <g id="Group_128750" data-name="Group 128750">
                      <g id="Group_128748" data-name="Group 128748" transform="translate(12.197 4.296)">
                        <path id="Path_188783" data-name="Path 188783" d="M552.307,1272.081a1.176,1.176,0,0,1-1.177-1.177v-4.3a1.177,1.177,0,0,1,2.353,0v4.3A1.176,1.176,0,0,1,552.307,1272.081Z" transform="translate(-551.13 -1265.433)" fill="#473632"/>
                      </g>
                      <g id="Group_128749" data-name="Group 128749">
                        <path id="Path_188784" data-name="Path 188784" d="M538,1267.042a1.176,1.176,0,0,1-1.177-1.177v-4.3a1.176,1.176,0,1,1,2.352,0v4.3A1.175,1.175,0,0,1,538,1267.042Z" transform="translate(-536.824 -1260.394)" fill="#473632"/>
                      </g>
                    </g>
                    <g id="Group_128753" data-name="Group 128753" transform="translate(35.787)">
                      <g id="Group_128751" data-name="Group 128751" transform="translate(0 4.296)">
                        <path id="Path_188785" data-name="Path 188785" d="M579.976,1272.081a1.176,1.176,0,0,1-1.177-1.177v-4.3a1.177,1.177,0,0,1,2.353,0v4.3A1.176,1.176,0,0,1,579.976,1272.081Z" transform="translate(-578.799 -1265.433)" fill="#473632"/>
                      </g>
                      <g id="Group_128752" data-name="Group 128752" transform="translate(12.198)">
                        <path id="Path_188786" data-name="Path 188786" d="M594.283,1267.042a1.176,1.176,0,0,1-1.177-1.177v-4.3a1.177,1.177,0,1,1,2.353,0v4.3A1.176,1.176,0,0,1,594.283,1267.042Z" transform="translate(-593.106 -1260.394)" fill="#473632"/>
                      </g>
                    </g>
                  </g>
                </g>
              </g>
            </g>
            <g id="Group_128761" data-name="Group 128761" transform="translate(14.939 151.373)">
              <g id="Group_128759" data-name="Group 128759">
                <g id="Group_128758" data-name="Group 128758">
                  <path id="Path_188787" data-name="Path 188787" d="M411.823,1439.306a7.7,7.7,0,0,1-.1-1.455c.092-18.845,12.259-35.966,12.806-54.8.081-2.766-.144-5.7-1.7-7.984s-4.837-3.6-7.208-2.17a5.776,5.776,0,0,0-2.432,5.17,17.038,17.038,0,0,0,1.565,5.749c-2.718,1.533-5.838,3.118-8.82,2.2-4.385-1.355-5.51-7.31-4.016-11.65,3.916-11.371,20.361-16.452,29.589-8.283,6.1,5.4,7,14.783,5.012,22.684s-6.318,14.99-9.272,22.584a68.215,68.215,0,0,0-4.415,29.958,25,25,0,0,1-7.838.358,3.93,3.93,0,0,1-2.536-.981A2.741,2.741,0,0,1,411.823,1439.306Z" transform="translate(-401.29 -1362.066)" fill="#ffb30b"/>
                </g>
              </g>
              <g id="Group_128760" data-name="Group 128760" transform="translate(9.222 82.705)">
                <circle id="Ellipse_4802" data-name="Ellipse 4802" cx="6.607" cy="6.607" r="6.607" fill="#ffb30b"/>
              </g>
            </g>
            <g id="Group_128765" data-name="Group 128765" transform="translate(242.695 21.365)">
              <g id="Group_128763" data-name="Group 128763">
                <g id="Group_128762" data-name="Group 128762">
                  <path id="Path_188788" data-name="Path 188788" d="M675.037,1258.021a4.816,4.816,0,0,1-.064-.913c.058-11.819,7.689-22.557,8.033-34.372a8.384,8.384,0,0,0-1.068-5.007c-.978-1.435-3.034-2.257-4.521-1.361a3.623,3.623,0,0,0-1.525,3.242,10.7,10.7,0,0,0,.981,3.606c-1.7.962-3.661,1.956-5.531,1.378-2.75-.85-3.456-4.584-2.519-7.307,2.456-7.132,12.771-10.319,18.559-5.2,3.826,3.387,4.391,9.272,3.143,14.228s-3.962,9.4-5.815,14.165a42.8,42.8,0,0,0-2.769,18.789,15.651,15.651,0,0,1-4.915.224,2.462,2.462,0,0,1-1.591-.615A1.721,1.721,0,0,1,675.037,1258.021Z" transform="translate(-668.43 -1209.576)" fill="#ffb30b"/>
                </g>
              </g>
              <g id="Group_128764" data-name="Group 128764" transform="translate(5.784 51.872)">
                <circle id="Ellipse_4803" data-name="Ellipse 4803" cx="4.144" cy="4.144" r="4.144" fill="#ffb30b"/>
              </g>
            </g>
          </g>
          <g id="Group_128767" data-name="Group 128767" transform="translate(340.649 113.812)">
            <path id="Path_188789" data-name="Path 188789" d="M800.373,1338.229l-17.049-12.494,20.452-7.725Zm-13.5-12.009,12.27,8.991,2.45-14.552Z" transform="translate(-783.324 -1318.009)" fill="#ffb30b"/>
          </g>
          <g id="Group_128768" data-name="Group 128768" transform="translate(204.579 61.215)">
            <path id="Path_188790" data-name="Path 188790" d="M630.93,1270.731a7.207,7.207,0,1,1,7.207-7.208A7.215,7.215,0,0,1,630.93,1270.731Zm0-12.7a5.5,5.5,0,1,0,5.5,5.5A5.5,5.5,0,0,0,630.93,1258.027Z" transform="translate(-623.723 -1256.317)" fill="#00defc"/>
          </g>
          <g id="Group_128769" data-name="Group 128769" transform="translate(39.021 130.287)">
            <path id="Path_188791" data-name="Path 188791" d="M436.743,1351.748a7.208,7.208,0,1,1,7.208-7.207A7.216,7.216,0,0,1,436.743,1351.748Zm0-12.706a5.5,5.5,0,1,0,5.5,5.5A5.505,5.505,0,0,0,436.743,1339.042Z" transform="translate(-429.536 -1337.333)" fill="#00defc"/>
          </g>
        </g>
      </g>
    </g>
  </g>
</svg>
