<svg xmlns="http://www.w3.org/2000/svg" width="820" height="306" viewBox="0 0 820 306">
  <g id="_15" data-name="15" transform="translate(-390 -9642)">
    <rect id="Rectangle_293881" data-name="Rectangle 293881" width="820" height="306" transform="translate(390 9642)" fill="none"/>
    <g id="Group_129048" data-name="Group 129048" transform="translate(-38 178.1)">
      <g id="Group_129047" data-name="Group 129047" transform="translate(91 8078.9)">
        <path id="Path_188869" data-name="Path 188869" d="M1027,1455l-20,38H667a66,66,0,0,1,66-66h279.26Z" fill="#e7f3fe"/>
        <path id="Path_188870" data-name="Path 188870" d="M1027,1543l-20,38H667a66,66,0,0,1,66-66h279.26Z" fill="#e7f3fe"/>
        <path id="Path_188871" data-name="Path 188871" d="M1027,1631l-20,38H667a66,66,0,0,1,66-66h279.26Z" fill="#e7f3fe"/>
        <g id="Group_129046" data-name="Group 129046">
          <g id="Group_129045" data-name="Group 129045">
            <circle id="Ellipse_4804" data-name="Ellipse 4804" cx="111.5" cy="111.5" r="111.5" transform="translate(413 1427)" fill="#96f3ff"/>
            <circle id="Ellipse_4805" data-name="Ellipse 4805" cx="111.5" cy="111.5" r="111.5" transform="translate(413 1427)" fill="#96f3ff"/>
            <circle id="Ellipse_4806" data-name="Ellipse 4806" cx="111.5" cy="111.5" r="111.5" transform="translate(413 1427)" fill="#96f3ff"/>
            <circle id="Ellipse_4807" data-name="Ellipse 4807" cx="111.5" cy="111.5" r="111.5" transform="translate(413 1427)" fill="#96f3ff"/>
            <circle id="Ellipse_4808" data-name="Ellipse 4808" cx="111.5" cy="111.5" r="111.5" transform="translate(413 1427)" fill="#96f3ff"/>
          </g>
          <path id="Path_188872" data-name="Path 188872" d="M652.652,1576H995l20-38-20-38h-4.74l14.74,28-20,38H655.158a134.057,134.057,0,0,0-7.051-78H995l20-38-20-38h-4.74l14.74,28-20,38H643.532a133.453,133.453,0,1,0-73.416,186H995l20-38-20-38h-4.74l14.74,28-20,38H591.48A133.816,133.816,0,0,0,652.652,1576ZM524.5,1662A123.5,123.5,0,1,1,648,1538.5,123.5,123.5,0,0,1,524.5,1662Z" fill="#00defc"/>
        </g>
        <path id="Path_193520" data-name="Path 193520" d="M-15.82-13.887h-5.121V0h-4.113V-13.887h-5.027v-3.176H-15.82ZM-10.1,0h-3.961V-12.68H-10.1Zm-4.2-15.949a1.763,1.763,0,0,1,.609-1.383,2.3,2.3,0,0,1,1.582-.539,2.3,2.3,0,0,1,1.582.539,1.763,1.763,0,0,1,.609,1.383,1.763,1.763,0,0,1-.609,1.383,2.3,2.3,0,0,1-1.582.539,2.3,2.3,0,0,1-1.582-.539A1.763,1.763,0,0,1-14.3-15.949Zm18.4,9.7a7.646,7.646,0,0,1-1.33,4.717A4.264,4.264,0,0,1-.82.234,3.655,3.655,0,0,1-3.691-1.043V4.875H-7.641V-12.68h3.691l.117,1.172A3.656,3.656,0,0,1-.844-12.914,4.3,4.3,0,0,1,2.8-11.186,7.741,7.741,0,0,1,4.1-6.434ZM.152-6.492q0-3.375-1.969-3.375A1.859,1.859,0,0,0-3.691-8.859v4.992a1.919,1.919,0,0,0,1.9,1.055Q.094-2.812.152-6.07Zm5.191.035a7.484,7.484,0,0,1,.738-3.381A5.28,5.28,0,0,1,8.2-12.117a6.388,6.388,0,0,1,3.246-.8,5.83,5.83,0,0,1,4.488,1.764,6.768,6.768,0,0,1,1.641,4.8v.141a6.566,6.566,0,0,1-1.646,4.705A5.846,5.846,0,0,1,11.473.234,5.912,5.912,0,0,1,7.125-1.389a6.348,6.348,0,0,1-1.77-4.4Zm3.949.246a4.718,4.718,0,0,0,.551,2.578,1.835,1.835,0,0,0,1.629.82q2.109,0,2.156-3.246v-.4q0-3.41-2.18-3.41-1.98,0-2.145,2.941ZM25.957-3.562a.912.912,0,0,0-.527-.809,8.021,8.021,0,0,0-2-.633,9.138,9.138,0,0,1-2.437-.861A4.083,4.083,0,0,1,19.523-7.16a3.092,3.092,0,0,1-.5-1.746,3.5,3.5,0,0,1,1.441-2.877,5.938,5.938,0,0,1,3.773-1.131,6.579,6.579,0,0,1,4.031,1.137,3.555,3.555,0,0,1,1.523,2.988H25.828q0-1.523-1.605-1.523a1.591,1.591,0,0,0-1.043.346,1.07,1.07,0,0,0-.422.861.982.982,0,0,0,.516.855,4.872,4.872,0,0,0,1.646.539,14.228,14.228,0,0,1,1.986.5q2.859.984,2.859,3.527A3.321,3.321,0,0,1,28.225-.855a6.758,6.758,0,0,1-3.99,1.09,6.9,6.9,0,0,1-2.906-.586,4.86,4.86,0,0,1-1.992-1.594,3.609,3.609,0,0,1-.715-2.121h3.691A1.526,1.526,0,0,0,22.9-2.783a2.41,2.41,0,0,0,1.441.4,1.9,1.9,0,0,0,1.213-.328A1.05,1.05,0,0,0,25.957-3.562ZM-92.232,23.566a7.746,7.746,0,0,1,1.3-4.746A4.282,4.282,0,0,1-87.3,17.086a3.641,3.641,0,0,1,2.859,1.336V12h3.961V30h-3.551l-.2-1.359a3.739,3.739,0,0,1-3.094,1.594A4.274,4.274,0,0,1-90.908,28.5,7.991,7.991,0,0,1-92.232,23.566Zm3.949.246q0,3.375,1.969,3.375a1.944,1.944,0,0,0,1.875-1.1V21.258a1.892,1.892,0,0,0-1.852-1.125q-1.828,0-1.98,2.953ZM-72.1,30.234a6.518,6.518,0,0,1-4.723-1.74,6.009,6.009,0,0,1-1.8-4.529v-.328a7.787,7.787,0,0,1,.721-3.434,5.274,5.274,0,0,1,2.1-2.3,6.35,6.35,0,0,1,3.281-.814A5.489,5.489,0,0,1-68.3,18.744a6.516,6.516,0,0,1,1.547,4.623V24.9h-7.852a2.846,2.846,0,0,0,.926,1.676,2.755,2.755,0,0,0,1.852.609,3.549,3.549,0,0,0,2.93-1.312l1.8,2.133a5.045,5.045,0,0,1-2.092,1.623A7.069,7.069,0,0,1-72.1,30.234Zm-.445-10.1q-1.734,0-2.062,2.3h3.984v-.3a1.956,1.956,0,0,0-.48-1.471A1.912,1.912,0,0,0-72.545,20.133Zm22.336,5.332a1.69,1.69,0,0,0-.639-1.406,7.938,7.938,0,0,0-2.244-1.043,21.53,21.53,0,0,1-2.625-1.043q-3.316-1.629-3.316-4.477a4.014,4.014,0,0,1,.826-2.5,5.344,5.344,0,0,1,2.338-1.687,9.1,9.1,0,0,1,3.4-.6,7.958,7.958,0,0,1,3.3.656A5.223,5.223,0,0,1-46.9,15.229,4.881,4.881,0,0,1-46.1,18h-4.1a2.063,2.063,0,0,0-.639-1.617,2.489,2.489,0,0,0-1.729-.574,2.807,2.807,0,0,0-1.74.486,1.492,1.492,0,0,0-.639,1.236,1.5,1.5,0,0,0,.7,1.189,8.867,8.867,0,0,0,2.473,1.1,15.147,15.147,0,0,1,2.906,1.225A4.884,4.884,0,0,1-46.1,25.441a4.166,4.166,0,0,1-1.687,3.516,7.506,7.506,0,0,1-4.629,1.277,9.184,9.184,0,0,1-3.756-.744A5.663,5.663,0,0,1-58.7,27.451a5.313,5.313,0,0,1-.85-2.982h4.125a2.617,2.617,0,0,0,.709,2.021,3.351,3.351,0,0,0,2.3.65A2.647,2.647,0,0,0-50.8,26.7,1.45,1.45,0,0,0-50.209,25.465Zm12.176,4.77a6.518,6.518,0,0,1-4.723-1.74,6.009,6.009,0,0,1-1.8-4.529v-.328A7.787,7.787,0,0,1-43.84,20.2a5.274,5.274,0,0,1,2.1-2.3,6.35,6.35,0,0,1,3.281-.814,5.489,5.489,0,0,1,4.219,1.658,6.516,6.516,0,0,1,1.547,4.623V24.9h-7.852a2.846,2.846,0,0,0,.926,1.676,2.755,2.755,0,0,0,1.852.609,3.549,3.549,0,0,0,2.93-1.312l1.8,2.133a5.045,5.045,0,0,1-2.092,1.623A7.069,7.069,0,0,1-38.033,30.234Zm-.445-10.1q-1.734,0-2.062,2.3h3.984v-.3a1.956,1.956,0,0,0-.48-1.471A1.912,1.912,0,0,0-38.479,20.133Zm11-2.812.129,1.488a4.3,4.3,0,0,1,3.621-1.723,3.618,3.618,0,0,1,2.959,1.184,5.635,5.635,0,0,1,1.014,3.563V30h-3.961V22a2.14,2.14,0,0,0-.387-1.412,1.789,1.789,0,0,0-1.406-.451,1.883,1.883,0,0,0-1.723.914V30h-3.949V17.32Zm14.508-3.152V17.32h2.086v2.742h-2.086v5.8a1.481,1.481,0,0,0,.258,1,1.383,1.383,0,0,0,1.02.281,5.793,5.793,0,0,0,.984-.07v2.824a7.288,7.288,0,0,1-2.227.34,4.137,4.137,0,0,1-3.012-.961,3.939,3.939,0,0,1-.973-2.918V20.063h-1.617V17.32h1.617V14.168Zm9.773,16.066a6.518,6.518,0,0,1-4.723-1.74,6.009,6.009,0,0,1-1.8-4.529v-.328A7.787,7.787,0,0,1-9,20.2a5.274,5.274,0,0,1,2.1-2.3,6.35,6.35,0,0,1,3.281-.814A5.489,5.489,0,0,1,.6,18.744,6.516,6.516,0,0,1,2.15,23.367V24.9H-5.7a2.846,2.846,0,0,0,.926,1.676,2.755,2.755,0,0,0,1.852.609,3.549,3.549,0,0,0,2.93-1.312l1.8,2.133A5.045,5.045,0,0,1-.281,29.631,7.069,7.069,0,0,1-3.193,30.234Zm-.445-10.1q-1.734,0-2.062,2.3h3.984v-.3a1.956,1.956,0,0,0-.48-1.471A1.912,1.912,0,0,0-3.639,20.133Zm11-2.812.129,1.488a4.3,4.3,0,0,1,3.621-1.723,3.618,3.618,0,0,1,2.959,1.184,5.635,5.635,0,0,1,1.014,3.563V30H11.127V22a2.14,2.14,0,0,0-.387-1.412,1.789,1.789,0,0,0-1.406-.451,1.883,1.883,0,0,0-1.723.914V30H3.662V17.32Zm15.27,9.867a1.756,1.756,0,0,0,1.289-.451,1.654,1.654,0,0,0,.445-1.26h3.7A4.384,4.384,0,0,1,26.578,28.9a5.558,5.558,0,0,1-3.85,1.336A5.627,5.627,0,0,1,18.369,28.5a6.834,6.834,0,0,1-1.594-4.8v-.164a7.723,7.723,0,0,1,.709-3.393,5.162,5.162,0,0,1,2.045-2.262,6.1,6.1,0,0,1,3.164-.791,5.488,5.488,0,0,1,3.926,1.371,4.863,4.863,0,0,1,1.453,3.715h-3.7a2.168,2.168,0,0,0-.48-1.512,1.658,1.658,0,0,0-1.289-.527q-1.535,0-1.793,1.957a13.809,13.809,0,0,0-.082,1.711,5.424,5.424,0,0,0,.457,2.648A1.582,1.582,0,0,0,22.635,27.188ZM33.908,30H29.947V17.32h3.961Zm-4.2-15.949a1.763,1.763,0,0,1,.609-1.383,2.591,2.591,0,0,1,3.164,0,1.874,1.874,0,0,1,0,2.766,2.591,2.591,0,0,1-3.164,0A1.763,1.763,0,0,1,29.713,14.051ZM43.482,30a4.459,4.459,0,0,1-.375-1.137,3.672,3.672,0,0,1-3.047,1.371,4.5,4.5,0,0,1-3.047-1.084,3.45,3.45,0,0,1-1.254-2.725,3.546,3.546,0,0,1,1.523-3.117,7.761,7.761,0,0,1,4.43-1.055h1.219v-.671q0-1.755-1.512-1.755a1.236,1.236,0,0,0-1.406,1.39H36.064a3.54,3.54,0,0,1,1.564-2.985,6.575,6.575,0,0,1,3.99-1.147,5.764,5.764,0,0,1,3.832,1.184,4.115,4.115,0,0,1,1.441,3.246v5.613a5.748,5.748,0,0,0,.539,2.672V30ZM41.01,27.422a2.2,2.2,0,0,0,1.225-.316,1.983,1.983,0,0,0,.7-.715V24.363H41.783q-2.062,0-2.062,1.852a1.131,1.131,0,0,0,.363.873A1.315,1.315,0,0,0,41.01,27.422Zm14.707-.984a.912.912,0,0,0-.527-.809,8.021,8.021,0,0,0-2-.633,9.138,9.138,0,0,1-2.437-.861,4.083,4.083,0,0,1-1.465-1.295,3.092,3.092,0,0,1-.5-1.746,3.5,3.5,0,0,1,1.441-2.877,5.938,5.938,0,0,1,3.773-1.131,6.579,6.579,0,0,1,4.031,1.137,3.555,3.555,0,0,1,1.523,2.988H55.588q0-1.523-1.605-1.523a1.591,1.591,0,0,0-1.043.346,1.07,1.07,0,0,0-.422.861.982.982,0,0,0,.516.855,4.872,4.872,0,0,0,1.646.539,14.228,14.228,0,0,1,1.986.5q2.859.984,2.859,3.527a3.321,3.321,0,0,1-1.541,2.824,6.758,6.758,0,0,1-3.99,1.09,6.9,6.9,0,0,1-2.906-.586A4.86,4.86,0,0,1,49.1,28.055a3.609,3.609,0,0,1-.715-2.121h3.691a1.526,1.526,0,0,0,.586,1.283,2.41,2.41,0,0,0,1.441.4,1.9,1.9,0,0,0,1.213-.328A1.05,1.05,0,0,0,55.717,26.438Zm17.766,3.8a6.518,6.518,0,0,1-4.723-1.74,6.009,6.009,0,0,1-1.8-4.529v-.328a7.787,7.787,0,0,1,.721-3.434,5.274,5.274,0,0,1,2.1-2.3,6.35,6.35,0,0,1,3.281-.814,5.489,5.489,0,0,1,4.219,1.658,6.516,6.516,0,0,1,1.547,4.623V24.9H70.975a2.846,2.846,0,0,0,.926,1.676,2.755,2.755,0,0,0,1.852.609,3.549,3.549,0,0,0,2.93-1.312l1.8,2.133a5.045,5.045,0,0,1-2.092,1.623A7.069,7.069,0,0,1,73.482,30.234Zm-.445-10.1q-1.734,0-2.062,2.3h3.984v-.3a1.956,1.956,0,0,0-.48-1.471A1.912,1.912,0,0,0,73.037,20.133Zm11-2.812.129,1.488a4.3,4.3,0,0,1,3.621-1.723A3.618,3.618,0,0,1,90.75,18.27a5.635,5.635,0,0,1,1.014,3.563V30H87.8V22a2.14,2.14,0,0,0-.387-1.412,1.789,1.789,0,0,0-1.406-.451,1.883,1.883,0,0,0-1.723.914V30H80.338V17.32ZM-80.484,60.234a6.518,6.518,0,0,1-4.723-1.74,6.009,6.009,0,0,1-1.8-4.529v-.328a7.787,7.787,0,0,1,.721-3.434,5.274,5.274,0,0,1,2.1-2.3,6.35,6.35,0,0,1,3.281-.814,5.489,5.489,0,0,1,4.219,1.658,6.516,6.516,0,0,1,1.547,4.623V54.9h-7.852a2.846,2.846,0,0,0,.926,1.676,2.755,2.755,0,0,0,1.852.609,3.549,3.549,0,0,0,2.93-1.312l1.8,2.133a5.045,5.045,0,0,1-2.092,1.623A7.069,7.069,0,0,1-80.484,60.234Zm-.445-10.1q-1.734,0-2.062,2.3h3.984v-.3a1.956,1.956,0,0,0-.48-1.471A1.912,1.912,0,0,0-80.93,50.133ZM-69.387,60h-3.961V42h3.961Zm12.7-3.164h7.16V60H-60.8V42.938h4.113Zm14.848,3.4a6.518,6.518,0,0,1-4.723-1.74,6.009,6.009,0,0,1-1.8-4.529v-.328a7.787,7.787,0,0,1,.721-3.434,5.274,5.274,0,0,1,2.1-2.3,6.35,6.35,0,0,1,3.281-.814,5.489,5.489,0,0,1,4.219,1.658,6.516,6.516,0,0,1,1.547,4.623V54.9h-7.852a2.846,2.846,0,0,0,.926,1.676,2.755,2.755,0,0,0,1.852.609,3.549,3.549,0,0,0,2.93-1.312l1.8,2.133a5.045,5.045,0,0,1-2.092,1.623A7.069,7.069,0,0,1-41.836,60.234Zm-.445-10.1q-1.734,0-2.062,2.3h3.984v-.3a1.956,1.956,0,0,0-.48-1.471A1.912,1.912,0,0,0-42.281,50.133Zm11-2.812.129,1.488a4.3,4.3,0,0,1,3.621-1.723,3.618,3.618,0,0,1,2.959,1.184,5.635,5.635,0,0,1,1.014,3.563V60h-3.961V52a2.14,2.14,0,0,0-.387-1.412,1.789,1.789,0,0,0-1.406-.451,1.883,1.883,0,0,0-1.723.914V60H-34.98V47.32Zm9.445,6.246a8.561,8.561,0,0,1,.633-3.4,5.094,5.094,0,0,1,1.816-2.279,4.788,4.788,0,0,1,2.754-.8,3.807,3.807,0,0,1,3.094,1.336l.141-1.1h3.586v12.2a5.346,5.346,0,0,1-.779,2.912,5,5,0,0,1-2.256,1.9,8.292,8.292,0,0,1-3.422.662,7.153,7.153,0,0,1-2.7-.527,4.876,4.876,0,0,1-2-1.371l1.652-2.32a3.621,3.621,0,0,0,2.906,1.3q2.625,0,2.625-2.7v-.4a3.708,3.708,0,0,1-2.871,1.254,4.583,4.583,0,0,1-3.75-1.775,7.356,7.356,0,0,1-1.43-4.752Zm3.961.246a4.511,4.511,0,0,0,.586,2.467,1.849,1.849,0,0,0,1.641.908,2.1,2.1,0,0,0,1.863-.855V51a2.045,2.045,0,0,0-1.84-.867,1.861,1.861,0,0,0-1.652.943A5.144,5.144,0,0,0-17.871,53.813ZM-.012,58.629A4.072,4.072,0,0,1-3.4,60.234a3.993,3.993,0,0,1-3.158-1.213,5.1,5.1,0,0,1-1.072-3.486V47.32H-3.68v8.238A1.419,1.419,0,0,0-2.1,57.188a2.064,2.064,0,0,0,1.934-.973V47.32H3.809V60H.105ZM13.113,60a4.459,4.459,0,0,1-.375-1.137,3.672,3.672,0,0,1-3.047,1.371A4.5,4.5,0,0,1,6.645,59.15a3.45,3.45,0,0,1-1.254-2.725,3.546,3.546,0,0,1,1.523-3.117,7.761,7.761,0,0,1,4.43-1.055h1.219v-.671q0-1.755-1.512-1.755a1.236,1.236,0,0,0-1.406,1.39H5.7A3.54,3.54,0,0,1,7.26,48.233a6.575,6.575,0,0,1,3.99-1.147,5.764,5.764,0,0,1,3.832,1.184,4.115,4.115,0,0,1,1.441,3.246v5.613a5.748,5.748,0,0,0,.539,2.672V60Zm-2.473-2.578a2.2,2.2,0,0,0,1.225-.316,1.983,1.983,0,0,0,.7-.715V54.363H11.414q-2.062,0-2.062,1.852a1.131,1.131,0,0,0,.363.873A1.315,1.315,0,0,0,10.641,57.422Zm12.316-10.1V60.434A4.6,4.6,0,0,1,21.668,63.9a4.952,4.952,0,0,1-3.562,1.219,8.411,8.411,0,0,1-1.863-.2V61.934a7.556,7.556,0,0,0,1.113.105A1.445,1.445,0,0,0,19,60.41V47.32ZM18.7,44.051a1.763,1.763,0,0,1,.609-1.383,2.591,2.591,0,0,1,3.164,0,1.874,1.874,0,0,1,0,2.766,2.591,2.591,0,0,1-3.164,0A1.763,1.763,0,0,1,18.7,44.051ZM31.324,60.234a6.518,6.518,0,0,1-4.723-1.74,6.009,6.009,0,0,1-1.8-4.529v-.328a7.787,7.787,0,0,1,.721-3.434,5.274,5.274,0,0,1,2.1-2.3,6.35,6.35,0,0,1,3.281-.814,5.489,5.489,0,0,1,4.219,1.658,6.516,6.516,0,0,1,1.547,4.623V54.9H28.816a2.846,2.846,0,0,0,.926,1.676,2.755,2.755,0,0,0,1.852.609,3.549,3.549,0,0,0,2.93-1.312l1.8,2.133a5.045,5.045,0,0,1-2.092,1.623A7.069,7.069,0,0,1,31.324,60.234Zm-.445-10.1q-1.734,0-2.062,2.3H32.8v-.3a1.956,1.956,0,0,0-.48-1.471A1.912,1.912,0,0,0,30.879,50.133Zm22.336,5.332a1.69,1.69,0,0,0-.639-1.406,7.938,7.938,0,0,0-2.244-1.043,21.53,21.53,0,0,1-2.625-1.043q-3.316-1.629-3.316-4.477a4.014,4.014,0,0,1,.826-2.5,5.344,5.344,0,0,1,2.338-1.687,9.1,9.1,0,0,1,3.4-.6,7.958,7.958,0,0,1,3.3.656,5.223,5.223,0,0,1,2.268,1.869A4.881,4.881,0,0,1,57.328,48h-4.1a2.063,2.063,0,0,0-.639-1.617,2.489,2.489,0,0,0-1.729-.574,2.807,2.807,0,0,0-1.74.486,1.432,1.432,0,0,0,.064,2.426,8.867,8.867,0,0,0,2.473,1.1,15.147,15.147,0,0,1,2.906,1.225,4.884,4.884,0,0,1,2.766,4.395,4.166,4.166,0,0,1-1.687,3.516,7.506,7.506,0,0,1-4.629,1.277,9.184,9.184,0,0,1-3.756-.744,5.663,5.663,0,0,1-2.531-2.039,5.313,5.313,0,0,1-.85-2.982H48a2.617,2.617,0,0,0,.709,2.021,3.351,3.351,0,0,0,2.3.65,2.647,2.647,0,0,0,1.611-.439A1.45,1.45,0,0,0,53.215,55.465Zm20.7-3.645a10.083,10.083,0,0,1-.785,4.131,7.18,7.18,0,0,1-2.168,2.83l2.754,2.18-2.543,2.156L67.5,60.164a7.624,7.624,0,0,1-1.031.07A7.4,7.4,0,0,1,62.6,59.227a6.854,6.854,0,0,1-2.631-2.883,9.791,9.791,0,0,1-.979-4.312v-.9a10.1,10.1,0,0,1,.92-4.43,6.856,6.856,0,0,1,2.625-2.953,7.805,7.805,0,0,1,7.775-.012,6.948,6.948,0,0,1,2.643,2.936,9.816,9.816,0,0,1,.955,4.365Zm-4.184-.715a7.175,7.175,0,0,0-.85-3.861A2.929,2.929,0,0,0,64,47.227a7.268,7.268,0,0,0-.832,3.809v.785A7.374,7.374,0,0,0,64,55.682a2.724,2.724,0,0,0,2.473,1.342A2.685,2.685,0,0,0,68.877,55.7a7.219,7.219,0,0,0,.85-3.809Zm10.395,5.73h7.16V60H76.008V42.938h4.113Z" transform="translate(524.171 1511.381)" fill="#12263f"/>
        <path id="Path_193521" data-name="Path 193521" d="M-25.913,0V-21.328h6.87a10.106,10.106,0,0,1,5.083,1.282,9.009,9.009,0,0,1,3.523,3.618,10.924,10.924,0,0,1,1.282,5.237v.981a10.987,10.987,0,0,1-1.238,5.251,9.048,9.048,0,0,1-3.486,3.633A9.884,9.884,0,0,1-18.9,0Zm5.142-17.358v13.4h1.787a4,4,0,0,0,3.4-1.575A7.717,7.717,0,0,0-14.4-10.21v-.923a7.653,7.653,0,0,0-1.187-4.658,4.069,4.069,0,0,0-3.457-1.567ZM-6.519,0V-21.328H.352a10.106,10.106,0,0,1,5.083,1.282,9.009,9.009,0,0,1,3.523,3.618,10.924,10.924,0,0,1,1.282,5.237v.981A10.987,10.987,0,0,1,9-4.958,9.048,9.048,0,0,1,5.515-1.326,9.884,9.884,0,0,1,.5,0Zm5.142-17.358v13.4H.41a4,4,0,0,0,3.4-1.575A7.717,7.717,0,0,0,5-10.21v-.923a7.653,7.653,0,0,0-1.187-4.658A4.069,4.069,0,0,0,.352-17.358Zm19.395,13.4h8.95V0H12.876V-21.328h5.142Z" transform="translate(867.172 1468.783)" fill="#12263f"/>
        <path id="Path_193522" data-name="Path 193522" d="M-29.363,0V-21.328h6.87a10.106,10.106,0,0,1,5.083,1.282,9.009,9.009,0,0,1,3.523,3.618A10.924,10.924,0,0,1-12.6-11.191v.981a10.987,10.987,0,0,1-1.238,5.251,9.048,9.048,0,0,1-3.486,3.633A9.884,9.884,0,0,1-22.346,0Zm5.142-17.358v13.4h1.787a4,4,0,0,0,3.4-1.575,7.717,7.717,0,0,0,1.187-4.68v-.923a7.653,7.653,0,0,0-1.187-4.658,4.069,4.069,0,0,0-3.457-1.567Zm21.006-3.97L1.545-6.489,6.292-21.328h6.768V0H7.9V-4.98l.5-10.2L3.245,0h-3.4L-5.325-15.19l.5,10.21V0H-9.968V-21.328ZM21.467-3.955h8.95V0H16.326V-21.328h5.142Z" transform="translate(867.172 1557.783)" fill="#12263f"/>
        <path id="Path_193523" data-name="Path 193523" d="M-26.06,0V-21.328h6.87a10.106,10.106,0,0,1,5.083,1.282,9.009,9.009,0,0,1,3.523,3.618A10.924,10.924,0,0,1-9.3-11.191v.981A10.987,10.987,0,0,1-10.54-4.958a9.048,9.048,0,0,1-3.486,3.633A9.884,9.884,0,0,1-19.043,0Zm5.142-17.358v13.4h1.787a4,4,0,0,0,3.4-1.575,7.717,7.717,0,0,0,1.187-4.68v-.923a7.653,7.653,0,0,0-1.187-4.658,4.069,4.069,0,0,0-3.457-1.567ZM10.591-7.222a7.789,7.789,0,0,1-1.2,3.933A7.249,7.249,0,0,1,6.306-.645,10.5,10.5,0,0,1,1.772.293,8.375,8.375,0,0,1-4.849-2.446q-2.417-2.739-2.417-7.734v-1.055a12.91,12.91,0,0,1,1.091-5.486,8.269,8.269,0,0,1,3.142-3.633,8.767,8.767,0,0,1,4.746-1.282,9.193,9.193,0,0,1,6.24,2.043,8.074,8.074,0,0,1,2.681,5.632H5.508a3.82,3.82,0,0,0-.981-2.8,4.037,4.037,0,0,0-2.812-.85A3.071,3.071,0,0,0-1.1-16.172a9.226,9.226,0,0,0-.937,4.585v1.509A10.209,10.209,0,0,0-1.179-5.2,3.136,3.136,0,0,0,1.772-3.735a3.948,3.948,0,0,0,2.71-.835,3.544,3.544,0,0,0,1-2.651Zm7.573,3.267h8.95V0H13.022V-21.328h5.142Z" transform="translate(867.172 1644.783)" fill="#12263f"/>
      </g>
      <g id="Grupo_110662" data-name="Grupo 110662" transform="translate(925.127 8562.691)">
        <path id="Trazado_115879" data-name="Trazado 115879" d="M241.261,945.309A28.388,28.388,0,1,1,212.873,973.7h0A28.388,28.388,0,0,1,241.261,945.309Z" fill="#ffb30b"/>
        <circle id="Elipse_4719" data-name="Elipse 4719" cx="19.388" cy="19.388" r="19.388" transform="translate(221.873 954.309)" fill="#f3f9ff"/>
      </g>
      <g id="Grupo_110663" data-name="Grupo 110663" transform="translate(365.127 8663.691)">
        <path id="Trazado_115879-2" data-name="Trazado 115879-2" d="M801.261,929.309A28.388,28.388,0,1,1,772.873,957.7h0A28.388,28.388,0,0,1,801.261,929.309Z" fill="#ffb30b"/>
        <circle id="Elipse_4719-2" data-name="Elipse 4719-2" cx="19.388" cy="19.388" r="19.388" transform="translate(781.873 938.309)" fill="#f3f9ff"/>
      </g>
      <g id="Grupo_110663-2" data-name="Grupo 110663" transform="translate(365.127 8748.691)">
        <path id="Trazado_115879-2-2" data-name="Trazado 115879-2" d="M801.261,929.309A28.388,28.388,0,1,1,772.873,957.7h0A28.388,28.388,0,0,1,801.261,929.309Z" fill="#ffb30b"/>
        <circle id="Elipse_4719-2-2" data-name="Elipse 4719-2" cx="19.388" cy="19.388" r="19.388" transform="translate(781.873 938.309)" fill="#f3f9ff"/>
      </g>
    </g>
  </g>
</svg>
