<svg xmlns="http://www.w3.org/2000/svg" width="376.571" height="375.415" viewBox="0 0 376.571 375.415">
  <g id="_2" data-name="2" transform="translate(-1936.429 -1926.938)">
    <g id="Group_112906" data-name="Group 112906">
      <g id="Group_112873" data-name="Group 112873">
        <g id="Group_112872" data-name="Group 112872">
          <path id="Path_117542" data-name="Path 117542" d="M2291.353,2022.211h-44.886a5.667,5.667,0,0,1-5.662-5.662V1932.6a5.667,5.667,0,0,1,5.662-5.662h44.886a5.667,5.667,0,0,1,5.661,5.662v83.949A5.667,5.667,0,0,1,2291.353,2022.211Zm-44.886-92.928a3.32,3.32,0,0,0-3.317,3.317v83.949a3.321,3.321,0,0,0,3.317,3.318h44.886a3.321,3.321,0,0,0,3.317-3.318V1932.6a3.32,3.32,0,0,0-3.317-3.317Z" fill="#00003e"/>
        </g>
      </g>
      <g id="Group_112875" data-name="Group 112875">
        <g id="Group_112874" data-name="Group 112874">
          <path id="Path_117543" data-name="Path 117543" d="M2280,2012.58a4.346,4.346,0,1,1,4.347-4.347A4.351,4.351,0,0,1,2280,2012.58Zm0-6.348a2,2,0,1,0,2,2A2,2,0,0,0,2280,2006.232Z" fill="#00003e"/>
        </g>
      </g>
      <g id="Group_112882" data-name="Group 112882">
        <g id="Group_112877" data-name="Group 112877">
          <g id="Group_112876" data-name="Group 112876">
            <path id="Path_117544" data-name="Path 117544" d="M2262.679,1941.644a1.769,1.769,0,1,1-1.769-1.769A1.769,1.769,0,0,1,2262.679,1941.644Z" fill="#00003e"/>
          </g>
        </g>
        <g id="Group_112879" data-name="Group 112879">
          <g id="Group_112878" data-name="Group 112878">
            <path id="Path_117545" data-name="Path 117545" d="M2270.156,1941.644a1.769,1.769,0,1,1-1.769-1.769A1.77,1.77,0,0,1,2270.156,1941.644Z" fill="#00003e"/>
          </g>
        </g>
        <g id="Group_112881" data-name="Group 112881">
          <g id="Group_112880" data-name="Group 112880">
            <path id="Path_117546" data-name="Path 117546" d="M2277.632,1941.644a1.769,1.769,0,1,1-1.769-1.769A1.769,1.769,0,0,1,2277.632,1941.644Z" fill="#00003e"/>
          </g>
        </g>
      </g>
      <g id="Group_112895" data-name="Group 112895">
        <g id="Group_112884" data-name="Group 112884">
          <g id="Group_112883" data-name="Group 112883">
            <path id="Path_117547" data-name="Path 117547" d="M2280.779,1952.441h-23.738a1.172,1.172,0,1,1,0-2.344h23.738a1.172,1.172,0,0,1,0,2.344Z" fill="#00003e"/>
          </g>
        </g>
        <g id="Group_112886" data-name="Group 112886">
          <g id="Group_112885" data-name="Group 112885">
            <path id="Path_117548" data-name="Path 117548" d="M2280.779,1961.609h-23.738a1.172,1.172,0,1,1,0-2.344h23.738a1.172,1.172,0,0,1,0,2.344Z" fill="#00003e"/>
          </g>
        </g>
        <g id="Group_112888" data-name="Group 112888">
          <g id="Group_112887" data-name="Group 112887">
            <path id="Path_117549" data-name="Path 117549" d="M2280.779,1970.78h-23.738a1.172,1.172,0,1,1,0-2.344h23.738a1.172,1.172,0,0,1,0,2.344Z" fill="#00003e"/>
          </g>
        </g>
        <g id="Group_112890" data-name="Group 112890">
          <g id="Group_112889" data-name="Group 112889">
            <path id="Path_117550" data-name="Path 117550" d="M2280.779,1979.949h-23.738a1.172,1.172,0,0,1,0-2.345h23.738a1.172,1.172,0,0,1,0,2.345Z" fill="#00003e"/>
          </g>
        </g>
        <g id="Group_112892" data-name="Group 112892">
          <g id="Group_112891" data-name="Group 112891">
            <path id="Path_117551" data-name="Path 117551" d="M2280.779,1989.119h-23.738a1.172,1.172,0,1,1,0-2.344h23.738a1.172,1.172,0,0,1,0,2.344Z" fill="#00003e"/>
          </g>
        </g>
        <g id="Group_112894" data-name="Group 112894">
          <g id="Group_112893" data-name="Group 112893">
            <path id="Path_117552" data-name="Path 117552" d="M2280.779,1998.288h-23.738a1.172,1.172,0,1,1,0-2.344h23.738a1.172,1.172,0,0,1,0,2.344Z" fill="#00003e"/>
          </g>
        </g>
      </g>
      <g id="Group_112900" data-name="Group 112900">
        <g id="Group_112897" data-name="Group 112897">
          <g id="Group_112896" data-name="Group 112896">
            <path id="Path_117553" data-name="Path 117553" d="M2240.581,2013.232h-11.595a4.169,4.169,0,0,1-4.164-4.164v-65.832a4.169,4.169,0,0,1,4.164-4.165h12.156a1.172,1.172,0,0,1,0,2.345h-12.156a1.823,1.823,0,0,0-1.82,1.82v65.832a1.823,1.823,0,0,0,1.82,1.82h11.595a1.172,1.172,0,0,1,0,2.344Z" fill="#00003e"/>
          </g>
        </g>
        <g id="Group_112899" data-name="Group 112899">
          <g id="Group_112898" data-name="Group 112898">
            <path id="Path_117554" data-name="Path 117554" d="M2234.783,1951.939a1.768,1.768,0,1,1-1.769-1.769A1.768,1.768,0,0,1,2234.783,1951.939Z" fill="#00003e"/>
          </g>
        </g>
      </g>
      <g id="Group_112905" data-name="Group 112905">
        <g id="Group_112902" data-name="Group 112902">
          <g id="Group_112901" data-name="Group 112901">
            <path id="Path_117555" data-name="Path 117555" d="M2308.836,2013.232h-11.6a1.172,1.172,0,1,1,0-2.344h11.6a1.823,1.823,0,0,0,1.82-1.82v-65.832a1.823,1.823,0,0,0-1.82-1.82h-12.159a1.172,1.172,0,0,1,0-2.345h12.159a4.169,4.169,0,0,1,4.164,4.165v65.832A4.169,4.169,0,0,1,2308.836,2013.232Z" fill="#00003e"/>
          </g>
        </g>
        <g id="Group_112904" data-name="Group 112904">
          <g id="Group_112903" data-name="Group 112903">
            <path id="Path_117556" data-name="Path 117556" d="M2303.037,1951.939a1.769,1.769,0,1,0,1.769-1.769A1.768,1.768,0,0,0,2303.037,1951.939Z" fill="#00003e"/>
          </g>
        </g>
      </g>
    </g>
    <g id="Group_112908" data-name="Group 112908">
      <g id="Group_112907" data-name="Group 112907">
        <rect id="Rectangle_293520" data-name="Rectangle 293520" width="245.222" height="245.222" rx="10" transform="translate(1963.338 2128.955) rotate(-45)" fill="#ffb30b"/>
        <g id="Group_113997" data-name="Group 113997" transform="translate(997.689 749.125)">
          <g id="Group_113958" data-name="Group 113958" transform="translate(1061.866 1337.702)">
            <g id="Group_113956" data-name="Group 113956">
              <path id="Path_119232" data-name="Path 119232" d="M1094.5,1406.372a5.71,5.71,0,0,1-4.185-1.856l-26.718-28.594a6.648,6.648,0,0,1,0-8.956l27.169-29.074a5.648,5.648,0,0,1,8.37,0,6.651,6.651,0,0,1,0,8.956l-22.985,24.6,22.534,24.116a6.648,6.648,0,0,1,0,8.956A5.709,5.709,0,0,1,1094.5,1406.372Z" transform="translate(-1061.866 -1336.037)" fill="#fff"/>
            </g>
            <g id="Group_113957" data-name="Group 113957" transform="translate(111.864)">
              <path id="Path_119233" data-name="Path 119233" d="M1135.809,1406.372a5.715,5.715,0,0,1-4.185-1.856,6.651,6.651,0,0,1,0-8.956l22.538-24.116-22.989-24.6a6.651,6.651,0,0,1,0-8.956,5.648,5.648,0,0,1,8.37,0l27.174,29.074a6.651,6.651,0,0,1,0,8.956l-26.723,28.594A5.71,5.71,0,0,1,1135.809,1406.372Z" transform="translate(-1129.441 -1336.037)" fill="#fff"/>
            </g>
          </g>
          <g id="Group_113959" data-name="Group 113959" transform="translate(1118.122 1333.498)">
            <path id="Path_119234" data-name="Path 119234" d="M1101.765,1415.893a5.547,5.547,0,0,1-2.227-.47,6.5,6.5,0,0,1-3.253-8.252l26.521-69.722a5.786,5.786,0,0,1,7.714-3.478,6.5,6.5,0,0,1,3.253,8.254l-26.521,69.721A5.936,5.936,0,0,1,1101.765,1415.893Z" transform="translate(-1095.849 -1333.498)" fill="#fff"/>
          </g>
        </g>
      </g>
    </g>
    <g id="Group_112915" data-name="Group 112915">
      <g id="Group_112910" data-name="Group 112910">
        <g id="Group_112909" data-name="Group 112909">
          <path id="Path_117557" data-name="Path 117557" d="M2262.89,2194.231a1.171,1.171,0,0,1-1.172-1.172v-6.6a9.2,9.2,0,0,0-18.4,0v6.6a1.172,1.172,0,0,1-2.344,0v-6.6a11.545,11.545,0,0,1,23.089,0v6.6A1.171,1.171,0,0,1,2262.89,2194.231Z" fill="#00003e"/>
        </g>
      </g>
      <g id="Group_112912" data-name="Group 112912">
        <g id="Group_112911" data-name="Group 112911">
          <path id="Path_117558" data-name="Path 117558" d="M2262.038,2220.384h-19.509a5.866,5.866,0,0,1-5.86-5.861v-16.279a5.866,5.866,0,0,1,5.86-5.86h19.509a5.866,5.866,0,0,1,5.861,5.86v16.279A5.866,5.866,0,0,1,2262.038,2220.384Zm-19.509-25.656a3.52,3.52,0,0,0-3.516,3.516v16.279a3.521,3.521,0,0,0,3.516,3.517h19.509a3.521,3.521,0,0,0,3.517-3.517v-16.279a3.52,3.52,0,0,0-3.517-3.516Z" fill="#00003e"/>
        </g>
      </g>
      <g id="Group_112914" data-name="Group 112914">
        <g id="Group_112913" data-name="Group 112913">
          <path id="Path_117559" data-name="Path 117559" d="M2252.284,2210.142a3.757,3.757,0,1,1,3.757-3.757A3.761,3.761,0,0,1,2252.284,2210.142Zm0-5.17a1.413,1.413,0,1,0,1.413,1.413A1.415,1.415,0,0,0,2252.284,2204.972Z" fill="#00003e"/>
        </g>
      </g>
    </g>
    <g id="Group_112917" data-name="Group 112917">
      <g id="Group_112916" data-name="Group 112916">
        <path id="Path_117560" data-name="Path 117560" d="M2032.857,2140.688h-11.389a1.172,1.172,0,0,1,0-2.345h11.389a1.172,1.172,0,0,1,0,2.345Zm-23.11,0h-11.721a1.172,1.172,0,0,1,0-2.345h11.721a1.172,1.172,0,0,1,0,2.345Zm-23.442,0h-11.721a1.172,1.172,0,0,1,0-2.345h11.721a1.172,1.172,0,0,1,0,2.345Z" fill="#00003e"/>
      </g>
    </g>
    <g id="Group_112924" data-name="Group 112924">
      <g id="Group_112919" data-name="Group 112919">
        <g id="Group_112918" data-name="Group 112918">
          <path id="Path_117561" data-name="Path 117561" d="M2193.587,1964.253a1.167,1.167,0,0,1-.671-.21l-9.093-6.348a1.172,1.172,0,0,1,1.342-1.923l9.093,6.348a1.172,1.172,0,0,1-.671,2.133Z" fill="#00003e"/>
        </g>
      </g>
      <g id="Group_112921" data-name="Group 112921">
        <g id="Group_112920" data-name="Group 112920">
          <path id="Path_117562" data-name="Path 117562" d="M2178.888,1950.4a1.172,1.172,0,0,1-1.173-1.172v-9.773a1.172,1.172,0,0,1,2.345,0v9.773A1.171,1.171,0,0,1,2178.888,1950.4Z" fill="#00003e"/>
        </g>
      </g>
      <g id="Group_112923" data-name="Group 112923">
        <g id="Group_112922" data-name="Group 112922">
          <path id="Path_117563" data-name="Path 117563" d="M2164.19,1964.253a1.172,1.172,0,0,1-.67-2.133l9.093-6.348a1.172,1.172,0,1,1,1.341,1.923l-9.093,6.348A1.167,1.167,0,0,1,2164.19,1964.253Z" fill="#00003e"/>
        </g>
      </g>
    </g>
    <g id="Group_112967" data-name="Group 112967">
      <g id="Group_112926" data-name="Group 112926">
        <g id="Group_112925" data-name="Group 112925">
          <path id="Path_117564" data-name="Path 117564" d="M2030.616,2054.737h-29.47a3.52,3.52,0,0,1-3.516-3.516v-30.189a3.52,3.52,0,0,1,3.516-3.516h29.47a3.52,3.52,0,0,1,3.516,3.516v30.189A3.52,3.52,0,0,1,2030.616,2054.737Zm-29.47-34.877a1.174,1.174,0,0,0-1.172,1.172v30.189a1.175,1.175,0,0,0,1.172,1.172h29.47a1.174,1.174,0,0,0,1.172-1.172v-30.189a1.174,1.174,0,0,0-1.172-1.172Z" fill="#00003e"/>
        </g>
      </g>
      <g id="Group_112928" data-name="Group 112928">
        <g id="Group_112927" data-name="Group 112927">
          <path id="Path_117565" data-name="Path 117565" d="M2015.8,2035.125a5.734,5.734,0,1,1,5.735-5.735A5.74,5.74,0,0,1,2015.8,2035.125Zm0-9.123a3.389,3.389,0,1,0,3.391,3.388A3.392,3.392,0,0,0,2015.8,2026Z" fill="#00003e"/>
        </g>
      </g>
      <g id="Group_112930" data-name="Group 112930">
        <g id="Group_112929" data-name="Group 112929">
          <path id="Path_117566" data-name="Path 117566" d="M2028.141,2042.739h-24.678a1.172,1.172,0,0,1,0-2.344h24.678a1.172,1.172,0,1,1,0,2.344Z" fill="#00003e"/>
        </g>
      </g>
      <g id="Group_112932" data-name="Group 112932">
        <g id="Group_112931" data-name="Group 112931">
          <path id="Path_117567" data-name="Path 117567" d="M2025.587,2048.281h-19.569a1.172,1.172,0,0,1,0-2.344h19.569a1.172,1.172,0,0,1,0,2.344Z" fill="#00003e"/>
        </g>
      </g>
      <g id="Group_112934" data-name="Group 112934">
        <g id="Group_112933" data-name="Group 112933">
          <path id="Path_117568" data-name="Path 117568" d="M2037.45,2063.141h-43.137a5.866,5.866,0,0,1-5.861-5.861v-42.308a5.866,5.866,0,0,1,5.861-5.86h43.137a5.866,5.866,0,0,1,5.86,5.86v42.308A5.866,5.866,0,0,1,2037.45,2063.141Zm-43.137-51.685a3.52,3.52,0,0,0-3.516,3.516v42.308a3.521,3.521,0,0,0,3.516,3.517h43.137a3.521,3.521,0,0,0,3.516-3.517v-42.308a3.52,3.52,0,0,0-3.516-3.516Z" fill="#00003e"/>
        </g>
      </g>
      <g id="Group_112942" data-name="Group 112942">
        <g id="Group_112935" data-name="Group 112935">
          <path id="Path_117569" data-name="Path 117569" d="M1993.248,2011.456a1.171,1.171,0,0,1-1.172-1.172V2003.1a1.172,1.172,0,1,1,2.344,0v7.188A1.171,1.171,0,0,1,1993.248,2011.456Z" fill="#00003e"/>
        </g>
        <g id="Group_112936" data-name="Group 112936">
          <path id="Path_117570" data-name="Path 117570" d="M2000.695,2011.456a1.171,1.171,0,0,1-1.172-1.172V2003.1a1.173,1.173,0,1,1,2.345,0v7.188A1.172,1.172,0,0,1,2000.695,2011.456Z" fill="#00003e"/>
        </g>
        <g id="Group_112937" data-name="Group 112937">
          <path id="Path_117571" data-name="Path 117571" d="M2008.142,2011.456a1.172,1.172,0,0,1-1.172-1.172V2003.1a1.172,1.172,0,1,1,2.344,0v7.188A1.171,1.171,0,0,1,2008.142,2011.456Z" fill="#00003e"/>
        </g>
        <g id="Group_112938" data-name="Group 112938">
          <path id="Path_117572" data-name="Path 117572" d="M2015.589,2011.456a1.171,1.171,0,0,1-1.172-1.172V2003.1a1.172,1.172,0,1,1,2.344,0v7.188A1.171,1.171,0,0,1,2015.589,2011.456Z" fill="#00003e"/>
        </g>
        <g id="Group_112939" data-name="Group 112939">
          <path id="Path_117573" data-name="Path 117573" d="M2023.036,2011.456a1.172,1.172,0,0,1-1.172-1.172V2003.1a1.172,1.172,0,1,1,2.344,0v7.188A1.171,1.171,0,0,1,2023.036,2011.456Z" fill="#00003e"/>
        </g>
        <g id="Group_112940" data-name="Group 112940">
          <path id="Path_117574" data-name="Path 117574" d="M2030.481,2011.456a1.171,1.171,0,0,1-1.172-1.172V2003.1a1.172,1.172,0,1,1,2.344,0v7.188A1.171,1.171,0,0,1,2030.481,2011.456Z" fill="#00003e"/>
        </g>
        <g id="Group_112941" data-name="Group 112941">
          <path id="Path_117575" data-name="Path 117575" d="M2037.928,2011.456a1.171,1.171,0,0,1-1.172-1.172V2003.1a1.172,1.172,0,1,1,2.344,0v7.188A1.171,1.171,0,0,1,2037.928,2011.456Z" fill="#00003e"/>
        </g>
      </g>
      <g id="Group_112950" data-name="Group 112950">
        <g id="Group_112943" data-name="Group 112943">
          <path id="Path_117576" data-name="Path 117576" d="M2049.807,2014.487h-7.188a1.172,1.172,0,0,1,0-2.344h7.188a1.172,1.172,0,1,1,0,2.344Z" fill="#00003e"/>
        </g>
        <g id="Group_112944" data-name="Group 112944">
          <path id="Path_117577" data-name="Path 117577" d="M2049.807,2021.934h-7.188a1.172,1.172,0,0,1,0-2.344h7.188a1.172,1.172,0,1,1,0,2.344Z" fill="#00003e"/>
        </g>
        <g id="Group_112945" data-name="Group 112945">
          <path id="Path_117578" data-name="Path 117578" d="M2049.807,2029.381h-7.188a1.172,1.172,0,1,1,0-2.344h7.188a1.172,1.172,0,1,1,0,2.344Z" fill="#00003e"/>
        </g>
        <g id="Group_112946" data-name="Group 112946">
          <path id="Path_117579" data-name="Path 117579" d="M2049.807,2036.826h-7.188a1.173,1.173,0,0,1,0-2.345h7.188a1.173,1.173,0,0,1,0,2.345Z" fill="#00003e"/>
        </g>
        <g id="Group_112947" data-name="Group 112947">
          <path id="Path_117580" data-name="Path 117580" d="M2049.807,2044.273h-7.188a1.172,1.172,0,0,1,0-2.345h7.188a1.172,1.172,0,0,1,0,2.345Z" fill="#00003e"/>
        </g>
        <g id="Group_112948" data-name="Group 112948">
          <path id="Path_117581" data-name="Path 117581" d="M2049.807,2051.719h-7.188a1.172,1.172,0,1,1,0-2.344h7.188a1.172,1.172,0,1,1,0,2.344Z" fill="#00003e"/>
        </g>
        <g id="Group_112949" data-name="Group 112949">
          <path id="Path_117582" data-name="Path 117582" d="M2049.807,2059.167h-7.188a1.172,1.172,0,0,1,0-2.345h7.188a1.172,1.172,0,0,1,0,2.345Z" fill="#00003e"/>
        </g>
      </g>
      <g id="Group_112958" data-name="Group 112958">
        <g id="Group_112951" data-name="Group 112951">
          <path id="Path_117583" data-name="Path 117583" d="M2039.125,2070.329a1.172,1.172,0,0,1-1.172-1.172v-7.188a1.172,1.172,0,0,1,2.344,0v7.188A1.171,1.171,0,0,1,2039.125,2070.329Z" fill="#00003e"/>
        </g>
        <g id="Group_112952" data-name="Group 112952">
          <path id="Path_117584" data-name="Path 117584" d="M2031.678,2070.329a1.171,1.171,0,0,1-1.172-1.172v-7.188a1.172,1.172,0,0,1,2.345,0v7.188A1.172,1.172,0,0,1,2031.678,2070.329Z" fill="#00003e"/>
        </g>
        <g id="Group_112953" data-name="Group 112953">
          <path id="Path_117585" data-name="Path 117585" d="M2024.231,2070.329a1.171,1.171,0,0,1-1.172-1.172v-7.188a1.172,1.172,0,0,1,2.344,0v7.188A1.171,1.171,0,0,1,2024.231,2070.329Z" fill="#00003e"/>
        </g>
        <g id="Group_112954" data-name="Group 112954">
          <path id="Path_117586" data-name="Path 117586" d="M2016.784,2070.329a1.172,1.172,0,0,1-1.172-1.172v-7.188a1.172,1.172,0,0,1,2.345,0v7.188A1.172,1.172,0,0,1,2016.784,2070.329Z" fill="#00003e"/>
        </g>
        <g id="Group_112955" data-name="Group 112955">
          <path id="Path_117587" data-name="Path 117587" d="M2009.34,2070.329a1.171,1.171,0,0,1-1.172-1.172v-7.188a1.172,1.172,0,0,1,2.344,0v7.188A1.172,1.172,0,0,1,2009.34,2070.329Z" fill="#00003e"/>
        </g>
        <g id="Group_112956" data-name="Group 112956">
          <path id="Path_117588" data-name="Path 117588" d="M2001.893,2070.329a1.171,1.171,0,0,1-1.172-1.172v-7.188a1.172,1.172,0,0,1,2.344,0v7.188A1.171,1.171,0,0,1,2001.893,2070.329Z" fill="#00003e"/>
        </g>
        <g id="Group_112957" data-name="Group 112957">
          <path id="Path_117589" data-name="Path 117589" d="M1994.446,2070.329a1.171,1.171,0,0,1-1.172-1.172v-7.188a1.172,1.172,0,0,1,2.344,0v7.188A1.172,1.172,0,0,1,1994.446,2070.329Z" fill="#00003e"/>
        </g>
      </g>
      <g id="Group_112966" data-name="Group 112966">
        <g id="Group_112959" data-name="Group 112959">
          <path id="Path_117590" data-name="Path 117590" d="M1989.624,2059.167h-7.188a1.172,1.172,0,0,1,0-2.345h7.188a1.172,1.172,0,1,1,0,2.345Z" fill="#00003e"/>
        </g>
        <g id="Group_112960" data-name="Group 112960">
          <path id="Path_117591" data-name="Path 117591" d="M1989.624,2051.719h-7.188a1.172,1.172,0,1,1,0-2.344h7.188a1.172,1.172,0,1,1,0,2.344Z" fill="#00003e"/>
        </g>
        <g id="Group_112961" data-name="Group 112961">
          <path id="Path_117592" data-name="Path 117592" d="M1989.624,2044.273h-7.188a1.172,1.172,0,0,1,0-2.345h7.188a1.172,1.172,0,1,1,0,2.345Z" fill="#00003e"/>
        </g>
        <g id="Group_112962" data-name="Group 112962">
          <path id="Path_117593" data-name="Path 117593" d="M1989.624,2036.826h-7.188a1.173,1.173,0,0,1,0-2.345h7.188a1.173,1.173,0,1,1,0,2.345Z" fill="#00003e"/>
        </g>
        <g id="Group_112963" data-name="Group 112963">
          <path id="Path_117594" data-name="Path 117594" d="M1989.624,2029.381h-7.188a1.172,1.172,0,0,1,0-2.344h7.188a1.172,1.172,0,1,1,0,2.344Z" fill="#00003e"/>
        </g>
        <g id="Group_112964" data-name="Group 112964">
          <path id="Path_117595" data-name="Path 117595" d="M1989.624,2021.934h-7.188a1.172,1.172,0,0,1,0-2.344h7.188a1.172,1.172,0,1,1,0,2.344Z" fill="#00003e"/>
        </g>
        <g id="Group_112965" data-name="Group 112965">
          <path id="Path_117596" data-name="Path 117596" d="M1989.624,2014.487h-7.188a1.172,1.172,0,0,1,0-2.344h7.188a1.172,1.172,0,1,1,0,2.344Z" fill="#00003e"/>
        </g>
      </g>
    </g>
    <g id="Group_112969" data-name="Group 112969">
      <g id="Group_112968" data-name="Group 112968">
        <path id="Path_117597" data-name="Path 117597" d="M1996.146,2129.488H1939.2a1.172,1.172,0,1,1,0-2.344h56.945a1.172,1.172,0,1,1,0,2.344Z" fill="#00003e"/>
      </g>
    </g>
    <g id="Group_112971" data-name="Group 112971">
      <g id="Group_112970" data-name="Group 112970">
        <path id="Path_117598" data-name="Path 117598" d="M2186.3,1981.469h-56.943a1.172,1.172,0,0,1,0-2.344H2186.3a1.172,1.172,0,1,1,0,2.344Z" fill="#00003e"/>
      </g>
    </g>
    <g id="Group_112973" data-name="Group 112973">
      <g id="Group_112972" data-name="Group 112972">
        <path id="Path_117599" data-name="Path 117599" d="M2199.024,1993.151h-25.447a1.172,1.172,0,1,1,0-2.344h25.447a1.172,1.172,0,1,1,0,2.344Z" fill="#00003e"/>
      </g>
    </g>
    <g id="Group_112982" data-name="Group 112982">
      <g id="Group_112975" data-name="Group 112975">
        <g id="Group_112974" data-name="Group 112974">
          <path id="Path_117600" data-name="Path 117600" d="M2047.383,2259.077h-75.562a4.168,4.168,0,0,1-4.164-4.162v-10.693a4.268,4.268,0,0,1,.073-.753,4.161,4.161,0,0,1,4.091-3.411h75.562a4.19,4.19,0,0,1,4.088,3.409l0,0a4.362,4.362,0,0,1,.073.753v10.693A4.168,4.168,0,0,1,2047.383,2259.077Zm-75.562-16.675a1.815,1.815,0,0,0-1.784,1.491,1.75,1.75,0,0,0-.036.329v10.693a1.821,1.821,0,0,0,1.82,1.818h75.562a1.822,1.822,0,0,0,1.82-1.818v-10.693a1.733,1.733,0,0,0-.037-.332,1.85,1.85,0,0,0-1.783-1.488Zm67.474,10.625a4.206,4.206,0,1,1,4.2-4.206A4.211,4.211,0,0,1,2039.3,2253.027Zm0-6.067a1.862,1.862,0,1,0,1.861,1.861A1.865,1.865,0,0,0,2039.3,2246.96Z" fill="#00003e"/>
        </g>
      </g>
      <g id="Group_112977" data-name="Group 112977">
        <g id="Group_112976" data-name="Group 112976">
          <path id="Path_117601" data-name="Path 117601" d="M1968.884,2244.852a1.225,1.225,0,0,1-.978-.486,1.181,1.181,0,0,1-.19-1.055l3.125-9.443a1.172,1.172,0,0,1,2.225.737l-3.045,9.2A1.143,1.143,0,0,1,1968.884,2244.852Z" fill="#00003e"/>
        </g>
      </g>
      <g id="Group_112979" data-name="Group 112979">
        <g id="Group_112978" data-name="Group 112978">
          <path id="Path_117602" data-name="Path 117602" d="M2050.375,2244.852a1.176,1.176,0,0,1-1.129-.852l-2.68-9.443a1.173,1.173,0,1,1,2.257-.641l2.68,9.443a1.174,1.174,0,0,1-.808,1.449A1.2,1.2,0,0,1,2050.375,2244.852Z" fill="#00003e"/>
        </g>
      </g>
      <g id="Group_112981" data-name="Group 112981">
        <g id="Group_112980" data-name="Group 112980">
          <path id="Path_117603" data-name="Path 117603" d="M2039.3,2253.027a4.206,4.206,0,1,1,4.2-4.206A4.211,4.211,0,0,1,2039.3,2253.027Zm0-6.067a1.862,1.862,0,1,0,1.861,1.861A1.865,1.865,0,0,0,2039.3,2246.96Z" fill="#00003e"/>
        </g>
      </g>
    </g>
    <g id="Group_112991" data-name="Group 112991">
      <g id="Group_112984" data-name="Group 112984">
        <g id="Group_112983" data-name="Group 112983">
          <path id="Path_117604" data-name="Path 117604" d="M2047.383,2235.232h-75.562a4.169,4.169,0,0,1-4.164-4.164v-10.693a4.255,4.255,0,0,1,.073-.753,4.161,4.161,0,0,1,4.091-3.409h75.562a4.183,4.183,0,0,1,4.088,3.406l0,0a4.348,4.348,0,0,1,.073.753v10.693A4.169,4.169,0,0,1,2047.383,2235.232Zm-75.562-16.675a1.814,1.814,0,0,0-1.784,1.488,1.763,1.763,0,0,0-.036.33v10.693a1.823,1.823,0,0,0,1.82,1.82h75.562a1.823,1.823,0,0,0,1.82-1.82v-10.693a1.722,1.722,0,0,0-.037-.332,1.845,1.845,0,0,0-1.783-1.486Zm67.474,10.622a4.205,4.205,0,1,1,4.2-4.2A4.21,4.21,0,0,1,2039.3,2229.179Zm0-6.066a1.861,1.861,0,1,0,1.861,1.861A1.864,1.864,0,0,0,2039.3,2223.113Z" fill="#00003e"/>
        </g>
      </g>
      <g id="Group_112986" data-name="Group 112986">
        <g id="Group_112985" data-name="Group 112985">
          <path id="Path_117605" data-name="Path 117605" d="M2050.375,2221a1.175,1.175,0,0,1-1.129-.851l-8.358-29.459a1.827,1.827,0,0,0-1.751-1.323h-57.676a1.816,1.816,0,0,0-1.728,1.248l-9.712,29.339a1.143,1.143,0,0,1-1.137,1.046,1.224,1.224,0,0,1-.978-.485,1.181,1.181,0,0,1-.19-1.055l9.791-29.582a4.158,4.158,0,0,1,3.954-2.855h57.676a4.182,4.182,0,0,1,4.006,3.026l8.36,29.459a1.168,1.168,0,0,1-1.128,1.492Z" fill="#00003e"/>
        </g>
      </g>
      <g id="Group_112988" data-name="Group 112988">
        <g id="Group_112987" data-name="Group 112987">
          <path id="Path_117606" data-name="Path 117606" d="M2039.3,2229.179a4.205,4.205,0,1,1,4.2-4.2A4.21,4.21,0,0,1,2039.3,2229.179Zm0-6.066a1.861,1.861,0,1,0,1.861,1.861A1.864,1.864,0,0,0,2039.3,2223.113Z" fill="#00003e"/>
        </g>
      </g>
      <g id="Group_112990" data-name="Group 112990">
        <g id="Group_112989" data-name="Group 112989">
          <path id="Path_117607" data-name="Path 117607" d="M2011.936,2209.856c-8.317,0-16.735-2.3-16.735-6.687,0-8.782,33.467-8.782,33.467,0C2028.668,2207.56,2020.25,2209.856,2011.936,2209.856Zm0-11.032c-8.784,0-14.391,2.573-14.391,4.345s5.607,4.342,14.391,4.342,14.388-2.573,14.388-4.342S2020.72,2198.824,2011.936,2198.824Z" fill="#00003e"/>
        </g>
      </g>
    </g>
    <g id="Group_112993" data-name="Group 112993">
      <g id="Group_112992" data-name="Group 112992">
        <path id="Path_117608" data-name="Path 117608" d="M2057.836,1996.889a6.367,6.367,0,1,1,6.366-6.366A6.375,6.375,0,0,1,2057.836,1996.889Zm0-10.388a4.022,4.022,0,1,0,4.022,4.022A4.026,4.026,0,0,0,2057.836,1986.5Z" fill="#00defc"/>
      </g>
    </g>
    <g id="Group_112995" data-name="Group 112995">
      <g id="Group_112994" data-name="Group 112994">
        <path id="Path_117609" data-name="Path 117609" d="M2281.967,2190.942a6.366,6.366,0,1,1,6.366-6.367A6.373,6.373,0,0,1,2281.967,2190.942Zm0-10.389a4.022,4.022,0,1,0,4.022,4.022A4.026,4.026,0,0,0,2281.967,2180.553Z" fill="#00defc"/>
      </g>
    </g>
    <g id="Group_113002" data-name="Group 113002">
      <g id="Group_112997" data-name="Group 112997">
        <g id="Group_112996" data-name="Group 112996">
          <path id="Path_117610" data-name="Path 117610" d="M2253.12,2254.654h0a3.481,3.481,0,0,1-2.484-1.03l-4.754-4.752a3.522,3.522,0,0,1,0-4.975l4.754-4.752a3.482,3.482,0,0,1,2.484-1.031h0a3.5,3.5,0,0,1,2.486,1.031l4.752,4.752a3.523,3.523,0,0,1,0,4.975l-4.752,4.752A3.494,3.494,0,0,1,2253.12,2254.654Zm0-14.2h0a1.161,1.161,0,0,0-.826.344l-4.755,4.753a1.174,1.174,0,0,0,0,1.659l4.755,4.753a1.16,1.16,0,0,0,.826.343h0a1.161,1.161,0,0,0,.828-.343l4.753-4.753a1.174,1.174,0,0,0,0-1.659l-4.753-4.753A1.162,1.162,0,0,0,2253.12,2240.458Z" fill="#00defc"/>
        </g>
      </g>
      <g id="Group_112999" data-name="Group 112999">
        <g id="Group_112998" data-name="Group 112998">
          <path id="Path_117611" data-name="Path 117611" d="M2273.077,2254.652a3.5,3.5,0,0,1-2.486-1.028l-4.752-4.752a3.523,3.523,0,0,1,0-4.975l4.752-4.752a3.517,3.517,0,0,1,4.975,0l4.752,4.752a3.522,3.522,0,0,1,0,4.975l-4.752,4.752A3.5,3.5,0,0,1,2273.077,2254.652Zm0-14.194a1.17,1.17,0,0,0-.831.344l-4.753,4.753a1.174,1.174,0,0,0,0,1.659l4.753,4.753a1.174,1.174,0,0,0,1.659,0l4.753-4.753a1.174,1.174,0,0,0,0-1.659l-4.753-4.753A1.165,1.165,0,0,0,2273.08,2240.458Z" fill="#00defc"/>
        </g>
      </g>
      <g id="Group_113001" data-name="Group 113001">
        <g id="Group_113000" data-name="Group 113000">
          <path id="Path_117612" data-name="Path 117612" d="M2293.038,2254.677a3.508,3.508,0,0,1-2.487-1.028l-4.754-4.754a3.524,3.524,0,0,1,0-4.973l4.754-4.754a3.522,3.522,0,0,1,4.973,0l4.754,4.754a3.519,3.519,0,0,1,0,4.973l-4.754,4.754A3.507,3.507,0,0,1,2293.038,2254.677Zm0-14.2a1.169,1.169,0,0,0-.829.344l-4.755,4.755a1.174,1.174,0,0,0,0,1.657l4.755,4.755a1.171,1.171,0,0,0,1.657,0l4.755-4.755a1.171,1.171,0,0,0,0-1.657l-4.755-4.755A1.169,1.169,0,0,0,2293.038,2240.481Z" fill="#00defc"/>
        </g>
      </g>
    </g>
    <g id="Group_113009" data-name="Group 113009">
      <g id="Group_113004" data-name="Group 113004">
        <g id="Group_113003" data-name="Group 113003">
          <path id="Path_117613" data-name="Path 117613" d="M2020.948,2293.663a1.166,1.166,0,0,1-.67-.21l-7.269-5.073a1.172,1.172,0,0,1,1.342-1.923l7.268,5.073a1.172,1.172,0,0,1-.671,2.133Z" fill="#00003e"/>
        </g>
      </g>
      <g id="Group_113006" data-name="Group 113006">
        <g id="Group_113005" data-name="Group 113005">
          <path id="Path_117614" data-name="Path 117614" d="M2009.2,2282.59a1.171,1.171,0,0,1-1.172-1.172v-7.811a1.172,1.172,0,0,1,2.344,0v7.811A1.171,1.171,0,0,1,2009.2,2282.59Z" fill="#00003e"/>
        </g>
      </g>
      <g id="Group_113008" data-name="Group 113008">
        <g id="Group_113007" data-name="Group 113007">
          <path id="Path_117615" data-name="Path 117615" d="M1997.451,2293.663a1.172,1.172,0,0,1-.67-2.133l7.268-5.073a1.172,1.172,0,0,1,1.342,1.923l-7.269,5.073A1.167,1.167,0,0,1,1997.451,2293.663Z" fill="#00003e"/>
        </g>
      </g>
    </g>
    <g id="Group_113011" data-name="Group 113011">
      <g id="Group_113010" data-name="Group 113010">
        <path id="Path_117616" data-name="Path 117616" d="M1942.8,2090.14a6.365,6.365,0,1,1,6.367-6.364A6.372,6.372,0,0,1,1942.8,2090.14Zm0-10.386a4.021,4.021,0,1,0,4.022,4.022A4.026,4.026,0,0,0,1942.8,2079.754Z" fill="#00defc"/>
      </g>
    </g>
    <g id="Group_113013" data-name="Group 113013">
      <g id="Group_113012" data-name="Group 113012">
        <path id="Path_117617" data-name="Path 117617" d="M2165.312,2231.1h-11.721a1.172,1.172,0,1,1,0-2.344h11.721a1.172,1.172,0,0,1,0,2.344Zm-23.442,0h-11.721a1.172,1.172,0,0,1,0-2.344h11.721a1.172,1.172,0,0,1,0,2.344Zm-23.442,0h-11.721a1.172,1.172,0,1,1,0-2.344h11.721a1.172,1.172,0,1,1,0,2.344Z" fill="#00003e"/>
      </g>
    </g>
    <g id="Group_113015" data-name="Group 113015">
      <g id="Group_113014" data-name="Group 113014">
        <path id="Path_117618" data-name="Path 117618" d="M2300.169,2046.713a6.365,6.365,0,1,1,6.366-6.364A6.373,6.373,0,0,1,2300.169,2046.713Zm0-10.387a4.021,4.021,0,1,0,4.022,4.023A4.027,4.027,0,0,0,2300.169,2036.326Z" fill="#00defc"/>
      </g>
    </g>
    <g id="Group_113017" data-name="Group 113017">
      <g id="Group_113016" data-name="Group 113016">
        <path id="Path_117619" data-name="Path 117619" d="M2164.488,2239.916a1.172,1.172,0,0,1-.687-2.122l10.458-7.568-10.492-8.189a1.173,1.173,0,0,1,1.442-1.85l11.721,9.148a1.173,1.173,0,0,1-.034,1.875l-11.721,8.484A1.179,1.179,0,0,1,2164.488,2239.916Z" fill="#00003e"/>
      </g>
    </g>
    <g id="Group_113019" data-name="Group 113019">
      <g id="Group_113018" data-name="Group 113018">
        <path id="Path_117620" data-name="Path 117620" d="M2042.139,2099.792a3.807,3.807,0,1,1-3.807,3.807A3.807,3.807,0,0,1,2042.139,2099.792Z" fill="#00003e"/>
      </g>
    </g>
    <g id="Group_113021" data-name="Group 113021">
      <g id="Group_113020" data-name="Group 113020">
        <circle id="Ellipse_4765" data-name="Ellipse 4765" cx="3.807" cy="3.807" r="3.807" transform="translate(2246.735 2052.301) rotate(-67.62)" fill="#00003e"/>
      </g>
    </g>
    <g id="Group_113023" data-name="Group 113023">
      <g id="Group_113022" data-name="Group 113022">
        <circle id="Ellipse_4766" data-name="Ellipse 4766" cx="3.807" cy="3.807" r="3.807" transform="translate(2099.094 2245.762)" fill="#00003e"/>
      </g>
    </g>
    <g id="Group_113025" data-name="Group 113025">
      <g id="Group_113024" data-name="Group 113024">
        <circle id="Ellipse_4767" data-name="Ellipse 4767" cx="3.807" cy="3.807" r="3.807" transform="translate(2296.362 2085.163)" fill="#00003e"/>
      </g>
    </g>
    <g id="Group_113027" data-name="Group 113027">
      <g id="Group_113026" data-name="Group 113026">
        <path id="Path_117621" data-name="Path 117621" d="M1966.585,2099.792a3.807,3.807,0,1,1-3.807,3.807A3.808,3.808,0,0,1,1966.585,2099.792Z" fill="#00003e"/>
      </g>
    </g>
    <g id="Group_113029" data-name="Group 113029">
      <g id="Group_113028" data-name="Group 113028">
        <circle id="Ellipse_4768" data-name="Ellipse 4768" cx="3.807" cy="3.807" r="3.807" transform="translate(2075.939 1993.31)" fill="#00003e"/>
      </g>
    </g>
    <g id="Group_113031" data-name="Group 113031">
      <g id="Group_113030" data-name="Group 113030">
        <circle id="Ellipse_4769" data-name="Ellipse 4769" cx="3.807" cy="3.807" r="3.807" transform="translate(2211.973 2264.238)" fill="#00003e"/>
      </g>
    </g>
    <g id="Group_113038" data-name="Group 113038">
      <g id="Group_113033" data-name="Group 113033">
        <g id="Group_113032" data-name="Group 113032">
          <path id="Path_117622" data-name="Path 117622" d="M2150.8,2273.463a1.168,1.168,0,0,1-.671-.211l-7.269-5.073a1.172,1.172,0,0,1,1.342-1.923l7.268,5.073a1.172,1.172,0,0,1-.67,2.134Z" fill="#00003e"/>
        </g>
      </g>
      <g id="Group_113035" data-name="Group 113035">
        <g id="Group_113034" data-name="Group 113034">
          <path id="Path_117623" data-name="Path 117623" d="M2139.052,2262.39a1.171,1.171,0,0,1-1.172-1.172v-7.811a1.172,1.172,0,0,1,2.344,0v7.811A1.171,1.171,0,0,1,2139.052,2262.39Z" fill="#00003e"/>
        </g>
      </g>
      <g id="Group_113037" data-name="Group 113037">
        <g id="Group_113036" data-name="Group 113036">
          <path id="Path_117624" data-name="Path 117624" d="M2127.3,2273.463a1.172,1.172,0,0,1-.671-2.134l7.268-5.073a1.172,1.172,0,0,1,1.342,1.923l-7.269,5.073A1.165,1.165,0,0,1,2127.3,2273.463Z" fill="#00003e"/>
        </g>
      </g>
    </g>
    <g id="Group_113040" data-name="Group 113040">
      <g id="Group_113039" data-name="Group 113039">
        <path id="Path_117625" data-name="Path 117625" d="M2113.018,2008.237a1.171,1.171,0,0,1-1.172-1.172v-11.721a1.172,1.172,0,0,1,2.345,0v11.721A1.172,1.172,0,0,1,2113.018,2008.237Zm-97.216-15.086a1.171,1.171,0,0,1-1.172-1.172v-11.721a1.172,1.172,0,0,1,2.344,0v11.721A1.171,1.171,0,0,1,2015.8,1993.151Zm97.216-8.356a1.171,1.171,0,0,1-1.172-1.172v-11.465a1.087,1.087,0,0,1-.02-.215,1.154,1.154,0,0,1,1.151-1.172h.041a1.172,1.172,0,0,1,1.173,1.172v11.68A1.172,1.172,0,0,1,2113.018,1984.8Zm-11.762-11.68h-11.721a1.172,1.172,0,0,1,0-2.344h11.721a1.172,1.172,0,0,1,0,2.344Zm-23.442,0h-11.721a1.172,1.172,0,1,1,0-2.344h11.721a1.172,1.172,0,1,1,0,2.344Zm-23.442,0h-11.721a1.172,1.172,0,0,1,0-2.344h11.721a1.172,1.172,0,0,1,0,2.344Zm-23.442,0h-11.721a1.172,1.172,0,0,1,0-2.344h11.721a1.172,1.172,0,0,1,0,2.344Z" fill="#00003e"/>
      </g>
    </g>
    <g id="Group_113042" data-name="Group 113042">
      <g id="Group_113041" data-name="Group 113041">
        <path id="Path_117626" data-name="Path 117626" d="M2267.347,2125.489h-11.721a1.172,1.172,0,0,1,0-2.344h11.721a1.172,1.172,0,1,1,0,2.344Zm-23.442,0h-11.721a1.172,1.172,0,1,1,0-2.344h11.721a1.172,1.172,0,0,1,0,2.344Zm27.32-7.843a1.171,1.171,0,0,1-1.172-1.172v-11.721a1.172,1.172,0,0,1,2.345,0v11.721A1.172,1.172,0,0,1,2271.225,2117.646Zm0-23.442a1.171,1.171,0,0,1-1.172-1.172v-11.721a1.172,1.172,0,0,1,2.345,0v11.721A1.172,1.172,0,0,1,2271.225,2094.2Zm0-23.442a1.171,1.171,0,0,1-1.172-1.172v-11.721a1.172,1.172,0,1,1,2.345,0v11.721A1.172,1.172,0,0,1,2271.225,2070.762Zm0-23.442a1.172,1.172,0,0,1-1.172-1.172v-2.706a1.172,1.172,0,0,1,2.345,0v2.706A1.172,1.172,0,0,1,2271.225,2047.32Z" fill="#00003e"/>
      </g>
    </g>
    <g id="Group_113044" data-name="Group 113044">
      <g id="Group_113043" data-name="Group 113043">
        <path id="Path_117627" data-name="Path 117627" d="M2009.6,2181.162a1.171,1.171,0,0,1-1.172-1.172v-4.213a1.172,1.172,0,1,1,2.344,0v4.213A1.171,1.171,0,0,1,2009.6,2181.162Zm0-15.934a1.171,1.171,0,0,1-1.172-1.172v-3.795a1.171,1.171,0,0,1,1.172-1.172h7.925a1.172,1.172,0,1,1,0,2.344h-6.753v2.623A1.171,1.171,0,0,1,2009.6,2165.228Zm54.809-3.795h-11.721a1.172,1.172,0,0,1,0-2.344h11.721a1.172,1.172,0,1,1,0,2.344Zm-23.442,0h-11.721a1.172,1.172,0,1,1,0-2.344h11.721a1.172,1.172,0,1,1,0,2.344Z" fill="#00003e"/>
      </g>
    </g>
  </g>
</svg>
