<svg xmlns="http://www.w3.org/2000/svg" width="187" height="187" viewBox="0 0 187 187">
  <g id="_2" data-name="2" transform="translate(-397 -6963.999)">
    <g id="Group_130058" data-name="Group 130058" transform="translate(406.92 6973.73)">
      <g id="Path_187974" data-name="Path 187974" transform="translate(0.08 0.269)" fill="#f3f9ff">
        <path d="M 83.5 172 C 77.49864959716797 172 71.49960327148438 171.3950958251953 65.66944885253906 170.2020721435547 C 59.98495101928711 169.0388488769531 54.39345169067383 167.3031463623047 49.05027389526367 165.0431823730469 C 43.80519866943359 162.82470703125 38.74672317504883 160.0791015625 34.01532363891602 156.8826293945312 C 29.33017539978027 153.7174072265625 24.92462539672852 150.08251953125 20.92104911804199 146.0789489746094 C 16.9174747467041 142.0753784179688 13.28260040283203 137.6698303222656 10.11737537384033 132.9846801757812 C 6.920899868011475 128.2532806396484 4.175300121307373 123.1948013305664 1.956825017929077 117.9497222900391 C -0.3031499981880188 112.6065521240234 -2.038850069046021 107.0150527954102 -3.202075004577637 101.3305511474609 C -4.395100116729736 95.50039672851562 -5 89.50135040283203 -5 83.5 C -5 77.49864959716797 -4.395100116729736 71.49960327148438 -3.202075004577637 65.66944885253906 C -2.038850069046021 59.98495101928711 -0.3031499981880188 54.39345169067383 1.956825017929077 49.05027389526367 C 4.175300121307373 43.80519866943359 6.920899868011475 38.74672317504883 10.11737537384033 34.01532363891602 C 13.28260040283203 29.33017539978027 16.9174747467041 24.92462539672852 20.92104911804199 20.92104911804199 C 24.92462539672852 16.9174747467041 29.33017539978027 13.28260040283203 34.01532363891602 10.11737537384033 C 38.74672317504883 6.920899868011475 43.80519866943359 4.175300121307373 49.05027389526367 1.956825017929077 C 54.39345169067383 -0.3031499981880188 59.98495101928711 -2.038850069046021 65.66944885253906 -3.202075004577637 C 71.49960327148438 -4.395100116729736 77.49864959716797 -5 83.5 -5 C 89.50135040283203 -5 95.50039672851562 -4.395100116729736 101.3305511474609 -3.202075004577637 C 107.0150527954102 -2.038850069046021 112.6065521240234 -0.3031499981880188 117.9497222900391 1.956825017929077 C 123.1948013305664 4.175300121307373 128.2532806396484 6.920899868011475 132.9846801757812 10.11737537384033 C 137.6698303222656 13.28260040283203 142.0753784179688 16.9174747467041 146.0789489746094 20.92104911804199 C 150.08251953125 24.92462539672852 153.7174072265625 29.33017539978027 156.8826293945312 34.01532363891602 C 160.0791015625 38.74672317504883 162.82470703125 43.80519866943359 165.0431823730469 49.05027389526367 C 167.3031463623047 54.39345169067383 169.0388488769531 59.98495101928711 170.2020721435547 65.66944885253906 C 171.3950958251953 71.49960327148438 172 77.49864959716797 172 83.5 C 172 89.50135040283203 171.3950958251953 95.50039672851562 170.2020721435547 101.3305511474609 C 169.0388488769531 107.0150527954102 167.3031463623047 112.6065521240234 165.0431823730469 117.9497222900391 C 162.82470703125 123.1948013305664 160.0791015625 128.2532806396484 156.8826293945312 132.9846801757812 C 153.7174072265625 137.6698303222656 150.08251953125 142.0753784179688 146.0789489746094 146.0789489746094 C 142.0753784179688 150.08251953125 137.6698303222656 153.7174072265625 132.9846801757812 156.8826293945312 C 128.2532806396484 160.0791015625 123.1948013305664 162.82470703125 117.9497222900391 165.0431823730469 C 112.6065521240234 167.3031463623047 107.0150527954102 169.0388488769531 101.3305511474609 170.2020721435547 C 95.50039672851562 171.3950958251953 89.50135040283203 172 83.5 172 Z" stroke="none"/>
        <path d="M 83.5 0 C 37.38421630859375 0 0 37.38421630859375 0 83.5 C 0 129.6157836914062 37.38421630859375 167 83.5 167 C 129.6157836914062 167 167 129.6157836914062 167 83.5 C 167 37.38421630859375 129.6157836914062 0 83.5 0 M 83.5 -10 C 135.0560607910156 -10 177 31.94393920898438 177 83.5 C 177 135.0560607910156 135.0560607910156 177 83.5 177 C 31.94393920898438 177 -10 135.0560607910156 -10 83.5 C -10 31.94393920898438 31.94393920898438 -10 83.5 -10 Z" stroke="none" fill="#fdb32b"/>
      </g>
    </g>
    <g id="Group_130059" data-name="Group 130059" transform="translate(-1289.247 10395.483)">
      <path id="Path_190650" data-name="Path 190650" d="M1763.636-3355.11c3.526,0,6.857-.019,10.188,0,9.051.058,13.321,6.5,10.136,14.909-1.113,2.939-1.529,6.142-2.256,9.227-.989,4.19-2.006,8.375-2.946,12.576a10.338,10.338,0,0,1-9.88,8.209c-9.011.111-18.062.537-27.021-.149-4.5-.344-8.636-1.426-13.315-.014-3.6,1.087-7.793.3-11.719.213-4.02-.087-6.488-2.5-6.521-6.512q-.114-13.864.012-27.73c.033-3.559,2.247-6.125,5.689-6.214,5.063-.131,10.137.257,15.206.251a4.076,4.076,0,0,0,3.051-1.221c3.18-5.125,6.969-9.863,6.436-16.691-.409-5.229,3.351-9.178,8.109-10.3a11.471,11.471,0,0,1,12.319,5.737C1763.53-3368.643,1764.106-3364.769,1763.636-3355.11Zm-8.372,6.252c.773-3,1.859-5.434,1.926-7.894a48.881,48.881,0,0,0-.9-11.507c-.576-2.684-2.74-4.738-5.94-4.09-3.119.632-3.838,3.157-3.518,5.892a16.436,16.436,0,0,1-3.223,11.733c-2.545,3.6-5.289,7.062-7.9,10.62a2.86,2.86,0,0,0-.42,1.594c-.026,7.844-.017,15.689-.017,23.108,5.293,3.851,11.013,2.981,16.585,3.011,4.739.025,9.479,0,14.217,0,6.355,0,7.75-1.994,5.5-7.841,4.316-2.561,4.551-3.48,2.18-8.514,3.985-2.064,4.316-3.51,2.4-6.969,1.065-2.6,2.677-4.626,2.439-6.4-.372-2.78-3.2-2.772-5.592-2.756C1767.225-3348.833,1761.458-3348.858,1755.265-3348.858Zm-26.428,32.389v-27.762H1716.8v27.762Z" fill="#12263f"/>
      <g id="Group_129507" data-name="Group 129507" transform="translate(1794.994 -3359.709)">
        <path id="Path_190651" data-name="Path 190651" d="M1882.311-3326.452a24.849,24.849,0,0,1-24.332,25.107,24.888,24.888,0,0,1-25.546-24.6,24.9,24.9,0,0,1,24.517-25.315A24.9,24.9,0,0,1,1882.311-3326.452Zm-24.707-18.512a18.725,18.725,0,0,0-18.951,18.806,18.7,18.7,0,0,0,18.5,18.552,18.677,18.677,0,0,0,18.921-18.449A18.649,18.649,0,0,0,1857.6-3344.964Z" transform="translate(-1832.432 3351.267)" fill="#12263f"/>
        <rect id="Rectangle_41437" data-name="Rectangle 41437" width="6.936" height="26.493" rx="3" transform="translate(21.473 11.718)" fill="#12263f"/>
        <rect id="Rectangle_41438" data-name="Rectangle 41438" width="6.936" height="26.493" rx="3" transform="translate(38.188 21.496) rotate(90)" fill="#12263f"/>
      </g>
    </g>
  </g>
</svg>
