<svg xmlns="http://www.w3.org/2000/svg" width="187" height="187" viewBox="0 0 187 187">
  <g id="_3" data-name="3" transform="translate(-1021 -6963.999)">
    <g id="Group_130056" data-name="Group 130056" transform="translate(1030.92 6973.73)">
      <g id="Ellipse_157" data-name="Ellipse 157" transform="translate(0.08 0.269)" fill="#f3f9ff" stroke="#26defc" stroke-linejoin="round" stroke-width="10">
        <circle cx="83.5" cy="83.5" r="83.5" stroke="none"/>
        <circle cx="83.5" cy="83.5" r="88.5" fill="none"/>
      </g>
    </g>
    <g id="Group_130057" data-name="Group 130057" transform="translate(-904.378 10391.043)">
      <path id="Path_190652" data-name="Path 190652" d="M2002.119-3290.628a11.7,11.7,0,0,1-12.56,5.85c-4.851-1.142-8.685-5.168-8.267-10.5.544-6.961-3.319-11.792-6.562-17.017-.483-.779-2.047-1.243-3.111-1.245-5.169-.006-10.342.39-15.5.256-3.51-.09-5.767-2.706-5.8-6.335q-.131-14.136-.013-28.272c.034-4.094,2.551-6.55,6.649-6.639,4-.087,8.276-.891,11.948.217,4.77,1.44,8.987.336,13.575-.015,9.135-.7,18.362-.265,27.55-.151a10.54,10.54,0,0,1,10.074,8.369c.958,4.284,2,8.55,3,12.823.742,3.145,1.166,6.41,2.3,9.406,3.247,8.577-1.107,15.142-10.334,15.2-3.4.022-6.792,0-10.387,0C2005.16-3298.83,2004.573-3294.88,2002.119-3290.628Zm12.1-24.411c2.443.016,5.322.024,5.7-2.811.242-1.81-1.4-3.873-2.487-6.527,1.958-3.527,1.62-5-2.443-7.106,2.417-5.132,2.177-6.069-2.223-8.68,2.3-5.961.875-7.992-5.6-7.995-4.831,0-9.663-.022-14.5,0-5.681.03-11.513-.856-16.91,3.07,0,7.565-.009,15.563.018,23.56a2.919,2.919,0,0,0,.429,1.626c2.66,3.627,5.457,7.156,8.052,10.828a16.759,16.759,0,0,1,3.286,11.962c-.327,2.788.407,5.362,3.587,6.006,3.263.661,5.469-1.434,6.057-4.17a49.848,49.848,0,0,0,.921-11.732c-.068-2.508-1.176-4.988-1.964-8.048C2002.46-3315.052,2008.34-3315.078,2014.219-3315.04Zm-57.294-33.035v28.3H1969.2v-28.3Z" fill="#12263f"/>
      <g id="Group_129509" data-name="Group 129509" transform="translate(2036.652 -3354.894)">
        <path id="Path_190653" data-name="Path 190653" d="M2123.287-3329.594a25.336,25.336,0,0,1-24.808,25.6,25.375,25.375,0,0,1-26.046-25.082,25.39,25.39,0,0,1,25-25.81A25.383,25.383,0,0,1,2123.287-3329.594Zm-25.191-18.874a19.091,19.091,0,0,0-19.322,19.173,19.07,19.07,0,0,0,18.862,18.916,19.043,19.043,0,0,0,19.292-18.81A19.013,19.013,0,0,0,2098.1-3348.468Z" transform="translate(-2072.432 3354.894)" fill="#12263f"/>
        <rect id="Rectangle_41439" data-name="Rectangle 41439" width="7.072" height="27.011" rx="3" transform="translate(38.935 21.917) rotate(90)" fill="#12263f"/>
      </g>
    </g>
  </g>
</svg>
