<svg xmlns="http://www.w3.org/2000/svg" width="84.7" height="84.7" viewBox="0 0 84.7 84.7">
  <g id="_5" data-name="5" transform="translate(-0.001)">
    <path id="Path_193409" data-name="Path 193409" d="M7.5,95.785v61.552a6.061,6.061,0,0,0,6.062,6.062h70.1a6.062,6.062,0,0,0,6.062-6.062V95.785Z" transform="translate(-6.259 -79.939)" fill="#b9ddfc"/>
    <path id="Path_193410" data-name="Path 193410" d="M12.464,157.337V95.785H7.5v61.552a6.061,6.061,0,0,0,6.062,6.062h4.963A6.062,6.062,0,0,1,12.464,157.337Z" transform="translate(-6.259 -79.939)" fill="#90cafc"/>
    <path id="Path_193411" data-name="Path 193411" d="M89.719,13.563A6.062,6.062,0,0,0,83.658,7.5h-70.1A6.061,6.061,0,0,0,7.5,13.563V23.885H89.719Z" transform="translate(-6.259 -6.26)" fill="#ffc545"/>
    <path id="Path_193412" data-name="Path 193412" d="M18.532,7.5H13.563A6.062,6.062,0,0,0,7.5,13.562V23.884H12.47V13.562A6.062,6.062,0,0,1,18.532,7.5Z" transform="translate(-6.259 -6.259)" fill="#ffb30b"/>
    <path id="Path_193413" data-name="Path 193413" d="M287.038,257.692a1.241,1.241,0,0,0,1.241,1.241h4.715a1.241,1.241,0,1,0,0-2.481h-4.715A1.241,1.241,0,0,0,287.038,257.692Z" transform="translate(-239.553 -214.026)"/>
    <path id="Path_193414" data-name="Path 193414" d="M176.645,257.692a1.241,1.241,0,0,0-1.241-1.241H159.126a1.241,1.241,0,1,0,0,2.481H175.4A1.241,1.241,0,0,0,176.645,257.692Z" transform="translate(-131.765 -214.026)"/>
    <path id="Path_193415" data-name="Path 193415" d="M362.708,256.451H347.033a1.241,1.241,0,1,0,0,2.481h15.675a1.241,1.241,0,1,0,0-2.481Z" transform="translate(-288.587 -214.026)"/>
    <path id="Path_193416" data-name="Path 193416" d="M232.74,186.928a1.241,1.241,0,1,0,0-2.481h-4.715a1.241,1.241,0,1,0,0,2.481Z" transform="translate(-189.266 -153.934)"/>
    <path id="Path_193417" data-name="Path 193417" d="M103.018,294.935h4.715a1.241,1.241,0,1,0,0-2.481h-4.715a1.241,1.241,0,0,0,0,2.481Z" transform="translate(-84.939 -244.073)"/>
    <path id="Path_193418" data-name="Path 193418" d="M103.018,366.939h4.715a1.241,1.241,0,1,0,0-2.481h-4.715a1.241,1.241,0,1,0,0,2.481Z" transform="translate(-84.939 -304.166)"/>
    <path id="Path_193419" data-name="Path 193419" d="M303.557,184.446H287.279a1.241,1.241,0,1,0,0,2.481h16.279a1.241,1.241,0,1,0,0-2.481Z" transform="translate(-238.718 -153.933)"/>
    <path id="Path_193420" data-name="Path 193420" d="M325.319,222.93a1.241,1.241,0,0,0,0-2.481H320.6a1.241,1.241,0,0,0,0,2.481Z" transform="translate(-266.53 -183.98)"/>
    <path id="Path_193421" data-name="Path 193421" d="M190.208,221.69a1.241,1.241,0,0,0,1.241,1.241h16.279a1.241,1.241,0,0,0,0-2.481H191.449A1.241,1.241,0,0,0,190.208,221.69Z" transform="translate(-158.741 -183.98)"/>
    <path id="Path_193422" data-name="Path 193422" d="M191.449,330.937h4.715a1.241,1.241,0,0,0,0-2.481h-4.715a1.241,1.241,0,1,0,0,2.481Z" transform="translate(-158.741 -274.12)"/>
    <path id="Path_193423" data-name="Path 193423" d="M268.222,329.7a1.241,1.241,0,0,0-1.241-1.241H250.7a1.241,1.241,0,0,0,0,2.481h16.279A1.241,1.241,0,0,0,268.222,329.7Z" transform="translate(-208.193 -274.119)"/>
    <path id="Path_193424" data-name="Path 193424" d="M103.018,186.928h15.675a1.241,1.241,0,1,0,0-2.481H103.018a1.241,1.241,0,1,0,0,2.481Z" transform="translate(-84.939 -153.934)"/>
    <path id="Path_193425" data-name="Path 193425" d="M103.018,150.942h15.436a1.241,1.241,0,0,0,0-2.481H103.018a1.241,1.241,0,0,0,0,2.481Z" transform="translate(-84.939 -123.901)"/>
    <path id="Path_193426" data-name="Path 193426" d="M103.018,438.943h15.436a1.241,1.241,0,0,0,0-2.481H103.018a1.241,1.241,0,0,0,0,2.481Z" transform="translate(-84.939 -364.258)"/>
    <path id="Path_193427" data-name="Path 193427" d="M56,51.907a1.339,1.339,0,0,0,.215-.114,1.238,1.238,0,0,0,.343-.344A1.218,1.218,0,0,0,56.745,51a1.2,1.2,0,0,0,.025-.243,1.188,1.188,0,0,0-.025-.242,1.287,1.287,0,0,0-.069-.233,1.262,1.262,0,0,0-.114-.213,1.317,1.317,0,0,0-.154-.189,1.288,1.288,0,0,0-.189-.155A1.211,1.211,0,0,0,56,49.616a1.146,1.146,0,0,0-.232-.071,1.2,1.2,0,0,0-.485,0,1.281,1.281,0,0,0-.447.184,1.273,1.273,0,0,0-.344.344,1.209,1.209,0,0,0-.183.447,1.175,1.175,0,0,0-.025.242,1.216,1.216,0,0,0,.025.243,1.235,1.235,0,0,0,.069.231,1.25,1.25,0,0,0,.114.213,1.234,1.234,0,0,0,.156.189,1.216,1.216,0,0,0,.189.155,1.245,1.245,0,0,0,.213.114,1.262,1.262,0,0,0,.233.069A1.184,1.184,0,0,0,55.53,52a1.224,1.224,0,0,0,.243-.025A1.245,1.245,0,0,0,56,51.907Z" transform="translate(-45.307 -41.328)"/>
    <path id="Path_193428" data-name="Path 193428" d="M88.314,50.072a1.317,1.317,0,0,0-.154-.189,1.288,1.288,0,0,0-.189-.155,1.212,1.212,0,0,0-.215-.113,1.146,1.146,0,0,0-.232-.071,1.2,1.2,0,0,0-.485,0,1.281,1.281,0,0,0-.447.184,1.273,1.273,0,0,0-.344.344,1.209,1.209,0,0,0-.183.447,1.174,1.174,0,0,0-.025.242,1.216,1.216,0,0,0,.025.243,1.234,1.234,0,0,0,.069.231,1.25,1.25,0,0,0,.114.213,1.234,1.234,0,0,0,.156.189,1.216,1.216,0,0,0,.189.155,1.245,1.245,0,0,0,.213.114,1.262,1.262,0,0,0,.233.069,1.184,1.184,0,0,0,.242.025,1.226,1.226,0,0,0,.243-.025,1.246,1.246,0,0,0,.232-.069,1.339,1.339,0,0,0,.215-.114,1.238,1.238,0,0,0,.343-.344A1.218,1.218,0,0,0,88.5,51a1.2,1.2,0,0,0,.025-.243,1.188,1.188,0,0,0-.025-.242,1.287,1.287,0,0,0-.069-.233A1.244,1.244,0,0,0,88.314,50.072Z" transform="translate(-71.806 -41.327)"/>
    <path id="Path_193429" data-name="Path 193429" d="M120.066,50.072a1.233,1.233,0,0,0-.156-.189,1.155,1.155,0,0,0-.4-.268,1.146,1.146,0,0,0-.232-.071,1.2,1.2,0,0,0-.485,0,1.281,1.281,0,0,0-.447.184,1.273,1.273,0,0,0-.344.344,1.209,1.209,0,0,0-.183.447,1.175,1.175,0,0,0-.025.242,1.216,1.216,0,0,0,.025.243,1.234,1.234,0,0,0,.069.231,1.249,1.249,0,0,0,.114.213,1.233,1.233,0,0,0,.156.189,1.216,1.216,0,0,0,.189.155,1.245,1.245,0,0,0,.213.114,1.262,1.262,0,0,0,.233.069,1.184,1.184,0,0,0,.242.025,1.226,1.226,0,0,0,.243-.025,1.245,1.245,0,0,0,.232-.069,1.339,1.339,0,0,0,.215-.114,1.3,1.3,0,0,0,.342-.344,1.218,1.218,0,0,0,.183-.445,1.2,1.2,0,0,0,.025-.243,1.187,1.187,0,0,0-.025-.242,1.247,1.247,0,0,0-.069-.233A1.234,1.234,0,0,0,120.066,50.072Z" transform="translate(-98.306 -41.327)"/>
    <path id="Path_193430" data-name="Path 193430" d="M158.037,49.521a1.241,1.241,0,1,0,0,2.481H194.02a1.241,1.241,0,0,0,0-2.481Z" transform="translate(-130.856 -41.329)"/>
    <path id="Path_193431" data-name="Path 193431" d="M412.812,50.762A1.241,1.241,0,0,0,414.053,52h4.715a1.241,1.241,0,0,0,0-2.481h-4.715A1.241,1.241,0,0,0,412.812,50.762Z" transform="translate(-344.52 -41.329)"/>
    <path id="Path_193432" data-name="Path 193432" d="M59,184.446H56.531a1.241,1.241,0,1,0,0,2.481H59a1.241,1.241,0,1,0,0-2.481Z" transform="translate(-46.143 -153.933)"/>
    <path id="Path_193433" data-name="Path 193433" d="M59,148.444H56.531a1.241,1.241,0,1,0,0,2.481H59a1.241,1.241,0,1,0,0-2.481Z" transform="translate(-46.143 -123.887)"/>
    <path id="Path_193434" data-name="Path 193434" d="M59,220.448H56.531a1.241,1.241,0,1,0,0,2.481H59a1.241,1.241,0,1,0,0-2.481Z" transform="translate(-46.143 -183.979)"/>
    <path id="Path_193435" data-name="Path 193435" d="M59,256.451H56.531a1.241,1.241,0,1,0,0,2.481H59a1.241,1.241,0,1,0,0-2.481Z" transform="translate(-46.143 -214.026)"/>
    <path id="Path_193436" data-name="Path 193436" d="M59,292.453H56.531a1.241,1.241,0,1,0,0,2.481H59a1.241,1.241,0,0,0,0-2.481Z" transform="translate(-46.143 -244.073)"/>
    <path id="Path_193437" data-name="Path 193437" d="M59,328.455H56.531a1.241,1.241,0,1,0,0,2.481H59a1.241,1.241,0,0,0,0-2.481Z" transform="translate(-46.143 -274.119)"/>
    <path id="Path_193438" data-name="Path 193438" d="M59,364.457H56.531a1.241,1.241,0,1,0,0,2.481H59a1.241,1.241,0,1,0,0-2.481Z" transform="translate(-46.143 -304.165)"/>
    <path id="Path_193439" data-name="Path 193439" d="M59,400.459H56.531a1.241,1.241,0,0,0,0,2.481H59a1.241,1.241,0,0,0,0-2.481Z" transform="translate(-46.143 -334.211)"/>
    <path id="Path_193440" data-name="Path 193440" d="M59,436.461H56.531a1.241,1.241,0,1,0,0,2.481H59a1.241,1.241,0,1,0,0-2.481Z" transform="translate(-46.143 -364.257)"/>
    <path id="Path_193441" data-name="Path 193441" d="M103.018,258.932h4.715a1.241,1.241,0,1,0,0-2.481h-4.715a1.241,1.241,0,1,0,0,2.481Z" transform="translate(-84.939 -214.026)"/>
    <path id="Path_193442" data-name="Path 193442" d="M228.026,402.941h4.715a1.241,1.241,0,0,0,0-2.481h-4.715a1.241,1.241,0,1,0,0,2.481Z" transform="translate(-189.267 -334.212)"/>
    <path id="Path_193443" data-name="Path 193443" d="M287.279,402.941h16.279a1.241,1.241,0,0,0,0-2.481H287.279a1.241,1.241,0,0,0,0,2.481Z" transform="translate(-238.718 -334.212)"/>
    <path id="Path_193444" data-name="Path 193444" d="M103.018,402.941h15.675a1.241,1.241,0,1,0,0-2.481H103.018a1.241,1.241,0,0,0,0,2.481Z" transform="translate(-84.939 -334.212)"/>
    <path id="Path_193445" data-name="Path 193445" d="M418,400.459h-4.715a1.241,1.241,0,0,0,0,2.481H418a1.241,1.241,0,0,0,0-2.481Z" transform="translate(-343.88 -334.211)"/>
    <path id="Path_193446" data-name="Path 193446" d="M144.385,0h-2.613a1.241,1.241,0,0,0,0,2.481h2.613A4.827,4.827,0,0,1,149.206,7.3v9.082h-67.7a1.241,1.241,0,0,0,0,2.481h67.7V64.593a1.241,1.241,0,0,0,2.481,0V7.3A7.311,7.311,0,0,0,144.385,0Z" transform="translate(-66.987)"/>
    <path id="Path_193447" data-name="Path 193447" d="M83.46,69.144a1.241,1.241,0,0,0-1.241,1.241V77.4A4.827,4.827,0,0,1,77.4,82.219H7.3A4.827,4.827,0,0,1,2.482,77.4V18.867H8.729a1.241,1.241,0,1,0,0-2.481H2.482V7.3A4.826,4.826,0,0,1,7.3,2.482H69A1.241,1.241,0,0,0,69,0H7.3A7.31,7.31,0,0,0,0,7.3V77.4a7.311,7.311,0,0,0,7.3,7.3H77.4a7.311,7.311,0,0,0,7.3-7.3V70.385A1.241,1.241,0,0,0,83.46,69.144Z" transform="translate(0 -0.001)"/>
  </g>
</svg>
