<svg xmlns="http://www.w3.org/2000/svg" width="85" height="84.988" viewBox="0 0 85 84.988">
  <g id="_7" data-name="7" transform="translate(0 -0.033)">
    <path id="Path_193497" data-name="Path 193497" d="M7.572,83.182v55.909a5.45,5.45,0,0,0,5.45,5.45H76.04a5.45,5.45,0,0,0,5.45-5.45V83.182Z" transform="translate(-6.315 -69.345)" fill="#b9ddfc"/>
    <path id="Path_193498" data-name="Path 193498" d="M12.552,139.091V83.182H7.572v55.909a5.45,5.45,0,0,0,5.45,5.45H18A5.45,5.45,0,0,1,12.552,139.091Z" transform="translate(-6.315 -69.345)" fill="#90cafc"/>
    <path id="Path_193499" data-name="Path 193499" d="M85.709,213.411,75.541,203.243a2.241,2.241,0,0,1,0-3.169l10.168-10.168a2.241,2.241,0,0,1,3.169,3.169l-8.583,8.583,8.583,8.583a2.241,2.241,0,1,1-3.169,3.169Z" transform="translate(-62.453 -157.804)" fill="#ffc545"/>
    <path id="Path_193500" data-name="Path 193500" d="M78.75,203.243a2.241,2.241,0,0,1,0-3.169L88.9,189.927a2.238,2.238,0,0,0-3.188-.021L75.541,200.074a2.241,2.241,0,0,0,0,3.169l10.168,10.168a2.238,2.238,0,0,0,3.188-.021Z" transform="translate(-62.453 -157.804)" fill="#ffb30b"/>
    <path id="Path_193501" data-name="Path 193501" d="M187.732,201.557a2.241,2.241,0,0,1-1.339-2.872l9.64-26.486a2.241,2.241,0,1,1,4.212,1.533l-9.64,26.486A2.241,2.241,0,0,1,187.732,201.557Z" transform="translate(-155.336 -142.353)" fill="#ffc545"/>
    <path id="Path_193502" data-name="Path 193502" d="M188.693,198.683c10.043-27.057,9.3-26.859,10.585-27.636a2.241,2.241,0,0,0-3.269,1.149l-9.64,26.487a2.243,2.243,0,0,0,3.267,2.682A2.24,2.24,0,0,1,188.693,198.683Z" transform="translate(-155.312 -142.352)" fill="#ffb30b"/>
    <path id="Path_193503" data-name="Path 193503" d="M381.272,374.128l-1-.975c-1.449-1.412-.6-3.135-.579-3.846a1.593,1.593,0,0,0-1.342-1.847c-.678-.2-2.6.064-3.491-1.74l-.619-1.255a1.592,1.592,0,0,0-2.171-.705c-.667.237-2.063,1.578-3.844.642L367,363.759a1.594,1.594,0,0,0-2.171.705c-.4.591-.747,2.507-2.741,2.8l-1.369.2a1.593,1.593,0,0,0-1.342,1.847c.019.7.862,2.442-.579,3.846l-1,.975a1.593,1.593,0,0,0,0,2.283l1,.975c1.449,1.412.6,3.135.579,3.847a1.593,1.593,0,0,0,1.342,1.846c.678.2,2.6-.064,3.491,1.741l.62,1.255a1.594,1.594,0,0,0,1.432.89c.616,0,.9-.312,1.96-.826,1.793-.943,3.158.4,3.844.642a1.593,1.593,0,0,0,2.171-.706l.619-1.255c.9-1.815,2.8-1.536,3.491-1.741a1.592,1.592,0,0,0,1.342-1.846l-.232-1.352c-.343-2,1.364-2.89,1.811-3.47A1.593,1.593,0,0,0,381.272,374.128Z" transform="translate(-297.999 -303.189)" fill="#60e9fc"/>
    <path id="Path_193504" data-name="Path 193504" d="M363.794,380.149c-.98,1.152-2.161.9-3.072,1.133a1.593,1.593,0,0,0-1.342,1.847c.019.7.862,2.442-.579,3.846l-1,.975a1.593,1.593,0,0,0,0,2.283l1,.975c1.449,1.412.6,3.135.579,3.846a1.593,1.593,0,0,0,1.342,1.847c.677.2,2.6-.064,3.491,1.741l.619,1.255a1.594,1.594,0,0,0,1.432.889c.616,0,.9-.312,1.961-.826,1.793-.943,3.157.4,3.844.642a1.593,1.593,0,0,0,2.171-.705c.463-.736.678-2.116,2.2-2.659A12.529,12.529,0,0,1,363.794,380.149Z" transform="translate(-298 -317.011)" fill="#00defc"/>
    <path id="Path_193505" data-name="Path 193505" d="M81.489,12.983a5.45,5.45,0,0,0-5.45-5.45H13.022a5.45,5.45,0,0,0-5.45,5.45v9.281H81.489Z" transform="translate(-6.315 -6.255)" fill="#ffc545"/>
    <path id="Path_193506" data-name="Path 193506" d="M18,7.533h-4.98a5.45,5.45,0,0,0-5.45,5.45v9.281h4.98V12.983A5.449,5.449,0,0,1,18,7.533Z" transform="translate(-6.315 -6.255)" fill="#ffb30b"/>
    <path id="Path_193507" data-name="Path 193507" d="M301.086,213.411l10.168-10.168a2.241,2.241,0,0,0,0-3.169l-10.168-10.168a2.241,2.241,0,0,0-3.169,3.169l8.584,8.583-8.584,8.583a2.241,2.241,0,1,0,3.169,3.169Z" transform="translate(-247.911 -157.804)" fill="#ffb30b"/>
    <path id="Path_193508" data-name="Path 193508" d="M311.247,203.243a2.241,2.241,0,0,0,0-3.169L301.1,189.927a2.238,2.238,0,0,1,3.188-.021l10.168,10.168a2.241,2.241,0,0,1,0,3.169l-10.168,10.168a2.239,2.239,0,0,1-3.188-.021Z" transform="translate(-251.113 -157.804)" fill="#ffc545"/>
    <path id="Path_193509" data-name="Path 193509" d="M50.987,44.955a1.2,1.2,0,0,0-.154-.189,1.128,1.128,0,0,0-.189-.154,1.251,1.251,0,0,0-.214-.115,1.31,1.31,0,0,0-.232-.071,1.269,1.269,0,0,0-.488,0,1.289,1.289,0,0,0-.232.071,1.257,1.257,0,0,0-.214.115,1.134,1.134,0,0,0-.189.154,1.3,1.3,0,0,0-.156.189,1.253,1.253,0,0,0-.114.216,1.237,1.237,0,0,0-.07.232,1.178,1.178,0,0,0-.025.242,1.247,1.247,0,0,0,1.245,1.245,1.217,1.217,0,0,0,.244-.023,1.293,1.293,0,0,0,.232-.071,1.26,1.26,0,0,0,.214-.115,1.139,1.139,0,0,0,.189-.156,1.247,1.247,0,0,0,.365-.88,1.191,1.191,0,0,0-.025-.242,1.131,1.131,0,0,0-.071-.232A1.17,1.17,0,0,0,50.987,44.955Z" transform="translate(-40.622 -37.003)"/>
    <path id="Path_193510" data-name="Path 193510" d="M79.434,44.955a1.213,1.213,0,0,0-.154-.189,1.139,1.139,0,0,0-.189-.154,1.253,1.253,0,0,0-.214-.115,1.326,1.326,0,0,0-.234-.071,1.229,1.229,0,0,0-.719.071,1.334,1.334,0,0,0-.216.115,1.211,1.211,0,0,0-.189.154,1.3,1.3,0,0,0-.154.189,1.254,1.254,0,0,0-.115.216,1.149,1.149,0,0,0-.07.232,1.19,1.19,0,0,0-.025.242,1.253,1.253,0,0,0,.363.88,1.209,1.209,0,0,0,.189.156,1.337,1.337,0,0,0,.216.115,1.27,1.27,0,0,0,.232.071,1.217,1.217,0,0,0,.244.023,1.247,1.247,0,0,0,1.245-1.245,1.187,1.187,0,0,0-.025-.242,1.142,1.142,0,0,0-.071-.232A1.175,1.175,0,0,0,79.434,44.955Z" transform="translate(-64.346 -37.003)"/>
    <path id="Path_193511" data-name="Path 193511" d="M107.874,44.955a1.2,1.2,0,0,0-.154-.189,1.239,1.239,0,0,0-1.356-.269,1.276,1.276,0,0,0-.216.115,1.2,1.2,0,0,0-.189.154,1.3,1.3,0,0,0-.154.189,1.259,1.259,0,0,0-.115.216,1.272,1.272,0,0,0-.071.232,1.182,1.182,0,0,0-.025.242,1.255,1.255,0,0,0,.365.88,1.2,1.2,0,0,0,.189.156,1.284,1.284,0,0,0,.448.186,1.2,1.2,0,0,0,.244.023,1.244,1.244,0,0,0,1.243-1.245,1.19,1.19,0,0,0-.023-.242,1.287,1.287,0,0,0-.186-.448Z" transform="translate(-88.063 -37.003)"/>
    <path id="Path_193512" data-name="Path 193512" d="M141.786,44.4a1.245,1.245,0,1,0,0,2.49h32.35a1.245,1.245,0,0,0,0-2.49Z" transform="translate(-117.209 -37)"/>
    <path id="Path_193513" data-name="Path 193513" d="M376.626,45.643a1.245,1.245,0,0,0-1.245-1.245h-4.239a1.245,1.245,0,0,0,0,2.49h4.239A1.245,1.245,0,0,0,376.626,45.643Z" transform="translate(-308.489 -37)"/>
    <path id="Path_193514" data-name="Path 193514" d="M81.037,181.751a3.463,3.463,0,0,0-2.465,1.021L68.4,192.94a3.487,3.487,0,0,0,0,4.93l10.168,10.168a3.486,3.486,0,0,0,4.93-4.93l-7.7-7.7,7.7-7.7A3.49,3.49,0,0,0,81.037,181.751Zm.7,4.19c-8.826,9.009-8.948,8.54-8.948,9.464s.12.453,8.948,9.464a1,1,0,1,1-1.409,1.408L70.165,196.109a1,1,0,0,1,0-1.408l10.169-10.168a1,1,0,0,1,1.409,1.409Z" transform="translate(-56.197 -151.55)"/>
    <path id="Path_193515" data-name="Path 193515" d="M290.777,208.039a3.485,3.485,0,0,0,4.93,0l10.167-10.168a3.487,3.487,0,0,0,0-4.93l-10.168-10.168a3.486,3.486,0,1,0-4.93,4.931l7.7,7.7-7.7,7.7A3.484,3.484,0,0,0,290.777,208.039Zm10.344-11.753a1.244,1.244,0,0,0,0-1.761l-8.583-8.583a1,1,0,1,1,1.408-1.409c10.437,10.583,10.46,10.1,10.46,10.872a.988.988,0,0,1-.292.7l-10.168,10.168a1,1,0,0,1-1.7-.7C292.246,204.8,292.375,205.177,301.121,196.286Z" transform="translate(-241.652 -151.551)"/>
    <path id="Path_193516" data-name="Path 193516" d="M188.6,165.552l-9.64,26.487a3.486,3.486,0,1,0,6.551,2.385l9.64-26.486a3.486,3.486,0,1,0-6.551-2.385Zm4.212,1.533-9.64,26.486a1,1,0,0,1-1.839.08c-.331-.711-.4.551,9.607-27.248a1,1,0,1,1,1.872.681Z" transform="translate(-149.068 -136.133)"/>
    <path id="Path_193517" data-name="Path 193517" d="M168.073,332.854c.057-.882.717-2.143-.269-3.5-1.434-1.973-3.634-.562-4.443-2.2-.52-.926-.651-1.719-1.558-2.339v-5.576a1.245,1.245,0,0,0-2.49,0v5.219c-1.2.393-1.975,1.431-3.124.828-.844-.348-1.847-1.341-3.421-.829-2.317.753-1.665,3.3-3.471,3.559-.866.221-2.271-.018-3.258,1.339s-.313,2.668-.261,3.654c.06,1.146-.684,1.3-1.461,2.215a2.807,2.807,0,0,0-.858,2.033,2.841,2.841,0,0,0,.7,1.87H103.626a1.245,1.245,0,0,0,0,2.49h42.147c-.087.943-.7,2.206.266,3.542a2.815,2.815,0,0,0,1.807,1.127c.89.223,2.1-.013,2.636,1.073.366.5.82,2.839,3.167,2.839a3.379,3.379,0,0,0,1.757-.56c.583-.322.694-.363.783-.409,1.075-.565,1.874.32,2.686.642a2.839,2.839,0,0,0,3.867-1.256c.459-.725.606-1.941,1.8-2.116l1.369-.2a2.816,2.816,0,0,0,1.889-1.14c.985-1.356.326-2.621.269-3.5-.31-1.807,2.311-1.958,2.311-4.4C170.384,334.837,167.765,334.655,168.073,332.854Zm-1.285,5.626c-1.99,1.94-.94,4.309-.937,4.948.174,1.02-3.179-.3-4.723,2.826-.612,1.135-.568,1.349-.824,1.433-.584.188-2.5-2.1-5.254-.676a9.342,9.342,0,0,1-1.4.694c-.387,0-.379-.479-.935-1.45-1.373-2.782-4.3-2.06-4.661-2.562s1.154-2.9-.845-5.056c-1.639-1.759-1.688-1-.153-2.607,2.228-2.172.639-4.719,1-5.212.159-.219.367-.114,1.6-.339,3.164-.459,3.245-3.612,3.966-3.669.175-.014.162.043,1.409.679,3.071,1.615,5.024-1.408,5.478-.488l.619,1.255c1.375,2.786,4.3,2.06,4.661,2.562.16.219,0,.383-.171,1.616-.526,3.069,2.275,4.211,2.275,4.821A7.83,7.83,0,0,1,166.788,338.48Z" transform="translate(-85.384 -265.174)"/>
    <path id="Path_193518" data-name="Path 193518" d="M413.182,412.067a1.245,1.245,0,0,0-1.757.117l-3.9,4.458-1.293-1.578a1.245,1.245,0,1,0-1.926,1.578l2.225,2.716a1.245,1.245,0,0,0,1.9.031l4.868-5.564A1.246,1.246,0,0,0,413.182,412.067Z" transform="translate(-336.95 -343.373)"/>
    <path id="Path_193519" data-name="Path 193519" d="M12.432,73.95H6.706a4.209,4.209,0,0,1-4.2-4.2V17.253H61.868a1.245,1.245,0,0,0,0-2.49H2.5c.15-7.663-.355-8.452.508-10.038a4.208,4.208,0,0,1,3.7-2.2H69.725a4.209,4.209,0,0,1,4.2,4.2v8.036H67.678a1.245,1.245,0,1,0,0,2.49h6.252v31a1.245,1.245,0,1,0,2.49,0V6.728A6.69,6.69,0,0,0,69.724.033H6.706A6.706,6.706,0,0,0,.148,5.38C-.06,6.395.012,2.533.012,69.746A6.7,6.7,0,0,0,6.706,76.44h5.725a1.245,1.245,0,0,0,0-2.49Z" transform="translate(0)"/>
  </g>
</svg>
