<svg id="a1" xmlns="http://www.w3.org/2000/svg" width="56.936" height="74.749" viewBox="0 0 56.936 74.749">
  <g id="Speech_Bubble" data-name="Speech Bubble" transform="translate(0)">
    <g id="Speach_Bubble" data-name="Speach Bubble">
      <g id="Group_132168" data-name="Group 132168">
        <path id="Path_193140" data-name="Path 193140" d="M1157.995,321.506l34.115,19.654a3.013,3.013,0,0,1,1.364,2.36v46.659a2.973,2.973,0,0,1-1.371,2.346l-5.421,3.082a3.05,3.05,0,0,1-2.733-.014l-34.116-19.654a3.012,3.012,0,0,1-1.362-2.36V326.922a2.973,2.973,0,0,1,1.37-2.347l5.421-3.082A3.047,3.047,0,0,1,1157.995,321.506Z" transform="translate(-1148.471 -321.174)" fill="#ffb30b"/>
        <path id="Path_193141" data-name="Path 193141" d="M1148.471,395.593a3.123,3.123,0,0,0,2.735.016l5.418-3.087a2.963,2.963,0,0,0,1.372-2.343V343.52a2.813,2.813,0,0,0-.434-1.391l-8.131,4.68a2.713,2.713,0,0,1,.4,1.341V394.8C1149.833,395.6,1149.273,396.059,1148.471,395.593Z" transform="translate(-1112.993 -321.174)" opacity="0.2"/>
        <path id="Path_193142" data-name="Path 193142" d="M1148.9,326.675c.107-.686.667-.932,1.347-.542l34.109,19.656a2.788,2.788,0,0,1,.963,1.02l8.138-4.68a2.73,2.73,0,0,0-.938-.969L1158.4,321.5a3.045,3.045,0,0,0-2.732-.013l-5.418,3.081A3.009,3.009,0,0,0,1148.9,326.675Z" transform="translate(-1148.88 -321.174)" fill="#fff" opacity="0.4"/>
        <g id="Group_132167" data-name="Group 132167" transform="translate(0 4.775)">
          <path id="Path_193143" data-name="Path 193143" d="M1148.434,378.121c.856-.51,7.382-4.187,7.59-4.307a1.27,1.27,0,0,0,.27-1.945L1144.7,357.4l-8.162,4.68,12.128,14.127A1.287,1.287,0,0,1,1148.434,378.121Z" transform="translate(-1099.697 -325.949)" fill="#ffb30b"/>
          <path id="Path_193144" data-name="Path 193144" d="M1148.434,378.121c.856-.51,7.382-4.187,7.59-4.307a1.27,1.27,0,0,0,.27-1.945L1144.7,357.4l-8.162,4.68,12.128,14.127A1.287,1.287,0,0,1,1148.434,378.121Z" transform="translate(-1099.697 -325.949)" fill="#fff" opacity="0.4"/>
          <path id="Path_193145" data-name="Path 193145" d="M1145.5,326.135l34.116,19.655a3.013,3.013,0,0,1,1.363,2.36v13.936l12.13,14.122a1.222,1.222,0,0,1-.779,2.09l-11.351,1.517h0v14.992c0,.869-.611,1.221-1.363.786L1145.5,375.939a3.012,3.012,0,0,1-1.362-2.36V326.922C1144.136,326.053,1144.746,325.7,1145.5,326.135Z" transform="translate(-1144.136 -325.949)" fill="#cc8f09"/>
        </g>
      </g>
    </g>
  </g>
  <path id="Gear" d="M1162.455,358.014l2.754-.142c.194-.01.336-.278.329-.6a15.918,15.918,0,0,1,.1-2.3,1.578,1.578,0,0,0-.171-.948l-2.726-3.868a.95.95,0,0,1-.027-.853l1.358-2.927c.125-.272.354-.357.511-.192l3.034,3.2a.449.449,0,0,0,.608.007,4.881,4.881,0,0,1,1.328-.794.626.626,0,0,0,.265-.68l-.671-4.348c-.048-.307.069-.537.261-.514l3.216.38a.756.756,0,0,1,.5.548l1.334,4.539a1.227,1.227,0,0,0,.476.67,12.464,12.464,0,0,1,2.042,1.351.4.4,0,0,0,.577-.171l1.494-2.294c.151-.232.4-.272.544-.09l3.177,3.9a1.056,1.056,0,0,1,.1.876l-.946,2.966a1.372,1.372,0,0,0,.057.949,26.465,26.465,0,0,1,1.359,2.825,1.012,1.012,0,0,0,.526.561l3.049.841a.868.868,0,0,1,.46.626l1.107,4.927c.066.294-.038.54-.233.55l-2.754.142c-.194.01-.336.278-.329.6a15.947,15.947,0,0,1-.1,2.3,1.59,1.59,0,0,0,.171.949l2.726,3.868a.948.948,0,0,1,.027.852l-1.357,2.927c-.126.271-.355.357-.512.192l-3.034-3.2a.449.449,0,0,0-.608-.007,4.885,4.885,0,0,1-1.328.794.626.626,0,0,0-.265.68l.671,4.348c.048.307-.069.537-.261.515l-3.216-.381a.756.756,0,0,1-.5-.548l-1.334-4.539a1.227,1.227,0,0,0-.476-.67,12.514,12.514,0,0,1-2.042-1.351.4.4,0,0,0-.576.171l-1.494,2.294c-.152.232-.4.272-.544.089l-3.178-3.9a1.05,1.05,0,0,1-.1-.875l.945-2.967a1.377,1.377,0,0,0-.056-.949,26.285,26.285,0,0,1-1.36-2.825,1.009,1.009,0,0,0-.526-.56l-3.048-.841a.87.87,0,0,1-.461-.627l-1.107-4.927C1162.156,358.27,1162.26,358.024,1162.455,358.014Zm7.581,3.873c1.01,4.5,4.208,8.423,7.144,8.771s4.495-3.017,3.485-7.514-4.209-8.423-7.145-8.771S1169.025,357.39,1170.036,361.887Z" transform="translate(-1157.226 -321.174)" fill="#fafafa"/>
</svg>
