<svg id="a2" xmlns="http://www.w3.org/2000/svg" width="56.936" height="74.749" viewBox="0 0 56.936 74.749">
  <g id="Speech_Bubble" data-name="Speech Bubble" transform="translate(0 0)">
    <g id="Speach_Bubble" data-name="Speach Bubble">
      <g id="Group_132172" data-name="Group 132172">
        <path id="Path_193154" data-name="Path 193154" d="M1221.995,357.4l34.115,19.655a3.011,3.011,0,0,1,1.364,2.36v46.658a2.972,2.972,0,0,1-1.371,2.346l-5.421,3.082a3.053,3.053,0,0,1-2.733-.013l-34.116-19.654a3.015,3.015,0,0,1-1.362-2.361V362.817a2.975,2.975,0,0,1,1.37-2.347l5.421-3.082A3.053,3.053,0,0,1,1221.995,357.4Z" transform="translate(-1212.471 -357.07)" fill="#ffb30b"/>
        <path id="Path_193155" data-name="Path 193155" d="M1212.471,431.489a3.123,3.123,0,0,0,2.735.016l5.418-3.088a2.963,2.963,0,0,0,1.372-2.343V379.416a2.81,2.81,0,0,0-.434-1.391l-8.131,4.68a2.707,2.707,0,0,1,.4,1.34V430.7C1213.833,431.5,1213.273,431.954,1212.471,431.489Z" transform="translate(-1176.993 -357.07)" opacity="0.2"/>
        <path id="Path_193156" data-name="Path 193156" d="M1212.9,362.57c.107-.686.667-.931,1.347-.541l34.11,19.656a2.781,2.781,0,0,1,.963,1.02l8.138-4.68a2.734,2.734,0,0,0-.938-.97L1222.4,357.4a3.048,3.048,0,0,0-2.732-.012l-5.418,3.081A3,3,0,0,0,1212.9,362.57Z" transform="translate(-1212.88 -357.07)" fill="#fff" opacity="0.4"/>
        <g id="Group_132171" data-name="Group 132171" transform="translate(0 4.775)">
          <path id="Path_193157" data-name="Path 193157" d="M1212.433,414.016c.856-.509,7.382-4.187,7.59-4.306a1.27,1.27,0,0,0,.27-1.945L1208.7,393.3l-8.162,4.681,12.128,14.127A1.286,1.286,0,0,1,1212.433,414.016Z" transform="translate(-1163.697 -361.844)" fill="#ffb30b"/>
          <path id="Path_193158" data-name="Path 193158" d="M1212.433,414.016c.856-.509,7.382-4.187,7.59-4.306a1.27,1.27,0,0,0,.27-1.945L1208.7,393.3l-8.162,4.681,12.128,14.127A1.286,1.286,0,0,1,1212.433,414.016Z" transform="translate(-1163.697 -361.844)" fill="#fff" opacity="0.4"/>
          <path id="Path_193159" data-name="Path 193159" d="M1209.5,362.031l34.116,19.654a3.014,3.014,0,0,1,1.363,2.36v13.936l12.13,14.123a1.222,1.222,0,0,1-.779,2.089l-11.351,1.518h0V430.7c0,.869-.611,1.221-1.363.787L1209.5,411.835a3.015,3.015,0,0,1-1.362-2.361V362.817C1208.136,361.948,1208.746,361.6,1209.5,362.031Z" transform="translate(-1208.136 -361.845)" fill="#cc8f09"/>
        </g>
      </g>
    </g>
  </g>
  <g id="_" data-name="&lt;/&gt;" transform="translate(4.395 25.918)">
    <path id="Path_193160" data-name="Path 193160" d="M1233.075,404.763a1.855,1.855,0,0,0-.131-.734,4.9,4.9,0,0,0-.375-.687l-6.983-11.288a1.094,1.094,0,0,0-.113-.133.547.547,0,0,0-.079-.058.2.2,0,0,0-.261.011.459.459,0,0,0-.1.342v4.354a1.89,1.89,0,0,0,.2.909,6.611,6.611,0,0,0,.357.6l3.055,4.692-3.055,1.193a1.413,1.413,0,0,0-.357.17q-.2.126-.2.664v4.353a1.073,1.073,0,0,0,.1.464.678.678,0,0,0,.261.312.324.324,0,0,0,.079.032.255.255,0,0,0,.113,0l6.983-3.225a.962.962,0,0,0,.375-.254.93.93,0,0,0,.131-.582Z" transform="translate(-1205.024 -382.987)" fill="#fff"/>
    <path id="Path_193161" data-name="Path 193161" d="M1237.857,385.628a3.7,3.7,0,0,0-.262-.7,1.25,1.25,0,0,0-.507-.547l-2.339-1.351a.207.207,0,0,0-.27.019.471.471,0,0,0-.113.351,1.173,1.173,0,0,0,.035.262l5.9,25.148a3.271,3.271,0,0,0,.244.678,1.274,1.274,0,0,0,.524.572l2.287,1.32a.2.2,0,0,0,.269-.019.465.465,0,0,0,.115-.351,1.149,1.149,0,0,0-.037-.262Z" transform="translate(-1225.027 -382.988)" fill="#fff"/>
    <path id="Path_193162" data-name="Path 193162" d="M1245.032,389.7a1.849,1.849,0,0,0,.131.734,4.848,4.848,0,0,0,.376.688l6.982,11.287a.906.906,0,0,0,.113.133.621.621,0,0,0,.078.059.2.2,0,0,0,.262-.011.459.459,0,0,0,.1-.342V397.89a1.806,1.806,0,0,0-.2-.9c-.133-.238-.253-.433-.357-.583l-3.055-4.72,3.055-1.165a1.246,1.246,0,0,0,.357-.183c.134-.094.2-.319.2-.677v-4.354a1.075,1.075,0,0,0-.1-.464.674.674,0,0,0-.262-.312.3.3,0,0,0-.078-.033.308.308,0,0,0-.113,0l-6.982,3.226a.96.96,0,0,0-.376.253.934.934,0,0,0-.131.582Z" transform="translate(-1245.032 -382.988)" fill="#fff"/>
  </g>
</svg>
