<svg id="a3" xmlns="http://www.w3.org/2000/svg" width="56.936" height="74.749" viewBox="0 0 56.936 74.749">
  <g id="Speech_Bubble" data-name="Speech Bubble" transform="translate(0 0)">
    <g id="Speach_Bubble" data-name="Speach Bubble">
      <g id="Group_132170" data-name="Group 132170">
        <path id="Path_193146" data-name="Path 193146" d="M1300.995,402.954l34.115,19.654a3.013,3.013,0,0,1,1.364,2.36v46.659a2.97,2.97,0,0,1-1.371,2.345l-5.421,3.083a3.05,3.05,0,0,1-2.733-.014l-34.116-19.654a3.014,3.014,0,0,1-1.362-2.361V408.37a2.973,2.973,0,0,1,1.37-2.347l5.421-3.083A3.05,3.05,0,0,1,1300.995,402.954Z" transform="translate(-1291.471 -402.622)" fill="#ffb30b"/>
        <path id="Path_193147" data-name="Path 193147" d="M1291.471,477.041a3.123,3.123,0,0,0,2.735.016l5.418-3.088a2.961,2.961,0,0,0,1.372-2.342V424.968a2.814,2.814,0,0,0-.434-1.391l-8.131,4.68a2.71,2.71,0,0,1,.4,1.34v46.654C1292.833,477.048,1292.273,477.506,1291.471,477.041Z" transform="translate(-1255.993 -402.622)" opacity="0.2"/>
        <path id="Path_193148" data-name="Path 193148" d="M1291.9,408.123c.107-.687.667-.932,1.347-.542l34.109,19.656a2.788,2.788,0,0,1,.963,1.02l8.138-4.68a2.722,2.722,0,0,0-.938-.969L1301.4,402.952a3.045,3.045,0,0,0-2.732-.013l-5.418,3.081A3.007,3.007,0,0,0,1291.9,408.123Z" transform="translate(-1291.88 -402.622)" fill="#fff" opacity="0.4"/>
        <g id="Group_132169" data-name="Group 132169" transform="translate(0 4.775)">
          <path id="Path_193149" data-name="Path 193149" d="M1291.434,459.569c.856-.51,7.382-4.188,7.59-4.307a1.27,1.27,0,0,0,.27-1.945L1287.7,438.85l-8.162,4.681,12.128,14.127A1.287,1.287,0,0,1,1291.434,459.569Z" transform="translate(-1242.697 -407.397)" fill="#ffb30b"/>
          <path id="Path_193150" data-name="Path 193150" d="M1291.434,459.569c.856-.51,7.382-4.188,7.59-4.307a1.27,1.27,0,0,0,.27-1.945L1287.7,438.85l-8.162,4.681,12.128,14.127A1.287,1.287,0,0,1,1291.434,459.569Z" transform="translate(-1242.697 -407.397)" fill="#fff" opacity="0.4"/>
          <path id="Path_193151" data-name="Path 193151" d="M1288.5,407.583l34.116,19.654a3.016,3.016,0,0,1,1.363,2.361v13.936l12.13,14.122a1.222,1.222,0,0,1-.779,2.09l-11.351,1.517h0v14.991c0,.87-.611,1.222-1.363.787L1288.5,457.387a3.014,3.014,0,0,1-1.362-2.361V408.37C1287.136,407.5,1287.746,407.148,1288.5,407.583Z" transform="translate(-1287.136 -407.397)" fill="#cc8f09"/>
        </g>
      </g>
    </g>
  </g>
  <g id="_" data-name="{}" transform="translate(6.795 24.614)">
    <path id="Path_193152" data-name="Path 193152" d="M1314.406,448.917a2.242,2.242,0,0,0-.507-1.422l-.3-.359a3.716,3.716,0,0,1-.723-1.533,7.664,7.664,0,0,1-.219-1.779,13.234,13.234,0,0,0-.532-3.815,14.868,14.868,0,0,0-1.37-3.21,12.249,12.249,0,0,0-1.877-2.481,10.075,10.075,0,0,0-2.069-1.637.206.206,0,0,0-.27.019.464.464,0,0,0-.113.35v3.683a1.076,1.076,0,0,0,.1.462.89.89,0,0,0,.228.32,6.281,6.281,0,0,1,.88.8,5.479,5.479,0,0,1,.716.99,4.759,4.759,0,0,1,.472,1.214,6.2,6.2,0,0,1,.166,1.479,13.577,13.577,0,0,0,.1,1.713,11.236,11.236,0,0,0,.289,1.51,8.364,8.364,0,0,0,.41,1.2,3.048,3.048,0,0,0,.47.8.6.6,0,0,0-.47.279,2.79,2.79,0,0,0-.41.784,6.117,6.117,0,0,0-.289,1.191,10,10,0,0,0-.1,1.5,4.08,4.08,0,0,1-.166,1.288,1.086,1.086,0,0,1-1.188.833,2.705,2.705,0,0,1-.88-.213.212.212,0,0,0-.228.057.469.469,0,0,0-.1.343v3.682a1.113,1.113,0,0,0,.113.482.729.729,0,0,0,.27.331,5.871,5.871,0,0,0,2.069.75,2.86,2.86,0,0,0,1.877-.314,3.412,3.412,0,0,0,1.37-1.628,7.827,7.827,0,0,0,.532-3.2,4.882,4.882,0,0,1,.219-1.526c.144-.445.386-.677.723-.7l.3-.017q.507-.055.507-.836Z" transform="translate(-1291.156 -427.236)" fill="#fff"/>
    <path id="Path_193153" data-name="Path 193153" d="M1321.7,436.891a2.242,2.242,0,0,0,.506,1.421l.3.359a3.726,3.726,0,0,1,.724,1.534,7.653,7.653,0,0,1,.218,1.778,13.2,13.2,0,0,0,.533,3.815,14.773,14.773,0,0,0,1.371,3.21,12.106,12.106,0,0,0,1.876,2.48,10.044,10.044,0,0,0,2.068,1.638.205.205,0,0,0,.27-.019.461.461,0,0,0,.114-.35v-3.683a1.055,1.055,0,0,0-.1-.463.888.888,0,0,0-.226-.319,6.116,6.116,0,0,1-.882-.8,5.47,5.47,0,0,1-.716-.99,4.836,4.836,0,0,1-.472-1.214,6.252,6.252,0,0,1-.165-1.479,12.62,12.62,0,0,0-.105-1.619,12.8,12.8,0,0,0-.287-1.524,9.667,9.667,0,0,0-.41-1.257,2.977,2.977,0,0,0-.472-.823.62.62,0,0,0,.472-.252,2.486,2.486,0,0,0,.41-.731,5.632,5.632,0,0,0,.287-1.178,10.876,10.876,0,0,0,.105-1.592,4.112,4.112,0,0,1,.165-1.288,1.213,1.213,0,0,1,.472-.669,1.232,1.232,0,0,1,.716-.164,2.755,2.755,0,0,1,.882.213.2.2,0,0,0,.226-.058.453.453,0,0,0,.1-.341v-3.683a1.1,1.1,0,0,0-.114-.482.729.729,0,0,0-.27-.331,5.879,5.879,0,0,0-2.068-.751,2.86,2.86,0,0,0-1.876.315,3.4,3.4,0,0,0-1.371,1.628,7.812,7.812,0,0,0-.533,3.2,4.89,4.89,0,0,1-.218,1.527q-.218.668-.724.7l-.3.016q-.506.057-.506.836Z" transform="translate(-1321.702 -427.236)" fill="#fff"/>
  </g>
</svg>
