<svg xmlns="http://www.w3.org/2000/svg" width="821.034" height="342.064" viewBox="0 0 821.034 342.064">
  <g id="c1" transform="translate(-389 -1602)">
    <path id="Trazado_193520" data-name="Trazado 193520" d="M0,0H123.775V40.9H0Z" transform="translate(463.092 1679.641)" fill="#fff" stroke="#00003e" stroke-width="2"/>
    <path id="Trazado_193521" data-name="Trazado 193521" d="M19,0h85.775a19,19,0,0,1,19,19v2.9a19,19,0,0,1-19,19H19a19,19,0,0,1-19-19V19A19,19,0,0,1,19,0Z" transform="translate(390 1745.833)" fill="#fff" stroke="#00003e" stroke-width="2"/>
    <path id="Trazado_193522" data-name="Trazado 193522" d="M19,0h85.775a19,19,0,0,1,19,19v2.9a19,19,0,0,1-19,19H19a19,19,0,0,1-19-19V19A19,19,0,0,1,19,0Z" transform="translate(535.301 1745.833)" fill="#fff" stroke="#00003e" stroke-width="2"/>
    <path id="Trazado_193523" data-name="Trazado 193523" d="M-15.586-3.609A4.185,4.185,0,0,1-16.918-.824a4.365,4.365,0,0,1-2.98.98,4.008,4.008,0,0,1-3.23-1.445,5.815,5.815,0,0,1-1.215-3.867V-6.25a6.481,6.481,0,0,1,.566-2.789,4.231,4.231,0,0,1,1.605-1.848,4.47,4.47,0,0,1,2.406-.645,4.11,4.11,0,0,1,2.906,1.012,4.235,4.235,0,0,1,1.273,2.8h-1.508a3.268,3.268,0,0,0-.848-1.975,2.565,2.565,0,0,0-1.824-.611A2.684,2.684,0,0,0-22.02-9.241a4.882,4.882,0,0,0-.816,3.026v1.1a5.018,5.018,0,0,0,.773,2.948A2.5,2.5,0,0,0-19.9-1.07a2.886,2.886,0,0,0,1.918-.566,3.143,3.143,0,0,0,.887-1.973Zm1.438-.7a4.993,4.993,0,0,1,.488-2.234A3.643,3.643,0,0,1-12.3-8.07a3.7,3.7,0,0,1,1.988-.539,3.565,3.565,0,0,1,2.793,1.2,4.6,4.6,0,0,1,1.066,3.18v.1a5.036,5.036,0,0,1-.473,2.215A3.589,3.589,0,0,1-8.277-.391,3.743,3.743,0,0,1-10.3.156a3.556,3.556,0,0,1-2.785-1.2A4.575,4.575,0,0,1-14.148-4.2Zm1.453.172a3.616,3.616,0,0,0,.652,2.258,2.088,2.088,0,0,0,1.746.852,2.075,2.075,0,0,0,1.75-.863A3.955,3.955,0,0,0-7.9-4.3a3.61,3.61,0,0,0-.66-2.254,2.1,2.1,0,0,0-1.754-.863,2.075,2.075,0,0,0-1.727.852A3.925,3.925,0,0,0-12.7-4.133ZM-9.656-12h1.75L-10-9.7l-1.164,0Zm4.664,7.7A4.952,4.952,0,0,1-4.07-7.426,2.915,2.915,0,0,1-1.656-8.609,2.932,2.932,0,0,1,.7-7.594V-12H2.141V0H.813L.742-.906A2.943,2.943,0,0,1-1.672.156a2.887,2.887,0,0,1-2.395-1.2,5.008,5.008,0,0,1-.926-3.141Zm1.445.164a3.749,3.749,0,0,0,.594,2.25,1.92,1.92,0,0,0,1.641.813A2.108,2.108,0,0,0,.7-2.3V-6.187A2.125,2.125,0,0,0-1.3-7.383a1.929,1.929,0,0,0-1.656.82A4.128,4.128,0,0,0-3.547-4.133ZM5.953,0H4.508V-8.453H5.953ZM4.391-10.7a.863.863,0,0,1,.215-.594.807.807,0,0,1,.637-.242.819.819,0,0,1,.641.242A.854.854,0,0,1,6.1-10.7a.826.826,0,0,1-.219.586.834.834,0,0,1-.641.234.821.821,0,0,1-.637-.234A.834.834,0,0,1,4.391-10.7ZM7.922-4.3a4.968,4.968,0,0,1,.914-3.145,2.923,2.923,0,0,1,2.422-1.168,2.908,2.908,0,0,1,2.414,1.094l.07-.937h1.32V-.2a3.439,3.439,0,0,1-.973,2.586,3.589,3.589,0,0,1-2.613.945,4.348,4.348,0,0,1-1.789-.391,3.08,3.08,0,0,1-1.336-1.07L9.1,1a2.826,2.826,0,0,0,2.273,1.148,2.214,2.214,0,0,0,1.645-.594,2.269,2.269,0,0,0,.59-1.672V-.844a2.971,2.971,0,0,1-2.367,1,2.887,2.887,0,0,1-2.4-1.2A5.224,5.224,0,0,1,7.922-4.3Zm1.453.164a3.79,3.79,0,0,0,.586,2.246A1.9,1.9,0,0,0,11.6-1.07a2.117,2.117,0,0,0,2.008-1.242V-6.172a2.142,2.142,0,0,0-1.992-1.211,1.921,1.921,0,0,0-1.648.82A4.128,4.128,0,0,0,9.375-4.133ZM16.859-4.3a4.993,4.993,0,0,1,.488-2.234A3.643,3.643,0,0,1,18.707-8.07,3.7,3.7,0,0,1,20.7-8.609a3.565,3.565,0,0,1,2.793,1.2,4.6,4.6,0,0,1,1.066,3.18v.1a5.036,5.036,0,0,1-.473,2.215A3.589,3.589,0,0,1,22.73-.391a3.743,3.743,0,0,1-2.02.547,3.556,3.556,0,0,1-2.785-1.2A4.575,4.575,0,0,1,16.859-4.2Zm1.453.172a3.616,3.616,0,0,0,.652,2.258,2.088,2.088,0,0,0,1.746.852,2.075,2.075,0,0,0,1.75-.863A3.955,3.955,0,0,0,23.109-4.3a3.61,3.61,0,0,0-.66-2.254A2.1,2.1,0,0,0,20.7-7.422a2.075,2.075,0,0,0-1.727.852A3.925,3.925,0,0,0,18.313-4.133Z" transform="translate(449.788 1770.171)" fill="#00003e"/>
    <path id="Trazado_193524" data-name="Trazado 193524" d="M-29.016-1.992l3.25-9.383h1.641L-28.344,0h-1.328l-4.211-11.375h1.633ZM-19.664.156a3.693,3.693,0,0,1-2.8-1.129,4.19,4.19,0,0,1-1.078-3.02v-.266a5.073,5.073,0,0,1,.48-2.246,3.748,3.748,0,0,1,1.344-1.547,3.378,3.378,0,0,1,1.871-.559,3.166,3.166,0,0,1,2.563,1.086,4.7,4.7,0,0,1,.914,3.109v.6h-5.727a3,3,0,0,0,.73,2.02,2.3,2.3,0,0,0,1.777.77,2.517,2.517,0,0,0,1.3-.312,3.259,3.259,0,0,0,.93-.828l.883.688A3.55,3.55,0,0,1-19.664.156Zm-.18-7.578a1.928,1.928,0,0,0-1.469.637A3.1,3.1,0,0,0-22.047-5h4.234v-.109a2.753,2.753,0,0,0-.594-1.707A1.815,1.815,0,0,0-19.844-7.422Zm6.516-1.031.047,1.063A3.08,3.08,0,0,1-10.75-8.609q2.68,0,2.7,3.023V0H-9.492V-5.594A1.946,1.946,0,0,0-9.91-6.945a1.675,1.675,0,0,0-1.277-.437,2.086,2.086,0,0,0-1.234.375,2.546,2.546,0,0,0-.828.984V0H-14.7V-8.453ZM-6.219-4.3A4.952,4.952,0,0,1-5.3-7.426,2.915,2.915,0,0,1-2.883-8.609,2.932,2.932,0,0,1-.531-7.594V-12H.914V0H-.414l-.07-.906A2.943,2.943,0,0,1-2.9.156a2.887,2.887,0,0,1-2.395-1.2,5.008,5.008,0,0,1-.926-3.141Zm1.445.164a3.749,3.749,0,0,0,.594,2.25,1.92,1.92,0,0,0,1.641.813A2.108,2.108,0,0,0-.531-2.3V-6.187a2.125,2.125,0,0,0-1.992-1.2,1.929,1.929,0,0,0-1.656.82A4.128,4.128,0,0,0-4.773-4.133ZM6.664.156a3.693,3.693,0,0,1-2.8-1.129,4.19,4.19,0,0,1-1.078-3.02v-.266A5.073,5.073,0,0,1,3.27-6.5,3.748,3.748,0,0,1,4.613-8.051a3.378,3.378,0,0,1,1.871-.559A3.166,3.166,0,0,1,9.047-7.523a4.7,4.7,0,0,1,.914,3.109v.6H4.234a3,3,0,0,0,.73,2.02,2.3,2.3,0,0,0,1.777.77,2.517,2.517,0,0,0,1.3-.312,3.259,3.259,0,0,0,.93-.828l.883.688A3.55,3.55,0,0,1,6.664.156Zm-.18-7.578a1.928,1.928,0,0,0-1.469.637A3.1,3.1,0,0,0,4.281-5H8.516v-.109a2.753,2.753,0,0,0-.594-1.707A1.815,1.815,0,0,0,6.484-7.422Zm4.8,3.125A4.952,4.952,0,0,1,12.2-7.426a2.915,2.915,0,0,1,2.414-1.184,2.932,2.932,0,0,1,2.352,1.016V-12h1.445V0H17.086l-.07-.906A2.943,2.943,0,0,1,14.6.156a2.887,2.887,0,0,1-2.395-1.2,5.008,5.008,0,0,1-.926-3.141Zm1.445.164a3.749,3.749,0,0,0,.594,2.25,1.92,1.92,0,0,0,1.641.813A2.108,2.108,0,0,0,16.969-2.3V-6.187a2.125,2.125,0,0,0-1.992-1.2,1.929,1.929,0,0,0-1.656.82A4.128,4.128,0,0,0,12.727-4.133ZM20.273-4.3a4.993,4.993,0,0,1,.488-2.234A3.643,3.643,0,0,1,22.121-8.07a3.7,3.7,0,0,1,1.988-.539,3.565,3.565,0,0,1,2.793,1.2,4.6,4.6,0,0,1,1.066,3.18v.1A5.036,5.036,0,0,1,27.5-1.918,3.589,3.589,0,0,1,26.145-.391a3.743,3.743,0,0,1-2.02.547,3.556,3.556,0,0,1-2.785-1.2A4.575,4.575,0,0,1,20.273-4.2Zm1.453.172a3.616,3.616,0,0,0,.652,2.258,2.088,2.088,0,0,0,1.746.852,2.075,2.075,0,0,0,1.75-.863A3.955,3.955,0,0,0,26.523-4.3a3.61,3.61,0,0,0-.66-2.254,2.1,2.1,0,0,0-1.754-.863,2.075,2.075,0,0,0-1.727.852A3.925,3.925,0,0,0,21.727-4.133ZM33.867-7.156a4.331,4.331,0,0,0-.711-.055A1.9,1.9,0,0,0,31.227-6V0H29.781V-8.453h1.406l.023.977a2.251,2.251,0,0,1,2.016-1.133,1.477,1.477,0,0,1,.641.109Z" transform="translate(522.385 1703.979)" fill="#00003e"/>
    <path id="Trazado_193525" data-name="Trazado 193525" d="M0,0H124V41H0Z" transform="translate(743.034 1679)" fill="#fff" stroke="#00003e" stroke-width="2"/>
    <path id="Trazado_193526" data-name="Trazado 193526" d="M-18.351-1.868l3.047-8.8h1.538L-17.721,0h-1.245l-3.948-10.664h1.531ZM-9.584.146A3.463,3.463,0,0,1-12.206-.912a3.928,3.928,0,0,1-1.011-2.831v-.249a4.756,4.756,0,0,1,.45-2.106,3.514,3.514,0,0,1,1.26-1.45,3.167,3.167,0,0,1,1.754-.524,2.968,2.968,0,0,1,2.4,1.018,4.408,4.408,0,0,1,.857,2.915v.564h-5.369a2.817,2.817,0,0,0,.685,1.893A2.153,2.153,0,0,0-9.51-.959a2.36,2.36,0,0,0,1.216-.293,3.055,3.055,0,0,0,.872-.776l.828.645A3.328,3.328,0,0,1-9.584.146Zm-.168-7.1a1.807,1.807,0,0,0-1.377.6,2.9,2.9,0,0,0-.688,1.674h3.97v-.1A2.581,2.581,0,0,0-8.4-6.39,1.7,1.7,0,0,0-9.752-6.958Zm6.108-.967.044,1A2.888,2.888,0,0,1-1.227-8.071q2.512,0,2.534,2.834V0H-.048V-5.244A1.824,1.824,0,0,0-.439-6.511a1.57,1.57,0,0,0-1.2-.41,1.956,1.956,0,0,0-1.157.352,2.387,2.387,0,0,0-.776.923V0H-4.926V-7.925ZM5.189-9.844v1.919H6.669v1.047H5.189v4.921a1.1,1.1,0,0,0,.2.715A.832.832,0,0,0,6.061-1a3.281,3.281,0,0,0,.645-.088V0a3.951,3.951,0,0,1-1.04.146A1.687,1.687,0,0,1,4.3-.4a2.36,2.36,0,0,1-.461-1.56V-6.877H2.391V-7.925H3.834V-9.844ZM13.143,0a2.846,2.846,0,0,1-.19-.835A3.023,3.023,0,0,1,10.7.146,2.8,2.8,0,0,1,8.774-.516,2.145,2.145,0,0,1,8.024-2.2,2.24,2.24,0,0,1,8.965-4.12,4.437,4.437,0,0,1,11.613-4.8h1.318v-.623a1.522,1.522,0,0,0-.425-1.132,1.707,1.707,0,0,0-1.252-.421,1.976,1.976,0,0,0-1.216.366,1.079,1.079,0,0,0-.491.886H8.185a1.87,1.87,0,0,1,.421-1.146,2.874,2.874,0,0,1,1.143-.875,3.844,3.844,0,0,1,1.586-.322,3.133,3.133,0,0,1,2.146.685A2.47,2.47,0,0,1,14.286-5.5v3.647a4.459,4.459,0,0,0,.278,1.736V0ZM10.895-1.033a2.381,2.381,0,0,0,1.208-.33,1.994,1.994,0,0,0,.828-.857V-3.845H11.869q-2.49,0-2.49,1.458a1.234,1.234,0,0,0,.425,1A1.633,1.633,0,0,0,10.895-1.033ZM21.024-2.1a1,1,0,0,0-.414-.853,3.983,3.983,0,0,0-1.443-.524,6.822,6.822,0,0,1-1.633-.527,2.324,2.324,0,0,1-.894-.732,1.752,1.752,0,0,1-.289-1.011A2.056,2.056,0,0,1,17.175-7.4a3.218,3.218,0,0,1,2.106-.674,3.311,3.311,0,0,1,2.186.7,2.21,2.21,0,0,1,.839,1.78H20.944a1.223,1.223,0,0,0-.472-.959,1.77,1.77,0,0,0-1.19-.4,1.852,1.852,0,0,0-1.157.322,1.014,1.014,0,0,0-.417.842.822.822,0,0,0,.388.74,4.776,4.776,0,0,0,1.4.476,7.308,7.308,0,0,1,1.644.542,2.4,2.4,0,0,1,.934.758,1.864,1.864,0,0,1,.3,1.08,2.028,2.028,0,0,1-.85,1.7,3.564,3.564,0,0,1-2.2.641A3.991,3.991,0,0,1,17.64-.19a2.74,2.74,0,0,1-1.146-.941,2.268,2.268,0,0,1-.414-1.307h1.355a1.4,1.4,0,0,0,.546,1.08,2.117,2.117,0,0,0,1.344.4,2.185,2.185,0,0,0,1.234-.311A.956.956,0,0,0,21.024-2.1Z" transform="translate(801.007 1701.632)" fill="#00003e"/>
    <path id="Trazado_193527" data-name="Trazado 193527" d="M-17.413,0h-1.414L-24.2-8.218V0h-1.414V-10.664H-24.2l5.383,8.254v-8.254h1.4Zm1.926-4.036a4.681,4.681,0,0,1,.458-2.095,3.415,3.415,0,0,1,1.274-1.436,3.469,3.469,0,0,1,1.864-.505A3.342,3.342,0,0,1-9.272-6.951a4.311,4.311,0,0,1,1,2.981v.1A4.722,4.722,0,0,1-8.716-1.8,3.365,3.365,0,0,1-9.983-.366a3.509,3.509,0,0,1-1.893.513A3.334,3.334,0,0,1-14.487-.974a4.29,4.29,0,0,1-1-2.966Zm1.362.161a3.39,3.39,0,0,0,.612,2.117,1.957,1.957,0,0,0,1.637.8,1.945,1.945,0,0,0,1.641-.809,3.707,3.707,0,0,0,.608-2.267,3.384,3.384,0,0,0-.619-2.113,1.968,1.968,0,0,0-1.644-.809,1.946,1.946,0,0,0-1.619.8A3.68,3.68,0,0,0-14.125-3.875ZM-5.3-7.925l.037.879A2.927,2.927,0,0,1-2.911-8.071,2.266,2.266,0,0,1-.648-6.8,3,3,0,0,1,.381-7.72a3.039,3.039,0,0,1,1.5-.352q2.607,0,2.651,2.761V0H3.175V-5.229A1.82,1.82,0,0,0,2.787-6.5a1.71,1.71,0,0,0-1.3-.421,1.8,1.8,0,0,0-1.252.45A1.827,1.827,0,0,0-.348-5.259V0H-1.71V-5.193A1.512,1.512,0,0,0-3.4-6.921,1.813,1.813,0,0,0-5.226-5.786V0H-6.581V-7.925Zm18.582,4.05a4.712,4.712,0,0,1-.835,2.919,2.668,2.668,0,0,1-2.241,1.1A2.763,2.763,0,0,1,7.885-.916L7.819,0H6.573V-11.25H7.928v4.2a2.747,2.747,0,0,1,2.263-1.018A2.684,2.684,0,0,1,12.458-6.98a4.853,4.853,0,0,1,.824,2.988Zm-1.355-.154a3.662,3.662,0,0,0-.535-2.139,1.77,1.77,0,0,0-1.538-.754A1.989,1.989,0,0,0,7.928-5.676v3.428A2.045,2.045,0,0,0,9.869-1a1.76,1.76,0,0,0,1.516-.754A3.894,3.894,0,0,0,11.927-4.028ZM18.82-6.709a4.061,4.061,0,0,0-.667-.051,1.786,1.786,0,0,0-1.809,1.135V0H14.989V-7.925h1.318l.022.916a2.11,2.11,0,0,1,1.89-1.062,1.384,1.384,0,0,1,.6.1ZM23.214.146A3.463,3.463,0,0,1,20.592-.912a3.928,3.928,0,0,1-1.011-2.831v-.249a4.756,4.756,0,0,1,.45-2.106,3.514,3.514,0,0,1,1.26-1.45,3.167,3.167,0,0,1,1.754-.524,2.968,2.968,0,0,1,2.4,1.018A4.408,4.408,0,0,1,26.3-4.138v.564H20.936a2.817,2.817,0,0,0,.685,1.893,2.153,2.153,0,0,0,1.666.721A2.36,2.36,0,0,0,24.5-1.252a3.055,3.055,0,0,0,.872-.776l.828.645A3.328,3.328,0,0,1,23.214.146Zm-.168-7.1a1.807,1.807,0,0,0-1.377.6,2.9,2.9,0,0,0-.688,1.674h3.97v-.1a2.581,2.581,0,0,0-.557-1.6A1.7,1.7,0,0,0,23.046-6.958Z" transform="translate(592.783 1769.171)" fill="#00003e"/>
    <path id="Trazado_193528" data-name="Trazado 193528" d="M0,0H123.775V40.9H0Z" transform="translate(742.931 1835.705)" fill="#fff" stroke="#00003e" stroke-width="2"/>
    <path id="Trazado_193529" data-name="Trazado 193529" d="M19,0h86a19,19,0,0,1,19,19v3a19,19,0,0,1-19,19H19A19,19,0,0,1,0,22V19A19,19,0,0,1,19,0Z" transform="translate(597.034 1902)" fill="#fff" stroke="#00003e" stroke-width="2"/>
    <path id="Trazado_193530" data-name="Trazado 193530" d="M19,0h86a19,19,0,0,1,19,19v3a19,19,0,0,1-19,19H19A19,19,0,0,1,0,22V19A19,19,0,0,1,19,0Z" transform="translate(742.034 1902)" fill="#fff" stroke="#00003e" stroke-width="2"/>
    <path id="Trazado_193531" data-name="Trazado 193531" d="M-14.037-3.384A3.923,3.923,0,0,1-15.286-.773,4.093,4.093,0,0,1-18.08.146a3.758,3.758,0,0,1-3.029-1.355,5.451,5.451,0,0,1-1.139-3.625V-5.859a6.076,6.076,0,0,1,.531-2.615,3.966,3.966,0,0,1,1.505-1.732,4.191,4.191,0,0,1,2.256-.6,3.853,3.853,0,0,1,2.725.948,3.971,3.971,0,0,1,1.194,2.626H-15.45a3.064,3.064,0,0,0-.795-1.851,2.4,2.4,0,0,0-1.71-.573,2.516,2.516,0,0,0-2.113,1,4.577,4.577,0,0,0-.765,2.837v1.034a4.7,4.7,0,0,0,.725,2.764A2.343,2.343,0,0,0-18.08-1a2.706,2.706,0,0,0,1.8-.531,2.947,2.947,0,0,0,.831-1.849Zm5,3.53A3.463,3.463,0,0,1-11.664-.912a3.928,3.928,0,0,1-1.011-2.831v-.249a4.756,4.756,0,0,1,.45-2.106,3.514,3.514,0,0,1,1.26-1.45A3.167,3.167,0,0,1-9.21-8.071a2.968,2.968,0,0,1,2.4,1.018,4.408,4.408,0,0,1,.857,2.915v.564H-11.32a2.817,2.817,0,0,0,.685,1.893,2.153,2.153,0,0,0,1.666.721,2.36,2.36,0,0,0,1.216-.293,3.055,3.055,0,0,0,.872-.776l.828.645A3.328,3.328,0,0,1-9.042.146Zm-.168-7.1a1.807,1.807,0,0,0-1.377.6,2.9,2.9,0,0,0-.688,1.674h3.97v-.1a2.581,2.581,0,0,0-.557-1.6A1.7,1.7,0,0,0-9.21-6.958Zm4.5,2.93a4.642,4.642,0,0,1,.864-2.933,2.733,2.733,0,0,1,2.263-1.11,2.748,2.748,0,0,1,2.2.952V-11.25H1.974V0H.729L.663-.85A2.759,2.759,0,0,1-1.6.146,2.707,2.707,0,0,1-3.845-.981a4.7,4.7,0,0,1-.868-2.944Zm1.355.154A3.515,3.515,0,0,0-2.8-1.765,1.8,1.8,0,0,0-1.263-1,1.977,1.977,0,0,0,.619-2.161V-5.8A1.992,1.992,0,0,0-1.249-6.921,1.808,1.808,0,0,0-2.8-6.152,3.87,3.87,0,0,0-3.358-3.875ZM8.969-.784a2.878,2.878,0,0,1-2.322.93A2.464,2.464,0,0,1,4.717-.59a3.186,3.186,0,0,1-.67-2.179V-7.925H5.4v5.12Q5.4-1,6.866-1A2.028,2.028,0,0,0,8.932-2.161V-7.925h1.355V0H9ZM13.817,0H12.462V-11.25h1.355Zm7.061,0a2.846,2.846,0,0,1-.19-.835,3.023,3.023,0,0,1-2.256.981,2.8,2.8,0,0,1-1.923-.663A2.145,2.145,0,0,1,15.758-2.2,2.24,2.24,0,0,1,16.7-4.12,4.437,4.437,0,0,1,19.347-4.8h1.318v-.623a1.522,1.522,0,0,0-.425-1.132,1.707,1.707,0,0,0-1.252-.421,1.976,1.976,0,0,0-1.216.366,1.079,1.079,0,0,0-.491.886H15.919a1.87,1.87,0,0,1,.421-1.146,2.874,2.874,0,0,1,1.143-.875,3.844,3.844,0,0,1,1.586-.322,3.133,3.133,0,0,1,2.146.685A2.47,2.47,0,0,1,22.02-5.5v3.647A4.459,4.459,0,0,0,22.3-.117V0ZM18.629-1.033a2.381,2.381,0,0,0,1.208-.33,1.994,1.994,0,0,0,.828-.857V-3.845H19.6q-2.49,0-2.49,1.458a1.234,1.234,0,0,0,.425,1A1.633,1.633,0,0,0,18.629-1.033Z" transform="translate(654.438 1925.502)" fill="#00003e"/>
    <path id="Trazado_193532" data-name="Trazado 193532" d="M-13.975-3.384A3.923,3.923,0,0,1-15.223-.773a4.093,4.093,0,0,1-2.794.919,3.758,3.758,0,0,1-3.029-1.355,5.451,5.451,0,0,1-1.139-3.625V-5.859a6.076,6.076,0,0,1,.531-2.615,3.966,3.966,0,0,1,1.505-1.732,4.191,4.191,0,0,1,2.256-.6,3.853,3.853,0,0,1,2.725.948,3.971,3.971,0,0,1,1.194,2.626h-1.414a3.064,3.064,0,0,0-.795-1.851,2.4,2.4,0,0,0-1.71-.573,2.516,2.516,0,0,0-2.113,1,4.577,4.577,0,0,0-.765,2.837v1.034a4.7,4.7,0,0,0,.725,2.764A2.343,2.343,0,0,0-18.018-1a2.706,2.706,0,0,0,1.8-.531,2.947,2.947,0,0,0,.831-1.849ZM-10.8,0h-1.355V-11.25H-10.8Zm3.64,0H-8.511V-7.925h1.355ZM-8.621-10.027a.809.809,0,0,1,.2-.557.756.756,0,0,1,.6-.227.768.768,0,0,1,.6.227.8.8,0,0,1,.205.557.774.774,0,0,1-.205.549.782.782,0,0,1-.6.22.77.77,0,0,1-.6-.22A.782.782,0,0,1-8.621-10.027ZM-1.7.146A3.463,3.463,0,0,1-4.321-.912,3.928,3.928,0,0,1-5.332-3.743v-.249A4.756,4.756,0,0,1-4.882-6.1a3.514,3.514,0,0,1,1.26-1.45,3.167,3.167,0,0,1,1.754-.524,2.968,2.968,0,0,1,2.4,1.018,4.408,4.408,0,0,1,.857,2.915v.564H-3.977a2.817,2.817,0,0,0,.685,1.893,2.153,2.153,0,0,0,1.666.721A2.36,2.36,0,0,0-.41-1.252a3.055,3.055,0,0,0,.872-.776l.828.645A3.328,3.328,0,0,1-1.7.146Zm-.168-7.1a1.807,1.807,0,0,0-1.377.6,2.9,2.9,0,0,0-.688,1.674H.037v-.1A2.581,2.581,0,0,0-.52-6.39,1.7,1.7,0,0,0-1.868-6.958Zm6.108-.967.044,1A2.888,2.888,0,0,1,6.658-8.071q2.512,0,2.534,2.834V0H7.837V-5.244a1.824,1.824,0,0,0-.392-1.267,1.57,1.57,0,0,0-1.2-.41A1.956,1.956,0,0,0,5.09-6.57a2.387,2.387,0,0,0-.776.923V0H2.959V-7.925Zm8.833-1.919v1.919h1.479v1.047H13.074v4.921a1.1,1.1,0,0,0,.2.715A.832.832,0,0,0,13.945-1a3.281,3.281,0,0,0,.645-.088V0a3.951,3.951,0,0,1-1.04.146A1.687,1.687,0,0,1,12.18-.4a2.36,2.36,0,0,1-.461-1.56V-6.877H10.276V-7.925h1.443V-9.844Zm6.35,9.99A3.463,3.463,0,0,1,16.8-.912a3.928,3.928,0,0,1-1.011-2.831v-.249a4.756,4.756,0,0,1,.45-2.106,3.514,3.514,0,0,1,1.26-1.45,3.167,3.167,0,0,1,1.754-.524,2.968,2.968,0,0,1,2.4,1.018,4.408,4.408,0,0,1,.857,2.915v.564H17.146a2.817,2.817,0,0,0,.685,1.893A2.153,2.153,0,0,0,19.5-.959a2.36,2.36,0,0,0,1.216-.293,3.055,3.055,0,0,0,.872-.776l.828.645A3.328,3.328,0,0,1,19.424.146Zm-.168-7.1a1.807,1.807,0,0,0-1.377.6,2.9,2.9,0,0,0-.688,1.674h3.97v-.1a2.581,2.581,0,0,0-.557-1.6A1.7,1.7,0,0,0,19.255-6.958Z" transform="translate(800.911 1859.042)" fill="#00003e"/>
    <path id="Trazado_193533" data-name="Trazado 193533" d="M0,0H124V41H0Z" transform="translate(928.034 1760)" fill="#fff" stroke="#00003e" stroke-width="2"/>
    <path id="Trazado_193534" data-name="Trazado 193534" d="M-23.762-2.977h-4.766L-29.6,0h-1.547L-26.8-11.375h1.313L-21.137,0h-1.539ZM-28.074-4.2h3.867l-1.937-5.32ZM-18.262,0h-1.445V-12h1.445Zm3.672-8.453.039.938a3.122,3.122,0,0,1,2.508-1.094A2.417,2.417,0,0,1-9.629-7.25a3.2,3.2,0,0,1,1.1-.984,3.242,3.242,0,0,1,1.6-.375q2.781,0,2.828,2.945V0H-5.551V-5.578a1.941,1.941,0,0,0-.414-1.355,1.823,1.823,0,0,0-1.391-.449,1.916,1.916,0,0,0-1.336.48,1.949,1.949,0,0,0-.617,1.293V0h-1.453V-5.539a1.613,1.613,0,0,0-1.8-1.844,1.934,1.934,0,0,0-1.945,1.211V0h-1.445V-8.453ZM3.293,0a3.036,3.036,0,0,1-.2-.891A3.225,3.225,0,0,1,.684.156,2.984,2.984,0,0,1-1.367-.551a2.287,2.287,0,0,1-.8-1.793,2.39,2.39,0,0,1,1-2.051,4.733,4.733,0,0,1,2.824-.73H3.066v-.664A1.623,1.623,0,0,0,2.613-7a1.821,1.821,0,0,0-1.336-.449,2.107,2.107,0,0,0-1.3.391,1.151,1.151,0,0,0-.523.945H-2a2,2,0,0,1,.449-1.223A3.066,3.066,0,0,1-.328-8.266a4.1,4.1,0,0,1,1.691-.344,3.342,3.342,0,0,1,2.289.73,2.635,2.635,0,0,1,.859,2.012v3.891a4.757,4.757,0,0,0,.3,1.852V0ZM.895-1.1a2.54,2.54,0,0,0,1.289-.352,2.127,2.127,0,0,0,.883-.914V-4.1H1.934Q-.723-4.1-.723-2.547A1.316,1.316,0,0,0-.27-1.484,1.742,1.742,0,0,0,.895-1.1Zm9.273.078a2.082,2.082,0,0,0,1.352-.469,1.649,1.649,0,0,0,.641-1.172h1.367a2.621,2.621,0,0,1-.5,1.383A3.293,3.293,0,0,1,11.8-.234a3.55,3.55,0,0,1-1.629.391A3.482,3.482,0,0,1,7.422-1,4.59,4.59,0,0,1,6.4-4.148v-.242a5.089,5.089,0,0,1,.453-2.2,3.451,3.451,0,0,1,1.3-1.492,3.7,3.7,0,0,1,2-.531,3.39,3.39,0,0,1,2.363.852,3.043,3.043,0,0,1,1,2.211H12.16a1.992,1.992,0,0,0-.621-1.348,1.932,1.932,0,0,0-1.379-.527,2.023,2.023,0,0,0-1.707.793,3.724,3.724,0,0,0-.605,2.293v.273a3.65,3.65,0,0,0,.6,2.25A2.033,2.033,0,0,0,10.168-1.023ZM18.66.156a3.693,3.693,0,0,1-2.8-1.129,4.19,4.19,0,0,1-1.078-3.02v-.266a5.073,5.073,0,0,1,.48-2.246,3.748,3.748,0,0,1,1.344-1.547,3.378,3.378,0,0,1,1.871-.559,3.166,3.166,0,0,1,2.563,1.086,4.7,4.7,0,0,1,.914,3.109v.6H16.23a3,3,0,0,0,.73,2.02,2.3,2.3,0,0,0,1.777.77,2.517,2.517,0,0,0,1.3-.312,3.259,3.259,0,0,0,.93-.828l.883.688A3.55,3.55,0,0,1,18.66.156Zm-.18-7.578a1.928,1.928,0,0,0-1.469.637A3.1,3.1,0,0,0,16.277-5h4.234v-.109a2.753,2.753,0,0,0-.594-1.707A1.815,1.815,0,0,0,18.48-7.422Zm.7-4.578h1.75L18.84-9.7l-1.164,0ZM25-8.453l.047,1.063a3.08,3.08,0,0,1,2.531-1.219q2.68,0,2.7,3.023V0H28.832V-5.594a1.946,1.946,0,0,0-.418-1.352,1.675,1.675,0,0,0-1.277-.437,2.086,2.086,0,0,0-1.234.375,2.546,2.546,0,0,0-.828.984V0H23.629V-8.453Z" transform="translate(987.673 1784.431)" fill="#00003e"/>
    <path id="Trazado_193535" data-name="Trazado 193535" d="M-17.413,0h-1.414L-24.2-8.218V0h-1.414V-10.664H-24.2l5.383,8.254v-8.254h1.4Zm1.926-4.036a4.681,4.681,0,0,1,.458-2.095,3.415,3.415,0,0,1,1.274-1.436,3.469,3.469,0,0,1,1.864-.505A3.342,3.342,0,0,1-9.272-6.951a4.311,4.311,0,0,1,1,2.981v.1A4.722,4.722,0,0,1-8.716-1.8,3.365,3.365,0,0,1-9.983-.366a3.509,3.509,0,0,1-1.893.513A3.334,3.334,0,0,1-14.487-.974a4.29,4.29,0,0,1-1-2.966Zm1.362.161a3.39,3.39,0,0,0,.612,2.117,1.957,1.957,0,0,0,1.637.8,1.945,1.945,0,0,0,1.641-.809,3.707,3.707,0,0,0,.608-2.267,3.384,3.384,0,0,0-.619-2.113,1.968,1.968,0,0,0-1.644-.809,1.946,1.946,0,0,0-1.619.8A3.68,3.68,0,0,0-14.125-3.875ZM-5.3-7.925l.037.879A2.927,2.927,0,0,1-2.911-8.071,2.266,2.266,0,0,1-.648-6.8,3,3,0,0,1,.381-7.72a3.039,3.039,0,0,1,1.5-.352q2.607,0,2.651,2.761V0H3.175V-5.229A1.82,1.82,0,0,0,2.787-6.5a1.71,1.71,0,0,0-1.3-.421,1.8,1.8,0,0,0-1.252.45A1.827,1.827,0,0,0-.348-5.259V0H-1.71V-5.193A1.512,1.512,0,0,0-3.4-6.921,1.813,1.813,0,0,0-5.226-5.786V0H-6.581V-7.925Zm18.582,4.05a4.712,4.712,0,0,1-.835,2.919,2.668,2.668,0,0,1-2.241,1.1A2.763,2.763,0,0,1,7.885-.916L7.819,0H6.573V-11.25H7.928v4.2a2.747,2.747,0,0,1,2.263-1.018A2.684,2.684,0,0,1,12.458-6.98a4.853,4.853,0,0,1,.824,2.988Zm-1.355-.154a3.662,3.662,0,0,0-.535-2.139,1.77,1.77,0,0,0-1.538-.754A1.989,1.989,0,0,0,7.928-5.676v3.428A2.045,2.045,0,0,0,9.869-1a1.76,1.76,0,0,0,1.516-.754A3.894,3.894,0,0,0,11.927-4.028ZM18.82-6.709a4.061,4.061,0,0,0-.667-.051,1.786,1.786,0,0,0-1.809,1.135V0H14.989V-7.925h1.318l.022.916a2.11,2.11,0,0,1,1.89-1.062,1.384,1.384,0,0,1,.6.1ZM23.214.146A3.463,3.463,0,0,1,20.592-.912a3.928,3.928,0,0,1-1.011-2.831v-.249a4.756,4.756,0,0,1,.45-2.106,3.514,3.514,0,0,1,1.26-1.45,3.167,3.167,0,0,1,1.754-.524,2.968,2.968,0,0,1,2.4,1.018A4.408,4.408,0,0,1,26.3-4.138v.564H20.936a2.817,2.817,0,0,0,.685,1.893,2.153,2.153,0,0,0,1.666.721A2.36,2.36,0,0,0,24.5-1.252a3.055,3.055,0,0,0,.872-.776l.828.645A3.328,3.328,0,0,1,23.214.146Zm-.168-7.1a1.807,1.807,0,0,0-1.377.6,2.9,2.9,0,0,0-.688,1.674h3.97v-.1a2.581,2.581,0,0,0-.557-1.6A1.7,1.7,0,0,0,23.046-6.958Z" transform="translate(799.433 1925.502)" fill="#00003e"/>
    <path id="Trazado_193536" data-name="Trazado 193536" d="M19,0h86a19,19,0,0,1,19,19v3a19,19,0,0,1-19,19H19A19,19,0,0,1,0,22V19A19,19,0,0,1,19,0Z" transform="translate(1085.034 1729)" fill="#fff" stroke="#00003e" stroke-width="2"/>
    <path id="Trazado_193537" data-name="Trazado 193537" d="M19,0h86a19,19,0,0,1,19,19v3a19,19,0,0,1-19,19H19A19,19,0,0,1,0,22V19A19,19,0,0,1,19,0Z" transform="translate(1085.034 1793)" fill="#fff" stroke="#00003e" stroke-width="2"/>
    <path id="Trazado_193538" data-name="Trazado 193538" d="M-15.586-3.609A4.185,4.185,0,0,1-16.918-.824a4.365,4.365,0,0,1-2.98.98,4.008,4.008,0,0,1-3.23-1.445,5.815,5.815,0,0,1-1.215-3.867V-6.25a6.481,6.481,0,0,1,.566-2.789,4.231,4.231,0,0,1,1.605-1.848,4.47,4.47,0,0,1,2.406-.645,4.11,4.11,0,0,1,2.906,1.012,4.235,4.235,0,0,1,1.273,2.8h-1.508a3.268,3.268,0,0,0-.848-1.975,2.565,2.565,0,0,0-1.824-.611A2.684,2.684,0,0,0-22.02-9.241a4.882,4.882,0,0,0-.816,3.026v1.1a5.018,5.018,0,0,0,.773,2.948A2.5,2.5,0,0,0-19.9-1.07a2.886,2.886,0,0,0,1.918-.566,3.143,3.143,0,0,0,.887-1.973Zm1.438-.7a4.993,4.993,0,0,1,.488-2.234A3.643,3.643,0,0,1-12.3-8.07a3.7,3.7,0,0,1,1.988-.539,3.565,3.565,0,0,1,2.793,1.2,4.6,4.6,0,0,1,1.066,3.18v.1a5.036,5.036,0,0,1-.473,2.215A3.589,3.589,0,0,1-8.277-.391,3.743,3.743,0,0,1-10.3.156a3.556,3.556,0,0,1-2.785-1.2A4.575,4.575,0,0,1-14.148-4.2Zm1.453.172a3.616,3.616,0,0,0,.652,2.258,2.088,2.088,0,0,0,1.746.852,2.075,2.075,0,0,0,1.75-.863A3.955,3.955,0,0,0-7.9-4.3a3.61,3.61,0,0,0-.66-2.254,2.1,2.1,0,0,0-1.754-.863,2.075,2.075,0,0,0-1.727.852A3.925,3.925,0,0,0-12.7-4.133ZM-9.656-12h1.75L-10-9.7l-1.164,0Zm4.664,7.7A4.952,4.952,0,0,1-4.07-7.426,2.915,2.915,0,0,1-1.656-8.609,2.932,2.932,0,0,1,.7-7.594V-12H2.141V0H.813L.742-.906A2.943,2.943,0,0,1-1.672.156a2.887,2.887,0,0,1-2.395-1.2,5.008,5.008,0,0,1-.926-3.141Zm1.445.164a3.749,3.749,0,0,0,.594,2.25,1.92,1.92,0,0,0,1.641.813A2.108,2.108,0,0,0,.7-2.3V-6.187A2.125,2.125,0,0,0-1.3-7.383a1.929,1.929,0,0,0-1.656.82A4.128,4.128,0,0,0-3.547-4.133ZM5.953,0H4.508V-8.453H5.953ZM4.391-10.7a.863.863,0,0,1,.215-.594.807.807,0,0,1,.637-.242.819.819,0,0,1,.641.242A.854.854,0,0,1,6.1-10.7a.826.826,0,0,1-.219.586.834.834,0,0,1-.641.234.821.821,0,0,1-.637-.234A.834.834,0,0,1,4.391-10.7ZM7.922-4.3a4.968,4.968,0,0,1,.914-3.145,2.923,2.923,0,0,1,2.422-1.168,2.908,2.908,0,0,1,2.414,1.094l.07-.937h1.32V-.2a3.439,3.439,0,0,1-.973,2.586,3.589,3.589,0,0,1-2.613.945,4.348,4.348,0,0,1-1.789-.391,3.08,3.08,0,0,1-1.336-1.07L9.1,1a2.826,2.826,0,0,0,2.273,1.148,2.214,2.214,0,0,0,1.645-.594,2.269,2.269,0,0,0,.59-1.672V-.844a2.971,2.971,0,0,1-2.367,1,2.887,2.887,0,0,1-2.4-1.2A5.224,5.224,0,0,1,7.922-4.3Zm1.453.164a3.79,3.79,0,0,0,.586,2.246A1.9,1.9,0,0,0,11.6-1.07a2.117,2.117,0,0,0,2.008-1.242V-6.172a2.142,2.142,0,0,0-1.992-1.211,1.921,1.921,0,0,0-1.648.82A4.128,4.128,0,0,0,9.375-4.133ZM16.859-4.3a4.993,4.993,0,0,1,.488-2.234A3.643,3.643,0,0,1,18.707-8.07,3.7,3.7,0,0,1,20.7-8.609a3.565,3.565,0,0,1,2.793,1.2,4.6,4.6,0,0,1,1.066,3.18v.1a5.036,5.036,0,0,1-.473,2.215A3.589,3.589,0,0,1,22.73-.391a3.743,3.743,0,0,1-2.02.547,3.556,3.556,0,0,1-2.785-1.2A4.575,4.575,0,0,1,16.859-4.2Zm1.453.172a3.616,3.616,0,0,0,.652,2.258,2.088,2.088,0,0,0,1.746.852,2.075,2.075,0,0,0,1.75-.863A3.955,3.955,0,0,0,23.109-4.3a3.61,3.61,0,0,0-.66-2.254A2.1,2.1,0,0,0,20.7-7.422a2.075,2.075,0,0,0-1.727.852A3.925,3.925,0,0,0,18.313-4.133Z" transform="translate(1145.079 1753.218)" fill="#00003e"/>
    <path id="Trazado_193539" data-name="Trazado 193539" d="M-25.934-11.375v7.734a3.628,3.628,0,0,1-1.012,2.633A4.077,4.077,0,0,1-29.668.141l-.4.016A4.258,4.258,0,0,1-33.043-.852a3.6,3.6,0,0,1-1.125-2.773v-7.75h1.484v7.7A2.6,2.6,0,0,0-32-1.754a2.612,2.612,0,0,0,1.938.684,2.63,2.63,0,0,0,1.949-.68,2.6,2.6,0,0,0,.676-1.914v-7.711Zm9.3,7.242a5.026,5.026,0,0,1-.891,3.113A2.846,2.846,0,0,1-19.918.156,2.947,2.947,0,0,1-22.395-.977l-.07.977h-1.328V-12h1.445v4.477a2.93,2.93,0,0,1,2.414-1.086,2.863,2.863,0,0,1,2.418,1.164,5.177,5.177,0,0,1,.879,3.188ZM-18.082-4.3a3.906,3.906,0,0,0-.57-2.281,1.888,1.888,0,0,0-1.641-.8,2.122,2.122,0,0,0-2.055,1.328V-2.4a2.181,2.181,0,0,0,2.07,1.328,1.878,1.878,0,0,0,1.617-.8A4.153,4.153,0,0,0-18.082-4.3ZM-13.246,0h-1.445V-8.453h1.445Zm-1.562-10.7a.863.863,0,0,1,.215-.594.807.807,0,0,1,.637-.242.819.819,0,0,1,.641.242.854.854,0,0,1,.219.594.826.826,0,0,1-.219.586.834.834,0,0,1-.641.234.821.821,0,0,1-.637-.234A.834.834,0,0,1-14.809-10.7Zm7.266,9.672a2.082,2.082,0,0,0,1.352-.469,1.649,1.649,0,0,0,.641-1.172h1.367a2.621,2.621,0,0,1-.5,1.383A3.293,3.293,0,0,1-5.914-.234,3.55,3.55,0,0,1-7.543.156,3.482,3.482,0,0,1-10.289-1a4.59,4.59,0,0,1-1.02-3.152v-.242a5.089,5.089,0,0,1,.453-2.2,3.451,3.451,0,0,1,1.3-1.492,3.7,3.7,0,0,1,2-.531,3.39,3.39,0,0,1,2.363.852,3.043,3.043,0,0,1,1,2.211H-5.551a1.992,1.992,0,0,0-.621-1.348,1.932,1.932,0,0,0-1.379-.527,2.023,2.023,0,0,0-1.707.793,3.724,3.724,0,0,0-.605,2.293v.273a3.65,3.65,0,0,0,.6,2.25A2.033,2.033,0,0,0-7.543-1.023ZM2.66,0a3.036,3.036,0,0,1-.2-.891A3.225,3.225,0,0,1,.051.156,2.984,2.984,0,0,1-2-.551a2.287,2.287,0,0,1-.8-1.793,2.39,2.39,0,0,1,1-2.051,4.733,4.733,0,0,1,2.824-.73H2.434v-.664A1.623,1.623,0,0,0,1.98-7,1.821,1.821,0,0,0,.645-7.445a2.107,2.107,0,0,0-1.3.391,1.151,1.151,0,0,0-.523.945H-2.629A2,2,0,0,1-2.18-7.332,3.066,3.066,0,0,1-.961-8.266,4.1,4.1,0,0,1,.73-8.609a3.342,3.342,0,0,1,2.289.73,2.635,2.635,0,0,1,.859,2.012v3.891a4.757,4.757,0,0,0,.3,1.852V0ZM.262-1.1a2.54,2.54,0,0,0,1.289-.352,2.127,2.127,0,0,0,.883-.914V-4.1H1.3q-2.656,0-2.656,1.555A1.316,1.316,0,0,0-.9-1.484,1.742,1.742,0,0,0,.262-1.1Zm9.273.078a2.082,2.082,0,0,0,1.352-.469,1.649,1.649,0,0,0,.641-1.172h1.367a2.621,2.621,0,0,1-.5,1.383,3.293,3.293,0,0,1-1.23,1.047A3.55,3.55,0,0,1,9.535.156,3.482,3.482,0,0,1,6.789-1,4.59,4.59,0,0,1,5.77-4.148v-.242a5.089,5.089,0,0,1,.453-2.2,3.451,3.451,0,0,1,1.3-1.492,3.7,3.7,0,0,1,2-.531,3.39,3.39,0,0,1,2.363.852,3.043,3.043,0,0,1,1,2.211H11.527a1.992,1.992,0,0,0-.621-1.348,1.932,1.932,0,0,0-1.379-.527,2.023,2.023,0,0,0-1.707.793,3.724,3.724,0,0,0-.605,2.293v.273a3.65,3.65,0,0,0,.6,2.25A2.033,2.033,0,0,0,9.535-1.023ZM16.09,0H14.645V-8.453H16.09ZM14.527-10.7a.863.863,0,0,1,.215-.594.807.807,0,0,1,.637-.242.819.819,0,0,1,.641.242.854.854,0,0,1,.219.594.826.826,0,0,1-.219.586.834.834,0,0,1-.641.234.821.821,0,0,1-.637-.234A.834.834,0,0,1,14.527-10.7ZM18.02-4.3a4.993,4.993,0,0,1,.488-2.234A3.643,3.643,0,0,1,19.867-8.07a3.7,3.7,0,0,1,1.988-.539,3.565,3.565,0,0,1,2.793,1.2,4.6,4.6,0,0,1,1.066,3.18v.1a5.036,5.036,0,0,1-.473,2.215A3.589,3.589,0,0,1,23.891-.391a3.743,3.743,0,0,1-2.02.547,3.556,3.556,0,0,1-2.785-1.2A4.575,4.575,0,0,1,18.02-4.2Zm1.453.172a3.616,3.616,0,0,0,.652,2.258,2.088,2.088,0,0,0,1.746.852,2.075,2.075,0,0,0,1.75-.863A3.955,3.955,0,0,0,24.27-4.3a3.61,3.61,0,0,0-.66-2.254,2.1,2.1,0,0,0-1.754-.863,2.075,2.075,0,0,0-1.727.852A3.925,3.925,0,0,0,19.473-4.133ZM22.512-12h1.75L22.168-9.7,21-9.707Zm6.383,3.547.047,1.063a3.08,3.08,0,0,1,2.531-1.219q2.68,0,2.7,3.023V0H32.73V-5.594a1.946,1.946,0,0,0-.418-1.352,1.675,1.675,0,0,0-1.277-.437,2.086,2.086,0,0,0-1.234.375,2.546,2.546,0,0,0-.828.984V0H27.527V-8.453Z" transform="translate(1144.239 1817.796)" fill="#00003e"/>
    <path id="Trazado_193540" data-name="Trazado 193540" d="M19,0H134.911a19,19,0,0,1,19,19v2.9a19,19,0,0,1-19,19H19a19,19,0,0,1-19-19V19A19,19,0,0,1,19,0Z" transform="translate(880.524 1902.165)" fill="#fff" stroke="#00003e" stroke-width="2"/>
    <path id="Trazado_193541" data-name="Trazado 193541" d="M-49.691-3.609A4.185,4.185,0,0,1-51.023-.824,4.365,4.365,0,0,1-54,.156a4.008,4.008,0,0,1-3.23-1.445,5.815,5.815,0,0,1-1.215-3.867V-6.25a6.481,6.481,0,0,1,.566-2.789,4.231,4.231,0,0,1,1.605-1.848,4.47,4.47,0,0,1,2.406-.645,4.11,4.11,0,0,1,2.906,1.012,4.235,4.235,0,0,1,1.273,2.8H-51.2a3.268,3.268,0,0,0-.848-1.975,2.565,2.565,0,0,0-1.824-.611,2.684,2.684,0,0,0-2.254,1.063,4.882,4.882,0,0,0-.816,3.026v1.1a5.018,5.018,0,0,0,.773,2.948A2.5,2.5,0,0,0-54-1.07a2.887,2.887,0,0,0,1.918-.566A3.143,3.143,0,0,0-51.2-3.609Zm1.438-.7a4.993,4.993,0,0,1,.488-2.234A3.643,3.643,0,0,1-46.406-8.07a3.7,3.7,0,0,1,1.988-.539,3.565,3.565,0,0,1,2.793,1.2,4.6,4.6,0,0,1,1.066,3.18v.1a5.036,5.036,0,0,1-.473,2.215A3.589,3.589,0,0,1-42.383-.391,3.743,3.743,0,0,1-44.4.156a3.556,3.556,0,0,1-2.785-1.2A4.575,4.575,0,0,1-48.254-4.2Zm1.453.172a3.616,3.616,0,0,0,.652,2.258,2.088,2.088,0,0,0,1.746.852,2.075,2.075,0,0,0,1.75-.863A3.955,3.955,0,0,0-42-4.3a3.61,3.61,0,0,0-.66-2.254,2.1,2.1,0,0,0-1.754-.863,2.075,2.075,0,0,0-1.727.852A3.925,3.925,0,0,0-46.8-4.133ZM-43.762-12h1.75l-2.094,2.3-1.164,0ZM-39.1-4.3a4.952,4.952,0,0,1,.922-3.129,2.915,2.915,0,0,1,2.414-1.184A2.932,2.932,0,0,1-33.41-7.594V-12h1.445V0h-1.328l-.07-.906A2.943,2.943,0,0,1-35.777.156a2.887,2.887,0,0,1-2.395-1.2A5.008,5.008,0,0,1-39.1-4.187Zm1.445.164a3.749,3.749,0,0,0,.594,2.25,1.92,1.92,0,0,0,1.641.813A2.108,2.108,0,0,0-33.41-2.3V-6.187a2.125,2.125,0,0,0-1.992-1.2,1.929,1.929,0,0,0-1.656.82A4.128,4.128,0,0,0-37.652-4.133ZM-28.152,0H-29.6V-8.453h1.445Zm-1.562-10.7a.863.863,0,0,1,.215-.594.807.807,0,0,1,.637-.242.819.819,0,0,1,.641.242A.854.854,0,0,1-28-10.7a.826.826,0,0,1-.219.586.834.834,0,0,1-.641.234.821.821,0,0,1-.637-.234A.834.834,0,0,1-29.715-10.7Zm3.531,6.4a4.968,4.968,0,0,1,.914-3.145,2.923,2.923,0,0,1,2.422-1.168,2.908,2.908,0,0,1,2.414,1.094l.07-.937h1.32V-.2a3.439,3.439,0,0,1-.973,2.586,3.589,3.589,0,0,1-2.613.945,4.348,4.348,0,0,1-1.789-.391,3.08,3.08,0,0,1-1.336-1.07L-25,1A2.826,2.826,0,0,0-22.73,2.148a2.214,2.214,0,0,0,1.645-.594A2.269,2.269,0,0,0-20.5-.117V-.844a2.971,2.971,0,0,1-2.367,1,2.887,2.887,0,0,1-2.4-1.2A5.224,5.224,0,0,1-26.184-4.3Zm1.453.164a3.79,3.79,0,0,0,.586,2.246A1.9,1.9,0,0,0-22.5-1.07,2.117,2.117,0,0,0-20.5-2.312V-6.172a2.142,2.142,0,0,0-1.992-1.211,1.921,1.921,0,0,0-1.648.82A4.128,4.128,0,0,0-24.73-4.133Zm7.484-.172a4.993,4.993,0,0,1,.488-2.234A3.643,3.643,0,0,1-15.4-8.07a3.7,3.7,0,0,1,1.988-.539,3.565,3.565,0,0,1,2.793,1.2,4.6,4.6,0,0,1,1.066,3.18v.1a5.036,5.036,0,0,1-.473,2.215A3.589,3.589,0,0,1-11.375-.391a3.743,3.743,0,0,1-2.02.547,3.556,3.556,0,0,1-2.785-1.2A4.575,4.575,0,0,1-17.246-4.2Zm1.453.172a3.616,3.616,0,0,0,.652,2.258,2.088,2.088,0,0,0,1.746.852,2.075,2.075,0,0,0,1.75-.863A3.955,3.955,0,0,0-11-4.3a3.61,3.61,0,0,0-.66-2.254,2.1,2.1,0,0,0-1.754-.863,2.075,2.075,0,0,0-1.727.852A3.925,3.925,0,0,0-15.793-4.133ZM-1.645,1.18H-8.8V0h7.156ZM4.7,0a3.036,3.036,0,0,1-.2-.891A3.225,3.225,0,0,1,2.09.156,2.984,2.984,0,0,1,.039-.551a2.287,2.287,0,0,1-.8-1.793,2.39,2.39,0,0,1,1-2.051,4.733,4.733,0,0,1,2.824-.73H4.473v-.664A1.623,1.623,0,0,0,4.02-7a1.821,1.821,0,0,0-1.336-.449,2.107,2.107,0,0,0-1.3.391,1.151,1.151,0,0,0-.523.945H-.59A2,2,0,0,1-.141-7.332a3.066,3.066,0,0,1,1.219-.934A4.1,4.1,0,0,1,2.77-8.609a3.342,3.342,0,0,1,2.289.73,2.635,2.635,0,0,1,.859,2.012v3.891a4.757,4.757,0,0,0,.3,1.852V0ZM2.3-1.1A2.54,2.54,0,0,0,3.59-1.453a2.127,2.127,0,0,0,.883-.914V-4.1H3.34Q.684-4.1.684-2.547a1.316,1.316,0,0,0,.453,1.063A1.742,1.742,0,0,0,2.3-1.1ZM9.754,0H8.309V-12H9.754Zm3.672-8.453.039.938a3.122,3.122,0,0,1,2.508-1.094A2.417,2.417,0,0,1,18.387-7.25a3.2,3.2,0,0,1,1.1-.984,3.242,3.242,0,0,1,1.6-.375q2.781,0,2.828,2.945V0H22.465V-5.578a1.941,1.941,0,0,0-.414-1.355,1.823,1.823,0,0,0-1.391-.449,1.916,1.916,0,0,0-1.336.48,1.949,1.949,0,0,0-.617,1.293V0H17.254V-5.539a1.613,1.613,0,0,0-1.8-1.844A1.934,1.934,0,0,0,13.5-6.172V0H12.059V-8.453ZM31.309,0a3.036,3.036,0,0,1-.2-.891A3.225,3.225,0,0,1,28.7.156a2.984,2.984,0,0,1-2.051-.707,2.287,2.287,0,0,1-.8-1.793,2.39,2.39,0,0,1,1-2.051,4.733,4.733,0,0,1,2.824-.73h1.406v-.664A1.623,1.623,0,0,0,30.629-7a1.821,1.821,0,0,0-1.336-.449,2.108,2.108,0,0,0-1.3.391,1.151,1.151,0,0,0-.523.945H26.02a2,2,0,0,1,.449-1.223,3.066,3.066,0,0,1,1.219-.934,4.1,4.1,0,0,1,1.691-.344,3.342,3.342,0,0,1,2.289.73,2.635,2.635,0,0,1,.859,2.012v3.891a4.757,4.757,0,0,0,.3,1.852V0Zm-2.4-1.1A2.54,2.54,0,0,0,30.2-1.453a2.127,2.127,0,0,0,.883-.914V-4.1H29.949q-2.656,0-2.656,1.555a1.316,1.316,0,0,0,.453,1.063A1.742,1.742,0,0,0,28.91-1.1Zm9.273.078a2.082,2.082,0,0,0,1.352-.469,1.649,1.649,0,0,0,.641-1.172h1.367a2.621,2.621,0,0,1-.5,1.383,3.293,3.293,0,0,1-1.23,1.047,3.55,3.55,0,0,1-1.629.391A3.482,3.482,0,0,1,35.438-1a4.59,4.59,0,0,1-1.02-3.152v-.242a5.089,5.089,0,0,1,.453-2.2,3.451,3.451,0,0,1,1.3-1.492,3.7,3.7,0,0,1,2-.531,3.39,3.39,0,0,1,2.363.852,3.043,3.043,0,0,1,1,2.211H40.176a1.992,1.992,0,0,0-.621-1.348,1.932,1.932,0,0,0-1.379-.527,2.023,2.023,0,0,0-1.707.793,3.724,3.724,0,0,0-.605,2.293v.273a3.65,3.65,0,0,0,.6,2.25A2.033,2.033,0,0,0,38.184-1.023ZM46.676.156a3.693,3.693,0,0,1-2.8-1.129A4.19,4.19,0,0,1,42.8-3.992v-.266a5.073,5.073,0,0,1,.48-2.246,3.748,3.748,0,0,1,1.344-1.547A3.378,3.378,0,0,1,46.5-8.609a3.166,3.166,0,0,1,2.563,1.086,4.7,4.7,0,0,1,.914,3.109v.6H44.246a3,3,0,0,0,.73,2.02,2.3,2.3,0,0,0,1.777.77,2.517,2.517,0,0,0,1.3-.312,3.259,3.259,0,0,0,.93-.828l.883.688A3.55,3.55,0,0,1,46.676.156ZM46.5-7.422a1.928,1.928,0,0,0-1.469.637A3.1,3.1,0,0,0,44.293-5h4.234v-.109a2.753,2.753,0,0,0-.594-1.707A1.815,1.815,0,0,0,46.5-7.422Zm6.516-1.031.047,1.063A3.08,3.08,0,0,1,55.59-8.609q2.68,0,2.7,3.023V0H56.848V-5.594a1.946,1.946,0,0,0-.418-1.352,1.675,1.675,0,0,0-1.277-.437,2.086,2.086,0,0,0-1.234.375,2.546,2.546,0,0,0-.828.984V0H51.645V-8.453Z" transform="translate(950.826 1926.502)" fill="#00003e"/>
    <path id="Trazado_193542" data-name="Trazado 193542" d="M19,0h85a19,19,0,0,1,19,19v3a19,19,0,0,1-19,19H19A19,19,0,0,1,0,22V19A19,19,0,0,1,19,0Z" transform="translate(747.034 1603)" fill="#fff" stroke="#00003e" stroke-width="2"/>
    <path id="Trazado_193543" data-name="Trazado 193543" d="M-14.037-3.384A3.923,3.923,0,0,1-15.286-.773,4.093,4.093,0,0,1-18.08.146a3.758,3.758,0,0,1-3.029-1.355,5.451,5.451,0,0,1-1.139-3.625V-5.859a6.076,6.076,0,0,1,.531-2.615,3.966,3.966,0,0,1,1.505-1.732,4.191,4.191,0,0,1,2.256-.6,3.853,3.853,0,0,1,2.725.948,3.971,3.971,0,0,1,1.194,2.626H-15.45a3.064,3.064,0,0,0-.795-1.851,2.4,2.4,0,0,0-1.71-.573,2.516,2.516,0,0,0-2.113,1,4.577,4.577,0,0,0-.765,2.837v1.034a4.7,4.7,0,0,0,.725,2.764A2.343,2.343,0,0,0-18.08-1a2.706,2.706,0,0,0,1.8-.531,2.947,2.947,0,0,0,.831-1.849Zm5,3.53A3.463,3.463,0,0,1-11.664-.912a3.928,3.928,0,0,1-1.011-2.831v-.249a4.756,4.756,0,0,1,.45-2.106,3.514,3.514,0,0,1,1.26-1.45A3.167,3.167,0,0,1-9.21-8.071a2.968,2.968,0,0,1,2.4,1.018,4.408,4.408,0,0,1,.857,2.915v.564H-11.32a2.817,2.817,0,0,0,.685,1.893,2.153,2.153,0,0,0,1.666.721,2.36,2.36,0,0,0,1.216-.293,3.055,3.055,0,0,0,.872-.776l.828.645A3.328,3.328,0,0,1-9.042.146Zm-.168-7.1a1.807,1.807,0,0,0-1.377.6,2.9,2.9,0,0,0-.688,1.674h3.97v-.1a2.581,2.581,0,0,0-.557-1.6A1.7,1.7,0,0,0-9.21-6.958Zm4.5,2.93a4.642,4.642,0,0,1,.864-2.933,2.733,2.733,0,0,1,2.263-1.11,2.748,2.748,0,0,1,2.2.952V-11.25H1.974V0H.729L.663-.85A2.759,2.759,0,0,1-1.6.146,2.707,2.707,0,0,1-3.845-.981a4.7,4.7,0,0,1-.868-2.944Zm1.355.154A3.515,3.515,0,0,0-2.8-1.765,1.8,1.8,0,0,0-1.263-1,1.977,1.977,0,0,0,.619-2.161V-5.8A1.992,1.992,0,0,0-1.249-6.921,1.808,1.808,0,0,0-2.8-6.152,3.87,3.87,0,0,0-3.358-3.875ZM8.969-.784a2.878,2.878,0,0,1-2.322.93A2.464,2.464,0,0,1,4.717-.59a3.186,3.186,0,0,1-.67-2.179V-7.925H5.4v5.12Q5.4-1,6.866-1A2.028,2.028,0,0,0,8.932-2.161V-7.925h1.355V0H9ZM13.817,0H12.462V-11.25h1.355Zm7.061,0a2.846,2.846,0,0,1-.19-.835,3.023,3.023,0,0,1-2.256.981,2.8,2.8,0,0,1-1.923-.663A2.145,2.145,0,0,1,15.758-2.2,2.24,2.24,0,0,1,16.7-4.12,4.437,4.437,0,0,1,19.347-4.8h1.318v-.623a1.522,1.522,0,0,0-.425-1.132,1.707,1.707,0,0,0-1.252-.421,1.976,1.976,0,0,0-1.216.366,1.079,1.079,0,0,0-.491.886H15.919a1.87,1.87,0,0,1,.421-1.146,2.874,2.874,0,0,1,1.143-.875,3.844,3.844,0,0,1,1.586-.322,3.133,3.133,0,0,1,2.146.685A2.47,2.47,0,0,1,22.02-5.5v3.647A4.459,4.459,0,0,0,22.3-.117V0ZM18.629-1.033a2.381,2.381,0,0,0,1.208-.33,1.994,1.994,0,0,0,.828-.857V-3.845H19.6q-2.49,0-2.49,1.458a1.234,1.234,0,0,0,.425,1A1.633,1.633,0,0,0,18.629-1.033Z" transform="translate(804.043 1626.291)" fill="#00003e"/>
    <path id="Trazado_193544" data-name="Trazado 193544" d="M19,0H134a19,19,0,0,1,19,19v3a19,19,0,0,1-19,19H19A19,19,0,0,1,0,22V19A19,19,0,0,1,19,0Z" transform="translate(883.034 1603)" fill="#fff" stroke="#00003e" stroke-width="2"/>
    <path id="Trazado_193545" data-name="Trazado 193545" d="M-36.437-1.992l3.25-9.383h1.641L-35.766,0h-1.328L-41.3-11.375h1.633ZM-25.391,0a3.036,3.036,0,0,1-.2-.891A3.225,3.225,0,0,1-28,.156a2.984,2.984,0,0,1-2.051-.707,2.287,2.287,0,0,1-.8-1.793,2.39,2.39,0,0,1,1-2.051,4.733,4.733,0,0,1,2.824-.73h1.406v-.664A1.623,1.623,0,0,0-26.07-7a1.821,1.821,0,0,0-1.336-.449,2.108,2.108,0,0,0-1.3.391,1.151,1.151,0,0,0-.523.945H-30.68a2,2,0,0,1,.449-1.223,3.066,3.066,0,0,1,1.219-.934,4.1,4.1,0,0,1,1.691-.344,3.342,3.342,0,0,1,2.289.73,2.635,2.635,0,0,1,.859,2.012v3.891a4.757,4.757,0,0,0,.3,1.852V0Zm-2.4-1.1A2.54,2.54,0,0,0-26.5-1.453a2.127,2.127,0,0,0,.883-.914V-4.1H-26.75q-2.656,0-2.656,1.555a1.316,1.316,0,0,0,.453,1.063A1.742,1.742,0,0,0-27.789-1.1ZM-20.336,0h-1.445V-12h1.445Zm1.93-4.3a4.993,4.993,0,0,1,.488-2.234A3.643,3.643,0,0,1-16.559-8.07a3.7,3.7,0,0,1,1.988-.539,3.565,3.565,0,0,1,2.793,1.2,4.6,4.6,0,0,1,1.066,3.18v.1a5.036,5.036,0,0,1-.473,2.215A3.589,3.589,0,0,1-12.535-.391a3.743,3.743,0,0,1-2.02.547,3.556,3.556,0,0,1-2.785-1.2A4.575,4.575,0,0,1-18.406-4.2Zm1.453.172A3.616,3.616,0,0,0-16.3-1.875a2.088,2.088,0,0,0,1.746.852,2.075,2.075,0,0,0,1.75-.863A3.955,3.955,0,0,0-12.156-4.3a3.61,3.61,0,0,0-.66-2.254,2.1,2.1,0,0,0-1.754-.863A2.075,2.075,0,0,0-16.3-6.57,3.925,3.925,0,0,0-16.953-4.133ZM-4.812-7.156a4.331,4.331,0,0,0-.711-.055A1.9,1.9,0,0,0-7.453-6V0H-8.9V-8.453h1.406l.023.977A2.251,2.251,0,0,1-5.453-8.609a1.477,1.477,0,0,1,.641.109ZM2.609,1.18H-4.547V0H2.609ZM6.523-1.961,8.617-8.453h1.477L7.063,0h-1.1L2.9-8.453H4.375ZM14.891.156a3.693,3.693,0,0,1-2.8-1.129,4.19,4.19,0,0,1-1.078-3.02v-.266A5.073,5.073,0,0,1,11.5-6.5,3.748,3.748,0,0,1,12.84-8.051a3.378,3.378,0,0,1,1.871-.559,3.166,3.166,0,0,1,2.563,1.086,4.7,4.7,0,0,1,.914,3.109v.6H12.461a3,3,0,0,0,.73,2.02,2.3,2.3,0,0,0,1.777.77,2.517,2.517,0,0,0,1.3-.312,3.259,3.259,0,0,0,.93-.828l.883.688A3.55,3.55,0,0,1,14.891.156Zm-.18-7.578a1.928,1.928,0,0,0-1.469.637A3.1,3.1,0,0,0,12.508-5h4.234v-.109a2.753,2.753,0,0,0-.594-1.707A1.815,1.815,0,0,0,14.711-7.422Zm6.516-1.031.047,1.063A3.08,3.08,0,0,1,23.8-8.609q2.68,0,2.7,3.023V0H25.063V-5.594a1.946,1.946,0,0,0-.418-1.352,1.675,1.675,0,0,0-1.277-.437,2.086,2.086,0,0,0-1.234.375,2.546,2.546,0,0,0-.828.984V0H19.859V-8.453ZM30.648-10.5v2.047h1.578v1.117H30.648v5.249a1.173,1.173,0,0,0,.211.763.888.888,0,0,0,.719.254,3.5,3.5,0,0,0,.688-.094V0a4.215,4.215,0,0,1-1.109.155A1.8,1.8,0,0,1,29.7-.43,2.517,2.517,0,0,1,29.2-2.094V-7.336H27.664V-8.453H29.2V-10.5ZM39.133,0a3.036,3.036,0,0,1-.2-.891A3.225,3.225,0,0,1,36.523.156a2.984,2.984,0,0,1-2.051-.707,2.287,2.287,0,0,1-.8-1.793,2.39,2.39,0,0,1,1-2.051,4.733,4.733,0,0,1,2.824-.73h1.406v-.664A1.623,1.623,0,0,0,38.453-7a1.821,1.821,0,0,0-1.336-.449,2.107,2.107,0,0,0-1.3.391,1.151,1.151,0,0,0-.523.945H33.844a2,2,0,0,1,.449-1.223,3.066,3.066,0,0,1,1.219-.934A4.1,4.1,0,0,1,37.2-8.609a3.342,3.342,0,0,1,2.289.73,2.635,2.635,0,0,1,.859,2.012v3.891a4.757,4.757,0,0,0,.3,1.852V0Zm-2.4-1.1a2.54,2.54,0,0,0,1.289-.352,2.127,2.127,0,0,0,.883-.914V-4.1H37.773q-2.656,0-2.656,1.555a1.316,1.316,0,0,0,.453,1.063A1.742,1.742,0,0,0,36.734-1.1Z" transform="translate(956.429 1627.291)" fill="#00003e"/>
    <path id="Trazado_193546" data-name="Trazado 193546" d="M19,0H134a19,19,0,0,1,19,19v3a19,19,0,0,1-19,19H19A19,19,0,0,1,0,22V19A19,19,0,0,1,19,0Z" transform="translate(582.034 1603)" fill="#fff" stroke="#00003e" stroke-width="2"/>
    <path id="Trazado_193547" data-name="Trazado 193547" d="M-52.2-3.609A4.185,4.185,0,0,1-53.535-.824a4.365,4.365,0,0,1-2.98.98,4.008,4.008,0,0,1-3.23-1.445,5.815,5.815,0,0,1-1.215-3.867V-6.25a6.481,6.481,0,0,1,.566-2.789,4.231,4.231,0,0,1,1.605-1.848,4.47,4.47,0,0,1,2.406-.645,4.11,4.11,0,0,1,2.906,1.012,4.235,4.235,0,0,1,1.273,2.8h-1.508a3.268,3.268,0,0,0-.848-1.975,2.565,2.565,0,0,0-1.824-.611,2.684,2.684,0,0,0-2.254,1.063,4.882,4.882,0,0,0-.816,3.026v1.1a5.018,5.018,0,0,0,.773,2.948A2.5,2.5,0,0,0-56.516-1.07,2.887,2.887,0,0,0-54.6-1.637a3.143,3.143,0,0,0,.887-1.973Zm1.438-.7a4.993,4.993,0,0,1,.488-2.234A3.643,3.643,0,0,1-48.918-8.07a3.7,3.7,0,0,1,1.988-.539,3.565,3.565,0,0,1,2.793,1.2,4.6,4.6,0,0,1,1.066,3.18v.1a5.036,5.036,0,0,1-.473,2.215A3.589,3.589,0,0,1-44.895-.391a3.743,3.743,0,0,1-2.02.547,3.556,3.556,0,0,1-2.785-1.2A4.575,4.575,0,0,1-50.766-4.2Zm1.453.172a3.616,3.616,0,0,0,.652,2.258,2.088,2.088,0,0,0,1.746.852,2.075,2.075,0,0,0,1.75-.863A3.955,3.955,0,0,0-44.516-4.3a3.61,3.61,0,0,0-.66-2.254,2.1,2.1,0,0,0-1.754-.863,2.075,2.075,0,0,0-1.727.852A3.925,3.925,0,0,0-49.312-4.133ZM-46.273-12h1.75l-2.094,2.3-1.164,0Zm4.664,7.7a4.952,4.952,0,0,1,.922-3.129,2.915,2.915,0,0,1,2.414-1.184,2.932,2.932,0,0,1,2.352,1.016V-12h1.445V0H-35.8l-.07-.906A2.943,2.943,0,0,1-38.289.156a2.887,2.887,0,0,1-2.395-1.2,5.008,5.008,0,0,1-.926-3.141Zm1.445.164a3.749,3.749,0,0,0,.594,2.25,1.92,1.92,0,0,0,1.641.813A2.108,2.108,0,0,0-35.922-2.3V-6.187a2.125,2.125,0,0,0-1.992-1.2,1.929,1.929,0,0,0-1.656.82A4.128,4.128,0,0,0-40.164-4.133ZM-30.664,0h-1.445V-8.453h1.445Zm-1.562-10.7a.863.863,0,0,1,.215-.594.807.807,0,0,1,.637-.242.819.819,0,0,1,.641.242.854.854,0,0,1,.219.594.826.826,0,0,1-.219.586.834.834,0,0,1-.641.234.821.821,0,0,1-.637-.234A.834.834,0,0,1-32.227-10.7ZM-28.7-4.3a4.968,4.968,0,0,1,.914-3.145,2.923,2.923,0,0,1,2.422-1.168,2.908,2.908,0,0,1,2.414,1.094l.07-.937h1.32V-.2a3.439,3.439,0,0,1-.973,2.586,3.589,3.589,0,0,1-2.613.945,4.348,4.348,0,0,1-1.789-.391,3.08,3.08,0,0,1-1.336-1.07l.75-.867a2.826,2.826,0,0,0,2.273,1.148A2.214,2.214,0,0,0-23.6,1.555a2.269,2.269,0,0,0,.59-1.672V-.844a2.971,2.971,0,0,1-2.367,1,2.887,2.887,0,0,1-2.4-1.2A5.224,5.224,0,0,1-28.7-4.3Zm1.453.164a3.79,3.79,0,0,0,.586,2.246,1.9,1.9,0,0,0,1.641.816,2.117,2.117,0,0,0,2.008-1.242V-6.172A2.142,2.142,0,0,0-25-7.383a1.921,1.921,0,0,0-1.648.82A4.128,4.128,0,0,0-27.242-4.133Zm7.484-.172a4.993,4.993,0,0,1,.488-2.234A3.643,3.643,0,0,1-17.91-8.07a3.7,3.7,0,0,1,1.988-.539,3.565,3.565,0,0,1,2.793,1.2,4.6,4.6,0,0,1,1.066,3.18v.1a5.036,5.036,0,0,1-.473,2.215A3.589,3.589,0,0,1-13.887-.391a3.743,3.743,0,0,1-2.02.547,3.556,3.556,0,0,1-2.785-1.2A4.575,4.575,0,0,1-19.758-4.2Zm1.453.172a3.616,3.616,0,0,0,.652,2.258,2.088,2.088,0,0,0,1.746.852,2.075,2.075,0,0,0,1.75-.863A3.955,3.955,0,0,0-13.508-4.3a3.61,3.61,0,0,0-.66-2.254,2.1,2.1,0,0,0-1.754-.863,2.075,2.075,0,0,0-1.727.852A3.925,3.925,0,0,0-18.3-4.133ZM-4.156,1.18h-7.156V0h7.156ZM-.242-1.961,1.852-8.453H3.328L.3,0H-.8L-3.867-8.453h1.477ZM8.125.156a3.693,3.693,0,0,1-2.8-1.129A4.19,4.19,0,0,1,4.25-3.992v-.266A5.073,5.073,0,0,1,4.73-6.5,3.748,3.748,0,0,1,6.074-8.051a3.378,3.378,0,0,1,1.871-.559,3.166,3.166,0,0,1,2.563,1.086,4.7,4.7,0,0,1,.914,3.109v.6H5.7a3,3,0,0,0,.73,2.02,2.3,2.3,0,0,0,1.777.77,2.517,2.517,0,0,0,1.3-.312,3.259,3.259,0,0,0,.93-.828l.883.688A3.55,3.55,0,0,1,8.125.156Zm-.18-7.578a1.928,1.928,0,0,0-1.469.637A3.1,3.1,0,0,0,5.742-5H9.977v-.109a2.753,2.753,0,0,0-.594-1.707A1.815,1.815,0,0,0,7.945-7.422Zm6.516-1.031.047,1.063a3.08,3.08,0,0,1,2.531-1.219q2.68,0,2.7,3.023V0H18.3V-5.594a1.946,1.946,0,0,0-.418-1.352A1.675,1.675,0,0,0,16.6-7.383a2.086,2.086,0,0,0-1.234.375,2.546,2.546,0,0,0-.828.984V0H13.094V-8.453ZM21.57-4.3a4.952,4.952,0,0,1,.922-3.129,2.915,2.915,0,0,1,2.414-1.184,2.932,2.932,0,0,1,2.352,1.016V-12H28.7V0H27.375L27.3-.906A2.943,2.943,0,0,1,24.891.156a2.887,2.887,0,0,1-2.395-1.2,5.008,5.008,0,0,1-.926-3.141Zm1.445.164a3.749,3.749,0,0,0,.594,2.25,1.92,1.92,0,0,0,1.641.813A2.108,2.108,0,0,0,27.258-2.3V-6.187a2.125,2.125,0,0,0-1.992-1.2,1.929,1.929,0,0,0-1.656.82A4.128,4.128,0,0,0,23.016-4.133ZM34.453.156a3.693,3.693,0,0,1-2.8-1.129,4.19,4.19,0,0,1-1.078-3.02v-.266a5.073,5.073,0,0,1,.48-2.246A3.748,3.748,0,0,1,32.4-8.051a3.378,3.378,0,0,1,1.871-.559,3.166,3.166,0,0,1,2.563,1.086,4.7,4.7,0,0,1,.914,3.109v.6H32.023a3,3,0,0,0,.73,2.02,2.3,2.3,0,0,0,1.777.77,2.517,2.517,0,0,0,1.3-.312,3.259,3.259,0,0,0,.93-.828l.883.688A3.55,3.55,0,0,1,34.453.156Zm-.18-7.578a1.928,1.928,0,0,0-1.469.637A3.1,3.1,0,0,0,32.07-5H36.3v-.109a2.753,2.753,0,0,0-.594-1.707A1.815,1.815,0,0,0,34.273-7.422ZM39.07-4.3a4.952,4.952,0,0,1,.922-3.129,2.915,2.915,0,0,1,2.414-1.184,2.932,2.932,0,0,1,2.352,1.016V-12H46.2V0H44.875L44.8-.906A2.943,2.943,0,0,1,42.391.156,2.887,2.887,0,0,1,40-1.047a5.008,5.008,0,0,1-.926-3.141Zm1.445.164a3.749,3.749,0,0,0,.594,2.25,1.92,1.92,0,0,0,1.641.813A2.108,2.108,0,0,0,44.758-2.3V-6.187a2.125,2.125,0,0,0-1.992-1.2,1.929,1.929,0,0,0-1.656.82A4.128,4.128,0,0,0,40.516-4.133ZM48.063-4.3a4.993,4.993,0,0,1,.488-2.234A3.643,3.643,0,0,1,49.91-8.07,3.7,3.7,0,0,1,51.9-8.609a3.565,3.565,0,0,1,2.793,1.2,4.6,4.6,0,0,1,1.066,3.18v.1a5.036,5.036,0,0,1-.473,2.215A3.589,3.589,0,0,1,53.934-.391a3.743,3.743,0,0,1-2.02.547,3.556,3.556,0,0,1-2.785-1.2A4.575,4.575,0,0,1,48.063-4.2Zm1.453.172a3.616,3.616,0,0,0,.652,2.258,2.088,2.088,0,0,0,1.746.852,2.075,2.075,0,0,0,1.75-.863A3.955,3.955,0,0,0,54.313-4.3a3.61,3.61,0,0,0-.66-2.254A2.1,2.1,0,0,0,51.9-7.422a2.075,2.075,0,0,0-1.727.852A3.925,3.925,0,0,0,49.516-4.133ZM61.656-7.156a4.331,4.331,0,0,0-.711-.055A1.9,1.9,0,0,0,59.016-6V0H57.57V-8.453h1.406L59-7.477a2.251,2.251,0,0,1,2.016-1.133,1.477,1.477,0,0,1,.641.109Z" transform="translate(653.538 1627.291)" fill="#00003e"/>
    <path id="Trazado_188873" data-name="Trazado 188873" d="M1815.775,2179.414l-61.887,10.763L1692,2179.414v-40.9l61.887-10.763,61.887,10.763Z" transform="translate(-950.049 -382.994)" fill="#fff" stroke="#00003e" stroke-miterlimit="10" stroke-width="2"/>
    <path id="Trazado_193548" data-name="Trazado 193548" d="M-29.48,0h-1.5V-11.375h1.5ZM-25.6-8.453l.047,1.063A3.08,3.08,0,0,1-23.02-8.609q2.68,0,2.7,3.023V0h-1.445V-5.594a1.946,1.946,0,0,0-.418-1.352,1.675,1.675,0,0,0-1.277-.437,2.086,2.086,0,0,0-1.234.375,2.546,2.546,0,0,0-.828.984V0h-1.445V-8.453Zm10.25,6.492,2.094-6.492h1.477L-14.809,0h-1.1l-3.062-8.453H-17.5ZM-10.887-4.3A4.993,4.993,0,0,1-10.4-6.539,3.643,3.643,0,0,1-9.039-8.07a3.7,3.7,0,0,1,1.988-.539,3.565,3.565,0,0,1,2.793,1.2,4.6,4.6,0,0,1,1.066,3.18v.1a5.036,5.036,0,0,1-.473,2.215A3.589,3.589,0,0,1-5.016-.391a3.743,3.743,0,0,1-2.02.547,3.556,3.556,0,0,1-2.785-1.2A4.575,4.575,0,0,1-10.887-4.2Zm1.453.172a3.616,3.616,0,0,0,.652,2.258,2.088,2.088,0,0,0,1.746.852,2.075,2.075,0,0,0,1.75-.863A3.955,3.955,0,0,0-4.637-4.3,3.61,3.61,0,0,0-5.3-6.559a2.1,2.1,0,0,0-1.754-.863,2.075,2.075,0,0,0-1.727.852A3.925,3.925,0,0,0-9.434-4.133ZM.191,0H-1.254V-12H.191ZM7.723-.836A3.07,3.07,0,0,1,5.246.156,2.628,2.628,0,0,1,3.188-.629a3.4,3.4,0,0,1-.715-2.324v-5.5H3.918v5.461q0,1.922,1.563,1.922A2.163,2.163,0,0,0,7.684-2.3V-8.453H9.129V0H7.754Zm6.992-.187a2.082,2.082,0,0,0,1.352-.469,1.649,1.649,0,0,0,.641-1.172h1.367a2.621,2.621,0,0,1-.5,1.383,3.293,3.293,0,0,1-1.23,1.047,3.55,3.55,0,0,1-1.629.391A3.482,3.482,0,0,1,11.969-1a4.59,4.59,0,0,1-1.02-3.152v-.242a5.089,5.089,0,0,1,.453-2.2,3.451,3.451,0,0,1,1.3-1.492,3.7,3.7,0,0,1,2-.531,3.39,3.39,0,0,1,2.363.852,3.043,3.043,0,0,1,1,2.211H16.707a1.992,1.992,0,0,0-.621-1.348,1.932,1.932,0,0,0-1.379-.527A2.023,2.023,0,0,0,13-6.629a3.724,3.724,0,0,0-.605,2.293v.273a3.65,3.65,0,0,0,.6,2.25A2.033,2.033,0,0,0,14.715-1.023Zm9.07-6.133a4.331,4.331,0,0,0-.711-.055A1.9,1.9,0,0,0,21.145-6V0H19.7V-8.453h1.406l.023.977a2.251,2.251,0,0,1,2.016-1.133,1.477,1.477,0,0,1,.641.109ZM30.02,0a3.036,3.036,0,0,1-.2-.891A3.225,3.225,0,0,1,27.41.156a2.984,2.984,0,0,1-2.051-.707,2.287,2.287,0,0,1-.8-1.793,2.39,2.39,0,0,1,1-2.051,4.733,4.733,0,0,1,2.824-.73h1.406v-.664A1.623,1.623,0,0,0,29.34-7,1.821,1.821,0,0,0,28-7.445a2.108,2.108,0,0,0-1.3.391,1.151,1.151,0,0,0-.523.945H24.73a2,2,0,0,1,.449-1.223A3.066,3.066,0,0,1,26.4-8.266a4.1,4.1,0,0,1,1.691-.344,3.342,3.342,0,0,1,2.289.73,2.635,2.635,0,0,1,.859,2.012v3.891a4.757,4.757,0,0,0,.3,1.852V0Zm-2.4-1.1a2.54,2.54,0,0,0,1.289-.352,2.127,2.127,0,0,0,.883-.914V-4.1H28.66Q26-4.1,26-2.547a1.316,1.316,0,0,0,.453,1.063A1.742,1.742,0,0,0,27.621-1.1Z" transform="translate(801.32 1779.857)" fill="#00003e"/>
    <path id="Trazado_188874" data-name="Trazado 188874" d="M1973.791,2247.29l-47.9,8.33-47.9-8.33v-31.653l47.9-8.33,47.9,8.33Z" transform="translate(-935.857 -376.924)" fill="#fff" stroke="#00003e" stroke-miterlimit="10" stroke-width="2"/>
    <path id="Trazado_193549" data-name="Trazado 193549" d="M-10.426-10.148h-3.656V0h-1.492V-10.148h-3.648v-1.227h8.8ZM-7.395,0H-8.84V-8.453h1.445ZM-8.957-10.7a.863.863,0,0,1,.215-.594.807.807,0,0,1,.637-.242.819.819,0,0,1,.641.242.854.854,0,0,1,.219.594.826.826,0,0,1-.219.586.834.834,0,0,1-.641.234.821.821,0,0,1-.637-.234A.834.834,0,0,1-8.957-10.7ZM-1.574.156a3.693,3.693,0,0,1-2.8-1.129,4.19,4.19,0,0,1-1.078-3.02v-.266A5.073,5.073,0,0,1-4.969-6.5,3.748,3.748,0,0,1-3.625-8.051a3.378,3.378,0,0,1,1.871-.559A3.166,3.166,0,0,1,.809-7.523a4.7,4.7,0,0,1,.914,3.109v.6H-4a3,3,0,0,0,.73,2.02,2.3,2.3,0,0,0,1.777.77A2.517,2.517,0,0,0-.2-1.336a3.259,3.259,0,0,0,.93-.828l.883.688A3.55,3.55,0,0,1-1.574.156Zm-.18-7.578a1.928,1.928,0,0,0-1.469.637A3.1,3.1,0,0,0-3.957-5H.277v-.109A2.753,2.753,0,0,0-.316-6.816,1.815,1.815,0,0,0-1.754-7.422ZM4.762-8.453l.047,1.063A3.08,3.08,0,0,1,7.34-8.609q2.68,0,2.7,3.023V0H8.6V-5.594A1.946,1.946,0,0,0,8.18-6.945,1.675,1.675,0,0,0,6.9-7.383a2.086,2.086,0,0,0-1.234.375,2.546,2.546,0,0,0-.828.984V0H3.395V-8.453ZM15.73.156a3.693,3.693,0,0,1-2.8-1.129,4.19,4.19,0,0,1-1.078-3.02v-.266a5.073,5.073,0,0,1,.48-2.246A3.748,3.748,0,0,1,13.68-8.051a3.378,3.378,0,0,1,1.871-.559,3.166,3.166,0,0,1,2.563,1.086,4.7,4.7,0,0,1,.914,3.109v.6H13.3a3,3,0,0,0,.73,2.02,2.3,2.3,0,0,0,1.777.77,2.517,2.517,0,0,0,1.3-.312,3.259,3.259,0,0,0,.93-.828l.883.688A3.55,3.55,0,0,1,15.73.156Zm-.18-7.578a1.928,1.928,0,0,0-1.469.637A3.1,3.1,0,0,0,13.348-5h4.234v-.109a2.753,2.753,0,0,0-.594-1.707A1.815,1.815,0,0,0,15.551-7.422Z" transform="translate(988.512 1858.428)" fill="#00003e"/>
    <path id="Trazado_188875" data-name="Trazado 188875" d="M1684.249,2104.472l-51.124,8.891L1582,2104.472v-33.786l51.124-8.892,51.124,8.892Z" transform="translate(-958.442 -388.026)" fill="#fff" stroke="#00003e" stroke-miterlimit="10" stroke-width="2"/>
    <path id="Trazado_193550" data-name="Trazado 193550" d="M-25.07-4.6h-2.672V0H-29.25V-11.375h3.766a4.457,4.457,0,0,1,2.957.875,3.148,3.148,0,0,1,1.035,2.547A3.062,3.062,0,0,1-22.066-6.1a3.428,3.428,0,0,1-1.6,1.18l2.672,4.828V0H-22.6Zm-2.672-1.227h2.3a2.6,2.6,0,0,0,1.777-.579A1.959,1.959,0,0,0-23-7.957a2.062,2.062,0,0,0-.629-1.62,2.663,2.663,0,0,0-1.816-.571h-2.3ZM-16.109.156a3.693,3.693,0,0,1-2.8-1.129,4.19,4.19,0,0,1-1.078-3.02v-.266A5.073,5.073,0,0,1-19.5-6.5,3.748,3.748,0,0,1-18.16-8.051a3.378,3.378,0,0,1,1.871-.559,3.166,3.166,0,0,1,2.563,1.086,4.7,4.7,0,0,1,.914,3.109v.6h-5.727a3,3,0,0,0,.73,2.02,2.3,2.3,0,0,0,1.777.77,2.517,2.517,0,0,0,1.3-.312,3.259,3.259,0,0,0,.93-.828l.883.688A3.55,3.55,0,0,1-16.109.156Zm-.18-7.578a1.928,1.928,0,0,0-1.469.637A3.1,3.1,0,0,0-18.492-5h4.234v-.109a2.753,2.753,0,0,0-.594-1.707A1.815,1.815,0,0,0-16.289-7.422ZM-9.57,0h-1.445V-12H-9.57Zm7.531,0a3.036,3.036,0,0,1-.2-.891A3.225,3.225,0,0,1-4.648.156,2.984,2.984,0,0,1-6.7-.551a2.287,2.287,0,0,1-.8-1.793,2.39,2.39,0,0,1,1-2.051,4.733,4.733,0,0,1,2.824-.73h1.406v-.664A1.623,1.623,0,0,0-2.719-7a1.821,1.821,0,0,0-1.336-.449,2.107,2.107,0,0,0-1.3.391,1.151,1.151,0,0,0-.523.945H-7.328a2,2,0,0,1,.449-1.223A3.066,3.066,0,0,1-5.66-8.266a4.1,4.1,0,0,1,1.691-.344,3.342,3.342,0,0,1,2.289.73A2.635,2.635,0,0,1-.82-5.867v3.891a4.757,4.757,0,0,0,.3,1.852V0Zm-2.4-1.1a2.54,2.54,0,0,0,1.289-.352,2.127,2.127,0,0,0,.883-.914V-4.1H-3.4q-2.656,0-2.656,1.555A1.316,1.316,0,0,0-5.6-1.484,1.742,1.742,0,0,0-4.437-1.1Zm9.273.078a2.082,2.082,0,0,0,1.352-.469,1.649,1.649,0,0,0,.641-1.172H8.2a2.621,2.621,0,0,1-.5,1.383A3.293,3.293,0,0,1,6.465-.234,3.55,3.55,0,0,1,4.836.156,3.482,3.482,0,0,1,2.09-1,4.59,4.59,0,0,1,1.07-4.148v-.242a5.089,5.089,0,0,1,.453-2.2,3.451,3.451,0,0,1,1.3-1.492,3.7,3.7,0,0,1,2-.531,3.39,3.39,0,0,1,2.363.852,3.043,3.043,0,0,1,1,2.211H6.828a1.992,1.992,0,0,0-.621-1.348,1.932,1.932,0,0,0-1.379-.527,2.023,2.023,0,0,0-1.707.793,3.724,3.724,0,0,0-.605,2.293v.273a3.65,3.65,0,0,0,.6,2.25A2.033,2.033,0,0,0,4.836-1.023ZM11.391,0H9.945V-8.453h1.445ZM9.828-10.7a.863.863,0,0,1,.215-.594.807.807,0,0,1,.637-.242.819.819,0,0,1,.641.242.854.854,0,0,1,.219.594.826.826,0,0,1-.219.586.834.834,0,0,1-.641.234.821.821,0,0,1-.637-.234A.834.834,0,0,1,9.828-10.7ZM13.32-4.3a4.993,4.993,0,0,1,.488-2.234A3.643,3.643,0,0,1,15.168-8.07a3.7,3.7,0,0,1,1.988-.539,3.565,3.565,0,0,1,2.793,1.2,4.6,4.6,0,0,1,1.066,3.18v.1a5.036,5.036,0,0,1-.473,2.215A3.589,3.589,0,0,1,19.191-.391a3.743,3.743,0,0,1-2.02.547,3.556,3.556,0,0,1-2.785-1.2A4.575,4.575,0,0,1,13.32-4.2Zm1.453.172a3.616,3.616,0,0,0,.652,2.258,2.088,2.088,0,0,0,1.746.852,2.075,2.075,0,0,0,1.75-.863A3.955,3.955,0,0,0,19.57-4.3a3.61,3.61,0,0,0-.66-2.254,2.1,2.1,0,0,0-1.754-.863,2.075,2.075,0,0,0-1.727.852A3.925,3.925,0,0,0,14.773-4.133ZM17.813-12h1.75L17.469-9.7l-1.164,0ZM24.2-8.453l.047,1.063a3.08,3.08,0,0,1,2.531-1.219q2.68,0,2.7,3.023V0H28.031V-5.594a1.946,1.946,0,0,0-.418-1.352,1.675,1.675,0,0,0-1.277-.437,2.086,2.086,0,0,0-1.234.375,2.546,2.546,0,0,0-.828.984V0H22.828V-8.453Z" transform="translate(672.316 1703.44)" fill="#00003e"/>
    <path id="Trazado_193551" data-name="Trazado 193551" d="M-1.107-.92H2.936V0H-2.238V-8.531h1.131Z" transform="translate(829.793 1817.594)" fill="#00003e"/>
    <path id="Trazado_193552" data-name="Trazado 193552" d="M-1.107-.92H2.936V0H-2.238V-8.531h1.131Z" transform="translate(622.067 1670.14)" fill="#00003e"/>
    <path id="Trazado_193553" data-name="Trazado 193553" d="M-1.107-.92H2.936V0H-2.238V-8.531h1.131Z" transform="translate(1021.375 1817.594)" fill="#00003e"/>
    <path id="Trazado_193554" data-name="Trazado 193554" d="M-3.261-9.953-.007-1.832,3.247-9.953h1.7V0H3.637V-3.876L3.76-8.06.492,0h-1L-3.773-8.039l.13,4.163V0H-4.956V-9.953Z" transform="translate(926.432 1843.272)" fill="#00003e"/>
    <path id="Trazado_193555" data-name="Trazado 193555" d="M-3.261-9.953-.007-1.832,3.247-9.953h1.7V0H3.637V-3.876L3.76-8.06.492,0h-1L-3.773-8.039l.13,4.163V0H-4.956V-9.953Z" transform="translate(826.336 1736.718)" fill="#00003e"/>
    <path id="Trazado_193556" data-name="Trazado 193556" d="M-3.989-7.4l.034.82A2.732,2.732,0,0,1-1.76-7.533,2.115,2.115,0,0,1,.352-6.344a2.8,2.8,0,0,1,.96-.861,2.837,2.837,0,0,1,1.4-.328q2.434,0,2.475,2.577V0H3.92V-4.881a1.7,1.7,0,0,0-.362-1.186A1.6,1.6,0,0,0,2.341-6.46a1.677,1.677,0,0,0-1.169.42,1.706,1.706,0,0,0-.54,1.131V0H-.639V-4.847A1.411,1.411,0,0,0-2.218-6.46,1.692,1.692,0,0,0-3.92-5.4V0H-5.185V-7.4Z" transform="translate(718.706 1672.14)" fill="#00003e"/>
    <path id="Trazado_193557" data-name="Trazado 193557" d="M0,26V0" transform="translate(803.034 1876)" fill="#fff" stroke="#00003e" stroke-width="2"/>
    <path id="Trazado_188876" data-name="Trazado 188876" d="M1917.441,2274.916V2262H1615v12.916" transform="translate(-955.924 -372.751)" fill="none" stroke="#00003e" stroke-miterlimit="10" stroke-width="2"/>
    <path id="Trazado_193558" data-name="Trazado 193558" d="M0,0H76.417" transform="translate(865.726 1856.154)" fill="none" stroke="#00003e" stroke-width="2"/>
    <path id="Trazado_193559" data-name="Trazado 193559" d="M0,29.392V0" transform="translate(990.039 1800.992)" fill="none" stroke="#00003e" stroke-width="2"/>
    <path id="Trazado_188877" data-name="Trazado 188877" d="M1980,2161.591h13.415v32.729h19.95" transform="translate(-928.074 -380.412)" fill="none" stroke="#00003e" stroke-miterlimit="10" stroke-width="2"/>
    <path id="Trazado_188878" data-name="Trazado 188878" d="M2012.414,2132h-19.95v31.849" transform="translate(-927.123 -382.67)" fill="none" stroke="#00003e" stroke-miterlimit="10" stroke-width="2"/>
    <path id="Trazado_193560" data-name="Trazado 193560" d="M0,26.991V0" transform="translate(803.3 1807.183)" fill="none" stroke="#00003e" stroke-width="2"/>
    <path id="Trazado_193561" data-name="Trazado 193561" d="M0,25.564V0" transform="translate(803.838 1719.193)" fill="none" stroke="#00003e" stroke-width="2"/>
    <path id="Trazado_193562" data-name="Trazado 193562" d="M0,32.473V0" transform="translate(803.838 1645.821)" fill="none" stroke="#00003e" stroke-width="2"/>
    <path id="Trazado_188879" data-name="Trazado 188879" d="M1615,2034v11.655h300.826V2034" transform="translate(-955.924 -390.147)" fill="none" stroke="#00003e" stroke-miterlimit="10" stroke-width="2"/>
    <path id="Trazado_193563" data-name="Trazado 193563" d="M16.9,0H0" transform="translate(726.026 1698.743)" fill="none" stroke="#00003e" stroke-width="2"/>
    <path id="Trazado_193564" data-name="Trazado 193564" d="M36.69,0H0" transform="translate(586.867 1698.743)" fill="none" stroke="#00003e" stroke-width="2"/>
    <path id="Trazado_188880" data-name="Trazado 188880" d="M1422.5,2128.657v-12.782h144.763v13.858" transform="translate(-970.613 -383.9)" fill="none" stroke="#00003e" stroke-miterlimit="10" stroke-width="2"/>
    <path id="Trazado_193565" data-name="Trazado 193565" d="M0,0V11.435" transform="translate(524.269 1720.54)" fill="none" stroke="#00003e" stroke-width="2"/>
  </g>
</svg>
